M48
; DRILL file {KiCad 8.0.5} date 2025-02-16T07:28:56+0530
; FORMAT={-:-/ absolute / metric / decimal}
; #@! TF.CreationDate,2025-02-16T07:28:56+05:30
; #@! TF.GenerationSoftware,Kicad,Pcbnew,8.0.5
; #@! TF.FileFunction,Plated,1,4,PTH
FMAT,2
METRIC
; #@! TA.AperFunction,Plated,PTH,ViaDrill
T1C0.300
; #@! TA.AperFunction,Plated,PTH,ViaDrill
T2C0.400
; #@! TA.AperFunction,Plated,PTH,ComponentDrill
T3C0.500
; #@! TA.AperFunction,Plated,PTH,ComponentDrill
T4C1.000
; #@! TA.AperFunction,Plated,PTH,ComponentDrill
T5C1.200
; #@! TA.AperFunction,Plated,PTH,ComponentDrill
T6C1.400
; #@! TA.AperFunction,Plated,PTH,ComponentDrill
T7C1.500
; #@! TA.AperFunction,Plated,PTH,ComponentDrill
T8C1.600
; #@! TA.AperFunction,Plated,PTH,ComponentDrill
T9C3.200
; #@! TA.AperFunction,Plated,PTH,ComponentDrill
T10C4.500
%
G90
G05
T1
X40.123Y-40.386
X41.275Y-40.767
X42.291Y-38.227
X72.593Y-66.929
X73.431Y-66.777
T2
X26.67Y-33.02
X26.67Y-34.29
X26.67Y-35.56
X26.67Y-44.45
X26.67Y-45.72
X26.67Y-52.07
X26.67Y-59.69
X26.67Y-60.96
X26.67Y-62.23
X26.67Y-67.31
X26.67Y-68.58
X26.67Y-71.12
X26.67Y-72.39
X26.67Y-73.66
X26.67Y-76.2
X26.67Y-77.47
X27.305Y-56.972
X27.305Y-57.912
X28.194Y-56.972
X28.194Y-57.912
X29.083Y-56.972
X29.083Y-57.912
X29.21Y-34.29
X29.21Y-45.72
X29.21Y-76.2
X29.972Y-54.864
X29.972Y-55.753
X30.48Y-59.69
X30.861Y-54.864
X30.861Y-55.753
X31.09Y-44.704
X31.369Y-59.69
X31.75Y-34.29
X31.75Y-54.864
X31.75Y-76.2
X32.004Y-46.203
X32.258Y-59.69
X33.02Y-26.67
X33.02Y-83.82
X33.147Y-59.69
X34.036Y-59.69
X34.29Y-68.58
X34.29Y-71.12
X34.29Y-73.66
X34.29Y-76.2
X34.925Y-59.69
X34.925Y-60.579
X35.052Y-47.625
X35.052Y-48.514
X35.077Y-63.627
X35.56Y-62.611
X35.814Y-59.69
X35.814Y-60.579
X36.068Y-47.625
X36.068Y-48.514
X36.83Y-76.2
X37.338Y-42.774
X37.338Y-43.891
X37.338Y-44.983
X37.338Y-46.05
X37.338Y-47.117
X37.338Y-48.184
X37.541Y-66.294
X38.1Y-59.69
X38.1Y-68.58
X38.1Y-71.12
X38.1Y-83.82
X39.37Y-49.53
X39.37Y-50.8
X39.37Y-83.82
X39.751Y-66.294
X40.64Y-49.53
X40.64Y-50.8
X40.64Y-59.69
X40.64Y-71.12
X40.843Y-75.26
X41.3Y-71.933
X41.91Y-49.53
X41.91Y-50.8
X42.144Y-47.015
X43.18Y-49.53
X43.18Y-50.8
X43.18Y-52.07
X43.18Y-53.34
X43.18Y-54.61
X43.18Y-55.88
X43.18Y-59.69
X43.18Y-62.23
X43.18Y-83.82
X44.45Y-68.58
X44.45Y-71.12
X45.568Y-43.891
X45.72Y-59.69
X45.72Y-62.23
X45.72Y-83.82
X46.99Y-83.82
X47.752Y-64.694
X48.26Y-59.69
X48.26Y-62.23
X48.26Y-71.12
X48.26Y-83.82
X48.743Y-76.556
X49.53Y-83.82
X50.8Y-59.69
X50.8Y-62.23
X50.8Y-64.77
X50.8Y-67.107
X50.8Y-83.82
X52.07Y-83.82
X53.34Y-62.23
X53.34Y-83.82
X55.778Y-67.107
X55.88Y-38.1
X55.88Y-43.18
X55.88Y-52.07
X55.88Y-54.61
X56.159Y-64.364
X56.312Y-50.317
X57.15Y-83.82
X57.556Y-69.19
X57.556Y-70.561
X58.42Y-38.1
X58.42Y-43.18
X58.42Y-45.72
X58.42Y-54.61
X58.42Y-83.82
X59.69Y-54.61
X59.69Y-83.82
X60.554Y-63.144
X60.96Y-38.1
X60.96Y-43.18
X60.96Y-45.72
X60.96Y-83.82
X61.036Y-59.36
X61.849Y-49.784
X61.849Y-63.119
X61.874Y-64.287
X62.23Y-83.82
X62.611Y-71.12
X63.094Y-54.381
X63.5Y-38.1
X63.5Y-45.72
X64.237Y-43.612
X64.77Y-83.82
X64.999Y-76.175
X65.1Y-59.309
X65.43Y-75.259
X65.71Y-43.256
X66.04Y-38.1
X66.04Y-45.72
X66.04Y-57.15
X66.04Y-83.82
X66.396Y-59.563
X66.7Y-55.702
X67.005Y-36.017
X67.31Y-71.501
X67.31Y-83.82
X67.386Y-65.71
X67.412Y-64.389
X68.224Y-41.707
X68.58Y-38.1
X68.58Y-40.64
X68.58Y-45.72
X68.58Y-48.26
X68.58Y-53.34
X68.58Y-83.82
X68.834Y-68.174
X69.012Y-75.413
X69.012Y-76.556
X69.596Y-64.11
X69.825Y-60.503
X69.85Y-83.82
X70.231Y-75.438
X70.347Y-70.155
X70.434Y-66.827
X70.714Y-63.779
X70.866Y-71.298
X71.12Y-38.1
X71.12Y-40.64
X71.12Y-45.72
X71.247Y-65.989
X71.73Y-70.409
X71.755Y-75.438
X71.78Y-59.182
X71.78Y-71.958
X72.339Y-66.015
X72.415Y-58.395
X72.466Y-64.11
X73.228Y-65.38
X73.228Y-80.899
X73.381Y-52.756
X73.431Y-70.409
X73.66Y-38.1
X73.66Y-40.64
X73.66Y-45.72
X74.549Y-60.325
X74.608Y-68.631
X74.93Y-83.82
X75.057Y-69.952
X75.184Y-66.802
X75.565Y-72.542
X76.2Y-38.1
X76.2Y-40.64
X76.556Y-61.189
X76.606Y-52.857
X77.216Y-58.064
X77.445Y-36.17
X77.47Y-26.67
X77.47Y-83.82
X77.495Y-50.8
X77.546Y-53.162
X77.699Y-46.761
X77.699Y-49.759
X78.74Y-26.67
X78.74Y-38.1
X78.74Y-40.64
X78.74Y-45.72
X78.791Y-56.667
X78.918Y-36.119
X79.273Y-80.899
X80.01Y-26.67
X80.188Y-36.652
X81.28Y-26.67
X81.28Y-38.1
X81.28Y-40.64
X81.28Y-45.72
X81.28Y-48.26
X81.28Y-50.8
X81.28Y-53.34
X81.28Y-83.82
X82.245Y-68.58
X82.982Y-38.1
X84.963Y-79.121
X85.09Y-53.34
X85.09Y-54.61
X85.09Y-55.88
X85.09Y-57.15
X85.09Y-58.268
X85.471Y-75.159
X85.496Y-63.043
X85.928Y-70.282
X86.36Y-45.72
X86.462Y-76.352
X86.512Y-58.268
X86.69Y-63.475
X87.122Y-75.438
X87.63Y-26.67
X87.859Y-67.564
X87.859Y-68.529
X88.494Y-35.077
X88.494Y-38.938
X88.9Y-26.67
X88.9Y-45.72
X89.459Y-61.112
X89.459Y-62.408
X89.51Y-51.003
X89.51Y-52.222
X90.17Y-26.67
X90.17Y-74.93
X90.551Y-61.087
X90.602Y-59.969
X91.44Y-26.67
X91.44Y-40.64
X91.44Y-45.72
X91.44Y-54.254
X92.354Y-67.64
X92.507Y-51.206
X92.71Y-74.93
X92.71Y-77.47
X93.32Y-67.64
X93.828Y-79.121
X94.209Y-48.717
X94.285Y-67.64
X94.463Y-45.466
X95.199Y-48.87
X95.25Y-74.93
X95.25Y-77.343
X95.936Y-51.841
X96.139Y-54.585
X96.444Y-57.175
X96.52Y-38.1
X96.749Y-68.707
X97.536Y-53.264
X97.714Y-57.023
X97.714Y-60.884
X97.815Y-49.733
X97.815Y-50.902
X97.993Y-46.431
X98.501Y-53.264
X99.06Y-26.67
X100.305Y-59.131
X100.33Y-26.67
X100.762Y-29.591
X101.168Y-59.868
X101.397Y-49.733
X101.397Y-50.851
X101.397Y-51.968
X101.397Y-53.086
X101.397Y-54.204
X101.397Y-55.321
X101.397Y-56.439
X101.397Y-57.556
X101.6Y-26.67
X101.854Y-29.591
X102.184Y-35.128
X102.616Y-28.702
X102.743Y-60.325
X102.87Y-26.67
X102.997Y-80.899
X103.378Y-61.468
X103.454Y-35.128
X104.572Y-37.821
X104.75Y-57.48
X104.902Y-60.96
X104.927Y-41.326
X105.029Y-77.343
X105.41Y-69.85
X106.147Y-60.96
X106.172Y-67.691
X106.68Y-50.8
X106.68Y-51.816
X106.68Y-52.832
X106.68Y-53.848
X106.68Y-55.321
X106.68Y-56.49
X106.68Y-83.82
X106.731Y-59.106
X107.823Y-59.106
X107.95Y-40.64
X107.95Y-69.85
X108.255Y-46.177
X108.89Y-47.549
X110.16Y-62.586
X110.49Y-26.67
X110.49Y-83.82
X111.684Y-51.638
X111.709Y-40.996
X111.76Y-26.67
X111.76Y-45.72
X111.76Y-63.5
X111.76Y-66.04
X111.76Y-73.66
X111.76Y-83.82
X111.836Y-29.464
X112.827Y-29.439
X113.03Y-26.67
X113.081Y-41.58
X113.157Y-83.82
X113.233Y-35.306
X113.284Y-68.961
X114.3Y-26.67
X114.3Y-43.18
X114.3Y-45.72
X114.3Y-48.26
X114.3Y-57.15
X114.3Y-59.69
X114.3Y-63.5
X114.3Y-66.04
X114.3Y-68.58
X114.3Y-73.66
X114.3Y-83.82
X114.503Y-35.306
X115.57Y-83.82
X116.002Y-62.941
X116.713Y-73.66
X116.84Y-66.04
X116.84Y-68.58
X117.221Y-53.391
X117.678Y-52.299
X118.237Y-26.67
X124.333Y-33.02
X124.333Y-35.56
X124.333Y-38.1
X124.333Y-40.64
X124.333Y-44.45
X124.333Y-46.99
X124.333Y-49.53
T3
X27.318Y-29.718
X27.445Y-81.153
X28.021Y-28.021
X28.021Y-31.415
X28.148Y-79.456
X28.148Y-82.85
X29.718Y-27.318
X29.718Y-32.118
X29.845Y-78.753
X29.845Y-83.553
X30.632Y-71.78
X30.632Y-73.03
X31.415Y-28.021
X31.415Y-31.415
X31.542Y-79.456
X31.542Y-82.85
X32.118Y-29.718
X32.245Y-81.153
X45.796Y-80.391
X47.046Y-80.391
X48.296Y-80.391
X49.546Y-80.391
X50.796Y-80.391
X52.046Y-80.391
X53.296Y-80.391
X57.607Y-80.391
X58.857Y-80.391
X60.107Y-80.391
X61.357Y-80.391
X65.684Y-80.391
X66.934Y-80.391
X68.184Y-80.391
X69.434Y-80.391
X111.125Y-80.391
X112.375Y-80.391
X113.625Y-80.391
X114.875Y-80.391
X118.631Y-29.845
X118.631Y-81.153
X119.334Y-28.148
X119.334Y-31.542
X119.334Y-79.456
X119.334Y-82.85
X120.269Y-36.382
X120.269Y-37.632
X120.269Y-38.882
X120.269Y-40.132
X120.269Y-44.423
X120.269Y-45.673
X120.269Y-46.923
X120.269Y-48.173
X120.269Y-49.423
X120.269Y-50.673
X120.269Y-55.051
X120.269Y-56.301
X120.269Y-57.551
X120.269Y-58.801
X120.269Y-63.179
X120.269Y-64.429
X120.269Y-65.679
X120.269Y-66.929
X120.269Y-71.307
X120.269Y-72.557
X120.269Y-73.807
X120.269Y-75.057
X121.031Y-27.445
X121.031Y-32.245
X121.031Y-78.753
X121.031Y-83.553
X122.728Y-28.148
X122.728Y-31.542
X122.728Y-79.456
X122.728Y-82.85
X123.431Y-29.845
X123.431Y-81.153
T4
X52.451Y-27.559
X52.451Y-30.099
X52.451Y-32.639
X54.991Y-27.559
X54.991Y-30.099
X54.991Y-32.639
X57.531Y-27.559
X57.531Y-30.099
X57.531Y-32.639
X60.071Y-27.559
X60.071Y-30.099
X60.071Y-32.639
X62.611Y-27.559
X62.611Y-30.099
X62.611Y-32.639
X65.151Y-27.559
X65.151Y-30.099
X65.151Y-32.639
X67.691Y-27.559
X67.691Y-30.099
X67.691Y-32.639
X70.231Y-27.559
X70.231Y-30.099
X70.231Y-32.639
T5
X74.992Y-27.26
X82.742Y-27.26
X86.041Y-27.26
X93.791Y-27.26
X97.09Y-27.26
X104.84Y-27.26
X108.139Y-27.26
X115.889Y-27.26
T6
X75.142Y-31.06
X82.592Y-31.06
X86.191Y-31.06
X93.641Y-31.06
X97.24Y-31.06
X104.69Y-31.06
X108.289Y-31.06
X115.739Y-31.06
T7
X38.633Y-81.102
T8
X36.093Y-78.562
X36.093Y-83.642
X41.173Y-78.562
X41.173Y-83.642
T9
X29.718Y-29.718
X29.845Y-81.153
X121.031Y-29.845
X121.031Y-81.153
T10
X38.564Y-29.972
X45.764Y-29.972
M30
