%TF.GenerationSoftware,KiCad,Pcbnew,8.0.5*%
%TF.CreationDate,2025-02-16T07:29:59+05:30*%
%TF.ProjectId,Hades,48616465-732e-46b6-9963-61645f706362,rev?*%
%TF.SameCoordinates,Original*%
%TF.FileFunction,Drillmap*%
%TF.FilePolarity,Positive*%
%FSLAX45Y45*%
G04 Gerber Fmt 4.5, Leading zero omitted, Abs format (unit mm)*
G04 Created by KiCad (PCBNEW 8.0.5) date 2025-02-16 07:29:59*
%MOMM*%
%LPD*%
G01*
G04 APERTURE LIST*
%ADD10C,0.100000*%
%ADD11C,0.200000*%
%ADD12C,0.120000*%
%ADD13C,0.140000*%
%ADD14C,0.150000*%
%ADD15C,0.160000*%
%ADD16C,0.320000*%
%ADD17C,0.450000*%
G04 APERTURE END LIST*
D10*
X2908300Y-2540000D02*
X12192000Y-2540000D01*
X12547600Y-2895600D02*
X12547600Y-8204200D01*
X12192000Y-8559800D02*
X2895600Y-8559800D01*
X2540000Y-8204200D02*
X2539773Y-2895600D01*
X12547600Y-8204200D02*
G75*
G02*
X12192000Y-8559800I-355600J0D01*
G01*
X12192000Y-2540000D02*
G75*
G02*
X12547600Y-2895600I0J-355600D01*
G01*
X2539773Y-2895600D02*
G75*
G02*
X2908300Y-2540000I355827J0D01*
G01*
X2895600Y-8559800D02*
G75*
G02*
X2540000Y-8204200I0J355600D01*
G01*
D11*
D10*
X3997300Y-4023600D02*
X4027300Y-4053600D01*
X4027300Y-4023600D02*
X3997300Y-4053600D01*
X4112500Y-4061700D02*
X4142500Y-4091700D01*
X4142500Y-4061700D02*
X4112500Y-4091700D01*
X4214100Y-3807700D02*
X4244100Y-3837700D01*
X4244100Y-3807700D02*
X4214100Y-3837700D01*
X7244320Y-6677900D02*
X7274320Y-6707900D01*
X7274320Y-6677900D02*
X7244320Y-6707900D01*
X7328140Y-6662660D02*
X7358140Y-6692660D01*
X7358140Y-6662660D02*
X7328140Y-6692660D01*
X2687000Y-3302000D02*
G75*
G02*
X2647000Y-3302000I-20000J0D01*
G01*
X2647000Y-3302000D02*
G75*
G02*
X2687000Y-3302000I20000J0D01*
G01*
X2687000Y-3429000D02*
G75*
G02*
X2647000Y-3429000I-20000J0D01*
G01*
X2647000Y-3429000D02*
G75*
G02*
X2687000Y-3429000I20000J0D01*
G01*
X2687000Y-3556000D02*
G75*
G02*
X2647000Y-3556000I-20000J0D01*
G01*
X2647000Y-3556000D02*
G75*
G02*
X2687000Y-3556000I20000J0D01*
G01*
X2687000Y-4445000D02*
G75*
G02*
X2647000Y-4445000I-20000J0D01*
G01*
X2647000Y-4445000D02*
G75*
G02*
X2687000Y-4445000I20000J0D01*
G01*
X2687000Y-4572000D02*
G75*
G02*
X2647000Y-4572000I-20000J0D01*
G01*
X2647000Y-4572000D02*
G75*
G02*
X2687000Y-4572000I20000J0D01*
G01*
X2687000Y-5207000D02*
G75*
G02*
X2647000Y-5207000I-20000J0D01*
G01*
X2647000Y-5207000D02*
G75*
G02*
X2687000Y-5207000I20000J0D01*
G01*
X2687000Y-5969000D02*
G75*
G02*
X2647000Y-5969000I-20000J0D01*
G01*
X2647000Y-5969000D02*
G75*
G02*
X2687000Y-5969000I20000J0D01*
G01*
X2687000Y-6096000D02*
G75*
G02*
X2647000Y-6096000I-20000J0D01*
G01*
X2647000Y-6096000D02*
G75*
G02*
X2687000Y-6096000I20000J0D01*
G01*
X2687000Y-6223000D02*
G75*
G02*
X2647000Y-6223000I-20000J0D01*
G01*
X2647000Y-6223000D02*
G75*
G02*
X2687000Y-6223000I20000J0D01*
G01*
X2687000Y-6731000D02*
G75*
G02*
X2647000Y-6731000I-20000J0D01*
G01*
X2647000Y-6731000D02*
G75*
G02*
X2687000Y-6731000I20000J0D01*
G01*
X2687000Y-6858000D02*
G75*
G02*
X2647000Y-6858000I-20000J0D01*
G01*
X2647000Y-6858000D02*
G75*
G02*
X2687000Y-6858000I20000J0D01*
G01*
X2687000Y-7112000D02*
G75*
G02*
X2647000Y-7112000I-20000J0D01*
G01*
X2647000Y-7112000D02*
G75*
G02*
X2687000Y-7112000I20000J0D01*
G01*
X2687000Y-7239000D02*
G75*
G02*
X2647000Y-7239000I-20000J0D01*
G01*
X2647000Y-7239000D02*
G75*
G02*
X2687000Y-7239000I20000J0D01*
G01*
X2687000Y-7366000D02*
G75*
G02*
X2647000Y-7366000I-20000J0D01*
G01*
X2647000Y-7366000D02*
G75*
G02*
X2687000Y-7366000I20000J0D01*
G01*
X2687000Y-7620000D02*
G75*
G02*
X2647000Y-7620000I-20000J0D01*
G01*
X2647000Y-7620000D02*
G75*
G02*
X2687000Y-7620000I20000J0D01*
G01*
X2687000Y-7747000D02*
G75*
G02*
X2647000Y-7747000I-20000J0D01*
G01*
X2647000Y-7747000D02*
G75*
G02*
X2687000Y-7747000I20000J0D01*
G01*
X2750500Y-5697220D02*
G75*
G02*
X2710500Y-5697220I-20000J0D01*
G01*
X2710500Y-5697220D02*
G75*
G02*
X2750500Y-5697220I20000J0D01*
G01*
X2750500Y-5791200D02*
G75*
G02*
X2710500Y-5791200I-20000J0D01*
G01*
X2710500Y-5791200D02*
G75*
G02*
X2750500Y-5791200I20000J0D01*
G01*
X2839400Y-5697220D02*
G75*
G02*
X2799400Y-5697220I-20000J0D01*
G01*
X2799400Y-5697220D02*
G75*
G02*
X2839400Y-5697220I20000J0D01*
G01*
X2839400Y-5791200D02*
G75*
G02*
X2799400Y-5791200I-20000J0D01*
G01*
X2799400Y-5791200D02*
G75*
G02*
X2839400Y-5791200I20000J0D01*
G01*
X2928300Y-5697220D02*
G75*
G02*
X2888300Y-5697220I-20000J0D01*
G01*
X2888300Y-5697220D02*
G75*
G02*
X2928300Y-5697220I20000J0D01*
G01*
X2928300Y-5791200D02*
G75*
G02*
X2888300Y-5791200I-20000J0D01*
G01*
X2888300Y-5791200D02*
G75*
G02*
X2928300Y-5791200I20000J0D01*
G01*
X2941000Y-3429000D02*
G75*
G02*
X2901000Y-3429000I-20000J0D01*
G01*
X2901000Y-3429000D02*
G75*
G02*
X2941000Y-3429000I20000J0D01*
G01*
X2941000Y-4572000D02*
G75*
G02*
X2901000Y-4572000I-20000J0D01*
G01*
X2901000Y-4572000D02*
G75*
G02*
X2941000Y-4572000I20000J0D01*
G01*
X2941000Y-7620000D02*
G75*
G02*
X2901000Y-7620000I-20000J0D01*
G01*
X2901000Y-7620000D02*
G75*
G02*
X2941000Y-7620000I20000J0D01*
G01*
X3017200Y-5486400D02*
G75*
G02*
X2977200Y-5486400I-20000J0D01*
G01*
X2977200Y-5486400D02*
G75*
G02*
X3017200Y-5486400I20000J0D01*
G01*
X3017200Y-5575300D02*
G75*
G02*
X2977200Y-5575300I-20000J0D01*
G01*
X2977200Y-5575300D02*
G75*
G02*
X3017200Y-5575300I20000J0D01*
G01*
X3068000Y-5969000D02*
G75*
G02*
X3028000Y-5969000I-20000J0D01*
G01*
X3028000Y-5969000D02*
G75*
G02*
X3068000Y-5969000I20000J0D01*
G01*
X3106100Y-5486400D02*
G75*
G02*
X3066100Y-5486400I-20000J0D01*
G01*
X3066100Y-5486400D02*
G75*
G02*
X3106100Y-5486400I20000J0D01*
G01*
X3106100Y-5575300D02*
G75*
G02*
X3066100Y-5575300I-20000J0D01*
G01*
X3066100Y-5575300D02*
G75*
G02*
X3106100Y-5575300I20000J0D01*
G01*
X3128960Y-4470400D02*
G75*
G02*
X3088960Y-4470400I-20000J0D01*
G01*
X3088960Y-4470400D02*
G75*
G02*
X3128960Y-4470400I20000J0D01*
G01*
X3156900Y-5969000D02*
G75*
G02*
X3116900Y-5969000I-20000J0D01*
G01*
X3116900Y-5969000D02*
G75*
G02*
X3156900Y-5969000I20000J0D01*
G01*
X3195000Y-3429000D02*
G75*
G02*
X3155000Y-3429000I-20000J0D01*
G01*
X3155000Y-3429000D02*
G75*
G02*
X3195000Y-3429000I20000J0D01*
G01*
X3195000Y-5486400D02*
G75*
G02*
X3155000Y-5486400I-20000J0D01*
G01*
X3155000Y-5486400D02*
G75*
G02*
X3195000Y-5486400I20000J0D01*
G01*
X3195000Y-7620000D02*
G75*
G02*
X3155000Y-7620000I-20000J0D01*
G01*
X3155000Y-7620000D02*
G75*
G02*
X3195000Y-7620000I20000J0D01*
G01*
X3220400Y-4620260D02*
G75*
G02*
X3180400Y-4620260I-20000J0D01*
G01*
X3180400Y-4620260D02*
G75*
G02*
X3220400Y-4620260I20000J0D01*
G01*
X3245800Y-5969000D02*
G75*
G02*
X3205800Y-5969000I-20000J0D01*
G01*
X3205800Y-5969000D02*
G75*
G02*
X3245800Y-5969000I20000J0D01*
G01*
X3322000Y-2667000D02*
G75*
G02*
X3282000Y-2667000I-20000J0D01*
G01*
X3282000Y-2667000D02*
G75*
G02*
X3322000Y-2667000I20000J0D01*
G01*
X3322000Y-8382000D02*
G75*
G02*
X3282000Y-8382000I-20000J0D01*
G01*
X3282000Y-8382000D02*
G75*
G02*
X3322000Y-8382000I20000J0D01*
G01*
X3334700Y-5969000D02*
G75*
G02*
X3294700Y-5969000I-20000J0D01*
G01*
X3294700Y-5969000D02*
G75*
G02*
X3334700Y-5969000I20000J0D01*
G01*
X3423600Y-5969000D02*
G75*
G02*
X3383600Y-5969000I-20000J0D01*
G01*
X3383600Y-5969000D02*
G75*
G02*
X3423600Y-5969000I20000J0D01*
G01*
X3449000Y-6858000D02*
G75*
G02*
X3409000Y-6858000I-20000J0D01*
G01*
X3409000Y-6858000D02*
G75*
G02*
X3449000Y-6858000I20000J0D01*
G01*
X3449000Y-7112000D02*
G75*
G02*
X3409000Y-7112000I-20000J0D01*
G01*
X3409000Y-7112000D02*
G75*
G02*
X3449000Y-7112000I20000J0D01*
G01*
X3449000Y-7366000D02*
G75*
G02*
X3409000Y-7366000I-20000J0D01*
G01*
X3409000Y-7366000D02*
G75*
G02*
X3449000Y-7366000I20000J0D01*
G01*
X3449000Y-7620000D02*
G75*
G02*
X3409000Y-7620000I-20000J0D01*
G01*
X3409000Y-7620000D02*
G75*
G02*
X3449000Y-7620000I20000J0D01*
G01*
X3512500Y-5969000D02*
G75*
G02*
X3472500Y-5969000I-20000J0D01*
G01*
X3472500Y-5969000D02*
G75*
G02*
X3512500Y-5969000I20000J0D01*
G01*
X3512500Y-6057900D02*
G75*
G02*
X3472500Y-6057900I-20000J0D01*
G01*
X3472500Y-6057900D02*
G75*
G02*
X3512500Y-6057900I20000J0D01*
G01*
X3525200Y-4762500D02*
G75*
G02*
X3485200Y-4762500I-20000J0D01*
G01*
X3485200Y-4762500D02*
G75*
G02*
X3525200Y-4762500I20000J0D01*
G01*
X3525200Y-4851400D02*
G75*
G02*
X3485200Y-4851400I-20000J0D01*
G01*
X3485200Y-4851400D02*
G75*
G02*
X3525200Y-4851400I20000J0D01*
G01*
X3527740Y-6362700D02*
G75*
G02*
X3487740Y-6362700I-20000J0D01*
G01*
X3487740Y-6362700D02*
G75*
G02*
X3527740Y-6362700I20000J0D01*
G01*
X3576000Y-6261100D02*
G75*
G02*
X3536000Y-6261100I-20000J0D01*
G01*
X3536000Y-6261100D02*
G75*
G02*
X3576000Y-6261100I20000J0D01*
G01*
X3601400Y-5969000D02*
G75*
G02*
X3561400Y-5969000I-20000J0D01*
G01*
X3561400Y-5969000D02*
G75*
G02*
X3601400Y-5969000I20000J0D01*
G01*
X3601400Y-6057900D02*
G75*
G02*
X3561400Y-6057900I-20000J0D01*
G01*
X3561400Y-6057900D02*
G75*
G02*
X3601400Y-6057900I20000J0D01*
G01*
X3626800Y-4762500D02*
G75*
G02*
X3586800Y-4762500I-20000J0D01*
G01*
X3586800Y-4762500D02*
G75*
G02*
X3626800Y-4762500I20000J0D01*
G01*
X3626800Y-4851400D02*
G75*
G02*
X3586800Y-4851400I-20000J0D01*
G01*
X3586800Y-4851400D02*
G75*
G02*
X3626800Y-4851400I20000J0D01*
G01*
X3703000Y-7620000D02*
G75*
G02*
X3663000Y-7620000I-20000J0D01*
G01*
X3663000Y-7620000D02*
G75*
G02*
X3703000Y-7620000I20000J0D01*
G01*
X3753800Y-4277360D02*
G75*
G02*
X3713800Y-4277360I-20000J0D01*
G01*
X3713800Y-4277360D02*
G75*
G02*
X3753800Y-4277360I20000J0D01*
G01*
X3753800Y-4389120D02*
G75*
G02*
X3713800Y-4389120I-20000J0D01*
G01*
X3713800Y-4389120D02*
G75*
G02*
X3753800Y-4389120I20000J0D01*
G01*
X3753800Y-4498340D02*
G75*
G02*
X3713800Y-4498340I-20000J0D01*
G01*
X3713800Y-4498340D02*
G75*
G02*
X3753800Y-4498340I20000J0D01*
G01*
X3753800Y-4605020D02*
G75*
G02*
X3713800Y-4605020I-20000J0D01*
G01*
X3713800Y-4605020D02*
G75*
G02*
X3753800Y-4605020I20000J0D01*
G01*
X3753800Y-4711700D02*
G75*
G02*
X3713800Y-4711700I-20000J0D01*
G01*
X3713800Y-4711700D02*
G75*
G02*
X3753800Y-4711700I20000J0D01*
G01*
X3753800Y-4818380D02*
G75*
G02*
X3713800Y-4818380I-20000J0D01*
G01*
X3713800Y-4818380D02*
G75*
G02*
X3753800Y-4818380I20000J0D01*
G01*
X3774120Y-6629400D02*
G75*
G02*
X3734120Y-6629400I-20000J0D01*
G01*
X3734120Y-6629400D02*
G75*
G02*
X3774120Y-6629400I20000J0D01*
G01*
X3830000Y-5969000D02*
G75*
G02*
X3790000Y-5969000I-20000J0D01*
G01*
X3790000Y-5969000D02*
G75*
G02*
X3830000Y-5969000I20000J0D01*
G01*
X3830000Y-6858000D02*
G75*
G02*
X3790000Y-6858000I-20000J0D01*
G01*
X3790000Y-6858000D02*
G75*
G02*
X3830000Y-6858000I20000J0D01*
G01*
X3830000Y-7112000D02*
G75*
G02*
X3790000Y-7112000I-20000J0D01*
G01*
X3790000Y-7112000D02*
G75*
G02*
X3830000Y-7112000I20000J0D01*
G01*
X3830000Y-8382000D02*
G75*
G02*
X3790000Y-8382000I-20000J0D01*
G01*
X3790000Y-8382000D02*
G75*
G02*
X3830000Y-8382000I20000J0D01*
G01*
X3957000Y-4953000D02*
G75*
G02*
X3917000Y-4953000I-20000J0D01*
G01*
X3917000Y-4953000D02*
G75*
G02*
X3957000Y-4953000I20000J0D01*
G01*
X3957000Y-5080000D02*
G75*
G02*
X3917000Y-5080000I-20000J0D01*
G01*
X3917000Y-5080000D02*
G75*
G02*
X3957000Y-5080000I20000J0D01*
G01*
X3957000Y-8382000D02*
G75*
G02*
X3917000Y-8382000I-20000J0D01*
G01*
X3917000Y-8382000D02*
G75*
G02*
X3957000Y-8382000I20000J0D01*
G01*
X3995100Y-6629400D02*
G75*
G02*
X3955100Y-6629400I-20000J0D01*
G01*
X3955100Y-6629400D02*
G75*
G02*
X3995100Y-6629400I20000J0D01*
G01*
X4084000Y-4953000D02*
G75*
G02*
X4044000Y-4953000I-20000J0D01*
G01*
X4044000Y-4953000D02*
G75*
G02*
X4084000Y-4953000I20000J0D01*
G01*
X4084000Y-5080000D02*
G75*
G02*
X4044000Y-5080000I-20000J0D01*
G01*
X4044000Y-5080000D02*
G75*
G02*
X4084000Y-5080000I20000J0D01*
G01*
X4084000Y-5969000D02*
G75*
G02*
X4044000Y-5969000I-20000J0D01*
G01*
X4044000Y-5969000D02*
G75*
G02*
X4084000Y-5969000I20000J0D01*
G01*
X4084000Y-7112000D02*
G75*
G02*
X4044000Y-7112000I-20000J0D01*
G01*
X4044000Y-7112000D02*
G75*
G02*
X4084000Y-7112000I20000J0D01*
G01*
X4104320Y-7526020D02*
G75*
G02*
X4064320Y-7526020I-20000J0D01*
G01*
X4064320Y-7526020D02*
G75*
G02*
X4104320Y-7526020I20000J0D01*
G01*
X4150040Y-7193280D02*
G75*
G02*
X4110040Y-7193280I-20000J0D01*
G01*
X4110040Y-7193280D02*
G75*
G02*
X4150040Y-7193280I20000J0D01*
G01*
X4211000Y-4953000D02*
G75*
G02*
X4171000Y-4953000I-20000J0D01*
G01*
X4171000Y-4953000D02*
G75*
G02*
X4211000Y-4953000I20000J0D01*
G01*
X4211000Y-5080000D02*
G75*
G02*
X4171000Y-5080000I-20000J0D01*
G01*
X4171000Y-5080000D02*
G75*
G02*
X4211000Y-5080000I20000J0D01*
G01*
X4234360Y-4701540D02*
G75*
G02*
X4194360Y-4701540I-20000J0D01*
G01*
X4194360Y-4701540D02*
G75*
G02*
X4234360Y-4701540I20000J0D01*
G01*
X4338000Y-4953000D02*
G75*
G02*
X4298000Y-4953000I-20000J0D01*
G01*
X4298000Y-4953000D02*
G75*
G02*
X4338000Y-4953000I20000J0D01*
G01*
X4338000Y-5080000D02*
G75*
G02*
X4298000Y-5080000I-20000J0D01*
G01*
X4298000Y-5080000D02*
G75*
G02*
X4338000Y-5080000I20000J0D01*
G01*
X4338000Y-5207000D02*
G75*
G02*
X4298000Y-5207000I-20000J0D01*
G01*
X4298000Y-5207000D02*
G75*
G02*
X4338000Y-5207000I20000J0D01*
G01*
X4338000Y-5334000D02*
G75*
G02*
X4298000Y-5334000I-20000J0D01*
G01*
X4298000Y-5334000D02*
G75*
G02*
X4338000Y-5334000I20000J0D01*
G01*
X4338000Y-5461000D02*
G75*
G02*
X4298000Y-5461000I-20000J0D01*
G01*
X4298000Y-5461000D02*
G75*
G02*
X4338000Y-5461000I20000J0D01*
G01*
X4338000Y-5588000D02*
G75*
G02*
X4298000Y-5588000I-20000J0D01*
G01*
X4298000Y-5588000D02*
G75*
G02*
X4338000Y-5588000I20000J0D01*
G01*
X4338000Y-5969000D02*
G75*
G02*
X4298000Y-5969000I-20000J0D01*
G01*
X4298000Y-5969000D02*
G75*
G02*
X4338000Y-5969000I20000J0D01*
G01*
X4338000Y-6223000D02*
G75*
G02*
X4298000Y-6223000I-20000J0D01*
G01*
X4298000Y-6223000D02*
G75*
G02*
X4338000Y-6223000I20000J0D01*
G01*
X4338000Y-8382000D02*
G75*
G02*
X4298000Y-8382000I-20000J0D01*
G01*
X4298000Y-8382000D02*
G75*
G02*
X4338000Y-8382000I20000J0D01*
G01*
X4465000Y-6858000D02*
G75*
G02*
X4425000Y-6858000I-20000J0D01*
G01*
X4425000Y-6858000D02*
G75*
G02*
X4465000Y-6858000I20000J0D01*
G01*
X4465000Y-7112000D02*
G75*
G02*
X4425000Y-7112000I-20000J0D01*
G01*
X4425000Y-7112000D02*
G75*
G02*
X4465000Y-7112000I20000J0D01*
G01*
X4576760Y-4389120D02*
G75*
G02*
X4536760Y-4389120I-20000J0D01*
G01*
X4536760Y-4389120D02*
G75*
G02*
X4576760Y-4389120I20000J0D01*
G01*
X4592000Y-5969000D02*
G75*
G02*
X4552000Y-5969000I-20000J0D01*
G01*
X4552000Y-5969000D02*
G75*
G02*
X4592000Y-5969000I20000J0D01*
G01*
X4592000Y-6223000D02*
G75*
G02*
X4552000Y-6223000I-20000J0D01*
G01*
X4552000Y-6223000D02*
G75*
G02*
X4592000Y-6223000I20000J0D01*
G01*
X4592000Y-8382000D02*
G75*
G02*
X4552000Y-8382000I-20000J0D01*
G01*
X4552000Y-8382000D02*
G75*
G02*
X4592000Y-8382000I20000J0D01*
G01*
X4719000Y-8382000D02*
G75*
G02*
X4679000Y-8382000I-20000J0D01*
G01*
X4679000Y-8382000D02*
G75*
G02*
X4719000Y-8382000I20000J0D01*
G01*
X4795200Y-6469380D02*
G75*
G02*
X4755200Y-6469380I-20000J0D01*
G01*
X4755200Y-6469380D02*
G75*
G02*
X4795200Y-6469380I20000J0D01*
G01*
X4846000Y-5969000D02*
G75*
G02*
X4806000Y-5969000I-20000J0D01*
G01*
X4806000Y-5969000D02*
G75*
G02*
X4846000Y-5969000I20000J0D01*
G01*
X4846000Y-6223000D02*
G75*
G02*
X4806000Y-6223000I-20000J0D01*
G01*
X4806000Y-6223000D02*
G75*
G02*
X4846000Y-6223000I20000J0D01*
G01*
X4846000Y-7112000D02*
G75*
G02*
X4806000Y-7112000I-20000J0D01*
G01*
X4806000Y-7112000D02*
G75*
G02*
X4846000Y-7112000I20000J0D01*
G01*
X4846000Y-8382000D02*
G75*
G02*
X4806000Y-8382000I-20000J0D01*
G01*
X4806000Y-8382000D02*
G75*
G02*
X4846000Y-8382000I20000J0D01*
G01*
X4894260Y-7655560D02*
G75*
G02*
X4854260Y-7655560I-20000J0D01*
G01*
X4854260Y-7655560D02*
G75*
G02*
X4894260Y-7655560I20000J0D01*
G01*
X4973000Y-8382000D02*
G75*
G02*
X4933000Y-8382000I-20000J0D01*
G01*
X4933000Y-8382000D02*
G75*
G02*
X4973000Y-8382000I20000J0D01*
G01*
X5100000Y-5969000D02*
G75*
G02*
X5060000Y-5969000I-20000J0D01*
G01*
X5060000Y-5969000D02*
G75*
G02*
X5100000Y-5969000I20000J0D01*
G01*
X5100000Y-6223000D02*
G75*
G02*
X5060000Y-6223000I-20000J0D01*
G01*
X5060000Y-6223000D02*
G75*
G02*
X5100000Y-6223000I20000J0D01*
G01*
X5100000Y-6477000D02*
G75*
G02*
X5060000Y-6477000I-20000J0D01*
G01*
X5060000Y-6477000D02*
G75*
G02*
X5100000Y-6477000I20000J0D01*
G01*
X5100000Y-6710680D02*
G75*
G02*
X5060000Y-6710680I-20000J0D01*
G01*
X5060000Y-6710680D02*
G75*
G02*
X5100000Y-6710680I20000J0D01*
G01*
X5100000Y-8382000D02*
G75*
G02*
X5060000Y-8382000I-20000J0D01*
G01*
X5060000Y-8382000D02*
G75*
G02*
X5100000Y-8382000I20000J0D01*
G01*
X5227000Y-8382000D02*
G75*
G02*
X5187000Y-8382000I-20000J0D01*
G01*
X5187000Y-8382000D02*
G75*
G02*
X5227000Y-8382000I20000J0D01*
G01*
X5354000Y-6223000D02*
G75*
G02*
X5314000Y-6223000I-20000J0D01*
G01*
X5314000Y-6223000D02*
G75*
G02*
X5354000Y-6223000I20000J0D01*
G01*
X5354000Y-8382000D02*
G75*
G02*
X5314000Y-8382000I-20000J0D01*
G01*
X5314000Y-8382000D02*
G75*
G02*
X5354000Y-8382000I20000J0D01*
G01*
X5597840Y-6710680D02*
G75*
G02*
X5557840Y-6710680I-20000J0D01*
G01*
X5557840Y-6710680D02*
G75*
G02*
X5597840Y-6710680I20000J0D01*
G01*
X5608000Y-3810000D02*
G75*
G02*
X5568000Y-3810000I-20000J0D01*
G01*
X5568000Y-3810000D02*
G75*
G02*
X5608000Y-3810000I20000J0D01*
G01*
X5608000Y-4318000D02*
G75*
G02*
X5568000Y-4318000I-20000J0D01*
G01*
X5568000Y-4318000D02*
G75*
G02*
X5608000Y-4318000I20000J0D01*
G01*
X5608000Y-5207000D02*
G75*
G02*
X5568000Y-5207000I-20000J0D01*
G01*
X5568000Y-5207000D02*
G75*
G02*
X5608000Y-5207000I20000J0D01*
G01*
X5608000Y-5461000D02*
G75*
G02*
X5568000Y-5461000I-20000J0D01*
G01*
X5568000Y-5461000D02*
G75*
G02*
X5608000Y-5461000I20000J0D01*
G01*
X5635940Y-6436360D02*
G75*
G02*
X5595940Y-6436360I-20000J0D01*
G01*
X5595940Y-6436360D02*
G75*
G02*
X5635940Y-6436360I20000J0D01*
G01*
X5651180Y-5031740D02*
G75*
G02*
X5611180Y-5031740I-20000J0D01*
G01*
X5611180Y-5031740D02*
G75*
G02*
X5651180Y-5031740I20000J0D01*
G01*
X5735000Y-8382000D02*
G75*
G02*
X5695000Y-8382000I-20000J0D01*
G01*
X5695000Y-8382000D02*
G75*
G02*
X5735000Y-8382000I20000J0D01*
G01*
X5775640Y-6918960D02*
G75*
G02*
X5735640Y-6918960I-20000J0D01*
G01*
X5735640Y-6918960D02*
G75*
G02*
X5775640Y-6918960I20000J0D01*
G01*
X5775640Y-7056120D02*
G75*
G02*
X5735640Y-7056120I-20000J0D01*
G01*
X5735640Y-7056120D02*
G75*
G02*
X5775640Y-7056120I20000J0D01*
G01*
X5862000Y-3810000D02*
G75*
G02*
X5822000Y-3810000I-20000J0D01*
G01*
X5822000Y-3810000D02*
G75*
G02*
X5862000Y-3810000I20000J0D01*
G01*
X5862000Y-4318000D02*
G75*
G02*
X5822000Y-4318000I-20000J0D01*
G01*
X5822000Y-4318000D02*
G75*
G02*
X5862000Y-4318000I20000J0D01*
G01*
X5862000Y-4572000D02*
G75*
G02*
X5822000Y-4572000I-20000J0D01*
G01*
X5822000Y-4572000D02*
G75*
G02*
X5862000Y-4572000I20000J0D01*
G01*
X5862000Y-5461000D02*
G75*
G02*
X5822000Y-5461000I-20000J0D01*
G01*
X5822000Y-5461000D02*
G75*
G02*
X5862000Y-5461000I20000J0D01*
G01*
X5862000Y-8382000D02*
G75*
G02*
X5822000Y-8382000I-20000J0D01*
G01*
X5822000Y-8382000D02*
G75*
G02*
X5862000Y-8382000I20000J0D01*
G01*
X5989000Y-5461000D02*
G75*
G02*
X5949000Y-5461000I-20000J0D01*
G01*
X5949000Y-5461000D02*
G75*
G02*
X5989000Y-5461000I20000J0D01*
G01*
X5989000Y-8382000D02*
G75*
G02*
X5949000Y-8382000I-20000J0D01*
G01*
X5949000Y-8382000D02*
G75*
G02*
X5989000Y-8382000I20000J0D01*
G01*
X6075360Y-6314440D02*
G75*
G02*
X6035360Y-6314440I-20000J0D01*
G01*
X6035360Y-6314440D02*
G75*
G02*
X6075360Y-6314440I20000J0D01*
G01*
X6116000Y-3810000D02*
G75*
G02*
X6076000Y-3810000I-20000J0D01*
G01*
X6076000Y-3810000D02*
G75*
G02*
X6116000Y-3810000I20000J0D01*
G01*
X6116000Y-4318000D02*
G75*
G02*
X6076000Y-4318000I-20000J0D01*
G01*
X6076000Y-4318000D02*
G75*
G02*
X6116000Y-4318000I20000J0D01*
G01*
X6116000Y-4572000D02*
G75*
G02*
X6076000Y-4572000I-20000J0D01*
G01*
X6076000Y-4572000D02*
G75*
G02*
X6116000Y-4572000I20000J0D01*
G01*
X6116000Y-8382000D02*
G75*
G02*
X6076000Y-8382000I-20000J0D01*
G01*
X6076000Y-8382000D02*
G75*
G02*
X6116000Y-8382000I20000J0D01*
G01*
X6123620Y-5935980D02*
G75*
G02*
X6083620Y-5935980I-20000J0D01*
G01*
X6083620Y-5935980D02*
G75*
G02*
X6123620Y-5935980I20000J0D01*
G01*
X6204900Y-4978400D02*
G75*
G02*
X6164900Y-4978400I-20000J0D01*
G01*
X6164900Y-4978400D02*
G75*
G02*
X6204900Y-4978400I20000J0D01*
G01*
X6204900Y-6311900D02*
G75*
G02*
X6164900Y-6311900I-20000J0D01*
G01*
X6164900Y-6311900D02*
G75*
G02*
X6204900Y-6311900I20000J0D01*
G01*
X6207440Y-6428740D02*
G75*
G02*
X6167440Y-6428740I-20000J0D01*
G01*
X6167440Y-6428740D02*
G75*
G02*
X6207440Y-6428740I20000J0D01*
G01*
X6243000Y-8382000D02*
G75*
G02*
X6203000Y-8382000I-20000J0D01*
G01*
X6203000Y-8382000D02*
G75*
G02*
X6243000Y-8382000I20000J0D01*
G01*
X6281100Y-7112000D02*
G75*
G02*
X6241100Y-7112000I-20000J0D01*
G01*
X6241100Y-7112000D02*
G75*
G02*
X6281100Y-7112000I20000J0D01*
G01*
X6329360Y-5438140D02*
G75*
G02*
X6289360Y-5438140I-20000J0D01*
G01*
X6289360Y-5438140D02*
G75*
G02*
X6329360Y-5438140I20000J0D01*
G01*
X6370000Y-3810000D02*
G75*
G02*
X6330000Y-3810000I-20000J0D01*
G01*
X6330000Y-3810000D02*
G75*
G02*
X6370000Y-3810000I20000J0D01*
G01*
X6370000Y-4572000D02*
G75*
G02*
X6330000Y-4572000I-20000J0D01*
G01*
X6330000Y-4572000D02*
G75*
G02*
X6370000Y-4572000I20000J0D01*
G01*
X6443660Y-4361180D02*
G75*
G02*
X6403660Y-4361180I-20000J0D01*
G01*
X6403660Y-4361180D02*
G75*
G02*
X6443660Y-4361180I20000J0D01*
G01*
X6497000Y-8382000D02*
G75*
G02*
X6457000Y-8382000I-20000J0D01*
G01*
X6457000Y-8382000D02*
G75*
G02*
X6497000Y-8382000I20000J0D01*
G01*
X6519860Y-7617460D02*
G75*
G02*
X6479860Y-7617460I-20000J0D01*
G01*
X6479860Y-7617460D02*
G75*
G02*
X6519860Y-7617460I20000J0D01*
G01*
X6530020Y-5930900D02*
G75*
G02*
X6490020Y-5930900I-20000J0D01*
G01*
X6490020Y-5930900D02*
G75*
G02*
X6530020Y-5930900I20000J0D01*
G01*
X6563040Y-7525880D02*
G75*
G02*
X6523040Y-7525880I-20000J0D01*
G01*
X6523040Y-7525880D02*
G75*
G02*
X6563040Y-7525880I20000J0D01*
G01*
X6590980Y-4325620D02*
G75*
G02*
X6550980Y-4325620I-20000J0D01*
G01*
X6550980Y-4325620D02*
G75*
G02*
X6590980Y-4325620I20000J0D01*
G01*
X6624000Y-3810000D02*
G75*
G02*
X6584000Y-3810000I-20000J0D01*
G01*
X6584000Y-3810000D02*
G75*
G02*
X6624000Y-3810000I20000J0D01*
G01*
X6624000Y-4572000D02*
G75*
G02*
X6584000Y-4572000I-20000J0D01*
G01*
X6584000Y-4572000D02*
G75*
G02*
X6624000Y-4572000I20000J0D01*
G01*
X6624000Y-5715000D02*
G75*
G02*
X6584000Y-5715000I-20000J0D01*
G01*
X6584000Y-5715000D02*
G75*
G02*
X6624000Y-5715000I20000J0D01*
G01*
X6624000Y-8382000D02*
G75*
G02*
X6584000Y-8382000I-20000J0D01*
G01*
X6584000Y-8382000D02*
G75*
G02*
X6624000Y-8382000I20000J0D01*
G01*
X6659560Y-5956300D02*
G75*
G02*
X6619560Y-5956300I-20000J0D01*
G01*
X6619560Y-5956300D02*
G75*
G02*
X6659560Y-5956300I20000J0D01*
G01*
X6690040Y-5570220D02*
G75*
G02*
X6650040Y-5570220I-20000J0D01*
G01*
X6650040Y-5570220D02*
G75*
G02*
X6690040Y-5570220I20000J0D01*
G01*
X6720520Y-3601720D02*
G75*
G02*
X6680520Y-3601720I-20000J0D01*
G01*
X6680520Y-3601720D02*
G75*
G02*
X6720520Y-3601720I20000J0D01*
G01*
X6751000Y-7150100D02*
G75*
G02*
X6711000Y-7150100I-20000J0D01*
G01*
X6711000Y-7150100D02*
G75*
G02*
X6751000Y-7150100I20000J0D01*
G01*
X6751000Y-8382000D02*
G75*
G02*
X6711000Y-8382000I-20000J0D01*
G01*
X6711000Y-8382000D02*
G75*
G02*
X6751000Y-8382000I20000J0D01*
G01*
X6758620Y-6570980D02*
G75*
G02*
X6718620Y-6570980I-20000J0D01*
G01*
X6718620Y-6570980D02*
G75*
G02*
X6758620Y-6570980I20000J0D01*
G01*
X6761160Y-6438900D02*
G75*
G02*
X6721160Y-6438900I-20000J0D01*
G01*
X6721160Y-6438900D02*
G75*
G02*
X6761160Y-6438900I20000J0D01*
G01*
X6842440Y-4170680D02*
G75*
G02*
X6802440Y-4170680I-20000J0D01*
G01*
X6802440Y-4170680D02*
G75*
G02*
X6842440Y-4170680I20000J0D01*
G01*
X6878000Y-3810000D02*
G75*
G02*
X6838000Y-3810000I-20000J0D01*
G01*
X6838000Y-3810000D02*
G75*
G02*
X6878000Y-3810000I20000J0D01*
G01*
X6878000Y-4064000D02*
G75*
G02*
X6838000Y-4064000I-20000J0D01*
G01*
X6838000Y-4064000D02*
G75*
G02*
X6878000Y-4064000I20000J0D01*
G01*
X6878000Y-4572000D02*
G75*
G02*
X6838000Y-4572000I-20000J0D01*
G01*
X6838000Y-4572000D02*
G75*
G02*
X6878000Y-4572000I20000J0D01*
G01*
X6878000Y-4826000D02*
G75*
G02*
X6838000Y-4826000I-20000J0D01*
G01*
X6838000Y-4826000D02*
G75*
G02*
X6878000Y-4826000I20000J0D01*
G01*
X6878000Y-5334000D02*
G75*
G02*
X6838000Y-5334000I-20000J0D01*
G01*
X6838000Y-5334000D02*
G75*
G02*
X6878000Y-5334000I20000J0D01*
G01*
X6878000Y-8382000D02*
G75*
G02*
X6838000Y-8382000I-20000J0D01*
G01*
X6838000Y-8382000D02*
G75*
G02*
X6878000Y-8382000I20000J0D01*
G01*
X6903400Y-6817360D02*
G75*
G02*
X6863400Y-6817360I-20000J0D01*
G01*
X6863400Y-6817360D02*
G75*
G02*
X6903400Y-6817360I20000J0D01*
G01*
X6921180Y-7541260D02*
G75*
G02*
X6881180Y-7541260I-20000J0D01*
G01*
X6881180Y-7541260D02*
G75*
G02*
X6921180Y-7541260I20000J0D01*
G01*
X6921180Y-7655560D02*
G75*
G02*
X6881180Y-7655560I-20000J0D01*
G01*
X6881180Y-7655560D02*
G75*
G02*
X6921180Y-7655560I20000J0D01*
G01*
X6979600Y-6410960D02*
G75*
G02*
X6939600Y-6410960I-20000J0D01*
G01*
X6939600Y-6410960D02*
G75*
G02*
X6979600Y-6410960I20000J0D01*
G01*
X7002460Y-6050280D02*
G75*
G02*
X6962460Y-6050280I-20000J0D01*
G01*
X6962460Y-6050280D02*
G75*
G02*
X7002460Y-6050280I20000J0D01*
G01*
X7005000Y-8382000D02*
G75*
G02*
X6965000Y-8382000I-20000J0D01*
G01*
X6965000Y-8382000D02*
G75*
G02*
X7005000Y-8382000I20000J0D01*
G01*
X7043100Y-7543800D02*
G75*
G02*
X7003100Y-7543800I-20000J0D01*
G01*
X7003100Y-7543800D02*
G75*
G02*
X7043100Y-7543800I20000J0D01*
G01*
X7054720Y-7015480D02*
G75*
G02*
X7014720Y-7015480I-20000J0D01*
G01*
X7014720Y-7015480D02*
G75*
G02*
X7054720Y-7015480I20000J0D01*
G01*
X7063420Y-6682740D02*
G75*
G02*
X7023420Y-6682740I-20000J0D01*
G01*
X7023420Y-6682740D02*
G75*
G02*
X7063420Y-6682740I20000J0D01*
G01*
X7091360Y-6377940D02*
G75*
G02*
X7051360Y-6377940I-20000J0D01*
G01*
X7051360Y-6377940D02*
G75*
G02*
X7091360Y-6377940I20000J0D01*
G01*
X7106600Y-7129780D02*
G75*
G02*
X7066600Y-7129780I-20000J0D01*
G01*
X7066600Y-7129780D02*
G75*
G02*
X7106600Y-7129780I20000J0D01*
G01*
X7132000Y-3810000D02*
G75*
G02*
X7092000Y-3810000I-20000J0D01*
G01*
X7092000Y-3810000D02*
G75*
G02*
X7132000Y-3810000I20000J0D01*
G01*
X7132000Y-4064000D02*
G75*
G02*
X7092000Y-4064000I-20000J0D01*
G01*
X7092000Y-4064000D02*
G75*
G02*
X7132000Y-4064000I20000J0D01*
G01*
X7132000Y-4572000D02*
G75*
G02*
X7092000Y-4572000I-20000J0D01*
G01*
X7092000Y-4572000D02*
G75*
G02*
X7132000Y-4572000I20000J0D01*
G01*
X7144700Y-6598920D02*
G75*
G02*
X7104700Y-6598920I-20000J0D01*
G01*
X7104700Y-6598920D02*
G75*
G02*
X7144700Y-6598920I20000J0D01*
G01*
X7192960Y-7040880D02*
G75*
G02*
X7152960Y-7040880I-20000J0D01*
G01*
X7152960Y-7040880D02*
G75*
G02*
X7192960Y-7040880I20000J0D01*
G01*
X7195500Y-7543800D02*
G75*
G02*
X7155500Y-7543800I-20000J0D01*
G01*
X7155500Y-7543800D02*
G75*
G02*
X7195500Y-7543800I20000J0D01*
G01*
X7198040Y-5918200D02*
G75*
G02*
X7158040Y-5918200I-20000J0D01*
G01*
X7158040Y-5918200D02*
G75*
G02*
X7198040Y-5918200I20000J0D01*
G01*
X7198040Y-7195820D02*
G75*
G02*
X7158040Y-7195820I-20000J0D01*
G01*
X7158040Y-7195820D02*
G75*
G02*
X7198040Y-7195820I20000J0D01*
G01*
X7253920Y-6601460D02*
G75*
G02*
X7213920Y-6601460I-20000J0D01*
G01*
X7213920Y-6601460D02*
G75*
G02*
X7253920Y-6601460I20000J0D01*
G01*
X7261540Y-5839460D02*
G75*
G02*
X7221540Y-5839460I-20000J0D01*
G01*
X7221540Y-5839460D02*
G75*
G02*
X7261540Y-5839460I20000J0D01*
G01*
X7266620Y-6410960D02*
G75*
G02*
X7226620Y-6410960I-20000J0D01*
G01*
X7226620Y-6410960D02*
G75*
G02*
X7266620Y-6410960I20000J0D01*
G01*
X7342820Y-6537960D02*
G75*
G02*
X7302820Y-6537960I-20000J0D01*
G01*
X7302820Y-6537960D02*
G75*
G02*
X7342820Y-6537960I20000J0D01*
G01*
X7342820Y-8089900D02*
G75*
G02*
X7302820Y-8089900I-20000J0D01*
G01*
X7302820Y-8089900D02*
G75*
G02*
X7342820Y-8089900I20000J0D01*
G01*
X7358060Y-5275580D02*
G75*
G02*
X7318060Y-5275580I-20000J0D01*
G01*
X7318060Y-5275580D02*
G75*
G02*
X7358060Y-5275580I20000J0D01*
G01*
X7363140Y-7040880D02*
G75*
G02*
X7323140Y-7040880I-20000J0D01*
G01*
X7323140Y-7040880D02*
G75*
G02*
X7363140Y-7040880I20000J0D01*
G01*
X7386000Y-3810000D02*
G75*
G02*
X7346000Y-3810000I-20000J0D01*
G01*
X7346000Y-3810000D02*
G75*
G02*
X7386000Y-3810000I20000J0D01*
G01*
X7386000Y-4064000D02*
G75*
G02*
X7346000Y-4064000I-20000J0D01*
G01*
X7346000Y-4064000D02*
G75*
G02*
X7386000Y-4064000I20000J0D01*
G01*
X7386000Y-4572000D02*
G75*
G02*
X7346000Y-4572000I-20000J0D01*
G01*
X7346000Y-4572000D02*
G75*
G02*
X7386000Y-4572000I20000J0D01*
G01*
X7474900Y-6032500D02*
G75*
G02*
X7434900Y-6032500I-20000J0D01*
G01*
X7434900Y-6032500D02*
G75*
G02*
X7474900Y-6032500I20000J0D01*
G01*
X7480820Y-6863080D02*
G75*
G02*
X7440820Y-6863080I-20000J0D01*
G01*
X7440820Y-6863080D02*
G75*
G02*
X7480820Y-6863080I20000J0D01*
G01*
X7513000Y-8382000D02*
G75*
G02*
X7473000Y-8382000I-20000J0D01*
G01*
X7473000Y-8382000D02*
G75*
G02*
X7513000Y-8382000I20000J0D01*
G01*
X7525700Y-6995160D02*
G75*
G02*
X7485700Y-6995160I-20000J0D01*
G01*
X7485700Y-6995160D02*
G75*
G02*
X7525700Y-6995160I20000J0D01*
G01*
X7538400Y-6680200D02*
G75*
G02*
X7498400Y-6680200I-20000J0D01*
G01*
X7498400Y-6680200D02*
G75*
G02*
X7538400Y-6680200I20000J0D01*
G01*
X7576500Y-7254240D02*
G75*
G02*
X7536500Y-7254240I-20000J0D01*
G01*
X7536500Y-7254240D02*
G75*
G02*
X7576500Y-7254240I20000J0D01*
G01*
X7640000Y-3810000D02*
G75*
G02*
X7600000Y-3810000I-20000J0D01*
G01*
X7600000Y-3810000D02*
G75*
G02*
X7640000Y-3810000I20000J0D01*
G01*
X7640000Y-4064000D02*
G75*
G02*
X7600000Y-4064000I-20000J0D01*
G01*
X7600000Y-4064000D02*
G75*
G02*
X7640000Y-4064000I20000J0D01*
G01*
X7675560Y-6118860D02*
G75*
G02*
X7635560Y-6118860I-20000J0D01*
G01*
X7635560Y-6118860D02*
G75*
G02*
X7675560Y-6118860I20000J0D01*
G01*
X7680640Y-5285740D02*
G75*
G02*
X7640640Y-5285740I-20000J0D01*
G01*
X7640640Y-5285740D02*
G75*
G02*
X7680640Y-5285740I20000J0D01*
G01*
X7741600Y-5806440D02*
G75*
G02*
X7701600Y-5806440I-20000J0D01*
G01*
X7701600Y-5806440D02*
G75*
G02*
X7741600Y-5806440I20000J0D01*
G01*
X7764460Y-3616960D02*
G75*
G02*
X7724460Y-3616960I-20000J0D01*
G01*
X7724460Y-3616960D02*
G75*
G02*
X7764460Y-3616960I20000J0D01*
G01*
X7767000Y-2667000D02*
G75*
G02*
X7727000Y-2667000I-20000J0D01*
G01*
X7727000Y-2667000D02*
G75*
G02*
X7767000Y-2667000I20000J0D01*
G01*
X7767000Y-8382000D02*
G75*
G02*
X7727000Y-8382000I-20000J0D01*
G01*
X7727000Y-8382000D02*
G75*
G02*
X7767000Y-8382000I20000J0D01*
G01*
X7769540Y-5080000D02*
G75*
G02*
X7729540Y-5080000I-20000J0D01*
G01*
X7729540Y-5080000D02*
G75*
G02*
X7769540Y-5080000I20000J0D01*
G01*
X7774620Y-5316220D02*
G75*
G02*
X7734620Y-5316220I-20000J0D01*
G01*
X7734620Y-5316220D02*
G75*
G02*
X7774620Y-5316220I20000J0D01*
G01*
X7789860Y-4676140D02*
G75*
G02*
X7749860Y-4676140I-20000J0D01*
G01*
X7749860Y-4676140D02*
G75*
G02*
X7789860Y-4676140I20000J0D01*
G01*
X7789860Y-4975860D02*
G75*
G02*
X7749860Y-4975860I-20000J0D01*
G01*
X7749860Y-4975860D02*
G75*
G02*
X7789860Y-4975860I20000J0D01*
G01*
X7894000Y-2667000D02*
G75*
G02*
X7854000Y-2667000I-20000J0D01*
G01*
X7854000Y-2667000D02*
G75*
G02*
X7894000Y-2667000I20000J0D01*
G01*
X7894000Y-3810000D02*
G75*
G02*
X7854000Y-3810000I-20000J0D01*
G01*
X7854000Y-3810000D02*
G75*
G02*
X7894000Y-3810000I20000J0D01*
G01*
X7894000Y-4064000D02*
G75*
G02*
X7854000Y-4064000I-20000J0D01*
G01*
X7854000Y-4064000D02*
G75*
G02*
X7894000Y-4064000I20000J0D01*
G01*
X7894000Y-4572000D02*
G75*
G02*
X7854000Y-4572000I-20000J0D01*
G01*
X7854000Y-4572000D02*
G75*
G02*
X7894000Y-4572000I20000J0D01*
G01*
X7899080Y-5666740D02*
G75*
G02*
X7859080Y-5666740I-20000J0D01*
G01*
X7859080Y-5666740D02*
G75*
G02*
X7899080Y-5666740I20000J0D01*
G01*
X7911780Y-3611880D02*
G75*
G02*
X7871780Y-3611880I-20000J0D01*
G01*
X7871780Y-3611880D02*
G75*
G02*
X7911780Y-3611880I20000J0D01*
G01*
X7947340Y-8089900D02*
G75*
G02*
X7907340Y-8089900I-20000J0D01*
G01*
X7907340Y-8089900D02*
G75*
G02*
X7947340Y-8089900I20000J0D01*
G01*
X8021000Y-2667000D02*
G75*
G02*
X7981000Y-2667000I-20000J0D01*
G01*
X7981000Y-2667000D02*
G75*
G02*
X8021000Y-2667000I20000J0D01*
G01*
X8038780Y-3665220D02*
G75*
G02*
X7998780Y-3665220I-20000J0D01*
G01*
X7998780Y-3665220D02*
G75*
G02*
X8038780Y-3665220I20000J0D01*
G01*
X8148000Y-2667000D02*
G75*
G02*
X8108000Y-2667000I-20000J0D01*
G01*
X8108000Y-2667000D02*
G75*
G02*
X8148000Y-2667000I20000J0D01*
G01*
X8148000Y-3810000D02*
G75*
G02*
X8108000Y-3810000I-20000J0D01*
G01*
X8108000Y-3810000D02*
G75*
G02*
X8148000Y-3810000I20000J0D01*
G01*
X8148000Y-4064000D02*
G75*
G02*
X8108000Y-4064000I-20000J0D01*
G01*
X8108000Y-4064000D02*
G75*
G02*
X8148000Y-4064000I20000J0D01*
G01*
X8148000Y-4572000D02*
G75*
G02*
X8108000Y-4572000I-20000J0D01*
G01*
X8108000Y-4572000D02*
G75*
G02*
X8148000Y-4572000I20000J0D01*
G01*
X8148000Y-4826000D02*
G75*
G02*
X8108000Y-4826000I-20000J0D01*
G01*
X8108000Y-4826000D02*
G75*
G02*
X8148000Y-4826000I20000J0D01*
G01*
X8148000Y-5080000D02*
G75*
G02*
X8108000Y-5080000I-20000J0D01*
G01*
X8108000Y-5080000D02*
G75*
G02*
X8148000Y-5080000I20000J0D01*
G01*
X8148000Y-5334000D02*
G75*
G02*
X8108000Y-5334000I-20000J0D01*
G01*
X8108000Y-5334000D02*
G75*
G02*
X8148000Y-5334000I20000J0D01*
G01*
X8148000Y-8382000D02*
G75*
G02*
X8108000Y-8382000I-20000J0D01*
G01*
X8108000Y-8382000D02*
G75*
G02*
X8148000Y-8382000I20000J0D01*
G01*
X8244520Y-6858000D02*
G75*
G02*
X8204520Y-6858000I-20000J0D01*
G01*
X8204520Y-6858000D02*
G75*
G02*
X8244520Y-6858000I20000J0D01*
G01*
X8318180Y-3810000D02*
G75*
G02*
X8278180Y-3810000I-20000J0D01*
G01*
X8278180Y-3810000D02*
G75*
G02*
X8318180Y-3810000I20000J0D01*
G01*
X8516300Y-7912100D02*
G75*
G02*
X8476300Y-7912100I-20000J0D01*
G01*
X8476300Y-7912100D02*
G75*
G02*
X8516300Y-7912100I20000J0D01*
G01*
X8529000Y-5334000D02*
G75*
G02*
X8489000Y-5334000I-20000J0D01*
G01*
X8489000Y-5334000D02*
G75*
G02*
X8529000Y-5334000I20000J0D01*
G01*
X8529000Y-5461000D02*
G75*
G02*
X8489000Y-5461000I-20000J0D01*
G01*
X8489000Y-5461000D02*
G75*
G02*
X8529000Y-5461000I20000J0D01*
G01*
X8529000Y-5588000D02*
G75*
G02*
X8489000Y-5588000I-20000J0D01*
G01*
X8489000Y-5588000D02*
G75*
G02*
X8529000Y-5588000I20000J0D01*
G01*
X8529000Y-5715000D02*
G75*
G02*
X8489000Y-5715000I-20000J0D01*
G01*
X8489000Y-5715000D02*
G75*
G02*
X8529000Y-5715000I20000J0D01*
G01*
X8529000Y-5826760D02*
G75*
G02*
X8489000Y-5826760I-20000J0D01*
G01*
X8489000Y-5826760D02*
G75*
G02*
X8529000Y-5826760I20000J0D01*
G01*
X8567100Y-7515860D02*
G75*
G02*
X8527100Y-7515860I-20000J0D01*
G01*
X8527100Y-7515860D02*
G75*
G02*
X8567100Y-7515860I20000J0D01*
G01*
X8569640Y-6304280D02*
G75*
G02*
X8529640Y-6304280I-20000J0D01*
G01*
X8529640Y-6304280D02*
G75*
G02*
X8569640Y-6304280I20000J0D01*
G01*
X8612820Y-7028180D02*
G75*
G02*
X8572820Y-7028180I-20000J0D01*
G01*
X8572820Y-7028180D02*
G75*
G02*
X8612820Y-7028180I20000J0D01*
G01*
X8656000Y-4572000D02*
G75*
G02*
X8616000Y-4572000I-20000J0D01*
G01*
X8616000Y-4572000D02*
G75*
G02*
X8656000Y-4572000I20000J0D01*
G01*
X8666160Y-7635240D02*
G75*
G02*
X8626160Y-7635240I-20000J0D01*
G01*
X8626160Y-7635240D02*
G75*
G02*
X8666160Y-7635240I20000J0D01*
G01*
X8671240Y-5826760D02*
G75*
G02*
X8631240Y-5826760I-20000J0D01*
G01*
X8631240Y-5826760D02*
G75*
G02*
X8671240Y-5826760I20000J0D01*
G01*
X8689020Y-6347460D02*
G75*
G02*
X8649020Y-6347460I-20000J0D01*
G01*
X8649020Y-6347460D02*
G75*
G02*
X8689020Y-6347460I20000J0D01*
G01*
X8732200Y-7543800D02*
G75*
G02*
X8692200Y-7543800I-20000J0D01*
G01*
X8692200Y-7543800D02*
G75*
G02*
X8732200Y-7543800I20000J0D01*
G01*
X8783000Y-2667000D02*
G75*
G02*
X8743000Y-2667000I-20000J0D01*
G01*
X8743000Y-2667000D02*
G75*
G02*
X8783000Y-2667000I20000J0D01*
G01*
X8805860Y-6756400D02*
G75*
G02*
X8765860Y-6756400I-20000J0D01*
G01*
X8765860Y-6756400D02*
G75*
G02*
X8805860Y-6756400I20000J0D01*
G01*
X8805860Y-6852920D02*
G75*
G02*
X8765860Y-6852920I-20000J0D01*
G01*
X8765860Y-6852920D02*
G75*
G02*
X8805860Y-6852920I20000J0D01*
G01*
X8869360Y-3507740D02*
G75*
G02*
X8829360Y-3507740I-20000J0D01*
G01*
X8829360Y-3507740D02*
G75*
G02*
X8869360Y-3507740I20000J0D01*
G01*
X8869360Y-3893820D02*
G75*
G02*
X8829360Y-3893820I-20000J0D01*
G01*
X8829360Y-3893820D02*
G75*
G02*
X8869360Y-3893820I20000J0D01*
G01*
X8910000Y-2667000D02*
G75*
G02*
X8870000Y-2667000I-20000J0D01*
G01*
X8870000Y-2667000D02*
G75*
G02*
X8910000Y-2667000I20000J0D01*
G01*
X8910000Y-4572000D02*
G75*
G02*
X8870000Y-4572000I-20000J0D01*
G01*
X8870000Y-4572000D02*
G75*
G02*
X8910000Y-4572000I20000J0D01*
G01*
X8965880Y-6111240D02*
G75*
G02*
X8925880Y-6111240I-20000J0D01*
G01*
X8925880Y-6111240D02*
G75*
G02*
X8965880Y-6111240I20000J0D01*
G01*
X8965880Y-6240780D02*
G75*
G02*
X8925880Y-6240780I-20000J0D01*
G01*
X8925880Y-6240780D02*
G75*
G02*
X8965880Y-6240780I20000J0D01*
G01*
X8970960Y-5100320D02*
G75*
G02*
X8930960Y-5100320I-20000J0D01*
G01*
X8930960Y-5100320D02*
G75*
G02*
X8970960Y-5100320I20000J0D01*
G01*
X8970960Y-5222240D02*
G75*
G02*
X8930960Y-5222240I-20000J0D01*
G01*
X8930960Y-5222240D02*
G75*
G02*
X8970960Y-5222240I20000J0D01*
G01*
X9037000Y-2667000D02*
G75*
G02*
X8997000Y-2667000I-20000J0D01*
G01*
X8997000Y-2667000D02*
G75*
G02*
X9037000Y-2667000I20000J0D01*
G01*
X9037000Y-7493000D02*
G75*
G02*
X8997000Y-7493000I-20000J0D01*
G01*
X8997000Y-7493000D02*
G75*
G02*
X9037000Y-7493000I20000J0D01*
G01*
X9075100Y-6108700D02*
G75*
G02*
X9035100Y-6108700I-20000J0D01*
G01*
X9035100Y-6108700D02*
G75*
G02*
X9075100Y-6108700I20000J0D01*
G01*
X9080180Y-5996940D02*
G75*
G02*
X9040180Y-5996940I-20000J0D01*
G01*
X9040180Y-5996940D02*
G75*
G02*
X9080180Y-5996940I20000J0D01*
G01*
X9164000Y-2667000D02*
G75*
G02*
X9124000Y-2667000I-20000J0D01*
G01*
X9124000Y-2667000D02*
G75*
G02*
X9164000Y-2667000I20000J0D01*
G01*
X9164000Y-4064000D02*
G75*
G02*
X9124000Y-4064000I-20000J0D01*
G01*
X9124000Y-4064000D02*
G75*
G02*
X9164000Y-4064000I20000J0D01*
G01*
X9164000Y-4572000D02*
G75*
G02*
X9124000Y-4572000I-20000J0D01*
G01*
X9124000Y-4572000D02*
G75*
G02*
X9164000Y-4572000I20000J0D01*
G01*
X9164000Y-5425440D02*
G75*
G02*
X9124000Y-5425440I-20000J0D01*
G01*
X9124000Y-5425440D02*
G75*
G02*
X9164000Y-5425440I20000J0D01*
G01*
X9255440Y-6764020D02*
G75*
G02*
X9215440Y-6764020I-20000J0D01*
G01*
X9215440Y-6764020D02*
G75*
G02*
X9255440Y-6764020I20000J0D01*
G01*
X9270680Y-5120640D02*
G75*
G02*
X9230680Y-5120640I-20000J0D01*
G01*
X9230680Y-5120640D02*
G75*
G02*
X9270680Y-5120640I20000J0D01*
G01*
X9291000Y-7493000D02*
G75*
G02*
X9251000Y-7493000I-20000J0D01*
G01*
X9251000Y-7493000D02*
G75*
G02*
X9291000Y-7493000I20000J0D01*
G01*
X9291000Y-7747000D02*
G75*
G02*
X9251000Y-7747000I-20000J0D01*
G01*
X9251000Y-7747000D02*
G75*
G02*
X9291000Y-7747000I20000J0D01*
G01*
X9351960Y-6764020D02*
G75*
G02*
X9311960Y-6764020I-20000J0D01*
G01*
X9311960Y-6764020D02*
G75*
G02*
X9351960Y-6764020I20000J0D01*
G01*
X9402760Y-7912100D02*
G75*
G02*
X9362760Y-7912100I-20000J0D01*
G01*
X9362760Y-7912100D02*
G75*
G02*
X9402760Y-7912100I20000J0D01*
G01*
X9440860Y-4871720D02*
G75*
G02*
X9400860Y-4871720I-20000J0D01*
G01*
X9400860Y-4871720D02*
G75*
G02*
X9440860Y-4871720I20000J0D01*
G01*
X9448480Y-6764020D02*
G75*
G02*
X9408480Y-6764020I-20000J0D01*
G01*
X9408480Y-6764020D02*
G75*
G02*
X9448480Y-6764020I20000J0D01*
G01*
X9466260Y-4546600D02*
G75*
G02*
X9426260Y-4546600I-20000J0D01*
G01*
X9426260Y-4546600D02*
G75*
G02*
X9466260Y-4546600I20000J0D01*
G01*
X9539920Y-4886960D02*
G75*
G02*
X9499920Y-4886960I-20000J0D01*
G01*
X9499920Y-4886960D02*
G75*
G02*
X9539920Y-4886960I20000J0D01*
G01*
X9545000Y-7493000D02*
G75*
G02*
X9505000Y-7493000I-20000J0D01*
G01*
X9505000Y-7493000D02*
G75*
G02*
X9545000Y-7493000I20000J0D01*
G01*
X9545000Y-7734300D02*
G75*
G02*
X9505000Y-7734300I-20000J0D01*
G01*
X9505000Y-7734300D02*
G75*
G02*
X9545000Y-7734300I20000J0D01*
G01*
X9613580Y-5184140D02*
G75*
G02*
X9573580Y-5184140I-20000J0D01*
G01*
X9573580Y-5184140D02*
G75*
G02*
X9613580Y-5184140I20000J0D01*
G01*
X9633900Y-5458460D02*
G75*
G02*
X9593900Y-5458460I-20000J0D01*
G01*
X9593900Y-5458460D02*
G75*
G02*
X9633900Y-5458460I20000J0D01*
G01*
X9664380Y-5717540D02*
G75*
G02*
X9624380Y-5717540I-20000J0D01*
G01*
X9624380Y-5717540D02*
G75*
G02*
X9664380Y-5717540I20000J0D01*
G01*
X9672000Y-3810000D02*
G75*
G02*
X9632000Y-3810000I-20000J0D01*
G01*
X9632000Y-3810000D02*
G75*
G02*
X9672000Y-3810000I20000J0D01*
G01*
X9694860Y-6870700D02*
G75*
G02*
X9654860Y-6870700I-20000J0D01*
G01*
X9654860Y-6870700D02*
G75*
G02*
X9694860Y-6870700I20000J0D01*
G01*
X9773600Y-5326380D02*
G75*
G02*
X9733600Y-5326380I-20000J0D01*
G01*
X9733600Y-5326380D02*
G75*
G02*
X9773600Y-5326380I20000J0D01*
G01*
X9791380Y-5702300D02*
G75*
G02*
X9751380Y-5702300I-20000J0D01*
G01*
X9751380Y-5702300D02*
G75*
G02*
X9791380Y-5702300I20000J0D01*
G01*
X9791380Y-6088380D02*
G75*
G02*
X9751380Y-6088380I-20000J0D01*
G01*
X9751380Y-6088380D02*
G75*
G02*
X9791380Y-6088380I20000J0D01*
G01*
X9801540Y-4973320D02*
G75*
G02*
X9761540Y-4973320I-20000J0D01*
G01*
X9761540Y-4973320D02*
G75*
G02*
X9801540Y-4973320I20000J0D01*
G01*
X9801540Y-5090160D02*
G75*
G02*
X9761540Y-5090160I-20000J0D01*
G01*
X9761540Y-5090160D02*
G75*
G02*
X9801540Y-5090160I20000J0D01*
G01*
X9819320Y-4643120D02*
G75*
G02*
X9779320Y-4643120I-20000J0D01*
G01*
X9779320Y-4643120D02*
G75*
G02*
X9819320Y-4643120I20000J0D01*
G01*
X9870120Y-5326380D02*
G75*
G02*
X9830120Y-5326380I-20000J0D01*
G01*
X9830120Y-5326380D02*
G75*
G02*
X9870120Y-5326380I20000J0D01*
G01*
X9926000Y-2667000D02*
G75*
G02*
X9886000Y-2667000I-20000J0D01*
G01*
X9886000Y-2667000D02*
G75*
G02*
X9926000Y-2667000I20000J0D01*
G01*
X10050460Y-5913120D02*
G75*
G02*
X10010460Y-5913120I-20000J0D01*
G01*
X10010460Y-5913120D02*
G75*
G02*
X10050460Y-5913120I20000J0D01*
G01*
X10053000Y-2667000D02*
G75*
G02*
X10013000Y-2667000I-20000J0D01*
G01*
X10013000Y-2667000D02*
G75*
G02*
X10053000Y-2667000I20000J0D01*
G01*
X10096180Y-2959100D02*
G75*
G02*
X10056180Y-2959100I-20000J0D01*
G01*
X10056180Y-2959100D02*
G75*
G02*
X10096180Y-2959100I20000J0D01*
G01*
X10136820Y-5986780D02*
G75*
G02*
X10096820Y-5986780I-20000J0D01*
G01*
X10096820Y-5986780D02*
G75*
G02*
X10136820Y-5986780I20000J0D01*
G01*
X10159680Y-4973320D02*
G75*
G02*
X10119680Y-4973320I-20000J0D01*
G01*
X10119680Y-4973320D02*
G75*
G02*
X10159680Y-4973320I20000J0D01*
G01*
X10159680Y-5085080D02*
G75*
G02*
X10119680Y-5085080I-20000J0D01*
G01*
X10119680Y-5085080D02*
G75*
G02*
X10159680Y-5085080I20000J0D01*
G01*
X10159680Y-5196840D02*
G75*
G02*
X10119680Y-5196840I-20000J0D01*
G01*
X10119680Y-5196840D02*
G75*
G02*
X10159680Y-5196840I20000J0D01*
G01*
X10159680Y-5308600D02*
G75*
G02*
X10119680Y-5308600I-20000J0D01*
G01*
X10119680Y-5308600D02*
G75*
G02*
X10159680Y-5308600I20000J0D01*
G01*
X10159680Y-5420360D02*
G75*
G02*
X10119680Y-5420360I-20000J0D01*
G01*
X10119680Y-5420360D02*
G75*
G02*
X10159680Y-5420360I20000J0D01*
G01*
X10159680Y-5532120D02*
G75*
G02*
X10119680Y-5532120I-20000J0D01*
G01*
X10119680Y-5532120D02*
G75*
G02*
X10159680Y-5532120I20000J0D01*
G01*
X10159680Y-5643880D02*
G75*
G02*
X10119680Y-5643880I-20000J0D01*
G01*
X10119680Y-5643880D02*
G75*
G02*
X10159680Y-5643880I20000J0D01*
G01*
X10159680Y-5755640D02*
G75*
G02*
X10119680Y-5755640I-20000J0D01*
G01*
X10119680Y-5755640D02*
G75*
G02*
X10159680Y-5755640I20000J0D01*
G01*
X10180000Y-2667000D02*
G75*
G02*
X10140000Y-2667000I-20000J0D01*
G01*
X10140000Y-2667000D02*
G75*
G02*
X10180000Y-2667000I20000J0D01*
G01*
X10205400Y-2959100D02*
G75*
G02*
X10165400Y-2959100I-20000J0D01*
G01*
X10165400Y-2959100D02*
G75*
G02*
X10205400Y-2959100I20000J0D01*
G01*
X10238420Y-3512820D02*
G75*
G02*
X10198420Y-3512820I-20000J0D01*
G01*
X10198420Y-3512820D02*
G75*
G02*
X10238420Y-3512820I20000J0D01*
G01*
X10281600Y-2870200D02*
G75*
G02*
X10241600Y-2870200I-20000J0D01*
G01*
X10241600Y-2870200D02*
G75*
G02*
X10281600Y-2870200I20000J0D01*
G01*
X10294300Y-6032500D02*
G75*
G02*
X10254300Y-6032500I-20000J0D01*
G01*
X10254300Y-6032500D02*
G75*
G02*
X10294300Y-6032500I20000J0D01*
G01*
X10307000Y-2667000D02*
G75*
G02*
X10267000Y-2667000I-20000J0D01*
G01*
X10267000Y-2667000D02*
G75*
G02*
X10307000Y-2667000I20000J0D01*
G01*
X10319700Y-8089900D02*
G75*
G02*
X10279700Y-8089900I-20000J0D01*
G01*
X10279700Y-8089900D02*
G75*
G02*
X10319700Y-8089900I20000J0D01*
G01*
X10357800Y-6146800D02*
G75*
G02*
X10317800Y-6146800I-20000J0D01*
G01*
X10317800Y-6146800D02*
G75*
G02*
X10357800Y-6146800I20000J0D01*
G01*
X10365420Y-3512820D02*
G75*
G02*
X10325420Y-3512820I-20000J0D01*
G01*
X10325420Y-3512820D02*
G75*
G02*
X10365420Y-3512820I20000J0D01*
G01*
X10477180Y-3782060D02*
G75*
G02*
X10437180Y-3782060I-20000J0D01*
G01*
X10437180Y-3782060D02*
G75*
G02*
X10477180Y-3782060I20000J0D01*
G01*
X10494960Y-5748020D02*
G75*
G02*
X10454960Y-5748020I-20000J0D01*
G01*
X10454960Y-5748020D02*
G75*
G02*
X10494960Y-5748020I20000J0D01*
G01*
X10510200Y-6096000D02*
G75*
G02*
X10470200Y-6096000I-20000J0D01*
G01*
X10470200Y-6096000D02*
G75*
G02*
X10510200Y-6096000I20000J0D01*
G01*
X10512740Y-4132580D02*
G75*
G02*
X10472740Y-4132580I-20000J0D01*
G01*
X10472740Y-4132580D02*
G75*
G02*
X10512740Y-4132580I20000J0D01*
G01*
X10522900Y-7734300D02*
G75*
G02*
X10482900Y-7734300I-20000J0D01*
G01*
X10482900Y-7734300D02*
G75*
G02*
X10522900Y-7734300I20000J0D01*
G01*
X10561000Y-6985000D02*
G75*
G02*
X10521000Y-6985000I-20000J0D01*
G01*
X10521000Y-6985000D02*
G75*
G02*
X10561000Y-6985000I20000J0D01*
G01*
X10634660Y-6096000D02*
G75*
G02*
X10594660Y-6096000I-20000J0D01*
G01*
X10594660Y-6096000D02*
G75*
G02*
X10634660Y-6096000I20000J0D01*
G01*
X10637200Y-6769100D02*
G75*
G02*
X10597200Y-6769100I-20000J0D01*
G01*
X10597200Y-6769100D02*
G75*
G02*
X10637200Y-6769100I20000J0D01*
G01*
X10688000Y-5080000D02*
G75*
G02*
X10648000Y-5080000I-20000J0D01*
G01*
X10648000Y-5080000D02*
G75*
G02*
X10688000Y-5080000I20000J0D01*
G01*
X10688000Y-5181600D02*
G75*
G02*
X10648000Y-5181600I-20000J0D01*
G01*
X10648000Y-5181600D02*
G75*
G02*
X10688000Y-5181600I20000J0D01*
G01*
X10688000Y-5283200D02*
G75*
G02*
X10648000Y-5283200I-20000J0D01*
G01*
X10648000Y-5283200D02*
G75*
G02*
X10688000Y-5283200I20000J0D01*
G01*
X10688000Y-5384800D02*
G75*
G02*
X10648000Y-5384800I-20000J0D01*
G01*
X10648000Y-5384800D02*
G75*
G02*
X10688000Y-5384800I20000J0D01*
G01*
X10688000Y-5532120D02*
G75*
G02*
X10648000Y-5532120I-20000J0D01*
G01*
X10648000Y-5532120D02*
G75*
G02*
X10688000Y-5532120I20000J0D01*
G01*
X10688000Y-5648960D02*
G75*
G02*
X10648000Y-5648960I-20000J0D01*
G01*
X10648000Y-5648960D02*
G75*
G02*
X10688000Y-5648960I20000J0D01*
G01*
X10688000Y-8382000D02*
G75*
G02*
X10648000Y-8382000I-20000J0D01*
G01*
X10648000Y-8382000D02*
G75*
G02*
X10688000Y-8382000I20000J0D01*
G01*
X10693080Y-5910580D02*
G75*
G02*
X10653080Y-5910580I-20000J0D01*
G01*
X10653080Y-5910580D02*
G75*
G02*
X10693080Y-5910580I20000J0D01*
G01*
X10802300Y-5910580D02*
G75*
G02*
X10762300Y-5910580I-20000J0D01*
G01*
X10762300Y-5910580D02*
G75*
G02*
X10802300Y-5910580I20000J0D01*
G01*
X10815000Y-4064000D02*
G75*
G02*
X10775000Y-4064000I-20000J0D01*
G01*
X10775000Y-4064000D02*
G75*
G02*
X10815000Y-4064000I20000J0D01*
G01*
X10815000Y-6985000D02*
G75*
G02*
X10775000Y-6985000I-20000J0D01*
G01*
X10775000Y-6985000D02*
G75*
G02*
X10815000Y-6985000I20000J0D01*
G01*
X10845480Y-4617720D02*
G75*
G02*
X10805480Y-4617720I-20000J0D01*
G01*
X10805480Y-4617720D02*
G75*
G02*
X10845480Y-4617720I20000J0D01*
G01*
X10908980Y-4754880D02*
G75*
G02*
X10868980Y-4754880I-20000J0D01*
G01*
X10868980Y-4754880D02*
G75*
G02*
X10908980Y-4754880I20000J0D01*
G01*
X11035980Y-6258560D02*
G75*
G02*
X10995980Y-6258560I-20000J0D01*
G01*
X10995980Y-6258560D02*
G75*
G02*
X11035980Y-6258560I20000J0D01*
G01*
X11069000Y-2667000D02*
G75*
G02*
X11029000Y-2667000I-20000J0D01*
G01*
X11029000Y-2667000D02*
G75*
G02*
X11069000Y-2667000I20000J0D01*
G01*
X11069000Y-8382000D02*
G75*
G02*
X11029000Y-8382000I-20000J0D01*
G01*
X11029000Y-8382000D02*
G75*
G02*
X11069000Y-8382000I20000J0D01*
G01*
X11188380Y-5163820D02*
G75*
G02*
X11148380Y-5163820I-20000J0D01*
G01*
X11148380Y-5163820D02*
G75*
G02*
X11188380Y-5163820I20000J0D01*
G01*
X11190920Y-4099560D02*
G75*
G02*
X11150920Y-4099560I-20000J0D01*
G01*
X11150920Y-4099560D02*
G75*
G02*
X11190920Y-4099560I20000J0D01*
G01*
X11196000Y-2667000D02*
G75*
G02*
X11156000Y-2667000I-20000J0D01*
G01*
X11156000Y-2667000D02*
G75*
G02*
X11196000Y-2667000I20000J0D01*
G01*
X11196000Y-4572000D02*
G75*
G02*
X11156000Y-4572000I-20000J0D01*
G01*
X11156000Y-4572000D02*
G75*
G02*
X11196000Y-4572000I20000J0D01*
G01*
X11196000Y-6350000D02*
G75*
G02*
X11156000Y-6350000I-20000J0D01*
G01*
X11156000Y-6350000D02*
G75*
G02*
X11196000Y-6350000I20000J0D01*
G01*
X11196000Y-6604000D02*
G75*
G02*
X11156000Y-6604000I-20000J0D01*
G01*
X11156000Y-6604000D02*
G75*
G02*
X11196000Y-6604000I20000J0D01*
G01*
X11196000Y-7366000D02*
G75*
G02*
X11156000Y-7366000I-20000J0D01*
G01*
X11156000Y-7366000D02*
G75*
G02*
X11196000Y-7366000I20000J0D01*
G01*
X11196000Y-8382000D02*
G75*
G02*
X11156000Y-8382000I-20000J0D01*
G01*
X11156000Y-8382000D02*
G75*
G02*
X11196000Y-8382000I20000J0D01*
G01*
X11203620Y-2946400D02*
G75*
G02*
X11163620Y-2946400I-20000J0D01*
G01*
X11163620Y-2946400D02*
G75*
G02*
X11203620Y-2946400I20000J0D01*
G01*
X11302680Y-2943860D02*
G75*
G02*
X11262680Y-2943860I-20000J0D01*
G01*
X11262680Y-2943860D02*
G75*
G02*
X11302680Y-2943860I20000J0D01*
G01*
X11323000Y-2667000D02*
G75*
G02*
X11283000Y-2667000I-20000J0D01*
G01*
X11283000Y-2667000D02*
G75*
G02*
X11323000Y-2667000I20000J0D01*
G01*
X11328080Y-4157980D02*
G75*
G02*
X11288080Y-4157980I-20000J0D01*
G01*
X11288080Y-4157980D02*
G75*
G02*
X11328080Y-4157980I20000J0D01*
G01*
X11335700Y-8382000D02*
G75*
G02*
X11295700Y-8382000I-20000J0D01*
G01*
X11295700Y-8382000D02*
G75*
G02*
X11335700Y-8382000I20000J0D01*
G01*
X11343320Y-3530600D02*
G75*
G02*
X11303320Y-3530600I-20000J0D01*
G01*
X11303320Y-3530600D02*
G75*
G02*
X11343320Y-3530600I20000J0D01*
G01*
X11348400Y-6896100D02*
G75*
G02*
X11308400Y-6896100I-20000J0D01*
G01*
X11308400Y-6896100D02*
G75*
G02*
X11348400Y-6896100I20000J0D01*
G01*
X11450000Y-2667000D02*
G75*
G02*
X11410000Y-2667000I-20000J0D01*
G01*
X11410000Y-2667000D02*
G75*
G02*
X11450000Y-2667000I20000J0D01*
G01*
X11450000Y-4318000D02*
G75*
G02*
X11410000Y-4318000I-20000J0D01*
G01*
X11410000Y-4318000D02*
G75*
G02*
X11450000Y-4318000I20000J0D01*
G01*
X11450000Y-4572000D02*
G75*
G02*
X11410000Y-4572000I-20000J0D01*
G01*
X11410000Y-4572000D02*
G75*
G02*
X11450000Y-4572000I20000J0D01*
G01*
X11450000Y-4826000D02*
G75*
G02*
X11410000Y-4826000I-20000J0D01*
G01*
X11410000Y-4826000D02*
G75*
G02*
X11450000Y-4826000I20000J0D01*
G01*
X11450000Y-5715000D02*
G75*
G02*
X11410000Y-5715000I-20000J0D01*
G01*
X11410000Y-5715000D02*
G75*
G02*
X11450000Y-5715000I20000J0D01*
G01*
X11450000Y-5969000D02*
G75*
G02*
X11410000Y-5969000I-20000J0D01*
G01*
X11410000Y-5969000D02*
G75*
G02*
X11450000Y-5969000I20000J0D01*
G01*
X11450000Y-6350000D02*
G75*
G02*
X11410000Y-6350000I-20000J0D01*
G01*
X11410000Y-6350000D02*
G75*
G02*
X11450000Y-6350000I20000J0D01*
G01*
X11450000Y-6604000D02*
G75*
G02*
X11410000Y-6604000I-20000J0D01*
G01*
X11410000Y-6604000D02*
G75*
G02*
X11450000Y-6604000I20000J0D01*
G01*
X11450000Y-6858000D02*
G75*
G02*
X11410000Y-6858000I-20000J0D01*
G01*
X11410000Y-6858000D02*
G75*
G02*
X11450000Y-6858000I20000J0D01*
G01*
X11450000Y-7366000D02*
G75*
G02*
X11410000Y-7366000I-20000J0D01*
G01*
X11410000Y-7366000D02*
G75*
G02*
X11450000Y-7366000I20000J0D01*
G01*
X11450000Y-8382000D02*
G75*
G02*
X11410000Y-8382000I-20000J0D01*
G01*
X11410000Y-8382000D02*
G75*
G02*
X11450000Y-8382000I20000J0D01*
G01*
X11470320Y-3530600D02*
G75*
G02*
X11430320Y-3530600I-20000J0D01*
G01*
X11430320Y-3530600D02*
G75*
G02*
X11470320Y-3530600I20000J0D01*
G01*
X11577000Y-8382000D02*
G75*
G02*
X11537000Y-8382000I-20000J0D01*
G01*
X11537000Y-8382000D02*
G75*
G02*
X11577000Y-8382000I20000J0D01*
G01*
X11620180Y-6294120D02*
G75*
G02*
X11580180Y-6294120I-20000J0D01*
G01*
X11580180Y-6294120D02*
G75*
G02*
X11620180Y-6294120I20000J0D01*
G01*
X11691300Y-7366000D02*
G75*
G02*
X11651300Y-7366000I-20000J0D01*
G01*
X11651300Y-7366000D02*
G75*
G02*
X11691300Y-7366000I20000J0D01*
G01*
X11704000Y-6604000D02*
G75*
G02*
X11664000Y-6604000I-20000J0D01*
G01*
X11664000Y-6604000D02*
G75*
G02*
X11704000Y-6604000I20000J0D01*
G01*
X11704000Y-6858000D02*
G75*
G02*
X11664000Y-6858000I-20000J0D01*
G01*
X11664000Y-6858000D02*
G75*
G02*
X11704000Y-6858000I20000J0D01*
G01*
X11742100Y-5339080D02*
G75*
G02*
X11702100Y-5339080I-20000J0D01*
G01*
X11702100Y-5339080D02*
G75*
G02*
X11742100Y-5339080I20000J0D01*
G01*
X11787820Y-5229860D02*
G75*
G02*
X11747820Y-5229860I-20000J0D01*
G01*
X11747820Y-5229860D02*
G75*
G02*
X11787820Y-5229860I20000J0D01*
G01*
X11843700Y-2667000D02*
G75*
G02*
X11803700Y-2667000I-20000J0D01*
G01*
X11803700Y-2667000D02*
G75*
G02*
X11843700Y-2667000I20000J0D01*
G01*
X12453300Y-3302000D02*
G75*
G02*
X12413300Y-3302000I-20000J0D01*
G01*
X12413300Y-3302000D02*
G75*
G02*
X12453300Y-3302000I20000J0D01*
G01*
X12453300Y-3556000D02*
G75*
G02*
X12413300Y-3556000I-20000J0D01*
G01*
X12413300Y-3556000D02*
G75*
G02*
X12453300Y-3556000I20000J0D01*
G01*
X12453300Y-3810000D02*
G75*
G02*
X12413300Y-3810000I-20000J0D01*
G01*
X12413300Y-3810000D02*
G75*
G02*
X12453300Y-3810000I20000J0D01*
G01*
X12453300Y-4064000D02*
G75*
G02*
X12413300Y-4064000I-20000J0D01*
G01*
X12413300Y-4064000D02*
G75*
G02*
X12453300Y-4064000I20000J0D01*
G01*
X12453300Y-4445000D02*
G75*
G02*
X12413300Y-4445000I-20000J0D01*
G01*
X12413300Y-4445000D02*
G75*
G02*
X12453300Y-4445000I20000J0D01*
G01*
X12453300Y-4699000D02*
G75*
G02*
X12413300Y-4699000I-20000J0D01*
G01*
X12413300Y-4699000D02*
G75*
G02*
X12453300Y-4699000I20000J0D01*
G01*
X12453300Y-4953000D02*
G75*
G02*
X12413300Y-4953000I-20000J0D01*
G01*
X12413300Y-4953000D02*
G75*
G02*
X12453300Y-4953000I20000J0D01*
G01*
X2731800Y-2946800D02*
X2731800Y-2996800D01*
X2706800Y-2971800D02*
X2756800Y-2971800D01*
X2744500Y-8090300D02*
X2744500Y-8140300D01*
X2719500Y-8115300D02*
X2769500Y-8115300D01*
X2802094Y-2777094D02*
X2802094Y-2827094D01*
X2777094Y-2802094D02*
X2827094Y-2802094D01*
X2802094Y-3116506D02*
X2802094Y-3166506D01*
X2777094Y-3141506D02*
X2827094Y-3141506D01*
X2814794Y-7920594D02*
X2814794Y-7970594D01*
X2789794Y-7945594D02*
X2839794Y-7945594D01*
X2814794Y-8260006D02*
X2814794Y-8310006D01*
X2789794Y-8285006D02*
X2839794Y-8285006D01*
X2971800Y-2706800D02*
X2971800Y-2756800D01*
X2946800Y-2731800D02*
X2996800Y-2731800D01*
X2971800Y-3186800D02*
X2971800Y-3236800D01*
X2946800Y-3211800D02*
X2996800Y-3211800D01*
X2984500Y-7850300D02*
X2984500Y-7900300D01*
X2959500Y-7875300D02*
X3009500Y-7875300D01*
X2984500Y-8330300D02*
X2984500Y-8380300D01*
X2959500Y-8355300D02*
X3009500Y-8355300D01*
X3063240Y-7153040D02*
X3063240Y-7203040D01*
X3038240Y-7178040D02*
X3088240Y-7178040D01*
X3063240Y-7278040D02*
X3063240Y-7328040D01*
X3038240Y-7303040D02*
X3088240Y-7303040D01*
X3141506Y-2777094D02*
X3141506Y-2827094D01*
X3116506Y-2802094D02*
X3166506Y-2802094D01*
X3141506Y-3116506D02*
X3141506Y-3166506D01*
X3116506Y-3141506D02*
X3166506Y-3141506D01*
X3154206Y-7920594D02*
X3154206Y-7970594D01*
X3129206Y-7945594D02*
X3179206Y-7945594D01*
X3154206Y-8260006D02*
X3154206Y-8310006D01*
X3129206Y-8285006D02*
X3179206Y-8285006D01*
X3211800Y-2946800D02*
X3211800Y-2996800D01*
X3186800Y-2971800D02*
X3236800Y-2971800D01*
X3224500Y-8090300D02*
X3224500Y-8140300D01*
X3199500Y-8115300D02*
X3249500Y-8115300D01*
X4579620Y-8014100D02*
X4579620Y-8064100D01*
X4554620Y-8039100D02*
X4604620Y-8039100D01*
X4704620Y-8014100D02*
X4704620Y-8064100D01*
X4679620Y-8039100D02*
X4729620Y-8039100D01*
X4829620Y-8014100D02*
X4829620Y-8064100D01*
X4804620Y-8039100D02*
X4854620Y-8039100D01*
X4954620Y-8014100D02*
X4954620Y-8064100D01*
X4929620Y-8039100D02*
X4979620Y-8039100D01*
X5079620Y-8014100D02*
X5079620Y-8064100D01*
X5054620Y-8039100D02*
X5104620Y-8039100D01*
X5204620Y-8014100D02*
X5204620Y-8064100D01*
X5179620Y-8039100D02*
X5229620Y-8039100D01*
X5329620Y-8014100D02*
X5329620Y-8064100D01*
X5304620Y-8039100D02*
X5354620Y-8039100D01*
X5760720Y-8014100D02*
X5760720Y-8064100D01*
X5735720Y-8039100D02*
X5785720Y-8039100D01*
X5885720Y-8014100D02*
X5885720Y-8064100D01*
X5860720Y-8039100D02*
X5910720Y-8039100D01*
X6010720Y-8014100D02*
X6010720Y-8064100D01*
X5985720Y-8039100D02*
X6035720Y-8039100D01*
X6135720Y-8014100D02*
X6135720Y-8064100D01*
X6110720Y-8039100D02*
X6160720Y-8039100D01*
X6568440Y-8014100D02*
X6568440Y-8064100D01*
X6543440Y-8039100D02*
X6593440Y-8039100D01*
X6693440Y-8014100D02*
X6693440Y-8064100D01*
X6668440Y-8039100D02*
X6718440Y-8039100D01*
X6818440Y-8014100D02*
X6818440Y-8064100D01*
X6793440Y-8039100D02*
X6843440Y-8039100D01*
X6943440Y-8014100D02*
X6943440Y-8064100D01*
X6918440Y-8039100D02*
X6968440Y-8039100D01*
X11112500Y-8014100D02*
X11112500Y-8064100D01*
X11087500Y-8039100D02*
X11137500Y-8039100D01*
X11237500Y-8014100D02*
X11237500Y-8064100D01*
X11212500Y-8039100D02*
X11262500Y-8039100D01*
X11362500Y-8014100D02*
X11362500Y-8064100D01*
X11337500Y-8039100D02*
X11387500Y-8039100D01*
X11487500Y-8014100D02*
X11487500Y-8064100D01*
X11462500Y-8039100D02*
X11512500Y-8039100D01*
X11863100Y-2959500D02*
X11863100Y-3009500D01*
X11838100Y-2984500D02*
X11888100Y-2984500D01*
X11863100Y-8090300D02*
X11863100Y-8140300D01*
X11838100Y-8115300D02*
X11888100Y-8115300D01*
X11933394Y-2789794D02*
X11933394Y-2839794D01*
X11908394Y-2814794D02*
X11958394Y-2814794D01*
X11933394Y-3129206D02*
X11933394Y-3179206D01*
X11908394Y-3154206D02*
X11958394Y-3154206D01*
X11933394Y-7920594D02*
X11933394Y-7970594D01*
X11908394Y-7945594D02*
X11958394Y-7945594D01*
X11933394Y-8260006D02*
X11933394Y-8310006D01*
X11908394Y-8285006D02*
X11958394Y-8285006D01*
X12026900Y-3613200D02*
X12026900Y-3663200D01*
X12001900Y-3638200D02*
X12051900Y-3638200D01*
X12026900Y-3738200D02*
X12026900Y-3788200D01*
X12001900Y-3763200D02*
X12051900Y-3763200D01*
X12026900Y-3863200D02*
X12026900Y-3913200D01*
X12001900Y-3888200D02*
X12051900Y-3888200D01*
X12026900Y-3988200D02*
X12026900Y-4038200D01*
X12001900Y-4013200D02*
X12051900Y-4013200D01*
X12026900Y-4417300D02*
X12026900Y-4467300D01*
X12001900Y-4442300D02*
X12051900Y-4442300D01*
X12026900Y-4542300D02*
X12026900Y-4592300D01*
X12001900Y-4567300D02*
X12051900Y-4567300D01*
X12026900Y-4667300D02*
X12026900Y-4717300D01*
X12001900Y-4692300D02*
X12051900Y-4692300D01*
X12026900Y-4792300D02*
X12026900Y-4842300D01*
X12001900Y-4817300D02*
X12051900Y-4817300D01*
X12026900Y-4917300D02*
X12026900Y-4967300D01*
X12001900Y-4942300D02*
X12051900Y-4942300D01*
X12026900Y-5042300D02*
X12026900Y-5092300D01*
X12001900Y-5067300D02*
X12051900Y-5067300D01*
X12026900Y-5480100D02*
X12026900Y-5530100D01*
X12001900Y-5505100D02*
X12051900Y-5505100D01*
X12026900Y-5605100D02*
X12026900Y-5655100D01*
X12001900Y-5630100D02*
X12051900Y-5630100D01*
X12026900Y-5730100D02*
X12026900Y-5780100D01*
X12001900Y-5755100D02*
X12051900Y-5755100D01*
X12026900Y-5855100D02*
X12026900Y-5905100D01*
X12001900Y-5880100D02*
X12051900Y-5880100D01*
X12026900Y-6292900D02*
X12026900Y-6342900D01*
X12001900Y-6317900D02*
X12051900Y-6317900D01*
X12026900Y-6417900D02*
X12026900Y-6467900D01*
X12001900Y-6442900D02*
X12051900Y-6442900D01*
X12026900Y-6542900D02*
X12026900Y-6592900D01*
X12001900Y-6567900D02*
X12051900Y-6567900D01*
X12026900Y-6667900D02*
X12026900Y-6717900D01*
X12001900Y-6692900D02*
X12051900Y-6692900D01*
X12026900Y-7105700D02*
X12026900Y-7155700D01*
X12001900Y-7130700D02*
X12051900Y-7130700D01*
X12026900Y-7230700D02*
X12026900Y-7280700D01*
X12001900Y-7255700D02*
X12051900Y-7255700D01*
X12026900Y-7355700D02*
X12026900Y-7405700D01*
X12001900Y-7380700D02*
X12051900Y-7380700D01*
X12026900Y-7480700D02*
X12026900Y-7530700D01*
X12001900Y-7505700D02*
X12051900Y-7505700D01*
X12103100Y-2719500D02*
X12103100Y-2769500D01*
X12078100Y-2744500D02*
X12128100Y-2744500D01*
X12103100Y-3199500D02*
X12103100Y-3249500D01*
X12078100Y-3224500D02*
X12128100Y-3224500D01*
X12103100Y-7850300D02*
X12103100Y-7900300D01*
X12078100Y-7875300D02*
X12128100Y-7875300D01*
X12103100Y-8330300D02*
X12103100Y-8380300D01*
X12078100Y-8355300D02*
X12128100Y-8355300D01*
X12272806Y-2789794D02*
X12272806Y-2839794D01*
X12247806Y-2814794D02*
X12297806Y-2814794D01*
X12272806Y-3129206D02*
X12272806Y-3179206D01*
X12247806Y-3154206D02*
X12297806Y-3154206D01*
X12272806Y-7920594D02*
X12272806Y-7970594D01*
X12247806Y-7945594D02*
X12297806Y-7945594D01*
X12272806Y-8260006D02*
X12272806Y-8310006D01*
X12247806Y-8285006D02*
X12297806Y-8285006D01*
X12343100Y-2959500D02*
X12343100Y-3009500D01*
X12318100Y-2984500D02*
X12368100Y-2984500D01*
X12343100Y-8090300D02*
X12343100Y-8140300D01*
X12318100Y-8115300D02*
X12368100Y-8115300D01*
X5280456Y-2791256D02*
X5280456Y-2720544D01*
X5209744Y-2720544D01*
X5209744Y-2791256D01*
X5280456Y-2791256D01*
X5280456Y-3045256D02*
X5280456Y-2974544D01*
X5209744Y-2974544D01*
X5209744Y-3045256D01*
X5280456Y-3045256D01*
X5280456Y-3299256D02*
X5280456Y-3228544D01*
X5209744Y-3228544D01*
X5209744Y-3299256D01*
X5280456Y-3299256D01*
X5534456Y-2791256D02*
X5534456Y-2720544D01*
X5463744Y-2720544D01*
X5463744Y-2791256D01*
X5534456Y-2791256D01*
X5534456Y-3045256D02*
X5534456Y-2974544D01*
X5463744Y-2974544D01*
X5463744Y-3045256D01*
X5534456Y-3045256D01*
X5534456Y-3299256D02*
X5534456Y-3228544D01*
X5463744Y-3228544D01*
X5463744Y-3299256D01*
X5534456Y-3299256D01*
X5788456Y-2791256D02*
X5788456Y-2720544D01*
X5717744Y-2720544D01*
X5717744Y-2791256D01*
X5788456Y-2791256D01*
X5788456Y-3045256D02*
X5788456Y-2974544D01*
X5717744Y-2974544D01*
X5717744Y-3045256D01*
X5788456Y-3045256D01*
X5788456Y-3299256D02*
X5788456Y-3228544D01*
X5717744Y-3228544D01*
X5717744Y-3299256D01*
X5788456Y-3299256D01*
X6042456Y-2791256D02*
X6042456Y-2720544D01*
X5971744Y-2720544D01*
X5971744Y-2791256D01*
X6042456Y-2791256D01*
X6042456Y-3045256D02*
X6042456Y-2974544D01*
X5971744Y-2974544D01*
X5971744Y-3045256D01*
X6042456Y-3045256D01*
X6042456Y-3299256D02*
X6042456Y-3228544D01*
X5971744Y-3228544D01*
X5971744Y-3299256D01*
X6042456Y-3299256D01*
X6296456Y-2791256D02*
X6296456Y-2720544D01*
X6225744Y-2720544D01*
X6225744Y-2791256D01*
X6296456Y-2791256D01*
X6296456Y-3045256D02*
X6296456Y-2974544D01*
X6225744Y-2974544D01*
X6225744Y-3045256D01*
X6296456Y-3045256D01*
X6296456Y-3299256D02*
X6296456Y-3228544D01*
X6225744Y-3228544D01*
X6225744Y-3299256D01*
X6296456Y-3299256D01*
X6550456Y-2791256D02*
X6550456Y-2720544D01*
X6479744Y-2720544D01*
X6479744Y-2791256D01*
X6550456Y-2791256D01*
X6550456Y-3045256D02*
X6550456Y-2974544D01*
X6479744Y-2974544D01*
X6479744Y-3045256D01*
X6550456Y-3045256D01*
X6550456Y-3299256D02*
X6550456Y-3228544D01*
X6479744Y-3228544D01*
X6479744Y-3299256D01*
X6550456Y-3299256D01*
X6804456Y-2791256D02*
X6804456Y-2720544D01*
X6733744Y-2720544D01*
X6733744Y-2791256D01*
X6804456Y-2791256D01*
X6804456Y-3045256D02*
X6804456Y-2974544D01*
X6733744Y-2974544D01*
X6733744Y-3045256D01*
X6804456Y-3045256D01*
X6804456Y-3299256D02*
X6804456Y-3228544D01*
X6733744Y-3228544D01*
X6733744Y-3299256D01*
X6804456Y-3299256D01*
X7058456Y-2791256D02*
X7058456Y-2720544D01*
X6987744Y-2720544D01*
X6987744Y-2791256D01*
X7058456Y-2791256D01*
X7058456Y-3045256D02*
X7058456Y-2974544D01*
X6987744Y-2974544D01*
X6987744Y-3045256D01*
X7058456Y-3045256D01*
X7058456Y-3299256D02*
X7058456Y-3228544D01*
X6987744Y-3228544D01*
X6987744Y-3299256D01*
X7058456Y-3299256D01*
D12*
X7499200Y-2786000D02*
X7559200Y-2726000D01*
X7499200Y-2666000D01*
X7439200Y-2726000D01*
X7499200Y-2786000D01*
X8274200Y-2786000D02*
X8334200Y-2726000D01*
X8274200Y-2666000D01*
X8214200Y-2726000D01*
X8274200Y-2786000D01*
X8604100Y-2786000D02*
X8664100Y-2726000D01*
X8604100Y-2666000D01*
X8544100Y-2726000D01*
X8604100Y-2786000D01*
X9379100Y-2786000D02*
X9439100Y-2726000D01*
X9379100Y-2666000D01*
X9319100Y-2726000D01*
X9379100Y-2786000D01*
X9709000Y-2786000D02*
X9769000Y-2726000D01*
X9709000Y-2666000D01*
X9649000Y-2726000D01*
X9709000Y-2786000D01*
X10484000Y-2786000D02*
X10544000Y-2726000D01*
X10484000Y-2666000D01*
X10424000Y-2726000D01*
X10484000Y-2786000D01*
X10813900Y-2786000D02*
X10873900Y-2726000D01*
X10813900Y-2666000D01*
X10753900Y-2726000D01*
X10813900Y-2786000D01*
X11588900Y-2786000D02*
X11648900Y-2726000D01*
X11588900Y-2666000D01*
X11528900Y-2726000D01*
X11588900Y-2786000D01*
D13*
X7444200Y-3036000D02*
X7584200Y-3176000D01*
X7584200Y-3036000D02*
X7444200Y-3176000D01*
X7584200Y-3106000D02*
G75*
G02*
X7444200Y-3106000I-70000J0D01*
G01*
X7444200Y-3106000D02*
G75*
G02*
X7584200Y-3106000I70000J0D01*
G01*
X8189200Y-3036000D02*
X8329200Y-3176000D01*
X8329200Y-3036000D02*
X8189200Y-3176000D01*
X8329200Y-3106000D02*
G75*
G02*
X8189200Y-3106000I-70000J0D01*
G01*
X8189200Y-3106000D02*
G75*
G02*
X8329200Y-3106000I70000J0D01*
G01*
X8549100Y-3036000D02*
X8689100Y-3176000D01*
X8689100Y-3036000D02*
X8549100Y-3176000D01*
X8689100Y-3106000D02*
G75*
G02*
X8549100Y-3106000I-70000J0D01*
G01*
X8549100Y-3106000D02*
G75*
G02*
X8689100Y-3106000I70000J0D01*
G01*
X9294100Y-3036000D02*
X9434100Y-3176000D01*
X9434100Y-3036000D02*
X9294100Y-3176000D01*
X9434100Y-3106000D02*
G75*
G02*
X9294100Y-3106000I-70000J0D01*
G01*
X9294100Y-3106000D02*
G75*
G02*
X9434100Y-3106000I70000J0D01*
G01*
X9654000Y-3036000D02*
X9794000Y-3176000D01*
X9794000Y-3036000D02*
X9654000Y-3176000D01*
X9794000Y-3106000D02*
G75*
G02*
X9654000Y-3106000I-70000J0D01*
G01*
X9654000Y-3106000D02*
G75*
G02*
X9794000Y-3106000I70000J0D01*
G01*
X10399000Y-3036000D02*
X10539000Y-3176000D01*
X10539000Y-3036000D02*
X10399000Y-3176000D01*
X10539000Y-3106000D02*
G75*
G02*
X10399000Y-3106000I-70000J0D01*
G01*
X10399000Y-3106000D02*
G75*
G02*
X10539000Y-3106000I70000J0D01*
G01*
X10758900Y-3036000D02*
X10898900Y-3176000D01*
X10898900Y-3036000D02*
X10758900Y-3176000D01*
X10898900Y-3106000D02*
G75*
G02*
X10758900Y-3106000I-70000J0D01*
G01*
X10758900Y-3106000D02*
G75*
G02*
X10898900Y-3106000I70000J0D01*
G01*
X11503900Y-3036000D02*
X11643900Y-3176000D01*
X11643900Y-3036000D02*
X11503900Y-3176000D01*
X11643900Y-3106000D02*
G75*
G02*
X11503900Y-3106000I-70000J0D01*
G01*
X11503900Y-3106000D02*
G75*
G02*
X11643900Y-3106000I70000J0D01*
G01*
D14*
X3788340Y-8035220D02*
X3938340Y-8185220D01*
X3938340Y-8035220D02*
X3788340Y-8185220D01*
X3863340Y-8035220D02*
X3863340Y-8185220D01*
X3788340Y-8110220D02*
X3938340Y-8110220D01*
D15*
X3529340Y-7776220D02*
X3689340Y-7936220D01*
X3689340Y-7776220D02*
X3529340Y-7936220D01*
X3665909Y-7912789D02*
X3665909Y-7799651D01*
X3552771Y-7799651D01*
X3552771Y-7912789D01*
X3665909Y-7912789D01*
X3529340Y-8284220D02*
X3689340Y-8444220D01*
X3689340Y-8284220D02*
X3529340Y-8444220D01*
X3665909Y-8420789D02*
X3665909Y-8307651D01*
X3552771Y-8307651D01*
X3552771Y-8420789D01*
X3665909Y-8420789D01*
X4037340Y-7776220D02*
X4197340Y-7936220D01*
X4197340Y-7776220D02*
X4037340Y-7936220D01*
X4173909Y-7912789D02*
X4173909Y-7799651D01*
X4060771Y-7799651D01*
X4060771Y-7912789D01*
X4173909Y-7912789D01*
X4037340Y-8284220D02*
X4197340Y-8444220D01*
X4197340Y-8284220D02*
X4037340Y-8444220D01*
X4173909Y-8420789D02*
X4173909Y-8307651D01*
X4060771Y-8307651D01*
X4060771Y-8420789D01*
X4173909Y-8420789D01*
D16*
X2811800Y-2811800D02*
X3131800Y-3131800D01*
X3131800Y-2811800D02*
X2811800Y-3131800D01*
X2971800Y-3131800D02*
X3131800Y-2971800D01*
X2971800Y-2811800D01*
X2811800Y-2971800D01*
X2971800Y-3131800D01*
X2824500Y-7955300D02*
X3144500Y-8275300D01*
X3144500Y-7955300D02*
X2824500Y-8275300D01*
X2984500Y-8275300D02*
X3144500Y-8115300D01*
X2984500Y-7955300D01*
X2824500Y-8115300D01*
X2984500Y-8275300D01*
X11943100Y-2824500D02*
X12263100Y-3144500D01*
X12263100Y-2824500D02*
X11943100Y-3144500D01*
X12103100Y-3144500D02*
X12263100Y-2984500D01*
X12103100Y-2824500D01*
X11943100Y-2984500D01*
X12103100Y-3144500D01*
X11943100Y-7955300D02*
X12263100Y-8275300D01*
X12263100Y-7955300D02*
X11943100Y-8275300D01*
X12103100Y-8275300D02*
X12263100Y-8115300D01*
X12103100Y-7955300D01*
X11943100Y-8115300D01*
X12103100Y-8275300D01*
D17*
X3856400Y-2772200D02*
X3856400Y-3222200D01*
X3631400Y-2997200D02*
X4081400Y-2997200D01*
X4081400Y-2997200D02*
G75*
G02*
X3631400Y-2997200I-225000J0D01*
G01*
X3631400Y-2997200D02*
G75*
G02*
X4081400Y-2997200I225000J0D01*
G01*
X4576400Y-2772200D02*
X4576400Y-3222200D01*
X4351400Y-2997200D02*
X4801400Y-2997200D01*
X4801400Y-2997200D02*
G75*
G02*
X4351400Y-2997200I-225000J0D01*
G01*
X4351400Y-2997200D02*
G75*
G02*
X4801400Y-2997200I225000J0D01*
G01*
D11*
X2795550Y-8876284D02*
X2795550Y-8676284D01*
X2795550Y-8676284D02*
X2843169Y-8676284D01*
X2843169Y-8676284D02*
X2871741Y-8685808D01*
X2871741Y-8685808D02*
X2890788Y-8704855D01*
X2890788Y-8704855D02*
X2900312Y-8723903D01*
X2900312Y-8723903D02*
X2909836Y-8761998D01*
X2909836Y-8761998D02*
X2909836Y-8790570D01*
X2909836Y-8790570D02*
X2900312Y-8828665D01*
X2900312Y-8828665D02*
X2890788Y-8847712D01*
X2890788Y-8847712D02*
X2871741Y-8866760D01*
X2871741Y-8866760D02*
X2843169Y-8876284D01*
X2843169Y-8876284D02*
X2795550Y-8876284D01*
X2995550Y-8876284D02*
X2995550Y-8742950D01*
X2995550Y-8781046D02*
X3005074Y-8761998D01*
X3005074Y-8761998D02*
X3014598Y-8752474D01*
X3014598Y-8752474D02*
X3033645Y-8742950D01*
X3033645Y-8742950D02*
X3052693Y-8742950D01*
X3119360Y-8876284D02*
X3119360Y-8742950D01*
X3119360Y-8676284D02*
X3109836Y-8685808D01*
X3109836Y-8685808D02*
X3119360Y-8695331D01*
X3119360Y-8695331D02*
X3128883Y-8685808D01*
X3128883Y-8685808D02*
X3119360Y-8676284D01*
X3119360Y-8676284D02*
X3119360Y-8695331D01*
X3243169Y-8876284D02*
X3224122Y-8866760D01*
X3224122Y-8866760D02*
X3214598Y-8847712D01*
X3214598Y-8847712D02*
X3214598Y-8676284D01*
X3347931Y-8876284D02*
X3328883Y-8866760D01*
X3328883Y-8866760D02*
X3319360Y-8847712D01*
X3319360Y-8847712D02*
X3319360Y-8676284D01*
X3576503Y-8876284D02*
X3576503Y-8676284D01*
X3576503Y-8676284D02*
X3643169Y-8819141D01*
X3643169Y-8819141D02*
X3709836Y-8676284D01*
X3709836Y-8676284D02*
X3709836Y-8876284D01*
X3890788Y-8876284D02*
X3890788Y-8771522D01*
X3890788Y-8771522D02*
X3881264Y-8752474D01*
X3881264Y-8752474D02*
X3862217Y-8742950D01*
X3862217Y-8742950D02*
X3824122Y-8742950D01*
X3824122Y-8742950D02*
X3805074Y-8752474D01*
X3890788Y-8866760D02*
X3871741Y-8876284D01*
X3871741Y-8876284D02*
X3824122Y-8876284D01*
X3824122Y-8876284D02*
X3805074Y-8866760D01*
X3805074Y-8866760D02*
X3795550Y-8847712D01*
X3795550Y-8847712D02*
X3795550Y-8828665D01*
X3795550Y-8828665D02*
X3805074Y-8809617D01*
X3805074Y-8809617D02*
X3824122Y-8800093D01*
X3824122Y-8800093D02*
X3871741Y-8800093D01*
X3871741Y-8800093D02*
X3890788Y-8790570D01*
X3986026Y-8742950D02*
X3986026Y-8942950D01*
X3986026Y-8752474D02*
X4005074Y-8742950D01*
X4005074Y-8742950D02*
X4043169Y-8742950D01*
X4043169Y-8742950D02*
X4062217Y-8752474D01*
X4062217Y-8752474D02*
X4071741Y-8761998D01*
X4071741Y-8761998D02*
X4081264Y-8781046D01*
X4081264Y-8781046D02*
X4081264Y-8838189D01*
X4081264Y-8838189D02*
X4071741Y-8857236D01*
X4071741Y-8857236D02*
X4062217Y-8866760D01*
X4062217Y-8866760D02*
X4043169Y-8876284D01*
X4043169Y-8876284D02*
X4005074Y-8876284D01*
X4005074Y-8876284D02*
X3986026Y-8866760D01*
X4166979Y-8857236D02*
X4176503Y-8866760D01*
X4176503Y-8866760D02*
X4166979Y-8876284D01*
X4166979Y-8876284D02*
X4157455Y-8866760D01*
X4157455Y-8866760D02*
X4166979Y-8857236D01*
X4166979Y-8857236D02*
X4166979Y-8876284D01*
X4166979Y-8752474D02*
X4176503Y-8761998D01*
X4176503Y-8761998D02*
X4166979Y-8771522D01*
X4166979Y-8771522D02*
X4157455Y-8761998D01*
X4157455Y-8761998D02*
X4166979Y-8752474D01*
X4166979Y-8752474D02*
X4166979Y-8771522D01*
D10*
X2504773Y-9189800D02*
X2534773Y-9219800D01*
X2534773Y-9189800D02*
X2504773Y-9219800D01*
D11*
X2833645Y-9096284D02*
X2852693Y-9096284D01*
X2852693Y-9096284D02*
X2871741Y-9105808D01*
X2871741Y-9105808D02*
X2881264Y-9115331D01*
X2881264Y-9115331D02*
X2890788Y-9134379D01*
X2890788Y-9134379D02*
X2900312Y-9172474D01*
X2900312Y-9172474D02*
X2900312Y-9220093D01*
X2900312Y-9220093D02*
X2890788Y-9258189D01*
X2890788Y-9258189D02*
X2881264Y-9277236D01*
X2881264Y-9277236D02*
X2871741Y-9286760D01*
X2871741Y-9286760D02*
X2852693Y-9296284D01*
X2852693Y-9296284D02*
X2833645Y-9296284D01*
X2833645Y-9296284D02*
X2814598Y-9286760D01*
X2814598Y-9286760D02*
X2805074Y-9277236D01*
X2805074Y-9277236D02*
X2795550Y-9258189D01*
X2795550Y-9258189D02*
X2786026Y-9220093D01*
X2786026Y-9220093D02*
X2786026Y-9172474D01*
X2786026Y-9172474D02*
X2795550Y-9134379D01*
X2795550Y-9134379D02*
X2805074Y-9115331D01*
X2805074Y-9115331D02*
X2814598Y-9105808D01*
X2814598Y-9105808D02*
X2833645Y-9096284D01*
X2986026Y-9277236D02*
X2995550Y-9286760D01*
X2995550Y-9286760D02*
X2986026Y-9296284D01*
X2986026Y-9296284D02*
X2976503Y-9286760D01*
X2976503Y-9286760D02*
X2986026Y-9277236D01*
X2986026Y-9277236D02*
X2986026Y-9296284D01*
X3062217Y-9096284D02*
X3186026Y-9096284D01*
X3186026Y-9096284D02*
X3119360Y-9172474D01*
X3119360Y-9172474D02*
X3147931Y-9172474D01*
X3147931Y-9172474D02*
X3166979Y-9181998D01*
X3166979Y-9181998D02*
X3176503Y-9191522D01*
X3176503Y-9191522D02*
X3186026Y-9210570D01*
X3186026Y-9210570D02*
X3186026Y-9258189D01*
X3186026Y-9258189D02*
X3176503Y-9277236D01*
X3176503Y-9277236D02*
X3166979Y-9286760D01*
X3166979Y-9286760D02*
X3147931Y-9296284D01*
X3147931Y-9296284D02*
X3090788Y-9296284D01*
X3090788Y-9296284D02*
X3071741Y-9286760D01*
X3071741Y-9286760D02*
X3062217Y-9277236D01*
X3309836Y-9096284D02*
X3328884Y-9096284D01*
X3328884Y-9096284D02*
X3347931Y-9105808D01*
X3347931Y-9105808D02*
X3357455Y-9115331D01*
X3357455Y-9115331D02*
X3366979Y-9134379D01*
X3366979Y-9134379D02*
X3376503Y-9172474D01*
X3376503Y-9172474D02*
X3376503Y-9220093D01*
X3376503Y-9220093D02*
X3366979Y-9258189D01*
X3366979Y-9258189D02*
X3357455Y-9277236D01*
X3357455Y-9277236D02*
X3347931Y-9286760D01*
X3347931Y-9286760D02*
X3328884Y-9296284D01*
X3328884Y-9296284D02*
X3309836Y-9296284D01*
X3309836Y-9296284D02*
X3290788Y-9286760D01*
X3290788Y-9286760D02*
X3281264Y-9277236D01*
X3281264Y-9277236D02*
X3271741Y-9258189D01*
X3271741Y-9258189D02*
X3262217Y-9220093D01*
X3262217Y-9220093D02*
X3262217Y-9172474D01*
X3262217Y-9172474D02*
X3271741Y-9134379D01*
X3271741Y-9134379D02*
X3281264Y-9115331D01*
X3281264Y-9115331D02*
X3290788Y-9105808D01*
X3290788Y-9105808D02*
X3309836Y-9096284D01*
X3500312Y-9096284D02*
X3519360Y-9096284D01*
X3519360Y-9096284D02*
X3538407Y-9105808D01*
X3538407Y-9105808D02*
X3547931Y-9115331D01*
X3547931Y-9115331D02*
X3557455Y-9134379D01*
X3557455Y-9134379D02*
X3566979Y-9172474D01*
X3566979Y-9172474D02*
X3566979Y-9220093D01*
X3566979Y-9220093D02*
X3557455Y-9258189D01*
X3557455Y-9258189D02*
X3547931Y-9277236D01*
X3547931Y-9277236D02*
X3538407Y-9286760D01*
X3538407Y-9286760D02*
X3519360Y-9296284D01*
X3519360Y-9296284D02*
X3500312Y-9296284D01*
X3500312Y-9296284D02*
X3481264Y-9286760D01*
X3481264Y-9286760D02*
X3471741Y-9277236D01*
X3471741Y-9277236D02*
X3462217Y-9258189D01*
X3462217Y-9258189D02*
X3452693Y-9220093D01*
X3452693Y-9220093D02*
X3452693Y-9172474D01*
X3452693Y-9172474D02*
X3462217Y-9134379D01*
X3462217Y-9134379D02*
X3471741Y-9115331D01*
X3471741Y-9115331D02*
X3481264Y-9105808D01*
X3481264Y-9105808D02*
X3500312Y-9096284D01*
X3652693Y-9296284D02*
X3652693Y-9162950D01*
X3652693Y-9181998D02*
X3662217Y-9172474D01*
X3662217Y-9172474D02*
X3681264Y-9162950D01*
X3681264Y-9162950D02*
X3709836Y-9162950D01*
X3709836Y-9162950D02*
X3728884Y-9172474D01*
X3728884Y-9172474D02*
X3738407Y-9191522D01*
X3738407Y-9191522D02*
X3738407Y-9296284D01*
X3738407Y-9191522D02*
X3747931Y-9172474D01*
X3747931Y-9172474D02*
X3766979Y-9162950D01*
X3766979Y-9162950D02*
X3795550Y-9162950D01*
X3795550Y-9162950D02*
X3814598Y-9172474D01*
X3814598Y-9172474D02*
X3824122Y-9191522D01*
X3824122Y-9191522D02*
X3824122Y-9296284D01*
X3919360Y-9296284D02*
X3919360Y-9162950D01*
X3919360Y-9181998D02*
X3928884Y-9172474D01*
X3928884Y-9172474D02*
X3947931Y-9162950D01*
X3947931Y-9162950D02*
X3976503Y-9162950D01*
X3976503Y-9162950D02*
X3995550Y-9172474D01*
X3995550Y-9172474D02*
X4005074Y-9191522D01*
X4005074Y-9191522D02*
X4005074Y-9296284D01*
X4005074Y-9191522D02*
X4014598Y-9172474D01*
X4014598Y-9172474D02*
X4033645Y-9162950D01*
X4033645Y-9162950D02*
X4062217Y-9162950D01*
X4062217Y-9162950D02*
X4081265Y-9172474D01*
X4081265Y-9172474D02*
X4090788Y-9191522D01*
X4090788Y-9191522D02*
X4090788Y-9296284D01*
X4481265Y-9086760D02*
X4309836Y-9343903D01*
X4738408Y-9096284D02*
X4757455Y-9096284D01*
X4757455Y-9096284D02*
X4776503Y-9105808D01*
X4776503Y-9105808D02*
X4786027Y-9115331D01*
X4786027Y-9115331D02*
X4795550Y-9134379D01*
X4795550Y-9134379D02*
X4805074Y-9172474D01*
X4805074Y-9172474D02*
X4805074Y-9220093D01*
X4805074Y-9220093D02*
X4795550Y-9258189D01*
X4795550Y-9258189D02*
X4786027Y-9277236D01*
X4786027Y-9277236D02*
X4776503Y-9286760D01*
X4776503Y-9286760D02*
X4757455Y-9296284D01*
X4757455Y-9296284D02*
X4738408Y-9296284D01*
X4738408Y-9296284D02*
X4719360Y-9286760D01*
X4719360Y-9286760D02*
X4709836Y-9277236D01*
X4709836Y-9277236D02*
X4700312Y-9258189D01*
X4700312Y-9258189D02*
X4690789Y-9220093D01*
X4690789Y-9220093D02*
X4690789Y-9172474D01*
X4690789Y-9172474D02*
X4700312Y-9134379D01*
X4700312Y-9134379D02*
X4709836Y-9115331D01*
X4709836Y-9115331D02*
X4719360Y-9105808D01*
X4719360Y-9105808D02*
X4738408Y-9096284D01*
X4890789Y-9277236D02*
X4900312Y-9286760D01*
X4900312Y-9286760D02*
X4890789Y-9296284D01*
X4890789Y-9296284D02*
X4881265Y-9286760D01*
X4881265Y-9286760D02*
X4890789Y-9277236D01*
X4890789Y-9277236D02*
X4890789Y-9296284D01*
X5024122Y-9096284D02*
X5043170Y-9096284D01*
X5043170Y-9096284D02*
X5062217Y-9105808D01*
X5062217Y-9105808D02*
X5071741Y-9115331D01*
X5071741Y-9115331D02*
X5081265Y-9134379D01*
X5081265Y-9134379D02*
X5090789Y-9172474D01*
X5090789Y-9172474D02*
X5090789Y-9220093D01*
X5090789Y-9220093D02*
X5081265Y-9258189D01*
X5081265Y-9258189D02*
X5071741Y-9277236D01*
X5071741Y-9277236D02*
X5062217Y-9286760D01*
X5062217Y-9286760D02*
X5043170Y-9296284D01*
X5043170Y-9296284D02*
X5024122Y-9296284D01*
X5024122Y-9296284D02*
X5005074Y-9286760D01*
X5005074Y-9286760D02*
X4995550Y-9277236D01*
X4995550Y-9277236D02*
X4986027Y-9258189D01*
X4986027Y-9258189D02*
X4976503Y-9220093D01*
X4976503Y-9220093D02*
X4976503Y-9172474D01*
X4976503Y-9172474D02*
X4986027Y-9134379D01*
X4986027Y-9134379D02*
X4995550Y-9115331D01*
X4995550Y-9115331D02*
X5005074Y-9105808D01*
X5005074Y-9105808D02*
X5024122Y-9096284D01*
X5281265Y-9296284D02*
X5166979Y-9296284D01*
X5224122Y-9296284D02*
X5224122Y-9096284D01*
X5224122Y-9096284D02*
X5205074Y-9124855D01*
X5205074Y-9124855D02*
X5186027Y-9143903D01*
X5186027Y-9143903D02*
X5166979Y-9153427D01*
X5471741Y-9296284D02*
X5357455Y-9296284D01*
X5414598Y-9296284D02*
X5414598Y-9096284D01*
X5414598Y-9096284D02*
X5395550Y-9124855D01*
X5395550Y-9124855D02*
X5376503Y-9143903D01*
X5376503Y-9143903D02*
X5357455Y-9153427D01*
X5586027Y-9181998D02*
X5566979Y-9172474D01*
X5566979Y-9172474D02*
X5557455Y-9162950D01*
X5557455Y-9162950D02*
X5547931Y-9143903D01*
X5547931Y-9143903D02*
X5547931Y-9134379D01*
X5547931Y-9134379D02*
X5557455Y-9115331D01*
X5557455Y-9115331D02*
X5566979Y-9105808D01*
X5566979Y-9105808D02*
X5586027Y-9096284D01*
X5586027Y-9096284D02*
X5624122Y-9096284D01*
X5624122Y-9096284D02*
X5643169Y-9105808D01*
X5643169Y-9105808D02*
X5652693Y-9115331D01*
X5652693Y-9115331D02*
X5662217Y-9134379D01*
X5662217Y-9134379D02*
X5662217Y-9143903D01*
X5662217Y-9143903D02*
X5652693Y-9162950D01*
X5652693Y-9162950D02*
X5643169Y-9172474D01*
X5643169Y-9172474D02*
X5624122Y-9181998D01*
X5624122Y-9181998D02*
X5586027Y-9181998D01*
X5586027Y-9181998D02*
X5566979Y-9191522D01*
X5566979Y-9191522D02*
X5557455Y-9201046D01*
X5557455Y-9201046D02*
X5547931Y-9220093D01*
X5547931Y-9220093D02*
X5547931Y-9258189D01*
X5547931Y-9258189D02*
X5557455Y-9277236D01*
X5557455Y-9277236D02*
X5566979Y-9286760D01*
X5566979Y-9286760D02*
X5586027Y-9296284D01*
X5586027Y-9296284D02*
X5624122Y-9296284D01*
X5624122Y-9296284D02*
X5643169Y-9286760D01*
X5643169Y-9286760D02*
X5652693Y-9277236D01*
X5652693Y-9277236D02*
X5662217Y-9258189D01*
X5662217Y-9258189D02*
X5662217Y-9220093D01*
X5662217Y-9220093D02*
X5652693Y-9201046D01*
X5652693Y-9201046D02*
X5643169Y-9191522D01*
X5643169Y-9191522D02*
X5624122Y-9181998D01*
X5738408Y-9096284D02*
X5738408Y-9134379D01*
X5814598Y-9096284D02*
X5814598Y-9134379D01*
X6109836Y-9372474D02*
X6100312Y-9362950D01*
X6100312Y-9362950D02*
X6081265Y-9334379D01*
X6081265Y-9334379D02*
X6071741Y-9315331D01*
X6071741Y-9315331D02*
X6062217Y-9286760D01*
X6062217Y-9286760D02*
X6052693Y-9239141D01*
X6052693Y-9239141D02*
X6052693Y-9201046D01*
X6052693Y-9201046D02*
X6062217Y-9153427D01*
X6062217Y-9153427D02*
X6071741Y-9124855D01*
X6071741Y-9124855D02*
X6081265Y-9105808D01*
X6081265Y-9105808D02*
X6100312Y-9077236D01*
X6100312Y-9077236D02*
X6109836Y-9067712D01*
X6281265Y-9096284D02*
X6186027Y-9096284D01*
X6186027Y-9096284D02*
X6176503Y-9191522D01*
X6176503Y-9191522D02*
X6186027Y-9181998D01*
X6186027Y-9181998D02*
X6205074Y-9172474D01*
X6205074Y-9172474D02*
X6252693Y-9172474D01*
X6252693Y-9172474D02*
X6271741Y-9181998D01*
X6271741Y-9181998D02*
X6281265Y-9191522D01*
X6281265Y-9191522D02*
X6290789Y-9210570D01*
X6290789Y-9210570D02*
X6290789Y-9258189D01*
X6290789Y-9258189D02*
X6281265Y-9277236D01*
X6281265Y-9277236D02*
X6271741Y-9286760D01*
X6271741Y-9286760D02*
X6252693Y-9296284D01*
X6252693Y-9296284D02*
X6205074Y-9296284D01*
X6205074Y-9296284D02*
X6186027Y-9286760D01*
X6186027Y-9286760D02*
X6176503Y-9277236D01*
X6528884Y-9296284D02*
X6528884Y-9096284D01*
X6614598Y-9296284D02*
X6614598Y-9191522D01*
X6614598Y-9191522D02*
X6605074Y-9172474D01*
X6605074Y-9172474D02*
X6586027Y-9162950D01*
X6586027Y-9162950D02*
X6557455Y-9162950D01*
X6557455Y-9162950D02*
X6538408Y-9172474D01*
X6538408Y-9172474D02*
X6528884Y-9181998D01*
X6738408Y-9296284D02*
X6719360Y-9286760D01*
X6719360Y-9286760D02*
X6709836Y-9277236D01*
X6709836Y-9277236D02*
X6700312Y-9258189D01*
X6700312Y-9258189D02*
X6700312Y-9201046D01*
X6700312Y-9201046D02*
X6709836Y-9181998D01*
X6709836Y-9181998D02*
X6719360Y-9172474D01*
X6719360Y-9172474D02*
X6738408Y-9162950D01*
X6738408Y-9162950D02*
X6766979Y-9162950D01*
X6766979Y-9162950D02*
X6786027Y-9172474D01*
X6786027Y-9172474D02*
X6795551Y-9181998D01*
X6795551Y-9181998D02*
X6805074Y-9201046D01*
X6805074Y-9201046D02*
X6805074Y-9258189D01*
X6805074Y-9258189D02*
X6795551Y-9277236D01*
X6795551Y-9277236D02*
X6786027Y-9286760D01*
X6786027Y-9286760D02*
X6766979Y-9296284D01*
X6766979Y-9296284D02*
X6738408Y-9296284D01*
X6919360Y-9296284D02*
X6900312Y-9286760D01*
X6900312Y-9286760D02*
X6890789Y-9267712D01*
X6890789Y-9267712D02*
X6890789Y-9096284D01*
X7071741Y-9286760D02*
X7052693Y-9296284D01*
X7052693Y-9296284D02*
X7014598Y-9296284D01*
X7014598Y-9296284D02*
X6995551Y-9286760D01*
X6995551Y-9286760D02*
X6986027Y-9267712D01*
X6986027Y-9267712D02*
X6986027Y-9191522D01*
X6986027Y-9191522D02*
X6995551Y-9172474D01*
X6995551Y-9172474D02*
X7014598Y-9162950D01*
X7014598Y-9162950D02*
X7052693Y-9162950D01*
X7052693Y-9162950D02*
X7071741Y-9172474D01*
X7071741Y-9172474D02*
X7081265Y-9191522D01*
X7081265Y-9191522D02*
X7081265Y-9210570D01*
X7081265Y-9210570D02*
X6986027Y-9229617D01*
X7157455Y-9286760D02*
X7176503Y-9296284D01*
X7176503Y-9296284D02*
X7214598Y-9296284D01*
X7214598Y-9296284D02*
X7233646Y-9286760D01*
X7233646Y-9286760D02*
X7243170Y-9267712D01*
X7243170Y-9267712D02*
X7243170Y-9258189D01*
X7243170Y-9258189D02*
X7233646Y-9239141D01*
X7233646Y-9239141D02*
X7214598Y-9229617D01*
X7214598Y-9229617D02*
X7186027Y-9229617D01*
X7186027Y-9229617D02*
X7166979Y-9220093D01*
X7166979Y-9220093D02*
X7157455Y-9201046D01*
X7157455Y-9201046D02*
X7157455Y-9191522D01*
X7157455Y-9191522D02*
X7166979Y-9172474D01*
X7166979Y-9172474D02*
X7186027Y-9162950D01*
X7186027Y-9162950D02*
X7214598Y-9162950D01*
X7214598Y-9162950D02*
X7233646Y-9172474D01*
X7309836Y-9372474D02*
X7319360Y-9362950D01*
X7319360Y-9362950D02*
X7338408Y-9334379D01*
X7338408Y-9334379D02*
X7347932Y-9315331D01*
X7347932Y-9315331D02*
X7357455Y-9286760D01*
X7357455Y-9286760D02*
X7366979Y-9239141D01*
X7366979Y-9239141D02*
X7366979Y-9201046D01*
X7366979Y-9201046D02*
X7357455Y-9153427D01*
X7357455Y-9153427D02*
X7347932Y-9124855D01*
X7347932Y-9124855D02*
X7338408Y-9105808D01*
X7338408Y-9105808D02*
X7319360Y-9077236D01*
X7319360Y-9077236D02*
X7309836Y-9067712D01*
D10*
X2534773Y-9468800D02*
G75*
G02*
X2494773Y-9468800I-20000J0D01*
G01*
X2494773Y-9468800D02*
G75*
G02*
X2534773Y-9468800I20000J0D01*
G01*
D11*
X2833645Y-9360284D02*
X2852693Y-9360284D01*
X2852693Y-9360284D02*
X2871741Y-9369808D01*
X2871741Y-9369808D02*
X2881264Y-9379331D01*
X2881264Y-9379331D02*
X2890788Y-9398379D01*
X2890788Y-9398379D02*
X2900312Y-9436474D01*
X2900312Y-9436474D02*
X2900312Y-9484093D01*
X2900312Y-9484093D02*
X2890788Y-9522189D01*
X2890788Y-9522189D02*
X2881264Y-9541236D01*
X2881264Y-9541236D02*
X2871741Y-9550760D01*
X2871741Y-9550760D02*
X2852693Y-9560284D01*
X2852693Y-9560284D02*
X2833645Y-9560284D01*
X2833645Y-9560284D02*
X2814598Y-9550760D01*
X2814598Y-9550760D02*
X2805074Y-9541236D01*
X2805074Y-9541236D02*
X2795550Y-9522189D01*
X2795550Y-9522189D02*
X2786026Y-9484093D01*
X2786026Y-9484093D02*
X2786026Y-9436474D01*
X2786026Y-9436474D02*
X2795550Y-9398379D01*
X2795550Y-9398379D02*
X2805074Y-9379331D01*
X2805074Y-9379331D02*
X2814598Y-9369808D01*
X2814598Y-9369808D02*
X2833645Y-9360284D01*
X2986026Y-9541236D02*
X2995550Y-9550760D01*
X2995550Y-9550760D02*
X2986026Y-9560284D01*
X2986026Y-9560284D02*
X2976503Y-9550760D01*
X2976503Y-9550760D02*
X2986026Y-9541236D01*
X2986026Y-9541236D02*
X2986026Y-9560284D01*
X3166979Y-9426950D02*
X3166979Y-9560284D01*
X3119360Y-9350760D02*
X3071741Y-9493617D01*
X3071741Y-9493617D02*
X3195550Y-9493617D01*
X3309836Y-9360284D02*
X3328884Y-9360284D01*
X3328884Y-9360284D02*
X3347931Y-9369808D01*
X3347931Y-9369808D02*
X3357455Y-9379331D01*
X3357455Y-9379331D02*
X3366979Y-9398379D01*
X3366979Y-9398379D02*
X3376503Y-9436474D01*
X3376503Y-9436474D02*
X3376503Y-9484093D01*
X3376503Y-9484093D02*
X3366979Y-9522189D01*
X3366979Y-9522189D02*
X3357455Y-9541236D01*
X3357455Y-9541236D02*
X3347931Y-9550760D01*
X3347931Y-9550760D02*
X3328884Y-9560284D01*
X3328884Y-9560284D02*
X3309836Y-9560284D01*
X3309836Y-9560284D02*
X3290788Y-9550760D01*
X3290788Y-9550760D02*
X3281264Y-9541236D01*
X3281264Y-9541236D02*
X3271741Y-9522189D01*
X3271741Y-9522189D02*
X3262217Y-9484093D01*
X3262217Y-9484093D02*
X3262217Y-9436474D01*
X3262217Y-9436474D02*
X3271741Y-9398379D01*
X3271741Y-9398379D02*
X3281264Y-9379331D01*
X3281264Y-9379331D02*
X3290788Y-9369808D01*
X3290788Y-9369808D02*
X3309836Y-9360284D01*
X3500312Y-9360284D02*
X3519360Y-9360284D01*
X3519360Y-9360284D02*
X3538407Y-9369808D01*
X3538407Y-9369808D02*
X3547931Y-9379331D01*
X3547931Y-9379331D02*
X3557455Y-9398379D01*
X3557455Y-9398379D02*
X3566979Y-9436474D01*
X3566979Y-9436474D02*
X3566979Y-9484093D01*
X3566979Y-9484093D02*
X3557455Y-9522189D01*
X3557455Y-9522189D02*
X3547931Y-9541236D01*
X3547931Y-9541236D02*
X3538407Y-9550760D01*
X3538407Y-9550760D02*
X3519360Y-9560284D01*
X3519360Y-9560284D02*
X3500312Y-9560284D01*
X3500312Y-9560284D02*
X3481264Y-9550760D01*
X3481264Y-9550760D02*
X3471741Y-9541236D01*
X3471741Y-9541236D02*
X3462217Y-9522189D01*
X3462217Y-9522189D02*
X3452693Y-9484093D01*
X3452693Y-9484093D02*
X3452693Y-9436474D01*
X3452693Y-9436474D02*
X3462217Y-9398379D01*
X3462217Y-9398379D02*
X3471741Y-9379331D01*
X3471741Y-9379331D02*
X3481264Y-9369808D01*
X3481264Y-9369808D02*
X3500312Y-9360284D01*
X3652693Y-9560284D02*
X3652693Y-9426950D01*
X3652693Y-9445998D02*
X3662217Y-9436474D01*
X3662217Y-9436474D02*
X3681264Y-9426950D01*
X3681264Y-9426950D02*
X3709836Y-9426950D01*
X3709836Y-9426950D02*
X3728884Y-9436474D01*
X3728884Y-9436474D02*
X3738407Y-9455522D01*
X3738407Y-9455522D02*
X3738407Y-9560284D01*
X3738407Y-9455522D02*
X3747931Y-9436474D01*
X3747931Y-9436474D02*
X3766979Y-9426950D01*
X3766979Y-9426950D02*
X3795550Y-9426950D01*
X3795550Y-9426950D02*
X3814598Y-9436474D01*
X3814598Y-9436474D02*
X3824122Y-9455522D01*
X3824122Y-9455522D02*
X3824122Y-9560284D01*
X3919360Y-9560284D02*
X3919360Y-9426950D01*
X3919360Y-9445998D02*
X3928884Y-9436474D01*
X3928884Y-9436474D02*
X3947931Y-9426950D01*
X3947931Y-9426950D02*
X3976503Y-9426950D01*
X3976503Y-9426950D02*
X3995550Y-9436474D01*
X3995550Y-9436474D02*
X4005074Y-9455522D01*
X4005074Y-9455522D02*
X4005074Y-9560284D01*
X4005074Y-9455522D02*
X4014598Y-9436474D01*
X4014598Y-9436474D02*
X4033645Y-9426950D01*
X4033645Y-9426950D02*
X4062217Y-9426950D01*
X4062217Y-9426950D02*
X4081265Y-9436474D01*
X4081265Y-9436474D02*
X4090788Y-9455522D01*
X4090788Y-9455522D02*
X4090788Y-9560284D01*
X4481265Y-9350760D02*
X4309836Y-9607903D01*
X4738408Y-9360284D02*
X4757455Y-9360284D01*
X4757455Y-9360284D02*
X4776503Y-9369808D01*
X4776503Y-9369808D02*
X4786027Y-9379331D01*
X4786027Y-9379331D02*
X4795550Y-9398379D01*
X4795550Y-9398379D02*
X4805074Y-9436474D01*
X4805074Y-9436474D02*
X4805074Y-9484093D01*
X4805074Y-9484093D02*
X4795550Y-9522189D01*
X4795550Y-9522189D02*
X4786027Y-9541236D01*
X4786027Y-9541236D02*
X4776503Y-9550760D01*
X4776503Y-9550760D02*
X4757455Y-9560284D01*
X4757455Y-9560284D02*
X4738408Y-9560284D01*
X4738408Y-9560284D02*
X4719360Y-9550760D01*
X4719360Y-9550760D02*
X4709836Y-9541236D01*
X4709836Y-9541236D02*
X4700312Y-9522189D01*
X4700312Y-9522189D02*
X4690789Y-9484093D01*
X4690789Y-9484093D02*
X4690789Y-9436474D01*
X4690789Y-9436474D02*
X4700312Y-9398379D01*
X4700312Y-9398379D02*
X4709836Y-9379331D01*
X4709836Y-9379331D02*
X4719360Y-9369808D01*
X4719360Y-9369808D02*
X4738408Y-9360284D01*
X4890789Y-9541236D02*
X4900312Y-9550760D01*
X4900312Y-9550760D02*
X4890789Y-9560284D01*
X4890789Y-9560284D02*
X4881265Y-9550760D01*
X4881265Y-9550760D02*
X4890789Y-9541236D01*
X4890789Y-9541236D02*
X4890789Y-9560284D01*
X5024122Y-9360284D02*
X5043170Y-9360284D01*
X5043170Y-9360284D02*
X5062217Y-9369808D01*
X5062217Y-9369808D02*
X5071741Y-9379331D01*
X5071741Y-9379331D02*
X5081265Y-9398379D01*
X5081265Y-9398379D02*
X5090789Y-9436474D01*
X5090789Y-9436474D02*
X5090789Y-9484093D01*
X5090789Y-9484093D02*
X5081265Y-9522189D01*
X5081265Y-9522189D02*
X5071741Y-9541236D01*
X5071741Y-9541236D02*
X5062217Y-9550760D01*
X5062217Y-9550760D02*
X5043170Y-9560284D01*
X5043170Y-9560284D02*
X5024122Y-9560284D01*
X5024122Y-9560284D02*
X5005074Y-9550760D01*
X5005074Y-9550760D02*
X4995550Y-9541236D01*
X4995550Y-9541236D02*
X4986027Y-9522189D01*
X4986027Y-9522189D02*
X4976503Y-9484093D01*
X4976503Y-9484093D02*
X4976503Y-9436474D01*
X4976503Y-9436474D02*
X4986027Y-9398379D01*
X4986027Y-9398379D02*
X4995550Y-9379331D01*
X4995550Y-9379331D02*
X5005074Y-9369808D01*
X5005074Y-9369808D02*
X5024122Y-9360284D01*
X5281265Y-9560284D02*
X5166979Y-9560284D01*
X5224122Y-9560284D02*
X5224122Y-9360284D01*
X5224122Y-9360284D02*
X5205074Y-9388855D01*
X5205074Y-9388855D02*
X5186027Y-9407903D01*
X5186027Y-9407903D02*
X5166979Y-9417427D01*
X5462217Y-9360284D02*
X5366979Y-9360284D01*
X5366979Y-9360284D02*
X5357455Y-9455522D01*
X5357455Y-9455522D02*
X5366979Y-9445998D01*
X5366979Y-9445998D02*
X5386027Y-9436474D01*
X5386027Y-9436474D02*
X5433646Y-9436474D01*
X5433646Y-9436474D02*
X5452693Y-9445998D01*
X5452693Y-9445998D02*
X5462217Y-9455522D01*
X5462217Y-9455522D02*
X5471741Y-9474570D01*
X5471741Y-9474570D02*
X5471741Y-9522189D01*
X5471741Y-9522189D02*
X5462217Y-9541236D01*
X5462217Y-9541236D02*
X5452693Y-9550760D01*
X5452693Y-9550760D02*
X5433646Y-9560284D01*
X5433646Y-9560284D02*
X5386027Y-9560284D01*
X5386027Y-9560284D02*
X5366979Y-9550760D01*
X5366979Y-9550760D02*
X5357455Y-9541236D01*
X5538408Y-9360284D02*
X5671741Y-9360284D01*
X5671741Y-9360284D02*
X5586027Y-9560284D01*
X5738408Y-9360284D02*
X5738408Y-9398379D01*
X5814598Y-9360284D02*
X5814598Y-9398379D01*
X6109836Y-9636474D02*
X6100312Y-9626950D01*
X6100312Y-9626950D02*
X6081265Y-9598379D01*
X6081265Y-9598379D02*
X6071741Y-9579331D01*
X6071741Y-9579331D02*
X6062217Y-9550760D01*
X6062217Y-9550760D02*
X6052693Y-9503141D01*
X6052693Y-9503141D02*
X6052693Y-9465046D01*
X6052693Y-9465046D02*
X6062217Y-9417427D01*
X6062217Y-9417427D02*
X6071741Y-9388855D01*
X6071741Y-9388855D02*
X6081265Y-9369808D01*
X6081265Y-9369808D02*
X6100312Y-9341236D01*
X6100312Y-9341236D02*
X6109836Y-9331712D01*
X6166979Y-9360284D02*
X6290789Y-9360284D01*
X6290789Y-9360284D02*
X6224122Y-9436474D01*
X6224122Y-9436474D02*
X6252693Y-9436474D01*
X6252693Y-9436474D02*
X6271741Y-9445998D01*
X6271741Y-9445998D02*
X6281265Y-9455522D01*
X6281265Y-9455522D02*
X6290789Y-9474570D01*
X6290789Y-9474570D02*
X6290789Y-9522189D01*
X6290789Y-9522189D02*
X6281265Y-9541236D01*
X6281265Y-9541236D02*
X6271741Y-9550760D01*
X6271741Y-9550760D02*
X6252693Y-9560284D01*
X6252693Y-9560284D02*
X6195550Y-9560284D01*
X6195550Y-9560284D02*
X6176503Y-9550760D01*
X6176503Y-9550760D02*
X6166979Y-9541236D01*
X6357455Y-9360284D02*
X6490789Y-9360284D01*
X6490789Y-9360284D02*
X6405074Y-9560284D01*
X6547931Y-9360284D02*
X6681265Y-9360284D01*
X6681265Y-9360284D02*
X6595550Y-9560284D01*
X6909836Y-9560284D02*
X6909836Y-9360284D01*
X6995551Y-9560284D02*
X6995551Y-9455522D01*
X6995551Y-9455522D02*
X6986027Y-9436474D01*
X6986027Y-9436474D02*
X6966979Y-9426950D01*
X6966979Y-9426950D02*
X6938408Y-9426950D01*
X6938408Y-9426950D02*
X6919360Y-9436474D01*
X6919360Y-9436474D02*
X6909836Y-9445998D01*
X7119360Y-9560284D02*
X7100312Y-9550760D01*
X7100312Y-9550760D02*
X7090789Y-9541236D01*
X7090789Y-9541236D02*
X7081265Y-9522189D01*
X7081265Y-9522189D02*
X7081265Y-9465046D01*
X7081265Y-9465046D02*
X7090789Y-9445998D01*
X7090789Y-9445998D02*
X7100312Y-9436474D01*
X7100312Y-9436474D02*
X7119360Y-9426950D01*
X7119360Y-9426950D02*
X7147932Y-9426950D01*
X7147932Y-9426950D02*
X7166979Y-9436474D01*
X7166979Y-9436474D02*
X7176503Y-9445998D01*
X7176503Y-9445998D02*
X7186027Y-9465046D01*
X7186027Y-9465046D02*
X7186027Y-9522189D01*
X7186027Y-9522189D02*
X7176503Y-9541236D01*
X7176503Y-9541236D02*
X7166979Y-9550760D01*
X7166979Y-9550760D02*
X7147932Y-9560284D01*
X7147932Y-9560284D02*
X7119360Y-9560284D01*
X7300312Y-9560284D02*
X7281265Y-9550760D01*
X7281265Y-9550760D02*
X7271741Y-9531712D01*
X7271741Y-9531712D02*
X7271741Y-9360284D01*
X7452693Y-9550760D02*
X7433646Y-9560284D01*
X7433646Y-9560284D02*
X7395551Y-9560284D01*
X7395551Y-9560284D02*
X7376503Y-9550760D01*
X7376503Y-9550760D02*
X7366979Y-9531712D01*
X7366979Y-9531712D02*
X7366979Y-9455522D01*
X7366979Y-9455522D02*
X7376503Y-9436474D01*
X7376503Y-9436474D02*
X7395551Y-9426950D01*
X7395551Y-9426950D02*
X7433646Y-9426950D01*
X7433646Y-9426950D02*
X7452693Y-9436474D01*
X7452693Y-9436474D02*
X7462217Y-9455522D01*
X7462217Y-9455522D02*
X7462217Y-9474570D01*
X7462217Y-9474570D02*
X7366979Y-9493617D01*
X7538408Y-9550760D02*
X7557455Y-9560284D01*
X7557455Y-9560284D02*
X7595551Y-9560284D01*
X7595551Y-9560284D02*
X7614598Y-9550760D01*
X7614598Y-9550760D02*
X7624122Y-9531712D01*
X7624122Y-9531712D02*
X7624122Y-9522189D01*
X7624122Y-9522189D02*
X7614598Y-9503141D01*
X7614598Y-9503141D02*
X7595551Y-9493617D01*
X7595551Y-9493617D02*
X7566979Y-9493617D01*
X7566979Y-9493617D02*
X7547932Y-9484093D01*
X7547932Y-9484093D02*
X7538408Y-9465046D01*
X7538408Y-9465046D02*
X7538408Y-9455522D01*
X7538408Y-9455522D02*
X7547932Y-9436474D01*
X7547932Y-9436474D02*
X7566979Y-9426950D01*
X7566979Y-9426950D02*
X7595551Y-9426950D01*
X7595551Y-9426950D02*
X7614598Y-9436474D01*
X7690789Y-9636474D02*
X7700313Y-9626950D01*
X7700313Y-9626950D02*
X7719360Y-9598379D01*
X7719360Y-9598379D02*
X7728884Y-9579331D01*
X7728884Y-9579331D02*
X7738408Y-9550760D01*
X7738408Y-9550760D02*
X7747932Y-9503141D01*
X7747932Y-9503141D02*
X7747932Y-9465046D01*
X7747932Y-9465046D02*
X7738408Y-9417427D01*
X7738408Y-9417427D02*
X7728884Y-9388855D01*
X7728884Y-9388855D02*
X7719360Y-9369808D01*
X7719360Y-9369808D02*
X7700313Y-9341236D01*
X7700313Y-9341236D02*
X7690789Y-9331712D01*
D10*
X2509773Y-9707800D02*
X2509773Y-9757800D01*
X2484773Y-9732800D02*
X2534773Y-9732800D01*
D11*
X2833645Y-9624284D02*
X2852693Y-9624284D01*
X2852693Y-9624284D02*
X2871741Y-9633808D01*
X2871741Y-9633808D02*
X2881264Y-9643331D01*
X2881264Y-9643331D02*
X2890788Y-9662379D01*
X2890788Y-9662379D02*
X2900312Y-9700474D01*
X2900312Y-9700474D02*
X2900312Y-9748093D01*
X2900312Y-9748093D02*
X2890788Y-9786189D01*
X2890788Y-9786189D02*
X2881264Y-9805236D01*
X2881264Y-9805236D02*
X2871741Y-9814760D01*
X2871741Y-9814760D02*
X2852693Y-9824284D01*
X2852693Y-9824284D02*
X2833645Y-9824284D01*
X2833645Y-9824284D02*
X2814598Y-9814760D01*
X2814598Y-9814760D02*
X2805074Y-9805236D01*
X2805074Y-9805236D02*
X2795550Y-9786189D01*
X2795550Y-9786189D02*
X2786026Y-9748093D01*
X2786026Y-9748093D02*
X2786026Y-9700474D01*
X2786026Y-9700474D02*
X2795550Y-9662379D01*
X2795550Y-9662379D02*
X2805074Y-9643331D01*
X2805074Y-9643331D02*
X2814598Y-9633808D01*
X2814598Y-9633808D02*
X2833645Y-9624284D01*
X2986026Y-9805236D02*
X2995550Y-9814760D01*
X2995550Y-9814760D02*
X2986026Y-9824284D01*
X2986026Y-9824284D02*
X2976503Y-9814760D01*
X2976503Y-9814760D02*
X2986026Y-9805236D01*
X2986026Y-9805236D02*
X2986026Y-9824284D01*
X3176503Y-9624284D02*
X3081264Y-9624284D01*
X3081264Y-9624284D02*
X3071741Y-9719522D01*
X3071741Y-9719522D02*
X3081264Y-9709998D01*
X3081264Y-9709998D02*
X3100312Y-9700474D01*
X3100312Y-9700474D02*
X3147931Y-9700474D01*
X3147931Y-9700474D02*
X3166979Y-9709998D01*
X3166979Y-9709998D02*
X3176503Y-9719522D01*
X3176503Y-9719522D02*
X3186026Y-9738570D01*
X3186026Y-9738570D02*
X3186026Y-9786189D01*
X3186026Y-9786189D02*
X3176503Y-9805236D01*
X3176503Y-9805236D02*
X3166979Y-9814760D01*
X3166979Y-9814760D02*
X3147931Y-9824284D01*
X3147931Y-9824284D02*
X3100312Y-9824284D01*
X3100312Y-9824284D02*
X3081264Y-9814760D01*
X3081264Y-9814760D02*
X3071741Y-9805236D01*
X3309836Y-9624284D02*
X3328884Y-9624284D01*
X3328884Y-9624284D02*
X3347931Y-9633808D01*
X3347931Y-9633808D02*
X3357455Y-9643331D01*
X3357455Y-9643331D02*
X3366979Y-9662379D01*
X3366979Y-9662379D02*
X3376503Y-9700474D01*
X3376503Y-9700474D02*
X3376503Y-9748093D01*
X3376503Y-9748093D02*
X3366979Y-9786189D01*
X3366979Y-9786189D02*
X3357455Y-9805236D01*
X3357455Y-9805236D02*
X3347931Y-9814760D01*
X3347931Y-9814760D02*
X3328884Y-9824284D01*
X3328884Y-9824284D02*
X3309836Y-9824284D01*
X3309836Y-9824284D02*
X3290788Y-9814760D01*
X3290788Y-9814760D02*
X3281264Y-9805236D01*
X3281264Y-9805236D02*
X3271741Y-9786189D01*
X3271741Y-9786189D02*
X3262217Y-9748093D01*
X3262217Y-9748093D02*
X3262217Y-9700474D01*
X3262217Y-9700474D02*
X3271741Y-9662379D01*
X3271741Y-9662379D02*
X3281264Y-9643331D01*
X3281264Y-9643331D02*
X3290788Y-9633808D01*
X3290788Y-9633808D02*
X3309836Y-9624284D01*
X3500312Y-9624284D02*
X3519360Y-9624284D01*
X3519360Y-9624284D02*
X3538407Y-9633808D01*
X3538407Y-9633808D02*
X3547931Y-9643331D01*
X3547931Y-9643331D02*
X3557455Y-9662379D01*
X3557455Y-9662379D02*
X3566979Y-9700474D01*
X3566979Y-9700474D02*
X3566979Y-9748093D01*
X3566979Y-9748093D02*
X3557455Y-9786189D01*
X3557455Y-9786189D02*
X3547931Y-9805236D01*
X3547931Y-9805236D02*
X3538407Y-9814760D01*
X3538407Y-9814760D02*
X3519360Y-9824284D01*
X3519360Y-9824284D02*
X3500312Y-9824284D01*
X3500312Y-9824284D02*
X3481264Y-9814760D01*
X3481264Y-9814760D02*
X3471741Y-9805236D01*
X3471741Y-9805236D02*
X3462217Y-9786189D01*
X3462217Y-9786189D02*
X3452693Y-9748093D01*
X3452693Y-9748093D02*
X3452693Y-9700474D01*
X3452693Y-9700474D02*
X3462217Y-9662379D01*
X3462217Y-9662379D02*
X3471741Y-9643331D01*
X3471741Y-9643331D02*
X3481264Y-9633808D01*
X3481264Y-9633808D02*
X3500312Y-9624284D01*
X3652693Y-9824284D02*
X3652693Y-9690950D01*
X3652693Y-9709998D02*
X3662217Y-9700474D01*
X3662217Y-9700474D02*
X3681264Y-9690950D01*
X3681264Y-9690950D02*
X3709836Y-9690950D01*
X3709836Y-9690950D02*
X3728884Y-9700474D01*
X3728884Y-9700474D02*
X3738407Y-9719522D01*
X3738407Y-9719522D02*
X3738407Y-9824284D01*
X3738407Y-9719522D02*
X3747931Y-9700474D01*
X3747931Y-9700474D02*
X3766979Y-9690950D01*
X3766979Y-9690950D02*
X3795550Y-9690950D01*
X3795550Y-9690950D02*
X3814598Y-9700474D01*
X3814598Y-9700474D02*
X3824122Y-9719522D01*
X3824122Y-9719522D02*
X3824122Y-9824284D01*
X3919360Y-9824284D02*
X3919360Y-9690950D01*
X3919360Y-9709998D02*
X3928884Y-9700474D01*
X3928884Y-9700474D02*
X3947931Y-9690950D01*
X3947931Y-9690950D02*
X3976503Y-9690950D01*
X3976503Y-9690950D02*
X3995550Y-9700474D01*
X3995550Y-9700474D02*
X4005074Y-9719522D01*
X4005074Y-9719522D02*
X4005074Y-9824284D01*
X4005074Y-9719522D02*
X4014598Y-9700474D01*
X4014598Y-9700474D02*
X4033645Y-9690950D01*
X4033645Y-9690950D02*
X4062217Y-9690950D01*
X4062217Y-9690950D02*
X4081265Y-9700474D01*
X4081265Y-9700474D02*
X4090788Y-9719522D01*
X4090788Y-9719522D02*
X4090788Y-9824284D01*
X4481265Y-9614760D02*
X4309836Y-9871903D01*
X4738408Y-9624284D02*
X4757455Y-9624284D01*
X4757455Y-9624284D02*
X4776503Y-9633808D01*
X4776503Y-9633808D02*
X4786027Y-9643331D01*
X4786027Y-9643331D02*
X4795550Y-9662379D01*
X4795550Y-9662379D02*
X4805074Y-9700474D01*
X4805074Y-9700474D02*
X4805074Y-9748093D01*
X4805074Y-9748093D02*
X4795550Y-9786189D01*
X4795550Y-9786189D02*
X4786027Y-9805236D01*
X4786027Y-9805236D02*
X4776503Y-9814760D01*
X4776503Y-9814760D02*
X4757455Y-9824284D01*
X4757455Y-9824284D02*
X4738408Y-9824284D01*
X4738408Y-9824284D02*
X4719360Y-9814760D01*
X4719360Y-9814760D02*
X4709836Y-9805236D01*
X4709836Y-9805236D02*
X4700312Y-9786189D01*
X4700312Y-9786189D02*
X4690789Y-9748093D01*
X4690789Y-9748093D02*
X4690789Y-9700474D01*
X4690789Y-9700474D02*
X4700312Y-9662379D01*
X4700312Y-9662379D02*
X4709836Y-9643331D01*
X4709836Y-9643331D02*
X4719360Y-9633808D01*
X4719360Y-9633808D02*
X4738408Y-9624284D01*
X4890789Y-9805236D02*
X4900312Y-9814760D01*
X4900312Y-9814760D02*
X4890789Y-9824284D01*
X4890789Y-9824284D02*
X4881265Y-9814760D01*
X4881265Y-9814760D02*
X4890789Y-9805236D01*
X4890789Y-9805236D02*
X4890789Y-9824284D01*
X5024122Y-9624284D02*
X5043170Y-9624284D01*
X5043170Y-9624284D02*
X5062217Y-9633808D01*
X5062217Y-9633808D02*
X5071741Y-9643331D01*
X5071741Y-9643331D02*
X5081265Y-9662379D01*
X5081265Y-9662379D02*
X5090789Y-9700474D01*
X5090789Y-9700474D02*
X5090789Y-9748093D01*
X5090789Y-9748093D02*
X5081265Y-9786189D01*
X5081265Y-9786189D02*
X5071741Y-9805236D01*
X5071741Y-9805236D02*
X5062217Y-9814760D01*
X5062217Y-9814760D02*
X5043170Y-9824284D01*
X5043170Y-9824284D02*
X5024122Y-9824284D01*
X5024122Y-9824284D02*
X5005074Y-9814760D01*
X5005074Y-9814760D02*
X4995550Y-9805236D01*
X4995550Y-9805236D02*
X4986027Y-9786189D01*
X4986027Y-9786189D02*
X4976503Y-9748093D01*
X4976503Y-9748093D02*
X4976503Y-9700474D01*
X4976503Y-9700474D02*
X4986027Y-9662379D01*
X4986027Y-9662379D02*
X4995550Y-9643331D01*
X4995550Y-9643331D02*
X5005074Y-9633808D01*
X5005074Y-9633808D02*
X5024122Y-9624284D01*
X5281265Y-9824284D02*
X5166979Y-9824284D01*
X5224122Y-9824284D02*
X5224122Y-9624284D01*
X5224122Y-9624284D02*
X5205074Y-9652855D01*
X5205074Y-9652855D02*
X5186027Y-9671903D01*
X5186027Y-9671903D02*
X5166979Y-9681427D01*
X5376503Y-9824284D02*
X5414598Y-9824284D01*
X5414598Y-9824284D02*
X5433646Y-9814760D01*
X5433646Y-9814760D02*
X5443170Y-9805236D01*
X5443170Y-9805236D02*
X5462217Y-9776665D01*
X5462217Y-9776665D02*
X5471741Y-9738570D01*
X5471741Y-9738570D02*
X5471741Y-9662379D01*
X5471741Y-9662379D02*
X5462217Y-9643331D01*
X5462217Y-9643331D02*
X5452693Y-9633808D01*
X5452693Y-9633808D02*
X5433646Y-9624284D01*
X5433646Y-9624284D02*
X5395550Y-9624284D01*
X5395550Y-9624284D02*
X5376503Y-9633808D01*
X5376503Y-9633808D02*
X5366979Y-9643331D01*
X5366979Y-9643331D02*
X5357455Y-9662379D01*
X5357455Y-9662379D02*
X5357455Y-9709998D01*
X5357455Y-9709998D02*
X5366979Y-9729046D01*
X5366979Y-9729046D02*
X5376503Y-9738570D01*
X5376503Y-9738570D02*
X5395550Y-9748093D01*
X5395550Y-9748093D02*
X5433646Y-9748093D01*
X5433646Y-9748093D02*
X5452693Y-9738570D01*
X5452693Y-9738570D02*
X5462217Y-9729046D01*
X5462217Y-9729046D02*
X5471741Y-9709998D01*
X5538408Y-9624284D02*
X5671741Y-9624284D01*
X5671741Y-9624284D02*
X5586027Y-9824284D01*
X5738408Y-9624284D02*
X5738408Y-9662379D01*
X5814598Y-9624284D02*
X5814598Y-9662379D01*
X6109836Y-9900474D02*
X6100312Y-9890950D01*
X6100312Y-9890950D02*
X6081265Y-9862379D01*
X6081265Y-9862379D02*
X6071741Y-9843331D01*
X6071741Y-9843331D02*
X6062217Y-9814760D01*
X6062217Y-9814760D02*
X6052693Y-9767141D01*
X6052693Y-9767141D02*
X6052693Y-9729046D01*
X6052693Y-9729046D02*
X6062217Y-9681427D01*
X6062217Y-9681427D02*
X6071741Y-9652855D01*
X6071741Y-9652855D02*
X6081265Y-9633808D01*
X6081265Y-9633808D02*
X6100312Y-9605236D01*
X6100312Y-9605236D02*
X6109836Y-9595712D01*
X6166979Y-9624284D02*
X6300312Y-9624284D01*
X6300312Y-9624284D02*
X6214598Y-9824284D01*
X6471741Y-9624284D02*
X6376503Y-9624284D01*
X6376503Y-9624284D02*
X6366979Y-9719522D01*
X6366979Y-9719522D02*
X6376503Y-9709998D01*
X6376503Y-9709998D02*
X6395550Y-9700474D01*
X6395550Y-9700474D02*
X6443170Y-9700474D01*
X6443170Y-9700474D02*
X6462217Y-9709998D01*
X6462217Y-9709998D02*
X6471741Y-9719522D01*
X6471741Y-9719522D02*
X6481265Y-9738570D01*
X6481265Y-9738570D02*
X6481265Y-9786189D01*
X6481265Y-9786189D02*
X6471741Y-9805236D01*
X6471741Y-9805236D02*
X6462217Y-9814760D01*
X6462217Y-9814760D02*
X6443170Y-9824284D01*
X6443170Y-9824284D02*
X6395550Y-9824284D01*
X6395550Y-9824284D02*
X6376503Y-9814760D01*
X6376503Y-9814760D02*
X6366979Y-9805236D01*
X6719360Y-9824284D02*
X6719360Y-9624284D01*
X6805074Y-9824284D02*
X6805074Y-9719522D01*
X6805074Y-9719522D02*
X6795551Y-9700474D01*
X6795551Y-9700474D02*
X6776503Y-9690950D01*
X6776503Y-9690950D02*
X6747931Y-9690950D01*
X6747931Y-9690950D02*
X6728884Y-9700474D01*
X6728884Y-9700474D02*
X6719360Y-9709998D01*
X6928884Y-9824284D02*
X6909836Y-9814760D01*
X6909836Y-9814760D02*
X6900312Y-9805236D01*
X6900312Y-9805236D02*
X6890789Y-9786189D01*
X6890789Y-9786189D02*
X6890789Y-9729046D01*
X6890789Y-9729046D02*
X6900312Y-9709998D01*
X6900312Y-9709998D02*
X6909836Y-9700474D01*
X6909836Y-9700474D02*
X6928884Y-9690950D01*
X6928884Y-9690950D02*
X6957455Y-9690950D01*
X6957455Y-9690950D02*
X6976503Y-9700474D01*
X6976503Y-9700474D02*
X6986027Y-9709998D01*
X6986027Y-9709998D02*
X6995551Y-9729046D01*
X6995551Y-9729046D02*
X6995551Y-9786189D01*
X6995551Y-9786189D02*
X6986027Y-9805236D01*
X6986027Y-9805236D02*
X6976503Y-9814760D01*
X6976503Y-9814760D02*
X6957455Y-9824284D01*
X6957455Y-9824284D02*
X6928884Y-9824284D01*
X7109836Y-9824284D02*
X7090789Y-9814760D01*
X7090789Y-9814760D02*
X7081265Y-9795712D01*
X7081265Y-9795712D02*
X7081265Y-9624284D01*
X7262217Y-9814760D02*
X7243170Y-9824284D01*
X7243170Y-9824284D02*
X7205074Y-9824284D01*
X7205074Y-9824284D02*
X7186027Y-9814760D01*
X7186027Y-9814760D02*
X7176503Y-9795712D01*
X7176503Y-9795712D02*
X7176503Y-9719522D01*
X7176503Y-9719522D02*
X7186027Y-9700474D01*
X7186027Y-9700474D02*
X7205074Y-9690950D01*
X7205074Y-9690950D02*
X7243170Y-9690950D01*
X7243170Y-9690950D02*
X7262217Y-9700474D01*
X7262217Y-9700474D02*
X7271741Y-9719522D01*
X7271741Y-9719522D02*
X7271741Y-9738570D01*
X7271741Y-9738570D02*
X7176503Y-9757617D01*
X7347932Y-9814760D02*
X7366979Y-9824284D01*
X7366979Y-9824284D02*
X7405074Y-9824284D01*
X7405074Y-9824284D02*
X7424122Y-9814760D01*
X7424122Y-9814760D02*
X7433646Y-9795712D01*
X7433646Y-9795712D02*
X7433646Y-9786189D01*
X7433646Y-9786189D02*
X7424122Y-9767141D01*
X7424122Y-9767141D02*
X7405074Y-9757617D01*
X7405074Y-9757617D02*
X7376503Y-9757617D01*
X7376503Y-9757617D02*
X7357455Y-9748093D01*
X7357455Y-9748093D02*
X7347932Y-9729046D01*
X7347932Y-9729046D02*
X7347932Y-9719522D01*
X7347932Y-9719522D02*
X7357455Y-9700474D01*
X7357455Y-9700474D02*
X7376503Y-9690950D01*
X7376503Y-9690950D02*
X7405074Y-9690950D01*
X7405074Y-9690950D02*
X7424122Y-9700474D01*
X7500313Y-9900474D02*
X7509836Y-9890950D01*
X7509836Y-9890950D02*
X7528884Y-9862379D01*
X7528884Y-9862379D02*
X7538408Y-9843331D01*
X7538408Y-9843331D02*
X7547932Y-9814760D01*
X7547932Y-9814760D02*
X7557455Y-9767141D01*
X7557455Y-9767141D02*
X7557455Y-9729046D01*
X7557455Y-9729046D02*
X7547932Y-9681427D01*
X7547932Y-9681427D02*
X7538408Y-9652855D01*
X7538408Y-9652855D02*
X7528884Y-9633808D01*
X7528884Y-9633808D02*
X7509836Y-9605236D01*
X7509836Y-9605236D02*
X7500313Y-9595712D01*
D10*
X2520129Y-10032156D02*
X2520129Y-9961444D01*
X2449418Y-9961444D01*
X2449418Y-10032156D01*
X2520129Y-10032156D01*
D11*
X2900312Y-10088284D02*
X2786026Y-10088284D01*
X2843169Y-10088284D02*
X2843169Y-9888284D01*
X2843169Y-9888284D02*
X2824122Y-9916855D01*
X2824122Y-9916855D02*
X2805074Y-9935903D01*
X2805074Y-9935903D02*
X2786026Y-9945427D01*
X2986026Y-10069236D02*
X2995550Y-10078760D01*
X2995550Y-10078760D02*
X2986026Y-10088284D01*
X2986026Y-10088284D02*
X2976503Y-10078760D01*
X2976503Y-10078760D02*
X2986026Y-10069236D01*
X2986026Y-10069236D02*
X2986026Y-10088284D01*
X3119360Y-9888284D02*
X3138407Y-9888284D01*
X3138407Y-9888284D02*
X3157455Y-9897808D01*
X3157455Y-9897808D02*
X3166979Y-9907331D01*
X3166979Y-9907331D02*
X3176503Y-9926379D01*
X3176503Y-9926379D02*
X3186026Y-9964474D01*
X3186026Y-9964474D02*
X3186026Y-10012093D01*
X3186026Y-10012093D02*
X3176503Y-10050189D01*
X3176503Y-10050189D02*
X3166979Y-10069236D01*
X3166979Y-10069236D02*
X3157455Y-10078760D01*
X3157455Y-10078760D02*
X3138407Y-10088284D01*
X3138407Y-10088284D02*
X3119360Y-10088284D01*
X3119360Y-10088284D02*
X3100312Y-10078760D01*
X3100312Y-10078760D02*
X3090788Y-10069236D01*
X3090788Y-10069236D02*
X3081264Y-10050189D01*
X3081264Y-10050189D02*
X3071741Y-10012093D01*
X3071741Y-10012093D02*
X3071741Y-9964474D01*
X3071741Y-9964474D02*
X3081264Y-9926379D01*
X3081264Y-9926379D02*
X3090788Y-9907331D01*
X3090788Y-9907331D02*
X3100312Y-9897808D01*
X3100312Y-9897808D02*
X3119360Y-9888284D01*
X3309836Y-9888284D02*
X3328884Y-9888284D01*
X3328884Y-9888284D02*
X3347931Y-9897808D01*
X3347931Y-9897808D02*
X3357455Y-9907331D01*
X3357455Y-9907331D02*
X3366979Y-9926379D01*
X3366979Y-9926379D02*
X3376503Y-9964474D01*
X3376503Y-9964474D02*
X3376503Y-10012093D01*
X3376503Y-10012093D02*
X3366979Y-10050189D01*
X3366979Y-10050189D02*
X3357455Y-10069236D01*
X3357455Y-10069236D02*
X3347931Y-10078760D01*
X3347931Y-10078760D02*
X3328884Y-10088284D01*
X3328884Y-10088284D02*
X3309836Y-10088284D01*
X3309836Y-10088284D02*
X3290788Y-10078760D01*
X3290788Y-10078760D02*
X3281264Y-10069236D01*
X3281264Y-10069236D02*
X3271741Y-10050189D01*
X3271741Y-10050189D02*
X3262217Y-10012093D01*
X3262217Y-10012093D02*
X3262217Y-9964474D01*
X3262217Y-9964474D02*
X3271741Y-9926379D01*
X3271741Y-9926379D02*
X3281264Y-9907331D01*
X3281264Y-9907331D02*
X3290788Y-9897808D01*
X3290788Y-9897808D02*
X3309836Y-9888284D01*
X3500312Y-9888284D02*
X3519360Y-9888284D01*
X3519360Y-9888284D02*
X3538407Y-9897808D01*
X3538407Y-9897808D02*
X3547931Y-9907331D01*
X3547931Y-9907331D02*
X3557455Y-9926379D01*
X3557455Y-9926379D02*
X3566979Y-9964474D01*
X3566979Y-9964474D02*
X3566979Y-10012093D01*
X3566979Y-10012093D02*
X3557455Y-10050189D01*
X3557455Y-10050189D02*
X3547931Y-10069236D01*
X3547931Y-10069236D02*
X3538407Y-10078760D01*
X3538407Y-10078760D02*
X3519360Y-10088284D01*
X3519360Y-10088284D02*
X3500312Y-10088284D01*
X3500312Y-10088284D02*
X3481264Y-10078760D01*
X3481264Y-10078760D02*
X3471741Y-10069236D01*
X3471741Y-10069236D02*
X3462217Y-10050189D01*
X3462217Y-10050189D02*
X3452693Y-10012093D01*
X3452693Y-10012093D02*
X3452693Y-9964474D01*
X3452693Y-9964474D02*
X3462217Y-9926379D01*
X3462217Y-9926379D02*
X3471741Y-9907331D01*
X3471741Y-9907331D02*
X3481264Y-9897808D01*
X3481264Y-9897808D02*
X3500312Y-9888284D01*
X3652693Y-10088284D02*
X3652693Y-9954950D01*
X3652693Y-9973998D02*
X3662217Y-9964474D01*
X3662217Y-9964474D02*
X3681264Y-9954950D01*
X3681264Y-9954950D02*
X3709836Y-9954950D01*
X3709836Y-9954950D02*
X3728884Y-9964474D01*
X3728884Y-9964474D02*
X3738407Y-9983522D01*
X3738407Y-9983522D02*
X3738407Y-10088284D01*
X3738407Y-9983522D02*
X3747931Y-9964474D01*
X3747931Y-9964474D02*
X3766979Y-9954950D01*
X3766979Y-9954950D02*
X3795550Y-9954950D01*
X3795550Y-9954950D02*
X3814598Y-9964474D01*
X3814598Y-9964474D02*
X3824122Y-9983522D01*
X3824122Y-9983522D02*
X3824122Y-10088284D01*
X3919360Y-10088284D02*
X3919360Y-9954950D01*
X3919360Y-9973998D02*
X3928884Y-9964474D01*
X3928884Y-9964474D02*
X3947931Y-9954950D01*
X3947931Y-9954950D02*
X3976503Y-9954950D01*
X3976503Y-9954950D02*
X3995550Y-9964474D01*
X3995550Y-9964474D02*
X4005074Y-9983522D01*
X4005074Y-9983522D02*
X4005074Y-10088284D01*
X4005074Y-9983522D02*
X4014598Y-9964474D01*
X4014598Y-9964474D02*
X4033645Y-9954950D01*
X4033645Y-9954950D02*
X4062217Y-9954950D01*
X4062217Y-9954950D02*
X4081265Y-9964474D01*
X4081265Y-9964474D02*
X4090788Y-9983522D01*
X4090788Y-9983522D02*
X4090788Y-10088284D01*
X4481265Y-9878760D02*
X4309836Y-10135903D01*
X4738408Y-9888284D02*
X4757455Y-9888284D01*
X4757455Y-9888284D02*
X4776503Y-9897808D01*
X4776503Y-9897808D02*
X4786027Y-9907331D01*
X4786027Y-9907331D02*
X4795550Y-9926379D01*
X4795550Y-9926379D02*
X4805074Y-9964474D01*
X4805074Y-9964474D02*
X4805074Y-10012093D01*
X4805074Y-10012093D02*
X4795550Y-10050189D01*
X4795550Y-10050189D02*
X4786027Y-10069236D01*
X4786027Y-10069236D02*
X4776503Y-10078760D01*
X4776503Y-10078760D02*
X4757455Y-10088284D01*
X4757455Y-10088284D02*
X4738408Y-10088284D01*
X4738408Y-10088284D02*
X4719360Y-10078760D01*
X4719360Y-10078760D02*
X4709836Y-10069236D01*
X4709836Y-10069236D02*
X4700312Y-10050189D01*
X4700312Y-10050189D02*
X4690789Y-10012093D01*
X4690789Y-10012093D02*
X4690789Y-9964474D01*
X4690789Y-9964474D02*
X4700312Y-9926379D01*
X4700312Y-9926379D02*
X4709836Y-9907331D01*
X4709836Y-9907331D02*
X4719360Y-9897808D01*
X4719360Y-9897808D02*
X4738408Y-9888284D01*
X4890789Y-10069236D02*
X4900312Y-10078760D01*
X4900312Y-10078760D02*
X4890789Y-10088284D01*
X4890789Y-10088284D02*
X4881265Y-10078760D01*
X4881265Y-10078760D02*
X4890789Y-10069236D01*
X4890789Y-10069236D02*
X4890789Y-10088284D01*
X5024122Y-9888284D02*
X5043170Y-9888284D01*
X5043170Y-9888284D02*
X5062217Y-9897808D01*
X5062217Y-9897808D02*
X5071741Y-9907331D01*
X5071741Y-9907331D02*
X5081265Y-9926379D01*
X5081265Y-9926379D02*
X5090789Y-9964474D01*
X5090789Y-9964474D02*
X5090789Y-10012093D01*
X5090789Y-10012093D02*
X5081265Y-10050189D01*
X5081265Y-10050189D02*
X5071741Y-10069236D01*
X5071741Y-10069236D02*
X5062217Y-10078760D01*
X5062217Y-10078760D02*
X5043170Y-10088284D01*
X5043170Y-10088284D02*
X5024122Y-10088284D01*
X5024122Y-10088284D02*
X5005074Y-10078760D01*
X5005074Y-10078760D02*
X4995550Y-10069236D01*
X4995550Y-10069236D02*
X4986027Y-10050189D01*
X4986027Y-10050189D02*
X4976503Y-10012093D01*
X4976503Y-10012093D02*
X4976503Y-9964474D01*
X4976503Y-9964474D02*
X4986027Y-9926379D01*
X4986027Y-9926379D02*
X4995550Y-9907331D01*
X4995550Y-9907331D02*
X5005074Y-9897808D01*
X5005074Y-9897808D02*
X5024122Y-9888284D01*
X5157455Y-9888284D02*
X5281265Y-9888284D01*
X5281265Y-9888284D02*
X5214598Y-9964474D01*
X5214598Y-9964474D02*
X5243170Y-9964474D01*
X5243170Y-9964474D02*
X5262217Y-9973998D01*
X5262217Y-9973998D02*
X5271741Y-9983522D01*
X5271741Y-9983522D02*
X5281265Y-10002570D01*
X5281265Y-10002570D02*
X5281265Y-10050189D01*
X5281265Y-10050189D02*
X5271741Y-10069236D01*
X5271741Y-10069236D02*
X5262217Y-10078760D01*
X5262217Y-10078760D02*
X5243170Y-10088284D01*
X5243170Y-10088284D02*
X5186027Y-10088284D01*
X5186027Y-10088284D02*
X5166979Y-10078760D01*
X5166979Y-10078760D02*
X5157455Y-10069236D01*
X5376503Y-10088284D02*
X5414598Y-10088284D01*
X5414598Y-10088284D02*
X5433646Y-10078760D01*
X5433646Y-10078760D02*
X5443170Y-10069236D01*
X5443170Y-10069236D02*
X5462217Y-10040665D01*
X5462217Y-10040665D02*
X5471741Y-10002570D01*
X5471741Y-10002570D02*
X5471741Y-9926379D01*
X5471741Y-9926379D02*
X5462217Y-9907331D01*
X5462217Y-9907331D02*
X5452693Y-9897808D01*
X5452693Y-9897808D02*
X5433646Y-9888284D01*
X5433646Y-9888284D02*
X5395550Y-9888284D01*
X5395550Y-9888284D02*
X5376503Y-9897808D01*
X5376503Y-9897808D02*
X5366979Y-9907331D01*
X5366979Y-9907331D02*
X5357455Y-9926379D01*
X5357455Y-9926379D02*
X5357455Y-9973998D01*
X5357455Y-9973998D02*
X5366979Y-9993046D01*
X5366979Y-9993046D02*
X5376503Y-10002570D01*
X5376503Y-10002570D02*
X5395550Y-10012093D01*
X5395550Y-10012093D02*
X5433646Y-10012093D01*
X5433646Y-10012093D02*
X5452693Y-10002570D01*
X5452693Y-10002570D02*
X5462217Y-9993046D01*
X5462217Y-9993046D02*
X5471741Y-9973998D01*
X5643169Y-9954950D02*
X5643169Y-10088284D01*
X5595550Y-9878760D02*
X5547931Y-10021617D01*
X5547931Y-10021617D02*
X5671741Y-10021617D01*
X5738408Y-9888284D02*
X5738408Y-9926379D01*
X5814598Y-9888284D02*
X5814598Y-9926379D01*
X6109836Y-10164474D02*
X6100312Y-10154950D01*
X6100312Y-10154950D02*
X6081265Y-10126379D01*
X6081265Y-10126379D02*
X6071741Y-10107331D01*
X6071741Y-10107331D02*
X6062217Y-10078760D01*
X6062217Y-10078760D02*
X6052693Y-10031141D01*
X6052693Y-10031141D02*
X6052693Y-9993046D01*
X6052693Y-9993046D02*
X6062217Y-9945427D01*
X6062217Y-9945427D02*
X6071741Y-9916855D01*
X6071741Y-9916855D02*
X6081265Y-9897808D01*
X6081265Y-9897808D02*
X6100312Y-9869236D01*
X6100312Y-9869236D02*
X6109836Y-9859712D01*
X6176503Y-9907331D02*
X6186027Y-9897808D01*
X6186027Y-9897808D02*
X6205074Y-9888284D01*
X6205074Y-9888284D02*
X6252693Y-9888284D01*
X6252693Y-9888284D02*
X6271741Y-9897808D01*
X6271741Y-9897808D02*
X6281265Y-9907331D01*
X6281265Y-9907331D02*
X6290789Y-9926379D01*
X6290789Y-9926379D02*
X6290789Y-9945427D01*
X6290789Y-9945427D02*
X6281265Y-9973998D01*
X6281265Y-9973998D02*
X6166979Y-10088284D01*
X6166979Y-10088284D02*
X6290789Y-10088284D01*
X6462217Y-9954950D02*
X6462217Y-10088284D01*
X6414598Y-9878760D02*
X6366979Y-10021617D01*
X6366979Y-10021617D02*
X6490789Y-10021617D01*
X6719360Y-10088284D02*
X6719360Y-9888284D01*
X6805074Y-10088284D02*
X6805074Y-9983522D01*
X6805074Y-9983522D02*
X6795551Y-9964474D01*
X6795551Y-9964474D02*
X6776503Y-9954950D01*
X6776503Y-9954950D02*
X6747931Y-9954950D01*
X6747931Y-9954950D02*
X6728884Y-9964474D01*
X6728884Y-9964474D02*
X6719360Y-9973998D01*
X6928884Y-10088284D02*
X6909836Y-10078760D01*
X6909836Y-10078760D02*
X6900312Y-10069236D01*
X6900312Y-10069236D02*
X6890789Y-10050189D01*
X6890789Y-10050189D02*
X6890789Y-9993046D01*
X6890789Y-9993046D02*
X6900312Y-9973998D01*
X6900312Y-9973998D02*
X6909836Y-9964474D01*
X6909836Y-9964474D02*
X6928884Y-9954950D01*
X6928884Y-9954950D02*
X6957455Y-9954950D01*
X6957455Y-9954950D02*
X6976503Y-9964474D01*
X6976503Y-9964474D02*
X6986027Y-9973998D01*
X6986027Y-9973998D02*
X6995551Y-9993046D01*
X6995551Y-9993046D02*
X6995551Y-10050189D01*
X6995551Y-10050189D02*
X6986027Y-10069236D01*
X6986027Y-10069236D02*
X6976503Y-10078760D01*
X6976503Y-10078760D02*
X6957455Y-10088284D01*
X6957455Y-10088284D02*
X6928884Y-10088284D01*
X7109836Y-10088284D02*
X7090789Y-10078760D01*
X7090789Y-10078760D02*
X7081265Y-10059712D01*
X7081265Y-10059712D02*
X7081265Y-9888284D01*
X7262217Y-10078760D02*
X7243170Y-10088284D01*
X7243170Y-10088284D02*
X7205074Y-10088284D01*
X7205074Y-10088284D02*
X7186027Y-10078760D01*
X7186027Y-10078760D02*
X7176503Y-10059712D01*
X7176503Y-10059712D02*
X7176503Y-9983522D01*
X7176503Y-9983522D02*
X7186027Y-9964474D01*
X7186027Y-9964474D02*
X7205074Y-9954950D01*
X7205074Y-9954950D02*
X7243170Y-9954950D01*
X7243170Y-9954950D02*
X7262217Y-9964474D01*
X7262217Y-9964474D02*
X7271741Y-9983522D01*
X7271741Y-9983522D02*
X7271741Y-10002570D01*
X7271741Y-10002570D02*
X7176503Y-10021617D01*
X7347932Y-10078760D02*
X7366979Y-10088284D01*
X7366979Y-10088284D02*
X7405074Y-10088284D01*
X7405074Y-10088284D02*
X7424122Y-10078760D01*
X7424122Y-10078760D02*
X7433646Y-10059712D01*
X7433646Y-10059712D02*
X7433646Y-10050189D01*
X7433646Y-10050189D02*
X7424122Y-10031141D01*
X7424122Y-10031141D02*
X7405074Y-10021617D01*
X7405074Y-10021617D02*
X7376503Y-10021617D01*
X7376503Y-10021617D02*
X7357455Y-10012093D01*
X7357455Y-10012093D02*
X7347932Y-9993046D01*
X7347932Y-9993046D02*
X7347932Y-9983522D01*
X7347932Y-9983522D02*
X7357455Y-9964474D01*
X7357455Y-9964474D02*
X7376503Y-9954950D01*
X7376503Y-9954950D02*
X7405074Y-9954950D01*
X7405074Y-9954950D02*
X7424122Y-9964474D01*
X7500313Y-10164474D02*
X7509836Y-10154950D01*
X7509836Y-10154950D02*
X7528884Y-10126379D01*
X7528884Y-10126379D02*
X7538408Y-10107331D01*
X7538408Y-10107331D02*
X7547932Y-10078760D01*
X7547932Y-10078760D02*
X7557455Y-10031141D01*
X7557455Y-10031141D02*
X7557455Y-9993046D01*
X7557455Y-9993046D02*
X7547932Y-9945427D01*
X7547932Y-9945427D02*
X7538408Y-9916855D01*
X7538408Y-9916855D02*
X7528884Y-9897808D01*
X7528884Y-9897808D02*
X7509836Y-9869236D01*
X7509836Y-9869236D02*
X7500313Y-9859712D01*
D12*
X2474773Y-10320800D02*
X2534773Y-10260800D01*
X2474773Y-10200800D01*
X2414773Y-10260800D01*
X2474773Y-10320800D01*
D11*
X2900312Y-10352284D02*
X2786026Y-10352284D01*
X2843169Y-10352284D02*
X2843169Y-10152284D01*
X2843169Y-10152284D02*
X2824122Y-10180855D01*
X2824122Y-10180855D02*
X2805074Y-10199903D01*
X2805074Y-10199903D02*
X2786026Y-10209427D01*
X2986026Y-10333236D02*
X2995550Y-10342760D01*
X2995550Y-10342760D02*
X2986026Y-10352284D01*
X2986026Y-10352284D02*
X2976503Y-10342760D01*
X2976503Y-10342760D02*
X2986026Y-10333236D01*
X2986026Y-10333236D02*
X2986026Y-10352284D01*
X3071741Y-10171331D02*
X3081264Y-10161808D01*
X3081264Y-10161808D02*
X3100312Y-10152284D01*
X3100312Y-10152284D02*
X3147931Y-10152284D01*
X3147931Y-10152284D02*
X3166979Y-10161808D01*
X3166979Y-10161808D02*
X3176503Y-10171331D01*
X3176503Y-10171331D02*
X3186026Y-10190379D01*
X3186026Y-10190379D02*
X3186026Y-10209427D01*
X3186026Y-10209427D02*
X3176503Y-10237998D01*
X3176503Y-10237998D02*
X3062217Y-10352284D01*
X3062217Y-10352284D02*
X3186026Y-10352284D01*
X3309836Y-10152284D02*
X3328884Y-10152284D01*
X3328884Y-10152284D02*
X3347931Y-10161808D01*
X3347931Y-10161808D02*
X3357455Y-10171331D01*
X3357455Y-10171331D02*
X3366979Y-10190379D01*
X3366979Y-10190379D02*
X3376503Y-10228474D01*
X3376503Y-10228474D02*
X3376503Y-10276093D01*
X3376503Y-10276093D02*
X3366979Y-10314189D01*
X3366979Y-10314189D02*
X3357455Y-10333236D01*
X3357455Y-10333236D02*
X3347931Y-10342760D01*
X3347931Y-10342760D02*
X3328884Y-10352284D01*
X3328884Y-10352284D02*
X3309836Y-10352284D01*
X3309836Y-10352284D02*
X3290788Y-10342760D01*
X3290788Y-10342760D02*
X3281264Y-10333236D01*
X3281264Y-10333236D02*
X3271741Y-10314189D01*
X3271741Y-10314189D02*
X3262217Y-10276093D01*
X3262217Y-10276093D02*
X3262217Y-10228474D01*
X3262217Y-10228474D02*
X3271741Y-10190379D01*
X3271741Y-10190379D02*
X3281264Y-10171331D01*
X3281264Y-10171331D02*
X3290788Y-10161808D01*
X3290788Y-10161808D02*
X3309836Y-10152284D01*
X3500312Y-10152284D02*
X3519360Y-10152284D01*
X3519360Y-10152284D02*
X3538407Y-10161808D01*
X3538407Y-10161808D02*
X3547931Y-10171331D01*
X3547931Y-10171331D02*
X3557455Y-10190379D01*
X3557455Y-10190379D02*
X3566979Y-10228474D01*
X3566979Y-10228474D02*
X3566979Y-10276093D01*
X3566979Y-10276093D02*
X3557455Y-10314189D01*
X3557455Y-10314189D02*
X3547931Y-10333236D01*
X3547931Y-10333236D02*
X3538407Y-10342760D01*
X3538407Y-10342760D02*
X3519360Y-10352284D01*
X3519360Y-10352284D02*
X3500312Y-10352284D01*
X3500312Y-10352284D02*
X3481264Y-10342760D01*
X3481264Y-10342760D02*
X3471741Y-10333236D01*
X3471741Y-10333236D02*
X3462217Y-10314189D01*
X3462217Y-10314189D02*
X3452693Y-10276093D01*
X3452693Y-10276093D02*
X3452693Y-10228474D01*
X3452693Y-10228474D02*
X3462217Y-10190379D01*
X3462217Y-10190379D02*
X3471741Y-10171331D01*
X3471741Y-10171331D02*
X3481264Y-10161808D01*
X3481264Y-10161808D02*
X3500312Y-10152284D01*
X3652693Y-10352284D02*
X3652693Y-10218950D01*
X3652693Y-10237998D02*
X3662217Y-10228474D01*
X3662217Y-10228474D02*
X3681264Y-10218950D01*
X3681264Y-10218950D02*
X3709836Y-10218950D01*
X3709836Y-10218950D02*
X3728884Y-10228474D01*
X3728884Y-10228474D02*
X3738407Y-10247522D01*
X3738407Y-10247522D02*
X3738407Y-10352284D01*
X3738407Y-10247522D02*
X3747931Y-10228474D01*
X3747931Y-10228474D02*
X3766979Y-10218950D01*
X3766979Y-10218950D02*
X3795550Y-10218950D01*
X3795550Y-10218950D02*
X3814598Y-10228474D01*
X3814598Y-10228474D02*
X3824122Y-10247522D01*
X3824122Y-10247522D02*
X3824122Y-10352284D01*
X3919360Y-10352284D02*
X3919360Y-10218950D01*
X3919360Y-10237998D02*
X3928884Y-10228474D01*
X3928884Y-10228474D02*
X3947931Y-10218950D01*
X3947931Y-10218950D02*
X3976503Y-10218950D01*
X3976503Y-10218950D02*
X3995550Y-10228474D01*
X3995550Y-10228474D02*
X4005074Y-10247522D01*
X4005074Y-10247522D02*
X4005074Y-10352284D01*
X4005074Y-10247522D02*
X4014598Y-10228474D01*
X4014598Y-10228474D02*
X4033645Y-10218950D01*
X4033645Y-10218950D02*
X4062217Y-10218950D01*
X4062217Y-10218950D02*
X4081265Y-10228474D01*
X4081265Y-10228474D02*
X4090788Y-10247522D01*
X4090788Y-10247522D02*
X4090788Y-10352284D01*
X4481265Y-10142760D02*
X4309836Y-10399903D01*
X4738408Y-10152284D02*
X4757455Y-10152284D01*
X4757455Y-10152284D02*
X4776503Y-10161808D01*
X4776503Y-10161808D02*
X4786027Y-10171331D01*
X4786027Y-10171331D02*
X4795550Y-10190379D01*
X4795550Y-10190379D02*
X4805074Y-10228474D01*
X4805074Y-10228474D02*
X4805074Y-10276093D01*
X4805074Y-10276093D02*
X4795550Y-10314189D01*
X4795550Y-10314189D02*
X4786027Y-10333236D01*
X4786027Y-10333236D02*
X4776503Y-10342760D01*
X4776503Y-10342760D02*
X4757455Y-10352284D01*
X4757455Y-10352284D02*
X4738408Y-10352284D01*
X4738408Y-10352284D02*
X4719360Y-10342760D01*
X4719360Y-10342760D02*
X4709836Y-10333236D01*
X4709836Y-10333236D02*
X4700312Y-10314189D01*
X4700312Y-10314189D02*
X4690789Y-10276093D01*
X4690789Y-10276093D02*
X4690789Y-10228474D01*
X4690789Y-10228474D02*
X4700312Y-10190379D01*
X4700312Y-10190379D02*
X4709836Y-10171331D01*
X4709836Y-10171331D02*
X4719360Y-10161808D01*
X4719360Y-10161808D02*
X4738408Y-10152284D01*
X4890789Y-10333236D02*
X4900312Y-10342760D01*
X4900312Y-10342760D02*
X4890789Y-10352284D01*
X4890789Y-10352284D02*
X4881265Y-10342760D01*
X4881265Y-10342760D02*
X4890789Y-10333236D01*
X4890789Y-10333236D02*
X4890789Y-10352284D01*
X5024122Y-10152284D02*
X5043170Y-10152284D01*
X5043170Y-10152284D02*
X5062217Y-10161808D01*
X5062217Y-10161808D02*
X5071741Y-10171331D01*
X5071741Y-10171331D02*
X5081265Y-10190379D01*
X5081265Y-10190379D02*
X5090789Y-10228474D01*
X5090789Y-10228474D02*
X5090789Y-10276093D01*
X5090789Y-10276093D02*
X5081265Y-10314189D01*
X5081265Y-10314189D02*
X5071741Y-10333236D01*
X5071741Y-10333236D02*
X5062217Y-10342760D01*
X5062217Y-10342760D02*
X5043170Y-10352284D01*
X5043170Y-10352284D02*
X5024122Y-10352284D01*
X5024122Y-10352284D02*
X5005074Y-10342760D01*
X5005074Y-10342760D02*
X4995550Y-10333236D01*
X4995550Y-10333236D02*
X4986027Y-10314189D01*
X4986027Y-10314189D02*
X4976503Y-10276093D01*
X4976503Y-10276093D02*
X4976503Y-10228474D01*
X4976503Y-10228474D02*
X4986027Y-10190379D01*
X4986027Y-10190379D02*
X4995550Y-10171331D01*
X4995550Y-10171331D02*
X5005074Y-10161808D01*
X5005074Y-10161808D02*
X5024122Y-10152284D01*
X5262217Y-10218950D02*
X5262217Y-10352284D01*
X5214598Y-10142760D02*
X5166979Y-10285617D01*
X5166979Y-10285617D02*
X5290789Y-10285617D01*
X5347931Y-10152284D02*
X5481265Y-10152284D01*
X5481265Y-10152284D02*
X5395550Y-10352284D01*
X5547931Y-10171331D02*
X5557455Y-10161808D01*
X5557455Y-10161808D02*
X5576503Y-10152284D01*
X5576503Y-10152284D02*
X5624122Y-10152284D01*
X5624122Y-10152284D02*
X5643169Y-10161808D01*
X5643169Y-10161808D02*
X5652693Y-10171331D01*
X5652693Y-10171331D02*
X5662217Y-10190379D01*
X5662217Y-10190379D02*
X5662217Y-10209427D01*
X5662217Y-10209427D02*
X5652693Y-10237998D01*
X5652693Y-10237998D02*
X5538408Y-10352284D01*
X5538408Y-10352284D02*
X5662217Y-10352284D01*
X5738408Y-10152284D02*
X5738408Y-10190379D01*
X5814598Y-10152284D02*
X5814598Y-10190379D01*
X6109836Y-10428474D02*
X6100312Y-10418950D01*
X6100312Y-10418950D02*
X6081265Y-10390379D01*
X6081265Y-10390379D02*
X6071741Y-10371331D01*
X6071741Y-10371331D02*
X6062217Y-10342760D01*
X6062217Y-10342760D02*
X6052693Y-10295141D01*
X6052693Y-10295141D02*
X6052693Y-10257046D01*
X6052693Y-10257046D02*
X6062217Y-10209427D01*
X6062217Y-10209427D02*
X6071741Y-10180855D01*
X6071741Y-10180855D02*
X6081265Y-10161808D01*
X6081265Y-10161808D02*
X6100312Y-10133236D01*
X6100312Y-10133236D02*
X6109836Y-10123712D01*
X6214598Y-10237998D02*
X6195550Y-10228474D01*
X6195550Y-10228474D02*
X6186027Y-10218950D01*
X6186027Y-10218950D02*
X6176503Y-10199903D01*
X6176503Y-10199903D02*
X6176503Y-10190379D01*
X6176503Y-10190379D02*
X6186027Y-10171331D01*
X6186027Y-10171331D02*
X6195550Y-10161808D01*
X6195550Y-10161808D02*
X6214598Y-10152284D01*
X6214598Y-10152284D02*
X6252693Y-10152284D01*
X6252693Y-10152284D02*
X6271741Y-10161808D01*
X6271741Y-10161808D02*
X6281265Y-10171331D01*
X6281265Y-10171331D02*
X6290789Y-10190379D01*
X6290789Y-10190379D02*
X6290789Y-10199903D01*
X6290789Y-10199903D02*
X6281265Y-10218950D01*
X6281265Y-10218950D02*
X6271741Y-10228474D01*
X6271741Y-10228474D02*
X6252693Y-10237998D01*
X6252693Y-10237998D02*
X6214598Y-10237998D01*
X6214598Y-10237998D02*
X6195550Y-10247522D01*
X6195550Y-10247522D02*
X6186027Y-10257046D01*
X6186027Y-10257046D02*
X6176503Y-10276093D01*
X6176503Y-10276093D02*
X6176503Y-10314189D01*
X6176503Y-10314189D02*
X6186027Y-10333236D01*
X6186027Y-10333236D02*
X6195550Y-10342760D01*
X6195550Y-10342760D02*
X6214598Y-10352284D01*
X6214598Y-10352284D02*
X6252693Y-10352284D01*
X6252693Y-10352284D02*
X6271741Y-10342760D01*
X6271741Y-10342760D02*
X6281265Y-10333236D01*
X6281265Y-10333236D02*
X6290789Y-10314189D01*
X6290789Y-10314189D02*
X6290789Y-10276093D01*
X6290789Y-10276093D02*
X6281265Y-10257046D01*
X6281265Y-10257046D02*
X6271741Y-10247522D01*
X6271741Y-10247522D02*
X6252693Y-10237998D01*
X6528884Y-10352284D02*
X6528884Y-10152284D01*
X6614598Y-10352284D02*
X6614598Y-10247522D01*
X6614598Y-10247522D02*
X6605074Y-10228474D01*
X6605074Y-10228474D02*
X6586027Y-10218950D01*
X6586027Y-10218950D02*
X6557455Y-10218950D01*
X6557455Y-10218950D02*
X6538408Y-10228474D01*
X6538408Y-10228474D02*
X6528884Y-10237998D01*
X6738408Y-10352284D02*
X6719360Y-10342760D01*
X6719360Y-10342760D02*
X6709836Y-10333236D01*
X6709836Y-10333236D02*
X6700312Y-10314189D01*
X6700312Y-10314189D02*
X6700312Y-10257046D01*
X6700312Y-10257046D02*
X6709836Y-10237998D01*
X6709836Y-10237998D02*
X6719360Y-10228474D01*
X6719360Y-10228474D02*
X6738408Y-10218950D01*
X6738408Y-10218950D02*
X6766979Y-10218950D01*
X6766979Y-10218950D02*
X6786027Y-10228474D01*
X6786027Y-10228474D02*
X6795551Y-10237998D01*
X6795551Y-10237998D02*
X6805074Y-10257046D01*
X6805074Y-10257046D02*
X6805074Y-10314189D01*
X6805074Y-10314189D02*
X6795551Y-10333236D01*
X6795551Y-10333236D02*
X6786027Y-10342760D01*
X6786027Y-10342760D02*
X6766979Y-10352284D01*
X6766979Y-10352284D02*
X6738408Y-10352284D01*
X6919360Y-10352284D02*
X6900312Y-10342760D01*
X6900312Y-10342760D02*
X6890789Y-10323712D01*
X6890789Y-10323712D02*
X6890789Y-10152284D01*
X7071741Y-10342760D02*
X7052693Y-10352284D01*
X7052693Y-10352284D02*
X7014598Y-10352284D01*
X7014598Y-10352284D02*
X6995551Y-10342760D01*
X6995551Y-10342760D02*
X6986027Y-10323712D01*
X6986027Y-10323712D02*
X6986027Y-10247522D01*
X6986027Y-10247522D02*
X6995551Y-10228474D01*
X6995551Y-10228474D02*
X7014598Y-10218950D01*
X7014598Y-10218950D02*
X7052693Y-10218950D01*
X7052693Y-10218950D02*
X7071741Y-10228474D01*
X7071741Y-10228474D02*
X7081265Y-10247522D01*
X7081265Y-10247522D02*
X7081265Y-10266570D01*
X7081265Y-10266570D02*
X6986027Y-10285617D01*
X7157455Y-10342760D02*
X7176503Y-10352284D01*
X7176503Y-10352284D02*
X7214598Y-10352284D01*
X7214598Y-10352284D02*
X7233646Y-10342760D01*
X7233646Y-10342760D02*
X7243170Y-10323712D01*
X7243170Y-10323712D02*
X7243170Y-10314189D01*
X7243170Y-10314189D02*
X7233646Y-10295141D01*
X7233646Y-10295141D02*
X7214598Y-10285617D01*
X7214598Y-10285617D02*
X7186027Y-10285617D01*
X7186027Y-10285617D02*
X7166979Y-10276093D01*
X7166979Y-10276093D02*
X7157455Y-10257046D01*
X7157455Y-10257046D02*
X7157455Y-10247522D01*
X7157455Y-10247522D02*
X7166979Y-10228474D01*
X7166979Y-10228474D02*
X7186027Y-10218950D01*
X7186027Y-10218950D02*
X7214598Y-10218950D01*
X7214598Y-10218950D02*
X7233646Y-10228474D01*
X7309836Y-10428474D02*
X7319360Y-10418950D01*
X7319360Y-10418950D02*
X7338408Y-10390379D01*
X7338408Y-10390379D02*
X7347932Y-10371331D01*
X7347932Y-10371331D02*
X7357455Y-10342760D01*
X7357455Y-10342760D02*
X7366979Y-10295141D01*
X7366979Y-10295141D02*
X7366979Y-10257046D01*
X7366979Y-10257046D02*
X7357455Y-10209427D01*
X7357455Y-10209427D02*
X7347932Y-10180855D01*
X7347932Y-10180855D02*
X7338408Y-10161808D01*
X7338408Y-10161808D02*
X7319360Y-10133236D01*
X7319360Y-10133236D02*
X7309836Y-10123712D01*
D13*
X2394773Y-10454800D02*
X2534773Y-10594800D01*
X2534773Y-10454800D02*
X2394773Y-10594800D01*
X2534773Y-10524800D02*
G75*
G02*
X2394773Y-10524800I-70000J0D01*
G01*
X2394773Y-10524800D02*
G75*
G02*
X2534773Y-10524800I70000J0D01*
G01*
D11*
X2900312Y-10616284D02*
X2786026Y-10616284D01*
X2843169Y-10616284D02*
X2843169Y-10416284D01*
X2843169Y-10416284D02*
X2824122Y-10444855D01*
X2824122Y-10444855D02*
X2805074Y-10463903D01*
X2805074Y-10463903D02*
X2786026Y-10473427D01*
X2986026Y-10597236D02*
X2995550Y-10606760D01*
X2995550Y-10606760D02*
X2986026Y-10616284D01*
X2986026Y-10616284D02*
X2976503Y-10606760D01*
X2976503Y-10606760D02*
X2986026Y-10597236D01*
X2986026Y-10597236D02*
X2986026Y-10616284D01*
X3166979Y-10482950D02*
X3166979Y-10616284D01*
X3119360Y-10406760D02*
X3071741Y-10549617D01*
X3071741Y-10549617D02*
X3195550Y-10549617D01*
X3309836Y-10416284D02*
X3328884Y-10416284D01*
X3328884Y-10416284D02*
X3347931Y-10425808D01*
X3347931Y-10425808D02*
X3357455Y-10435331D01*
X3357455Y-10435331D02*
X3366979Y-10454379D01*
X3366979Y-10454379D02*
X3376503Y-10492474D01*
X3376503Y-10492474D02*
X3376503Y-10540093D01*
X3376503Y-10540093D02*
X3366979Y-10578189D01*
X3366979Y-10578189D02*
X3357455Y-10597236D01*
X3357455Y-10597236D02*
X3347931Y-10606760D01*
X3347931Y-10606760D02*
X3328884Y-10616284D01*
X3328884Y-10616284D02*
X3309836Y-10616284D01*
X3309836Y-10616284D02*
X3290788Y-10606760D01*
X3290788Y-10606760D02*
X3281264Y-10597236D01*
X3281264Y-10597236D02*
X3271741Y-10578189D01*
X3271741Y-10578189D02*
X3262217Y-10540093D01*
X3262217Y-10540093D02*
X3262217Y-10492474D01*
X3262217Y-10492474D02*
X3271741Y-10454379D01*
X3271741Y-10454379D02*
X3281264Y-10435331D01*
X3281264Y-10435331D02*
X3290788Y-10425808D01*
X3290788Y-10425808D02*
X3309836Y-10416284D01*
X3500312Y-10416284D02*
X3519360Y-10416284D01*
X3519360Y-10416284D02*
X3538407Y-10425808D01*
X3538407Y-10425808D02*
X3547931Y-10435331D01*
X3547931Y-10435331D02*
X3557455Y-10454379D01*
X3557455Y-10454379D02*
X3566979Y-10492474D01*
X3566979Y-10492474D02*
X3566979Y-10540093D01*
X3566979Y-10540093D02*
X3557455Y-10578189D01*
X3557455Y-10578189D02*
X3547931Y-10597236D01*
X3547931Y-10597236D02*
X3538407Y-10606760D01*
X3538407Y-10606760D02*
X3519360Y-10616284D01*
X3519360Y-10616284D02*
X3500312Y-10616284D01*
X3500312Y-10616284D02*
X3481264Y-10606760D01*
X3481264Y-10606760D02*
X3471741Y-10597236D01*
X3471741Y-10597236D02*
X3462217Y-10578189D01*
X3462217Y-10578189D02*
X3452693Y-10540093D01*
X3452693Y-10540093D02*
X3452693Y-10492474D01*
X3452693Y-10492474D02*
X3462217Y-10454379D01*
X3462217Y-10454379D02*
X3471741Y-10435331D01*
X3471741Y-10435331D02*
X3481264Y-10425808D01*
X3481264Y-10425808D02*
X3500312Y-10416284D01*
X3652693Y-10616284D02*
X3652693Y-10482950D01*
X3652693Y-10501998D02*
X3662217Y-10492474D01*
X3662217Y-10492474D02*
X3681264Y-10482950D01*
X3681264Y-10482950D02*
X3709836Y-10482950D01*
X3709836Y-10482950D02*
X3728884Y-10492474D01*
X3728884Y-10492474D02*
X3738407Y-10511522D01*
X3738407Y-10511522D02*
X3738407Y-10616284D01*
X3738407Y-10511522D02*
X3747931Y-10492474D01*
X3747931Y-10492474D02*
X3766979Y-10482950D01*
X3766979Y-10482950D02*
X3795550Y-10482950D01*
X3795550Y-10482950D02*
X3814598Y-10492474D01*
X3814598Y-10492474D02*
X3824122Y-10511522D01*
X3824122Y-10511522D02*
X3824122Y-10616284D01*
X3919360Y-10616284D02*
X3919360Y-10482950D01*
X3919360Y-10501998D02*
X3928884Y-10492474D01*
X3928884Y-10492474D02*
X3947931Y-10482950D01*
X3947931Y-10482950D02*
X3976503Y-10482950D01*
X3976503Y-10482950D02*
X3995550Y-10492474D01*
X3995550Y-10492474D02*
X4005074Y-10511522D01*
X4005074Y-10511522D02*
X4005074Y-10616284D01*
X4005074Y-10511522D02*
X4014598Y-10492474D01*
X4014598Y-10492474D02*
X4033645Y-10482950D01*
X4033645Y-10482950D02*
X4062217Y-10482950D01*
X4062217Y-10482950D02*
X4081265Y-10492474D01*
X4081265Y-10492474D02*
X4090788Y-10511522D01*
X4090788Y-10511522D02*
X4090788Y-10616284D01*
X4481265Y-10406760D02*
X4309836Y-10663903D01*
X4738408Y-10416284D02*
X4757455Y-10416284D01*
X4757455Y-10416284D02*
X4776503Y-10425808D01*
X4776503Y-10425808D02*
X4786027Y-10435331D01*
X4786027Y-10435331D02*
X4795550Y-10454379D01*
X4795550Y-10454379D02*
X4805074Y-10492474D01*
X4805074Y-10492474D02*
X4805074Y-10540093D01*
X4805074Y-10540093D02*
X4795550Y-10578189D01*
X4795550Y-10578189D02*
X4786027Y-10597236D01*
X4786027Y-10597236D02*
X4776503Y-10606760D01*
X4776503Y-10606760D02*
X4757455Y-10616284D01*
X4757455Y-10616284D02*
X4738408Y-10616284D01*
X4738408Y-10616284D02*
X4719360Y-10606760D01*
X4719360Y-10606760D02*
X4709836Y-10597236D01*
X4709836Y-10597236D02*
X4700312Y-10578189D01*
X4700312Y-10578189D02*
X4690789Y-10540093D01*
X4690789Y-10540093D02*
X4690789Y-10492474D01*
X4690789Y-10492474D02*
X4700312Y-10454379D01*
X4700312Y-10454379D02*
X4709836Y-10435331D01*
X4709836Y-10435331D02*
X4719360Y-10425808D01*
X4719360Y-10425808D02*
X4738408Y-10416284D01*
X4890789Y-10597236D02*
X4900312Y-10606760D01*
X4900312Y-10606760D02*
X4890789Y-10616284D01*
X4890789Y-10616284D02*
X4881265Y-10606760D01*
X4881265Y-10606760D02*
X4890789Y-10597236D01*
X4890789Y-10597236D02*
X4890789Y-10616284D01*
X5024122Y-10416284D02*
X5043170Y-10416284D01*
X5043170Y-10416284D02*
X5062217Y-10425808D01*
X5062217Y-10425808D02*
X5071741Y-10435331D01*
X5071741Y-10435331D02*
X5081265Y-10454379D01*
X5081265Y-10454379D02*
X5090789Y-10492474D01*
X5090789Y-10492474D02*
X5090789Y-10540093D01*
X5090789Y-10540093D02*
X5081265Y-10578189D01*
X5081265Y-10578189D02*
X5071741Y-10597236D01*
X5071741Y-10597236D02*
X5062217Y-10606760D01*
X5062217Y-10606760D02*
X5043170Y-10616284D01*
X5043170Y-10616284D02*
X5024122Y-10616284D01*
X5024122Y-10616284D02*
X5005074Y-10606760D01*
X5005074Y-10606760D02*
X4995550Y-10597236D01*
X4995550Y-10597236D02*
X4986027Y-10578189D01*
X4986027Y-10578189D02*
X4976503Y-10540093D01*
X4976503Y-10540093D02*
X4976503Y-10492474D01*
X4976503Y-10492474D02*
X4986027Y-10454379D01*
X4986027Y-10454379D02*
X4995550Y-10435331D01*
X4995550Y-10435331D02*
X5005074Y-10425808D01*
X5005074Y-10425808D02*
X5024122Y-10416284D01*
X5271741Y-10416284D02*
X5176503Y-10416284D01*
X5176503Y-10416284D02*
X5166979Y-10511522D01*
X5166979Y-10511522D02*
X5176503Y-10501998D01*
X5176503Y-10501998D02*
X5195550Y-10492474D01*
X5195550Y-10492474D02*
X5243170Y-10492474D01*
X5243170Y-10492474D02*
X5262217Y-10501998D01*
X5262217Y-10501998D02*
X5271741Y-10511522D01*
X5271741Y-10511522D02*
X5281265Y-10530570D01*
X5281265Y-10530570D02*
X5281265Y-10578189D01*
X5281265Y-10578189D02*
X5271741Y-10597236D01*
X5271741Y-10597236D02*
X5262217Y-10606760D01*
X5262217Y-10606760D02*
X5243170Y-10616284D01*
X5243170Y-10616284D02*
X5195550Y-10616284D01*
X5195550Y-10616284D02*
X5176503Y-10606760D01*
X5176503Y-10606760D02*
X5166979Y-10597236D01*
X5462217Y-10416284D02*
X5366979Y-10416284D01*
X5366979Y-10416284D02*
X5357455Y-10511522D01*
X5357455Y-10511522D02*
X5366979Y-10501998D01*
X5366979Y-10501998D02*
X5386027Y-10492474D01*
X5386027Y-10492474D02*
X5433646Y-10492474D01*
X5433646Y-10492474D02*
X5452693Y-10501998D01*
X5452693Y-10501998D02*
X5462217Y-10511522D01*
X5462217Y-10511522D02*
X5471741Y-10530570D01*
X5471741Y-10530570D02*
X5471741Y-10578189D01*
X5471741Y-10578189D02*
X5462217Y-10597236D01*
X5462217Y-10597236D02*
X5452693Y-10606760D01*
X5452693Y-10606760D02*
X5433646Y-10616284D01*
X5433646Y-10616284D02*
X5386027Y-10616284D01*
X5386027Y-10616284D02*
X5366979Y-10606760D01*
X5366979Y-10606760D02*
X5357455Y-10597236D01*
X5662217Y-10616284D02*
X5547931Y-10616284D01*
X5605074Y-10616284D02*
X5605074Y-10416284D01*
X5605074Y-10416284D02*
X5586027Y-10444855D01*
X5586027Y-10444855D02*
X5566979Y-10463903D01*
X5566979Y-10463903D02*
X5547931Y-10473427D01*
X5738408Y-10416284D02*
X5738408Y-10454379D01*
X5814598Y-10416284D02*
X5814598Y-10454379D01*
X6109836Y-10692474D02*
X6100312Y-10682950D01*
X6100312Y-10682950D02*
X6081265Y-10654379D01*
X6081265Y-10654379D02*
X6071741Y-10635331D01*
X6071741Y-10635331D02*
X6062217Y-10606760D01*
X6062217Y-10606760D02*
X6052693Y-10559141D01*
X6052693Y-10559141D02*
X6052693Y-10521046D01*
X6052693Y-10521046D02*
X6062217Y-10473427D01*
X6062217Y-10473427D02*
X6071741Y-10444855D01*
X6071741Y-10444855D02*
X6081265Y-10425808D01*
X6081265Y-10425808D02*
X6100312Y-10397236D01*
X6100312Y-10397236D02*
X6109836Y-10387712D01*
X6214598Y-10501998D02*
X6195550Y-10492474D01*
X6195550Y-10492474D02*
X6186027Y-10482950D01*
X6186027Y-10482950D02*
X6176503Y-10463903D01*
X6176503Y-10463903D02*
X6176503Y-10454379D01*
X6176503Y-10454379D02*
X6186027Y-10435331D01*
X6186027Y-10435331D02*
X6195550Y-10425808D01*
X6195550Y-10425808D02*
X6214598Y-10416284D01*
X6214598Y-10416284D02*
X6252693Y-10416284D01*
X6252693Y-10416284D02*
X6271741Y-10425808D01*
X6271741Y-10425808D02*
X6281265Y-10435331D01*
X6281265Y-10435331D02*
X6290789Y-10454379D01*
X6290789Y-10454379D02*
X6290789Y-10463903D01*
X6290789Y-10463903D02*
X6281265Y-10482950D01*
X6281265Y-10482950D02*
X6271741Y-10492474D01*
X6271741Y-10492474D02*
X6252693Y-10501998D01*
X6252693Y-10501998D02*
X6214598Y-10501998D01*
X6214598Y-10501998D02*
X6195550Y-10511522D01*
X6195550Y-10511522D02*
X6186027Y-10521046D01*
X6186027Y-10521046D02*
X6176503Y-10540093D01*
X6176503Y-10540093D02*
X6176503Y-10578189D01*
X6176503Y-10578189D02*
X6186027Y-10597236D01*
X6186027Y-10597236D02*
X6195550Y-10606760D01*
X6195550Y-10606760D02*
X6214598Y-10616284D01*
X6214598Y-10616284D02*
X6252693Y-10616284D01*
X6252693Y-10616284D02*
X6271741Y-10606760D01*
X6271741Y-10606760D02*
X6281265Y-10597236D01*
X6281265Y-10597236D02*
X6290789Y-10578189D01*
X6290789Y-10578189D02*
X6290789Y-10540093D01*
X6290789Y-10540093D02*
X6281265Y-10521046D01*
X6281265Y-10521046D02*
X6271741Y-10511522D01*
X6271741Y-10511522D02*
X6252693Y-10501998D01*
X6528884Y-10616284D02*
X6528884Y-10416284D01*
X6614598Y-10616284D02*
X6614598Y-10511522D01*
X6614598Y-10511522D02*
X6605074Y-10492474D01*
X6605074Y-10492474D02*
X6586027Y-10482950D01*
X6586027Y-10482950D02*
X6557455Y-10482950D01*
X6557455Y-10482950D02*
X6538408Y-10492474D01*
X6538408Y-10492474D02*
X6528884Y-10501998D01*
X6738408Y-10616284D02*
X6719360Y-10606760D01*
X6719360Y-10606760D02*
X6709836Y-10597236D01*
X6709836Y-10597236D02*
X6700312Y-10578189D01*
X6700312Y-10578189D02*
X6700312Y-10521046D01*
X6700312Y-10521046D02*
X6709836Y-10501998D01*
X6709836Y-10501998D02*
X6719360Y-10492474D01*
X6719360Y-10492474D02*
X6738408Y-10482950D01*
X6738408Y-10482950D02*
X6766979Y-10482950D01*
X6766979Y-10482950D02*
X6786027Y-10492474D01*
X6786027Y-10492474D02*
X6795551Y-10501998D01*
X6795551Y-10501998D02*
X6805074Y-10521046D01*
X6805074Y-10521046D02*
X6805074Y-10578189D01*
X6805074Y-10578189D02*
X6795551Y-10597236D01*
X6795551Y-10597236D02*
X6786027Y-10606760D01*
X6786027Y-10606760D02*
X6766979Y-10616284D01*
X6766979Y-10616284D02*
X6738408Y-10616284D01*
X6919360Y-10616284D02*
X6900312Y-10606760D01*
X6900312Y-10606760D02*
X6890789Y-10587712D01*
X6890789Y-10587712D02*
X6890789Y-10416284D01*
X7071741Y-10606760D02*
X7052693Y-10616284D01*
X7052693Y-10616284D02*
X7014598Y-10616284D01*
X7014598Y-10616284D02*
X6995551Y-10606760D01*
X6995551Y-10606760D02*
X6986027Y-10587712D01*
X6986027Y-10587712D02*
X6986027Y-10511522D01*
X6986027Y-10511522D02*
X6995551Y-10492474D01*
X6995551Y-10492474D02*
X7014598Y-10482950D01*
X7014598Y-10482950D02*
X7052693Y-10482950D01*
X7052693Y-10482950D02*
X7071741Y-10492474D01*
X7071741Y-10492474D02*
X7081265Y-10511522D01*
X7081265Y-10511522D02*
X7081265Y-10530570D01*
X7081265Y-10530570D02*
X6986027Y-10549617D01*
X7157455Y-10606760D02*
X7176503Y-10616284D01*
X7176503Y-10616284D02*
X7214598Y-10616284D01*
X7214598Y-10616284D02*
X7233646Y-10606760D01*
X7233646Y-10606760D02*
X7243170Y-10587712D01*
X7243170Y-10587712D02*
X7243170Y-10578189D01*
X7243170Y-10578189D02*
X7233646Y-10559141D01*
X7233646Y-10559141D02*
X7214598Y-10549617D01*
X7214598Y-10549617D02*
X7186027Y-10549617D01*
X7186027Y-10549617D02*
X7166979Y-10540093D01*
X7166979Y-10540093D02*
X7157455Y-10521046D01*
X7157455Y-10521046D02*
X7157455Y-10511522D01*
X7157455Y-10511522D02*
X7166979Y-10492474D01*
X7166979Y-10492474D02*
X7186027Y-10482950D01*
X7186027Y-10482950D02*
X7214598Y-10482950D01*
X7214598Y-10482950D02*
X7233646Y-10492474D01*
X7309836Y-10692474D02*
X7319360Y-10682950D01*
X7319360Y-10682950D02*
X7338408Y-10654379D01*
X7338408Y-10654379D02*
X7347932Y-10635331D01*
X7347932Y-10635331D02*
X7357455Y-10606760D01*
X7357455Y-10606760D02*
X7366979Y-10559141D01*
X7366979Y-10559141D02*
X7366979Y-10521046D01*
X7366979Y-10521046D02*
X7357455Y-10473427D01*
X7357455Y-10473427D02*
X7347932Y-10444855D01*
X7347932Y-10444855D02*
X7338408Y-10425808D01*
X7338408Y-10425808D02*
X7319360Y-10397236D01*
X7319360Y-10397236D02*
X7309836Y-10387712D01*
D14*
X2384773Y-10713800D02*
X2534773Y-10863800D01*
X2534773Y-10713800D02*
X2384773Y-10863800D01*
X2459773Y-10713800D02*
X2459773Y-10863800D01*
X2384773Y-10788800D02*
X2534773Y-10788800D01*
D11*
X2900312Y-10880284D02*
X2786026Y-10880284D01*
X2843169Y-10880284D02*
X2843169Y-10680284D01*
X2843169Y-10680284D02*
X2824122Y-10708855D01*
X2824122Y-10708855D02*
X2805074Y-10727903D01*
X2805074Y-10727903D02*
X2786026Y-10737427D01*
X2986026Y-10861236D02*
X2995550Y-10870760D01*
X2995550Y-10870760D02*
X2986026Y-10880284D01*
X2986026Y-10880284D02*
X2976503Y-10870760D01*
X2976503Y-10870760D02*
X2986026Y-10861236D01*
X2986026Y-10861236D02*
X2986026Y-10880284D01*
X3176503Y-10680284D02*
X3081264Y-10680284D01*
X3081264Y-10680284D02*
X3071741Y-10775522D01*
X3071741Y-10775522D02*
X3081264Y-10765998D01*
X3081264Y-10765998D02*
X3100312Y-10756474D01*
X3100312Y-10756474D02*
X3147931Y-10756474D01*
X3147931Y-10756474D02*
X3166979Y-10765998D01*
X3166979Y-10765998D02*
X3176503Y-10775522D01*
X3176503Y-10775522D02*
X3186026Y-10794570D01*
X3186026Y-10794570D02*
X3186026Y-10842189D01*
X3186026Y-10842189D02*
X3176503Y-10861236D01*
X3176503Y-10861236D02*
X3166979Y-10870760D01*
X3166979Y-10870760D02*
X3147931Y-10880284D01*
X3147931Y-10880284D02*
X3100312Y-10880284D01*
X3100312Y-10880284D02*
X3081264Y-10870760D01*
X3081264Y-10870760D02*
X3071741Y-10861236D01*
X3309836Y-10680284D02*
X3328884Y-10680284D01*
X3328884Y-10680284D02*
X3347931Y-10689808D01*
X3347931Y-10689808D02*
X3357455Y-10699331D01*
X3357455Y-10699331D02*
X3366979Y-10718379D01*
X3366979Y-10718379D02*
X3376503Y-10756474D01*
X3376503Y-10756474D02*
X3376503Y-10804093D01*
X3376503Y-10804093D02*
X3366979Y-10842189D01*
X3366979Y-10842189D02*
X3357455Y-10861236D01*
X3357455Y-10861236D02*
X3347931Y-10870760D01*
X3347931Y-10870760D02*
X3328884Y-10880284D01*
X3328884Y-10880284D02*
X3309836Y-10880284D01*
X3309836Y-10880284D02*
X3290788Y-10870760D01*
X3290788Y-10870760D02*
X3281264Y-10861236D01*
X3281264Y-10861236D02*
X3271741Y-10842189D01*
X3271741Y-10842189D02*
X3262217Y-10804093D01*
X3262217Y-10804093D02*
X3262217Y-10756474D01*
X3262217Y-10756474D02*
X3271741Y-10718379D01*
X3271741Y-10718379D02*
X3281264Y-10699331D01*
X3281264Y-10699331D02*
X3290788Y-10689808D01*
X3290788Y-10689808D02*
X3309836Y-10680284D01*
X3500312Y-10680284D02*
X3519360Y-10680284D01*
X3519360Y-10680284D02*
X3538407Y-10689808D01*
X3538407Y-10689808D02*
X3547931Y-10699331D01*
X3547931Y-10699331D02*
X3557455Y-10718379D01*
X3557455Y-10718379D02*
X3566979Y-10756474D01*
X3566979Y-10756474D02*
X3566979Y-10804093D01*
X3566979Y-10804093D02*
X3557455Y-10842189D01*
X3557455Y-10842189D02*
X3547931Y-10861236D01*
X3547931Y-10861236D02*
X3538407Y-10870760D01*
X3538407Y-10870760D02*
X3519360Y-10880284D01*
X3519360Y-10880284D02*
X3500312Y-10880284D01*
X3500312Y-10880284D02*
X3481264Y-10870760D01*
X3481264Y-10870760D02*
X3471741Y-10861236D01*
X3471741Y-10861236D02*
X3462217Y-10842189D01*
X3462217Y-10842189D02*
X3452693Y-10804093D01*
X3452693Y-10804093D02*
X3452693Y-10756474D01*
X3452693Y-10756474D02*
X3462217Y-10718379D01*
X3462217Y-10718379D02*
X3471741Y-10699331D01*
X3471741Y-10699331D02*
X3481264Y-10689808D01*
X3481264Y-10689808D02*
X3500312Y-10680284D01*
X3652693Y-10880284D02*
X3652693Y-10746950D01*
X3652693Y-10765998D02*
X3662217Y-10756474D01*
X3662217Y-10756474D02*
X3681264Y-10746950D01*
X3681264Y-10746950D02*
X3709836Y-10746950D01*
X3709836Y-10746950D02*
X3728884Y-10756474D01*
X3728884Y-10756474D02*
X3738407Y-10775522D01*
X3738407Y-10775522D02*
X3738407Y-10880284D01*
X3738407Y-10775522D02*
X3747931Y-10756474D01*
X3747931Y-10756474D02*
X3766979Y-10746950D01*
X3766979Y-10746950D02*
X3795550Y-10746950D01*
X3795550Y-10746950D02*
X3814598Y-10756474D01*
X3814598Y-10756474D02*
X3824122Y-10775522D01*
X3824122Y-10775522D02*
X3824122Y-10880284D01*
X3919360Y-10880284D02*
X3919360Y-10746950D01*
X3919360Y-10765998D02*
X3928884Y-10756474D01*
X3928884Y-10756474D02*
X3947931Y-10746950D01*
X3947931Y-10746950D02*
X3976503Y-10746950D01*
X3976503Y-10746950D02*
X3995550Y-10756474D01*
X3995550Y-10756474D02*
X4005074Y-10775522D01*
X4005074Y-10775522D02*
X4005074Y-10880284D01*
X4005074Y-10775522D02*
X4014598Y-10756474D01*
X4014598Y-10756474D02*
X4033645Y-10746950D01*
X4033645Y-10746950D02*
X4062217Y-10746950D01*
X4062217Y-10746950D02*
X4081265Y-10756474D01*
X4081265Y-10756474D02*
X4090788Y-10775522D01*
X4090788Y-10775522D02*
X4090788Y-10880284D01*
X4481265Y-10670760D02*
X4309836Y-10927903D01*
X4738408Y-10680284D02*
X4757455Y-10680284D01*
X4757455Y-10680284D02*
X4776503Y-10689808D01*
X4776503Y-10689808D02*
X4786027Y-10699331D01*
X4786027Y-10699331D02*
X4795550Y-10718379D01*
X4795550Y-10718379D02*
X4805074Y-10756474D01*
X4805074Y-10756474D02*
X4805074Y-10804093D01*
X4805074Y-10804093D02*
X4795550Y-10842189D01*
X4795550Y-10842189D02*
X4786027Y-10861236D01*
X4786027Y-10861236D02*
X4776503Y-10870760D01*
X4776503Y-10870760D02*
X4757455Y-10880284D01*
X4757455Y-10880284D02*
X4738408Y-10880284D01*
X4738408Y-10880284D02*
X4719360Y-10870760D01*
X4719360Y-10870760D02*
X4709836Y-10861236D01*
X4709836Y-10861236D02*
X4700312Y-10842189D01*
X4700312Y-10842189D02*
X4690789Y-10804093D01*
X4690789Y-10804093D02*
X4690789Y-10756474D01*
X4690789Y-10756474D02*
X4700312Y-10718379D01*
X4700312Y-10718379D02*
X4709836Y-10699331D01*
X4709836Y-10699331D02*
X4719360Y-10689808D01*
X4719360Y-10689808D02*
X4738408Y-10680284D01*
X4890789Y-10861236D02*
X4900312Y-10870760D01*
X4900312Y-10870760D02*
X4890789Y-10880284D01*
X4890789Y-10880284D02*
X4881265Y-10870760D01*
X4881265Y-10870760D02*
X4890789Y-10861236D01*
X4890789Y-10861236D02*
X4890789Y-10880284D01*
X5024122Y-10680284D02*
X5043170Y-10680284D01*
X5043170Y-10680284D02*
X5062217Y-10689808D01*
X5062217Y-10689808D02*
X5071741Y-10699331D01*
X5071741Y-10699331D02*
X5081265Y-10718379D01*
X5081265Y-10718379D02*
X5090789Y-10756474D01*
X5090789Y-10756474D02*
X5090789Y-10804093D01*
X5090789Y-10804093D02*
X5081265Y-10842189D01*
X5081265Y-10842189D02*
X5071741Y-10861236D01*
X5071741Y-10861236D02*
X5062217Y-10870760D01*
X5062217Y-10870760D02*
X5043170Y-10880284D01*
X5043170Y-10880284D02*
X5024122Y-10880284D01*
X5024122Y-10880284D02*
X5005074Y-10870760D01*
X5005074Y-10870760D02*
X4995550Y-10861236D01*
X4995550Y-10861236D02*
X4986027Y-10842189D01*
X4986027Y-10842189D02*
X4976503Y-10804093D01*
X4976503Y-10804093D02*
X4976503Y-10756474D01*
X4976503Y-10756474D02*
X4986027Y-10718379D01*
X4986027Y-10718379D02*
X4995550Y-10699331D01*
X4995550Y-10699331D02*
X5005074Y-10689808D01*
X5005074Y-10689808D02*
X5024122Y-10680284D01*
X5271741Y-10680284D02*
X5176503Y-10680284D01*
X5176503Y-10680284D02*
X5166979Y-10775522D01*
X5166979Y-10775522D02*
X5176503Y-10765998D01*
X5176503Y-10765998D02*
X5195550Y-10756474D01*
X5195550Y-10756474D02*
X5243170Y-10756474D01*
X5243170Y-10756474D02*
X5262217Y-10765998D01*
X5262217Y-10765998D02*
X5271741Y-10775522D01*
X5271741Y-10775522D02*
X5281265Y-10794570D01*
X5281265Y-10794570D02*
X5281265Y-10842189D01*
X5281265Y-10842189D02*
X5271741Y-10861236D01*
X5271741Y-10861236D02*
X5262217Y-10870760D01*
X5262217Y-10870760D02*
X5243170Y-10880284D01*
X5243170Y-10880284D02*
X5195550Y-10880284D01*
X5195550Y-10880284D02*
X5176503Y-10870760D01*
X5176503Y-10870760D02*
X5166979Y-10861236D01*
X5376503Y-10880284D02*
X5414598Y-10880284D01*
X5414598Y-10880284D02*
X5433646Y-10870760D01*
X5433646Y-10870760D02*
X5443170Y-10861236D01*
X5443170Y-10861236D02*
X5462217Y-10832665D01*
X5462217Y-10832665D02*
X5471741Y-10794570D01*
X5471741Y-10794570D02*
X5471741Y-10718379D01*
X5471741Y-10718379D02*
X5462217Y-10699331D01*
X5462217Y-10699331D02*
X5452693Y-10689808D01*
X5452693Y-10689808D02*
X5433646Y-10680284D01*
X5433646Y-10680284D02*
X5395550Y-10680284D01*
X5395550Y-10680284D02*
X5376503Y-10689808D01*
X5376503Y-10689808D02*
X5366979Y-10699331D01*
X5366979Y-10699331D02*
X5357455Y-10718379D01*
X5357455Y-10718379D02*
X5357455Y-10765998D01*
X5357455Y-10765998D02*
X5366979Y-10785046D01*
X5366979Y-10785046D02*
X5376503Y-10794570D01*
X5376503Y-10794570D02*
X5395550Y-10804093D01*
X5395550Y-10804093D02*
X5433646Y-10804093D01*
X5433646Y-10804093D02*
X5452693Y-10794570D01*
X5452693Y-10794570D02*
X5462217Y-10785046D01*
X5462217Y-10785046D02*
X5471741Y-10765998D01*
X5662217Y-10880284D02*
X5547931Y-10880284D01*
X5605074Y-10880284D02*
X5605074Y-10680284D01*
X5605074Y-10680284D02*
X5586027Y-10708855D01*
X5586027Y-10708855D02*
X5566979Y-10727903D01*
X5566979Y-10727903D02*
X5547931Y-10737427D01*
X5738408Y-10680284D02*
X5738408Y-10718379D01*
X5814598Y-10680284D02*
X5814598Y-10718379D01*
X6109836Y-10956474D02*
X6100312Y-10946950D01*
X6100312Y-10946950D02*
X6081265Y-10918379D01*
X6081265Y-10918379D02*
X6071741Y-10899331D01*
X6071741Y-10899331D02*
X6062217Y-10870760D01*
X6062217Y-10870760D02*
X6052693Y-10823141D01*
X6052693Y-10823141D02*
X6052693Y-10785046D01*
X6052693Y-10785046D02*
X6062217Y-10737427D01*
X6062217Y-10737427D02*
X6071741Y-10708855D01*
X6071741Y-10708855D02*
X6081265Y-10689808D01*
X6081265Y-10689808D02*
X6100312Y-10661236D01*
X6100312Y-10661236D02*
X6109836Y-10651712D01*
X6290789Y-10880284D02*
X6176503Y-10880284D01*
X6233646Y-10880284D02*
X6233646Y-10680284D01*
X6233646Y-10680284D02*
X6214598Y-10708855D01*
X6214598Y-10708855D02*
X6195550Y-10727903D01*
X6195550Y-10727903D02*
X6176503Y-10737427D01*
X6528884Y-10880284D02*
X6528884Y-10680284D01*
X6614598Y-10880284D02*
X6614598Y-10775522D01*
X6614598Y-10775522D02*
X6605074Y-10756474D01*
X6605074Y-10756474D02*
X6586027Y-10746950D01*
X6586027Y-10746950D02*
X6557455Y-10746950D01*
X6557455Y-10746950D02*
X6538408Y-10756474D01*
X6538408Y-10756474D02*
X6528884Y-10765998D01*
X6738408Y-10880284D02*
X6719360Y-10870760D01*
X6719360Y-10870760D02*
X6709836Y-10861236D01*
X6709836Y-10861236D02*
X6700312Y-10842189D01*
X6700312Y-10842189D02*
X6700312Y-10785046D01*
X6700312Y-10785046D02*
X6709836Y-10765998D01*
X6709836Y-10765998D02*
X6719360Y-10756474D01*
X6719360Y-10756474D02*
X6738408Y-10746950D01*
X6738408Y-10746950D02*
X6766979Y-10746950D01*
X6766979Y-10746950D02*
X6786027Y-10756474D01*
X6786027Y-10756474D02*
X6795551Y-10765998D01*
X6795551Y-10765998D02*
X6805074Y-10785046D01*
X6805074Y-10785046D02*
X6805074Y-10842189D01*
X6805074Y-10842189D02*
X6795551Y-10861236D01*
X6795551Y-10861236D02*
X6786027Y-10870760D01*
X6786027Y-10870760D02*
X6766979Y-10880284D01*
X6766979Y-10880284D02*
X6738408Y-10880284D01*
X6919360Y-10880284D02*
X6900312Y-10870760D01*
X6900312Y-10870760D02*
X6890789Y-10851712D01*
X6890789Y-10851712D02*
X6890789Y-10680284D01*
X7071741Y-10870760D02*
X7052693Y-10880284D01*
X7052693Y-10880284D02*
X7014598Y-10880284D01*
X7014598Y-10880284D02*
X6995551Y-10870760D01*
X6995551Y-10870760D02*
X6986027Y-10851712D01*
X6986027Y-10851712D02*
X6986027Y-10775522D01*
X6986027Y-10775522D02*
X6995551Y-10756474D01*
X6995551Y-10756474D02*
X7014598Y-10746950D01*
X7014598Y-10746950D02*
X7052693Y-10746950D01*
X7052693Y-10746950D02*
X7071741Y-10756474D01*
X7071741Y-10756474D02*
X7081265Y-10775522D01*
X7081265Y-10775522D02*
X7081265Y-10794570D01*
X7081265Y-10794570D02*
X6986027Y-10813617D01*
X7147932Y-10956474D02*
X7157455Y-10946950D01*
X7157455Y-10946950D02*
X7176503Y-10918379D01*
X7176503Y-10918379D02*
X7186027Y-10899331D01*
X7186027Y-10899331D02*
X7195551Y-10870760D01*
X7195551Y-10870760D02*
X7205074Y-10823141D01*
X7205074Y-10823141D02*
X7205074Y-10785046D01*
X7205074Y-10785046D02*
X7195551Y-10737427D01*
X7195551Y-10737427D02*
X7186027Y-10708855D01*
X7186027Y-10708855D02*
X7176503Y-10689808D01*
X7176503Y-10689808D02*
X7157455Y-10661236D01*
X7157455Y-10661236D02*
X7147932Y-10651712D01*
D15*
X2374773Y-10978800D02*
X2534773Y-11138800D01*
X2534773Y-10978800D02*
X2374773Y-11138800D01*
X2511343Y-11115369D02*
X2511343Y-11002231D01*
X2398204Y-11002231D01*
X2398204Y-11115369D01*
X2511343Y-11115369D01*
D11*
X2900312Y-11150284D02*
X2786026Y-11150284D01*
X2843169Y-11150284D02*
X2843169Y-10950284D01*
X2843169Y-10950284D02*
X2824122Y-10978855D01*
X2824122Y-10978855D02*
X2805074Y-10997903D01*
X2805074Y-10997903D02*
X2786026Y-11007427D01*
X2986026Y-11131236D02*
X2995550Y-11140760D01*
X2995550Y-11140760D02*
X2986026Y-11150284D01*
X2986026Y-11150284D02*
X2976503Y-11140760D01*
X2976503Y-11140760D02*
X2986026Y-11131236D01*
X2986026Y-11131236D02*
X2986026Y-11150284D01*
X3166979Y-10950284D02*
X3128883Y-10950284D01*
X3128883Y-10950284D02*
X3109836Y-10959808D01*
X3109836Y-10959808D02*
X3100312Y-10969331D01*
X3100312Y-10969331D02*
X3081264Y-10997903D01*
X3081264Y-10997903D02*
X3071741Y-11035998D01*
X3071741Y-11035998D02*
X3071741Y-11112189D01*
X3071741Y-11112189D02*
X3081264Y-11131236D01*
X3081264Y-11131236D02*
X3090788Y-11140760D01*
X3090788Y-11140760D02*
X3109836Y-11150284D01*
X3109836Y-11150284D02*
X3147931Y-11150284D01*
X3147931Y-11150284D02*
X3166979Y-11140760D01*
X3166979Y-11140760D02*
X3176503Y-11131236D01*
X3176503Y-11131236D02*
X3186026Y-11112189D01*
X3186026Y-11112189D02*
X3186026Y-11064570D01*
X3186026Y-11064570D02*
X3176503Y-11045522D01*
X3176503Y-11045522D02*
X3166979Y-11035998D01*
X3166979Y-11035998D02*
X3147931Y-11026474D01*
X3147931Y-11026474D02*
X3109836Y-11026474D01*
X3109836Y-11026474D02*
X3090788Y-11035998D01*
X3090788Y-11035998D02*
X3081264Y-11045522D01*
X3081264Y-11045522D02*
X3071741Y-11064570D01*
X3309836Y-10950284D02*
X3328884Y-10950284D01*
X3328884Y-10950284D02*
X3347931Y-10959808D01*
X3347931Y-10959808D02*
X3357455Y-10969331D01*
X3357455Y-10969331D02*
X3366979Y-10988379D01*
X3366979Y-10988379D02*
X3376503Y-11026474D01*
X3376503Y-11026474D02*
X3376503Y-11074093D01*
X3376503Y-11074093D02*
X3366979Y-11112189D01*
X3366979Y-11112189D02*
X3357455Y-11131236D01*
X3357455Y-11131236D02*
X3347931Y-11140760D01*
X3347931Y-11140760D02*
X3328884Y-11150284D01*
X3328884Y-11150284D02*
X3309836Y-11150284D01*
X3309836Y-11150284D02*
X3290788Y-11140760D01*
X3290788Y-11140760D02*
X3281264Y-11131236D01*
X3281264Y-11131236D02*
X3271741Y-11112189D01*
X3271741Y-11112189D02*
X3262217Y-11074093D01*
X3262217Y-11074093D02*
X3262217Y-11026474D01*
X3262217Y-11026474D02*
X3271741Y-10988379D01*
X3271741Y-10988379D02*
X3281264Y-10969331D01*
X3281264Y-10969331D02*
X3290788Y-10959808D01*
X3290788Y-10959808D02*
X3309836Y-10950284D01*
X3500312Y-10950284D02*
X3519360Y-10950284D01*
X3519360Y-10950284D02*
X3538407Y-10959808D01*
X3538407Y-10959808D02*
X3547931Y-10969331D01*
X3547931Y-10969331D02*
X3557455Y-10988379D01*
X3557455Y-10988379D02*
X3566979Y-11026474D01*
X3566979Y-11026474D02*
X3566979Y-11074093D01*
X3566979Y-11074093D02*
X3557455Y-11112189D01*
X3557455Y-11112189D02*
X3547931Y-11131236D01*
X3547931Y-11131236D02*
X3538407Y-11140760D01*
X3538407Y-11140760D02*
X3519360Y-11150284D01*
X3519360Y-11150284D02*
X3500312Y-11150284D01*
X3500312Y-11150284D02*
X3481264Y-11140760D01*
X3481264Y-11140760D02*
X3471741Y-11131236D01*
X3471741Y-11131236D02*
X3462217Y-11112189D01*
X3462217Y-11112189D02*
X3452693Y-11074093D01*
X3452693Y-11074093D02*
X3452693Y-11026474D01*
X3452693Y-11026474D02*
X3462217Y-10988379D01*
X3462217Y-10988379D02*
X3471741Y-10969331D01*
X3471741Y-10969331D02*
X3481264Y-10959808D01*
X3481264Y-10959808D02*
X3500312Y-10950284D01*
X3652693Y-11150284D02*
X3652693Y-11016950D01*
X3652693Y-11035998D02*
X3662217Y-11026474D01*
X3662217Y-11026474D02*
X3681264Y-11016950D01*
X3681264Y-11016950D02*
X3709836Y-11016950D01*
X3709836Y-11016950D02*
X3728884Y-11026474D01*
X3728884Y-11026474D02*
X3738407Y-11045522D01*
X3738407Y-11045522D02*
X3738407Y-11150284D01*
X3738407Y-11045522D02*
X3747931Y-11026474D01*
X3747931Y-11026474D02*
X3766979Y-11016950D01*
X3766979Y-11016950D02*
X3795550Y-11016950D01*
X3795550Y-11016950D02*
X3814598Y-11026474D01*
X3814598Y-11026474D02*
X3824122Y-11045522D01*
X3824122Y-11045522D02*
X3824122Y-11150284D01*
X3919360Y-11150284D02*
X3919360Y-11016950D01*
X3919360Y-11035998D02*
X3928884Y-11026474D01*
X3928884Y-11026474D02*
X3947931Y-11016950D01*
X3947931Y-11016950D02*
X3976503Y-11016950D01*
X3976503Y-11016950D02*
X3995550Y-11026474D01*
X3995550Y-11026474D02*
X4005074Y-11045522D01*
X4005074Y-11045522D02*
X4005074Y-11150284D01*
X4005074Y-11045522D02*
X4014598Y-11026474D01*
X4014598Y-11026474D02*
X4033645Y-11016950D01*
X4033645Y-11016950D02*
X4062217Y-11016950D01*
X4062217Y-11016950D02*
X4081265Y-11026474D01*
X4081265Y-11026474D02*
X4090788Y-11045522D01*
X4090788Y-11045522D02*
X4090788Y-11150284D01*
X4481265Y-10940760D02*
X4309836Y-11197903D01*
X4738408Y-10950284D02*
X4757455Y-10950284D01*
X4757455Y-10950284D02*
X4776503Y-10959808D01*
X4776503Y-10959808D02*
X4786027Y-10969331D01*
X4786027Y-10969331D02*
X4795550Y-10988379D01*
X4795550Y-10988379D02*
X4805074Y-11026474D01*
X4805074Y-11026474D02*
X4805074Y-11074093D01*
X4805074Y-11074093D02*
X4795550Y-11112189D01*
X4795550Y-11112189D02*
X4786027Y-11131236D01*
X4786027Y-11131236D02*
X4776503Y-11140760D01*
X4776503Y-11140760D02*
X4757455Y-11150284D01*
X4757455Y-11150284D02*
X4738408Y-11150284D01*
X4738408Y-11150284D02*
X4719360Y-11140760D01*
X4719360Y-11140760D02*
X4709836Y-11131236D01*
X4709836Y-11131236D02*
X4700312Y-11112189D01*
X4700312Y-11112189D02*
X4690789Y-11074093D01*
X4690789Y-11074093D02*
X4690789Y-11026474D01*
X4690789Y-11026474D02*
X4700312Y-10988379D01*
X4700312Y-10988379D02*
X4709836Y-10969331D01*
X4709836Y-10969331D02*
X4719360Y-10959808D01*
X4719360Y-10959808D02*
X4738408Y-10950284D01*
X4890789Y-11131236D02*
X4900312Y-11140760D01*
X4900312Y-11140760D02*
X4890789Y-11150284D01*
X4890789Y-11150284D02*
X4881265Y-11140760D01*
X4881265Y-11140760D02*
X4890789Y-11131236D01*
X4890789Y-11131236D02*
X4890789Y-11150284D01*
X5024122Y-10950284D02*
X5043170Y-10950284D01*
X5043170Y-10950284D02*
X5062217Y-10959808D01*
X5062217Y-10959808D02*
X5071741Y-10969331D01*
X5071741Y-10969331D02*
X5081265Y-10988379D01*
X5081265Y-10988379D02*
X5090789Y-11026474D01*
X5090789Y-11026474D02*
X5090789Y-11074093D01*
X5090789Y-11074093D02*
X5081265Y-11112189D01*
X5081265Y-11112189D02*
X5071741Y-11131236D01*
X5071741Y-11131236D02*
X5062217Y-11140760D01*
X5062217Y-11140760D02*
X5043170Y-11150284D01*
X5043170Y-11150284D02*
X5024122Y-11150284D01*
X5024122Y-11150284D02*
X5005074Y-11140760D01*
X5005074Y-11140760D02*
X4995550Y-11131236D01*
X4995550Y-11131236D02*
X4986027Y-11112189D01*
X4986027Y-11112189D02*
X4976503Y-11074093D01*
X4976503Y-11074093D02*
X4976503Y-11026474D01*
X4976503Y-11026474D02*
X4986027Y-10988379D01*
X4986027Y-10988379D02*
X4995550Y-10969331D01*
X4995550Y-10969331D02*
X5005074Y-10959808D01*
X5005074Y-10959808D02*
X5024122Y-10950284D01*
X5262217Y-10950284D02*
X5224122Y-10950284D01*
X5224122Y-10950284D02*
X5205074Y-10959808D01*
X5205074Y-10959808D02*
X5195550Y-10969331D01*
X5195550Y-10969331D02*
X5176503Y-10997903D01*
X5176503Y-10997903D02*
X5166979Y-11035998D01*
X5166979Y-11035998D02*
X5166979Y-11112189D01*
X5166979Y-11112189D02*
X5176503Y-11131236D01*
X5176503Y-11131236D02*
X5186027Y-11140760D01*
X5186027Y-11140760D02*
X5205074Y-11150284D01*
X5205074Y-11150284D02*
X5243170Y-11150284D01*
X5243170Y-11150284D02*
X5262217Y-11140760D01*
X5262217Y-11140760D02*
X5271741Y-11131236D01*
X5271741Y-11131236D02*
X5281265Y-11112189D01*
X5281265Y-11112189D02*
X5281265Y-11064570D01*
X5281265Y-11064570D02*
X5271741Y-11045522D01*
X5271741Y-11045522D02*
X5262217Y-11035998D01*
X5262217Y-11035998D02*
X5243170Y-11026474D01*
X5243170Y-11026474D02*
X5205074Y-11026474D01*
X5205074Y-11026474D02*
X5186027Y-11035998D01*
X5186027Y-11035998D02*
X5176503Y-11045522D01*
X5176503Y-11045522D02*
X5166979Y-11064570D01*
X5347931Y-10950284D02*
X5471741Y-10950284D01*
X5471741Y-10950284D02*
X5405074Y-11026474D01*
X5405074Y-11026474D02*
X5433646Y-11026474D01*
X5433646Y-11026474D02*
X5452693Y-11035998D01*
X5452693Y-11035998D02*
X5462217Y-11045522D01*
X5462217Y-11045522D02*
X5471741Y-11064570D01*
X5471741Y-11064570D02*
X5471741Y-11112189D01*
X5471741Y-11112189D02*
X5462217Y-11131236D01*
X5462217Y-11131236D02*
X5452693Y-11140760D01*
X5452693Y-11140760D02*
X5433646Y-11150284D01*
X5433646Y-11150284D02*
X5376503Y-11150284D01*
X5376503Y-11150284D02*
X5357455Y-11140760D01*
X5357455Y-11140760D02*
X5347931Y-11131236D01*
X5595550Y-10950284D02*
X5614598Y-10950284D01*
X5614598Y-10950284D02*
X5633646Y-10959808D01*
X5633646Y-10959808D02*
X5643169Y-10969331D01*
X5643169Y-10969331D02*
X5652693Y-10988379D01*
X5652693Y-10988379D02*
X5662217Y-11026474D01*
X5662217Y-11026474D02*
X5662217Y-11074093D01*
X5662217Y-11074093D02*
X5652693Y-11112189D01*
X5652693Y-11112189D02*
X5643169Y-11131236D01*
X5643169Y-11131236D02*
X5633646Y-11140760D01*
X5633646Y-11140760D02*
X5614598Y-11150284D01*
X5614598Y-11150284D02*
X5595550Y-11150284D01*
X5595550Y-11150284D02*
X5576503Y-11140760D01*
X5576503Y-11140760D02*
X5566979Y-11131236D01*
X5566979Y-11131236D02*
X5557455Y-11112189D01*
X5557455Y-11112189D02*
X5547931Y-11074093D01*
X5547931Y-11074093D02*
X5547931Y-11026474D01*
X5547931Y-11026474D02*
X5557455Y-10988379D01*
X5557455Y-10988379D02*
X5566979Y-10969331D01*
X5566979Y-10969331D02*
X5576503Y-10959808D01*
X5576503Y-10959808D02*
X5595550Y-10950284D01*
X5738408Y-10950284D02*
X5738408Y-10988379D01*
X5814598Y-10950284D02*
X5814598Y-10988379D01*
X6109836Y-11226474D02*
X6100312Y-11216950D01*
X6100312Y-11216950D02*
X6081265Y-11188379D01*
X6081265Y-11188379D02*
X6071741Y-11169331D01*
X6071741Y-11169331D02*
X6062217Y-11140760D01*
X6062217Y-11140760D02*
X6052693Y-11093141D01*
X6052693Y-11093141D02*
X6052693Y-11055046D01*
X6052693Y-11055046D02*
X6062217Y-11007427D01*
X6062217Y-11007427D02*
X6071741Y-10978855D01*
X6071741Y-10978855D02*
X6081265Y-10959808D01*
X6081265Y-10959808D02*
X6100312Y-10931236D01*
X6100312Y-10931236D02*
X6109836Y-10921712D01*
X6271741Y-11016950D02*
X6271741Y-11150284D01*
X6224122Y-10940760D02*
X6176503Y-11083617D01*
X6176503Y-11083617D02*
X6300312Y-11083617D01*
X6528884Y-11150284D02*
X6528884Y-10950284D01*
X6614598Y-11150284D02*
X6614598Y-11045522D01*
X6614598Y-11045522D02*
X6605074Y-11026474D01*
X6605074Y-11026474D02*
X6586027Y-11016950D01*
X6586027Y-11016950D02*
X6557455Y-11016950D01*
X6557455Y-11016950D02*
X6538408Y-11026474D01*
X6538408Y-11026474D02*
X6528884Y-11035998D01*
X6738408Y-11150284D02*
X6719360Y-11140760D01*
X6719360Y-11140760D02*
X6709836Y-11131236D01*
X6709836Y-11131236D02*
X6700312Y-11112189D01*
X6700312Y-11112189D02*
X6700312Y-11055046D01*
X6700312Y-11055046D02*
X6709836Y-11035998D01*
X6709836Y-11035998D02*
X6719360Y-11026474D01*
X6719360Y-11026474D02*
X6738408Y-11016950D01*
X6738408Y-11016950D02*
X6766979Y-11016950D01*
X6766979Y-11016950D02*
X6786027Y-11026474D01*
X6786027Y-11026474D02*
X6795551Y-11035998D01*
X6795551Y-11035998D02*
X6805074Y-11055046D01*
X6805074Y-11055046D02*
X6805074Y-11112189D01*
X6805074Y-11112189D02*
X6795551Y-11131236D01*
X6795551Y-11131236D02*
X6786027Y-11140760D01*
X6786027Y-11140760D02*
X6766979Y-11150284D01*
X6766979Y-11150284D02*
X6738408Y-11150284D01*
X6919360Y-11150284D02*
X6900312Y-11140760D01*
X6900312Y-11140760D02*
X6890789Y-11121712D01*
X6890789Y-11121712D02*
X6890789Y-10950284D01*
X7071741Y-11140760D02*
X7052693Y-11150284D01*
X7052693Y-11150284D02*
X7014598Y-11150284D01*
X7014598Y-11150284D02*
X6995551Y-11140760D01*
X6995551Y-11140760D02*
X6986027Y-11121712D01*
X6986027Y-11121712D02*
X6986027Y-11045522D01*
X6986027Y-11045522D02*
X6995551Y-11026474D01*
X6995551Y-11026474D02*
X7014598Y-11016950D01*
X7014598Y-11016950D02*
X7052693Y-11016950D01*
X7052693Y-11016950D02*
X7071741Y-11026474D01*
X7071741Y-11026474D02*
X7081265Y-11045522D01*
X7081265Y-11045522D02*
X7081265Y-11064570D01*
X7081265Y-11064570D02*
X6986027Y-11083617D01*
X7157455Y-11140760D02*
X7176503Y-11150284D01*
X7176503Y-11150284D02*
X7214598Y-11150284D01*
X7214598Y-11150284D02*
X7233646Y-11140760D01*
X7233646Y-11140760D02*
X7243170Y-11121712D01*
X7243170Y-11121712D02*
X7243170Y-11112189D01*
X7243170Y-11112189D02*
X7233646Y-11093141D01*
X7233646Y-11093141D02*
X7214598Y-11083617D01*
X7214598Y-11083617D02*
X7186027Y-11083617D01*
X7186027Y-11083617D02*
X7166979Y-11074093D01*
X7166979Y-11074093D02*
X7157455Y-11055046D01*
X7157455Y-11055046D02*
X7157455Y-11045522D01*
X7157455Y-11045522D02*
X7166979Y-11026474D01*
X7166979Y-11026474D02*
X7186027Y-11016950D01*
X7186027Y-11016950D02*
X7214598Y-11016950D01*
X7214598Y-11016950D02*
X7233646Y-11026474D01*
X7309836Y-11226474D02*
X7319360Y-11216950D01*
X7319360Y-11216950D02*
X7338408Y-11188379D01*
X7338408Y-11188379D02*
X7347932Y-11169331D01*
X7347932Y-11169331D02*
X7357455Y-11140760D01*
X7357455Y-11140760D02*
X7366979Y-11093141D01*
X7366979Y-11093141D02*
X7366979Y-11055046D01*
X7366979Y-11055046D02*
X7357455Y-11007427D01*
X7357455Y-11007427D02*
X7347932Y-10978855D01*
X7347932Y-10978855D02*
X7338408Y-10959808D01*
X7338408Y-10959808D02*
X7319360Y-10931236D01*
X7319360Y-10931236D02*
X7309836Y-10921712D01*
X2334773Y-11238800D02*
X2534773Y-11438800D01*
X2534773Y-11238800D02*
X2334773Y-11438800D01*
X2434773Y-11438800D02*
X2534773Y-11338800D01*
X2434773Y-11238800D01*
X2334773Y-11338800D01*
X2434773Y-11438800D01*
X2776503Y-11230284D02*
X2900312Y-11230284D01*
X2900312Y-11230284D02*
X2833645Y-11306474D01*
X2833645Y-11306474D02*
X2862217Y-11306474D01*
X2862217Y-11306474D02*
X2881264Y-11315998D01*
X2881264Y-11315998D02*
X2890788Y-11325522D01*
X2890788Y-11325522D02*
X2900312Y-11344569D01*
X2900312Y-11344569D02*
X2900312Y-11392188D01*
X2900312Y-11392188D02*
X2890788Y-11411236D01*
X2890788Y-11411236D02*
X2881264Y-11420760D01*
X2881264Y-11420760D02*
X2862217Y-11430284D01*
X2862217Y-11430284D02*
X2805074Y-11430284D01*
X2805074Y-11430284D02*
X2786026Y-11420760D01*
X2786026Y-11420760D02*
X2776503Y-11411236D01*
X2986026Y-11411236D02*
X2995550Y-11420760D01*
X2995550Y-11420760D02*
X2986026Y-11430284D01*
X2986026Y-11430284D02*
X2976503Y-11420760D01*
X2976503Y-11420760D02*
X2986026Y-11411236D01*
X2986026Y-11411236D02*
X2986026Y-11430284D01*
X3071741Y-11249331D02*
X3081264Y-11239808D01*
X3081264Y-11239808D02*
X3100312Y-11230284D01*
X3100312Y-11230284D02*
X3147931Y-11230284D01*
X3147931Y-11230284D02*
X3166979Y-11239808D01*
X3166979Y-11239808D02*
X3176503Y-11249331D01*
X3176503Y-11249331D02*
X3186026Y-11268379D01*
X3186026Y-11268379D02*
X3186026Y-11287427D01*
X3186026Y-11287427D02*
X3176503Y-11315998D01*
X3176503Y-11315998D02*
X3062217Y-11430284D01*
X3062217Y-11430284D02*
X3186026Y-11430284D01*
X3309836Y-11230284D02*
X3328884Y-11230284D01*
X3328884Y-11230284D02*
X3347931Y-11239808D01*
X3347931Y-11239808D02*
X3357455Y-11249331D01*
X3357455Y-11249331D02*
X3366979Y-11268379D01*
X3366979Y-11268379D02*
X3376503Y-11306474D01*
X3376503Y-11306474D02*
X3376503Y-11354093D01*
X3376503Y-11354093D02*
X3366979Y-11392188D01*
X3366979Y-11392188D02*
X3357455Y-11411236D01*
X3357455Y-11411236D02*
X3347931Y-11420760D01*
X3347931Y-11420760D02*
X3328884Y-11430284D01*
X3328884Y-11430284D02*
X3309836Y-11430284D01*
X3309836Y-11430284D02*
X3290788Y-11420760D01*
X3290788Y-11420760D02*
X3281264Y-11411236D01*
X3281264Y-11411236D02*
X3271741Y-11392188D01*
X3271741Y-11392188D02*
X3262217Y-11354093D01*
X3262217Y-11354093D02*
X3262217Y-11306474D01*
X3262217Y-11306474D02*
X3271741Y-11268379D01*
X3271741Y-11268379D02*
X3281264Y-11249331D01*
X3281264Y-11249331D02*
X3290788Y-11239808D01*
X3290788Y-11239808D02*
X3309836Y-11230284D01*
X3500312Y-11230284D02*
X3519360Y-11230284D01*
X3519360Y-11230284D02*
X3538407Y-11239808D01*
X3538407Y-11239808D02*
X3547931Y-11249331D01*
X3547931Y-11249331D02*
X3557455Y-11268379D01*
X3557455Y-11268379D02*
X3566979Y-11306474D01*
X3566979Y-11306474D02*
X3566979Y-11354093D01*
X3566979Y-11354093D02*
X3557455Y-11392188D01*
X3557455Y-11392188D02*
X3547931Y-11411236D01*
X3547931Y-11411236D02*
X3538407Y-11420760D01*
X3538407Y-11420760D02*
X3519360Y-11430284D01*
X3519360Y-11430284D02*
X3500312Y-11430284D01*
X3500312Y-11430284D02*
X3481264Y-11420760D01*
X3481264Y-11420760D02*
X3471741Y-11411236D01*
X3471741Y-11411236D02*
X3462217Y-11392188D01*
X3462217Y-11392188D02*
X3452693Y-11354093D01*
X3452693Y-11354093D02*
X3452693Y-11306474D01*
X3452693Y-11306474D02*
X3462217Y-11268379D01*
X3462217Y-11268379D02*
X3471741Y-11249331D01*
X3471741Y-11249331D02*
X3481264Y-11239808D01*
X3481264Y-11239808D02*
X3500312Y-11230284D01*
X3652693Y-11430284D02*
X3652693Y-11296950D01*
X3652693Y-11315998D02*
X3662217Y-11306474D01*
X3662217Y-11306474D02*
X3681264Y-11296950D01*
X3681264Y-11296950D02*
X3709836Y-11296950D01*
X3709836Y-11296950D02*
X3728884Y-11306474D01*
X3728884Y-11306474D02*
X3738407Y-11325522D01*
X3738407Y-11325522D02*
X3738407Y-11430284D01*
X3738407Y-11325522D02*
X3747931Y-11306474D01*
X3747931Y-11306474D02*
X3766979Y-11296950D01*
X3766979Y-11296950D02*
X3795550Y-11296950D01*
X3795550Y-11296950D02*
X3814598Y-11306474D01*
X3814598Y-11306474D02*
X3824122Y-11325522D01*
X3824122Y-11325522D02*
X3824122Y-11430284D01*
X3919360Y-11430284D02*
X3919360Y-11296950D01*
X3919360Y-11315998D02*
X3928884Y-11306474D01*
X3928884Y-11306474D02*
X3947931Y-11296950D01*
X3947931Y-11296950D02*
X3976503Y-11296950D01*
X3976503Y-11296950D02*
X3995550Y-11306474D01*
X3995550Y-11306474D02*
X4005074Y-11325522D01*
X4005074Y-11325522D02*
X4005074Y-11430284D01*
X4005074Y-11325522D02*
X4014598Y-11306474D01*
X4014598Y-11306474D02*
X4033645Y-11296950D01*
X4033645Y-11296950D02*
X4062217Y-11296950D01*
X4062217Y-11296950D02*
X4081265Y-11306474D01*
X4081265Y-11306474D02*
X4090788Y-11325522D01*
X4090788Y-11325522D02*
X4090788Y-11430284D01*
X4481265Y-11220760D02*
X4309836Y-11477903D01*
X4738408Y-11230284D02*
X4757455Y-11230284D01*
X4757455Y-11230284D02*
X4776503Y-11239808D01*
X4776503Y-11239808D02*
X4786027Y-11249331D01*
X4786027Y-11249331D02*
X4795550Y-11268379D01*
X4795550Y-11268379D02*
X4805074Y-11306474D01*
X4805074Y-11306474D02*
X4805074Y-11354093D01*
X4805074Y-11354093D02*
X4795550Y-11392188D01*
X4795550Y-11392188D02*
X4786027Y-11411236D01*
X4786027Y-11411236D02*
X4776503Y-11420760D01*
X4776503Y-11420760D02*
X4757455Y-11430284D01*
X4757455Y-11430284D02*
X4738408Y-11430284D01*
X4738408Y-11430284D02*
X4719360Y-11420760D01*
X4719360Y-11420760D02*
X4709836Y-11411236D01*
X4709836Y-11411236D02*
X4700312Y-11392188D01*
X4700312Y-11392188D02*
X4690789Y-11354093D01*
X4690789Y-11354093D02*
X4690789Y-11306474D01*
X4690789Y-11306474D02*
X4700312Y-11268379D01*
X4700312Y-11268379D02*
X4709836Y-11249331D01*
X4709836Y-11249331D02*
X4719360Y-11239808D01*
X4719360Y-11239808D02*
X4738408Y-11230284D01*
X4890789Y-11411236D02*
X4900312Y-11420760D01*
X4900312Y-11420760D02*
X4890789Y-11430284D01*
X4890789Y-11430284D02*
X4881265Y-11420760D01*
X4881265Y-11420760D02*
X4890789Y-11411236D01*
X4890789Y-11411236D02*
X4890789Y-11430284D01*
X5090789Y-11430284D02*
X4976503Y-11430284D01*
X5033646Y-11430284D02*
X5033646Y-11230284D01*
X5033646Y-11230284D02*
X5014598Y-11258855D01*
X5014598Y-11258855D02*
X4995550Y-11277903D01*
X4995550Y-11277903D02*
X4976503Y-11287427D01*
X5166979Y-11249331D02*
X5176503Y-11239808D01*
X5176503Y-11239808D02*
X5195550Y-11230284D01*
X5195550Y-11230284D02*
X5243170Y-11230284D01*
X5243170Y-11230284D02*
X5262217Y-11239808D01*
X5262217Y-11239808D02*
X5271741Y-11249331D01*
X5271741Y-11249331D02*
X5281265Y-11268379D01*
X5281265Y-11268379D02*
X5281265Y-11287427D01*
X5281265Y-11287427D02*
X5271741Y-11315998D01*
X5271741Y-11315998D02*
X5157455Y-11430284D01*
X5157455Y-11430284D02*
X5281265Y-11430284D01*
X5452693Y-11230284D02*
X5414598Y-11230284D01*
X5414598Y-11230284D02*
X5395550Y-11239808D01*
X5395550Y-11239808D02*
X5386027Y-11249331D01*
X5386027Y-11249331D02*
X5366979Y-11277903D01*
X5366979Y-11277903D02*
X5357455Y-11315998D01*
X5357455Y-11315998D02*
X5357455Y-11392188D01*
X5357455Y-11392188D02*
X5366979Y-11411236D01*
X5366979Y-11411236D02*
X5376503Y-11420760D01*
X5376503Y-11420760D02*
X5395550Y-11430284D01*
X5395550Y-11430284D02*
X5433646Y-11430284D01*
X5433646Y-11430284D02*
X5452693Y-11420760D01*
X5452693Y-11420760D02*
X5462217Y-11411236D01*
X5462217Y-11411236D02*
X5471741Y-11392188D01*
X5471741Y-11392188D02*
X5471741Y-11344569D01*
X5471741Y-11344569D02*
X5462217Y-11325522D01*
X5462217Y-11325522D02*
X5452693Y-11315998D01*
X5452693Y-11315998D02*
X5433646Y-11306474D01*
X5433646Y-11306474D02*
X5395550Y-11306474D01*
X5395550Y-11306474D02*
X5376503Y-11315998D01*
X5376503Y-11315998D02*
X5366979Y-11325522D01*
X5366979Y-11325522D02*
X5357455Y-11344569D01*
X5595550Y-11230284D02*
X5614598Y-11230284D01*
X5614598Y-11230284D02*
X5633646Y-11239808D01*
X5633646Y-11239808D02*
X5643169Y-11249331D01*
X5643169Y-11249331D02*
X5652693Y-11268379D01*
X5652693Y-11268379D02*
X5662217Y-11306474D01*
X5662217Y-11306474D02*
X5662217Y-11354093D01*
X5662217Y-11354093D02*
X5652693Y-11392188D01*
X5652693Y-11392188D02*
X5643169Y-11411236D01*
X5643169Y-11411236D02*
X5633646Y-11420760D01*
X5633646Y-11420760D02*
X5614598Y-11430284D01*
X5614598Y-11430284D02*
X5595550Y-11430284D01*
X5595550Y-11430284D02*
X5576503Y-11420760D01*
X5576503Y-11420760D02*
X5566979Y-11411236D01*
X5566979Y-11411236D02*
X5557455Y-11392188D01*
X5557455Y-11392188D02*
X5547931Y-11354093D01*
X5547931Y-11354093D02*
X5547931Y-11306474D01*
X5547931Y-11306474D02*
X5557455Y-11268379D01*
X5557455Y-11268379D02*
X5566979Y-11249331D01*
X5566979Y-11249331D02*
X5576503Y-11239808D01*
X5576503Y-11239808D02*
X5595550Y-11230284D01*
X5738408Y-11230284D02*
X5738408Y-11268379D01*
X5814598Y-11230284D02*
X5814598Y-11268379D01*
X6109836Y-11506474D02*
X6100312Y-11496950D01*
X6100312Y-11496950D02*
X6081265Y-11468379D01*
X6081265Y-11468379D02*
X6071741Y-11449331D01*
X6071741Y-11449331D02*
X6062217Y-11420760D01*
X6062217Y-11420760D02*
X6052693Y-11373141D01*
X6052693Y-11373141D02*
X6052693Y-11335046D01*
X6052693Y-11335046D02*
X6062217Y-11287427D01*
X6062217Y-11287427D02*
X6071741Y-11258855D01*
X6071741Y-11258855D02*
X6081265Y-11239808D01*
X6081265Y-11239808D02*
X6100312Y-11211236D01*
X6100312Y-11211236D02*
X6109836Y-11201712D01*
X6271741Y-11296950D02*
X6271741Y-11430284D01*
X6224122Y-11220760D02*
X6176503Y-11363617D01*
X6176503Y-11363617D02*
X6300312Y-11363617D01*
X6528884Y-11430284D02*
X6528884Y-11230284D01*
X6614598Y-11430284D02*
X6614598Y-11325522D01*
X6614598Y-11325522D02*
X6605074Y-11306474D01*
X6605074Y-11306474D02*
X6586027Y-11296950D01*
X6586027Y-11296950D02*
X6557455Y-11296950D01*
X6557455Y-11296950D02*
X6538408Y-11306474D01*
X6538408Y-11306474D02*
X6528884Y-11315998D01*
X6738408Y-11430284D02*
X6719360Y-11420760D01*
X6719360Y-11420760D02*
X6709836Y-11411236D01*
X6709836Y-11411236D02*
X6700312Y-11392188D01*
X6700312Y-11392188D02*
X6700312Y-11335046D01*
X6700312Y-11335046D02*
X6709836Y-11315998D01*
X6709836Y-11315998D02*
X6719360Y-11306474D01*
X6719360Y-11306474D02*
X6738408Y-11296950D01*
X6738408Y-11296950D02*
X6766979Y-11296950D01*
X6766979Y-11296950D02*
X6786027Y-11306474D01*
X6786027Y-11306474D02*
X6795551Y-11315998D01*
X6795551Y-11315998D02*
X6805074Y-11335046D01*
X6805074Y-11335046D02*
X6805074Y-11392188D01*
X6805074Y-11392188D02*
X6795551Y-11411236D01*
X6795551Y-11411236D02*
X6786027Y-11420760D01*
X6786027Y-11420760D02*
X6766979Y-11430284D01*
X6766979Y-11430284D02*
X6738408Y-11430284D01*
X6919360Y-11430284D02*
X6900312Y-11420760D01*
X6900312Y-11420760D02*
X6890789Y-11401712D01*
X6890789Y-11401712D02*
X6890789Y-11230284D01*
X7071741Y-11420760D02*
X7052693Y-11430284D01*
X7052693Y-11430284D02*
X7014598Y-11430284D01*
X7014598Y-11430284D02*
X6995551Y-11420760D01*
X6995551Y-11420760D02*
X6986027Y-11401712D01*
X6986027Y-11401712D02*
X6986027Y-11325522D01*
X6986027Y-11325522D02*
X6995551Y-11306474D01*
X6995551Y-11306474D02*
X7014598Y-11296950D01*
X7014598Y-11296950D02*
X7052693Y-11296950D01*
X7052693Y-11296950D02*
X7071741Y-11306474D01*
X7071741Y-11306474D02*
X7081265Y-11325522D01*
X7081265Y-11325522D02*
X7081265Y-11344569D01*
X7081265Y-11344569D02*
X6986027Y-11363617D01*
X7157455Y-11420760D02*
X7176503Y-11430284D01*
X7176503Y-11430284D02*
X7214598Y-11430284D01*
X7214598Y-11430284D02*
X7233646Y-11420760D01*
X7233646Y-11420760D02*
X7243170Y-11401712D01*
X7243170Y-11401712D02*
X7243170Y-11392188D01*
X7243170Y-11392188D02*
X7233646Y-11373141D01*
X7233646Y-11373141D02*
X7214598Y-11363617D01*
X7214598Y-11363617D02*
X7186027Y-11363617D01*
X7186027Y-11363617D02*
X7166979Y-11354093D01*
X7166979Y-11354093D02*
X7157455Y-11335046D01*
X7157455Y-11335046D02*
X7157455Y-11325522D01*
X7157455Y-11325522D02*
X7166979Y-11306474D01*
X7166979Y-11306474D02*
X7186027Y-11296950D01*
X7186027Y-11296950D02*
X7214598Y-11296950D01*
X7214598Y-11296950D02*
X7233646Y-11306474D01*
X7309836Y-11506474D02*
X7319360Y-11496950D01*
X7319360Y-11496950D02*
X7338408Y-11468379D01*
X7338408Y-11468379D02*
X7347932Y-11449331D01*
X7347932Y-11449331D02*
X7357455Y-11420760D01*
X7357455Y-11420760D02*
X7366979Y-11373141D01*
X7366979Y-11373141D02*
X7366979Y-11335046D01*
X7366979Y-11335046D02*
X7357455Y-11287427D01*
X7357455Y-11287427D02*
X7347932Y-11258855D01*
X7347932Y-11258855D02*
X7338408Y-11239808D01*
X7338408Y-11239808D02*
X7319360Y-11211236D01*
X7319360Y-11211236D02*
X7309836Y-11201712D01*
X2434773Y-11558800D02*
X2434773Y-11758800D01*
X2334773Y-11658800D02*
X2534773Y-11658800D01*
X2534773Y-11658800D02*
G75*
G02*
X2334773Y-11658800I-100000J0D01*
G01*
X2334773Y-11658800D02*
G75*
G02*
X2534773Y-11658800I100000J0D01*
G01*
X2881264Y-11616950D02*
X2881264Y-11750284D01*
X2833645Y-11540760D02*
X2786026Y-11683617D01*
X2786026Y-11683617D02*
X2909836Y-11683617D01*
X2986026Y-11731236D02*
X2995550Y-11740760D01*
X2995550Y-11740760D02*
X2986026Y-11750284D01*
X2986026Y-11750284D02*
X2976503Y-11740760D01*
X2976503Y-11740760D02*
X2986026Y-11731236D01*
X2986026Y-11731236D02*
X2986026Y-11750284D01*
X3176503Y-11550284D02*
X3081264Y-11550284D01*
X3081264Y-11550284D02*
X3071741Y-11645522D01*
X3071741Y-11645522D02*
X3081264Y-11635998D01*
X3081264Y-11635998D02*
X3100312Y-11626474D01*
X3100312Y-11626474D02*
X3147931Y-11626474D01*
X3147931Y-11626474D02*
X3166979Y-11635998D01*
X3166979Y-11635998D02*
X3176503Y-11645522D01*
X3176503Y-11645522D02*
X3186026Y-11664569D01*
X3186026Y-11664569D02*
X3186026Y-11712188D01*
X3186026Y-11712188D02*
X3176503Y-11731236D01*
X3176503Y-11731236D02*
X3166979Y-11740760D01*
X3166979Y-11740760D02*
X3147931Y-11750284D01*
X3147931Y-11750284D02*
X3100312Y-11750284D01*
X3100312Y-11750284D02*
X3081264Y-11740760D01*
X3081264Y-11740760D02*
X3071741Y-11731236D01*
X3309836Y-11550284D02*
X3328884Y-11550284D01*
X3328884Y-11550284D02*
X3347931Y-11559808D01*
X3347931Y-11559808D02*
X3357455Y-11569331D01*
X3357455Y-11569331D02*
X3366979Y-11588379D01*
X3366979Y-11588379D02*
X3376503Y-11626474D01*
X3376503Y-11626474D02*
X3376503Y-11674093D01*
X3376503Y-11674093D02*
X3366979Y-11712188D01*
X3366979Y-11712188D02*
X3357455Y-11731236D01*
X3357455Y-11731236D02*
X3347931Y-11740760D01*
X3347931Y-11740760D02*
X3328884Y-11750284D01*
X3328884Y-11750284D02*
X3309836Y-11750284D01*
X3309836Y-11750284D02*
X3290788Y-11740760D01*
X3290788Y-11740760D02*
X3281264Y-11731236D01*
X3281264Y-11731236D02*
X3271741Y-11712188D01*
X3271741Y-11712188D02*
X3262217Y-11674093D01*
X3262217Y-11674093D02*
X3262217Y-11626474D01*
X3262217Y-11626474D02*
X3271741Y-11588379D01*
X3271741Y-11588379D02*
X3281264Y-11569331D01*
X3281264Y-11569331D02*
X3290788Y-11559808D01*
X3290788Y-11559808D02*
X3309836Y-11550284D01*
X3500312Y-11550284D02*
X3519360Y-11550284D01*
X3519360Y-11550284D02*
X3538407Y-11559808D01*
X3538407Y-11559808D02*
X3547931Y-11569331D01*
X3547931Y-11569331D02*
X3557455Y-11588379D01*
X3557455Y-11588379D02*
X3566979Y-11626474D01*
X3566979Y-11626474D02*
X3566979Y-11674093D01*
X3566979Y-11674093D02*
X3557455Y-11712188D01*
X3557455Y-11712188D02*
X3547931Y-11731236D01*
X3547931Y-11731236D02*
X3538407Y-11740760D01*
X3538407Y-11740760D02*
X3519360Y-11750284D01*
X3519360Y-11750284D02*
X3500312Y-11750284D01*
X3500312Y-11750284D02*
X3481264Y-11740760D01*
X3481264Y-11740760D02*
X3471741Y-11731236D01*
X3471741Y-11731236D02*
X3462217Y-11712188D01*
X3462217Y-11712188D02*
X3452693Y-11674093D01*
X3452693Y-11674093D02*
X3452693Y-11626474D01*
X3452693Y-11626474D02*
X3462217Y-11588379D01*
X3462217Y-11588379D02*
X3471741Y-11569331D01*
X3471741Y-11569331D02*
X3481264Y-11559808D01*
X3481264Y-11559808D02*
X3500312Y-11550284D01*
X3652693Y-11750284D02*
X3652693Y-11616950D01*
X3652693Y-11635998D02*
X3662217Y-11626474D01*
X3662217Y-11626474D02*
X3681264Y-11616950D01*
X3681264Y-11616950D02*
X3709836Y-11616950D01*
X3709836Y-11616950D02*
X3728884Y-11626474D01*
X3728884Y-11626474D02*
X3738407Y-11645522D01*
X3738407Y-11645522D02*
X3738407Y-11750284D01*
X3738407Y-11645522D02*
X3747931Y-11626474D01*
X3747931Y-11626474D02*
X3766979Y-11616950D01*
X3766979Y-11616950D02*
X3795550Y-11616950D01*
X3795550Y-11616950D02*
X3814598Y-11626474D01*
X3814598Y-11626474D02*
X3824122Y-11645522D01*
X3824122Y-11645522D02*
X3824122Y-11750284D01*
X3919360Y-11750284D02*
X3919360Y-11616950D01*
X3919360Y-11635998D02*
X3928884Y-11626474D01*
X3928884Y-11626474D02*
X3947931Y-11616950D01*
X3947931Y-11616950D02*
X3976503Y-11616950D01*
X3976503Y-11616950D02*
X3995550Y-11626474D01*
X3995550Y-11626474D02*
X4005074Y-11645522D01*
X4005074Y-11645522D02*
X4005074Y-11750284D01*
X4005074Y-11645522D02*
X4014598Y-11626474D01*
X4014598Y-11626474D02*
X4033645Y-11616950D01*
X4033645Y-11616950D02*
X4062217Y-11616950D01*
X4062217Y-11616950D02*
X4081265Y-11626474D01*
X4081265Y-11626474D02*
X4090788Y-11645522D01*
X4090788Y-11645522D02*
X4090788Y-11750284D01*
X4481265Y-11540760D02*
X4309836Y-11797903D01*
X4738408Y-11550284D02*
X4757455Y-11550284D01*
X4757455Y-11550284D02*
X4776503Y-11559808D01*
X4776503Y-11559808D02*
X4786027Y-11569331D01*
X4786027Y-11569331D02*
X4795550Y-11588379D01*
X4795550Y-11588379D02*
X4805074Y-11626474D01*
X4805074Y-11626474D02*
X4805074Y-11674093D01*
X4805074Y-11674093D02*
X4795550Y-11712188D01*
X4795550Y-11712188D02*
X4786027Y-11731236D01*
X4786027Y-11731236D02*
X4776503Y-11740760D01*
X4776503Y-11740760D02*
X4757455Y-11750284D01*
X4757455Y-11750284D02*
X4738408Y-11750284D01*
X4738408Y-11750284D02*
X4719360Y-11740760D01*
X4719360Y-11740760D02*
X4709836Y-11731236D01*
X4709836Y-11731236D02*
X4700312Y-11712188D01*
X4700312Y-11712188D02*
X4690789Y-11674093D01*
X4690789Y-11674093D02*
X4690789Y-11626474D01*
X4690789Y-11626474D02*
X4700312Y-11588379D01*
X4700312Y-11588379D02*
X4709836Y-11569331D01*
X4709836Y-11569331D02*
X4719360Y-11559808D01*
X4719360Y-11559808D02*
X4738408Y-11550284D01*
X4890789Y-11731236D02*
X4900312Y-11740760D01*
X4900312Y-11740760D02*
X4890789Y-11750284D01*
X4890789Y-11750284D02*
X4881265Y-11740760D01*
X4881265Y-11740760D02*
X4890789Y-11731236D01*
X4890789Y-11731236D02*
X4890789Y-11750284D01*
X5090789Y-11750284D02*
X4976503Y-11750284D01*
X5033646Y-11750284D02*
X5033646Y-11550284D01*
X5033646Y-11550284D02*
X5014598Y-11578855D01*
X5014598Y-11578855D02*
X4995550Y-11597903D01*
X4995550Y-11597903D02*
X4976503Y-11607427D01*
X5157455Y-11550284D02*
X5290789Y-11550284D01*
X5290789Y-11550284D02*
X5205074Y-11750284D01*
X5347931Y-11550284D02*
X5481265Y-11550284D01*
X5481265Y-11550284D02*
X5395550Y-11750284D01*
X5547931Y-11569331D02*
X5557455Y-11559808D01*
X5557455Y-11559808D02*
X5576503Y-11550284D01*
X5576503Y-11550284D02*
X5624122Y-11550284D01*
X5624122Y-11550284D02*
X5643169Y-11559808D01*
X5643169Y-11559808D02*
X5652693Y-11569331D01*
X5652693Y-11569331D02*
X5662217Y-11588379D01*
X5662217Y-11588379D02*
X5662217Y-11607427D01*
X5662217Y-11607427D02*
X5652693Y-11635998D01*
X5652693Y-11635998D02*
X5538408Y-11750284D01*
X5538408Y-11750284D02*
X5662217Y-11750284D01*
X5738408Y-11550284D02*
X5738408Y-11588379D01*
X5814598Y-11550284D02*
X5814598Y-11588379D01*
X6109836Y-11826474D02*
X6100312Y-11816950D01*
X6100312Y-11816950D02*
X6081265Y-11788379D01*
X6081265Y-11788379D02*
X6071741Y-11769331D01*
X6071741Y-11769331D02*
X6062217Y-11740760D01*
X6062217Y-11740760D02*
X6052693Y-11693141D01*
X6052693Y-11693141D02*
X6052693Y-11655046D01*
X6052693Y-11655046D02*
X6062217Y-11607427D01*
X6062217Y-11607427D02*
X6071741Y-11578855D01*
X6071741Y-11578855D02*
X6081265Y-11559808D01*
X6081265Y-11559808D02*
X6100312Y-11531236D01*
X6100312Y-11531236D02*
X6109836Y-11521712D01*
X6176503Y-11569331D02*
X6186027Y-11559808D01*
X6186027Y-11559808D02*
X6205074Y-11550284D01*
X6205074Y-11550284D02*
X6252693Y-11550284D01*
X6252693Y-11550284D02*
X6271741Y-11559808D01*
X6271741Y-11559808D02*
X6281265Y-11569331D01*
X6281265Y-11569331D02*
X6290789Y-11588379D01*
X6290789Y-11588379D02*
X6290789Y-11607427D01*
X6290789Y-11607427D02*
X6281265Y-11635998D01*
X6281265Y-11635998D02*
X6166979Y-11750284D01*
X6166979Y-11750284D02*
X6290789Y-11750284D01*
X6528884Y-11750284D02*
X6528884Y-11550284D01*
X6614598Y-11750284D02*
X6614598Y-11645522D01*
X6614598Y-11645522D02*
X6605074Y-11626474D01*
X6605074Y-11626474D02*
X6586027Y-11616950D01*
X6586027Y-11616950D02*
X6557455Y-11616950D01*
X6557455Y-11616950D02*
X6538408Y-11626474D01*
X6538408Y-11626474D02*
X6528884Y-11635998D01*
X6738408Y-11750284D02*
X6719360Y-11740760D01*
X6719360Y-11740760D02*
X6709836Y-11731236D01*
X6709836Y-11731236D02*
X6700312Y-11712188D01*
X6700312Y-11712188D02*
X6700312Y-11655046D01*
X6700312Y-11655046D02*
X6709836Y-11635998D01*
X6709836Y-11635998D02*
X6719360Y-11626474D01*
X6719360Y-11626474D02*
X6738408Y-11616950D01*
X6738408Y-11616950D02*
X6766979Y-11616950D01*
X6766979Y-11616950D02*
X6786027Y-11626474D01*
X6786027Y-11626474D02*
X6795551Y-11635998D01*
X6795551Y-11635998D02*
X6805074Y-11655046D01*
X6805074Y-11655046D02*
X6805074Y-11712188D01*
X6805074Y-11712188D02*
X6795551Y-11731236D01*
X6795551Y-11731236D02*
X6786027Y-11740760D01*
X6786027Y-11740760D02*
X6766979Y-11750284D01*
X6766979Y-11750284D02*
X6738408Y-11750284D01*
X6919360Y-11750284D02*
X6900312Y-11740760D01*
X6900312Y-11740760D02*
X6890789Y-11721712D01*
X6890789Y-11721712D02*
X6890789Y-11550284D01*
X7071741Y-11740760D02*
X7052693Y-11750284D01*
X7052693Y-11750284D02*
X7014598Y-11750284D01*
X7014598Y-11750284D02*
X6995551Y-11740760D01*
X6995551Y-11740760D02*
X6986027Y-11721712D01*
X6986027Y-11721712D02*
X6986027Y-11645522D01*
X6986027Y-11645522D02*
X6995551Y-11626474D01*
X6995551Y-11626474D02*
X7014598Y-11616950D01*
X7014598Y-11616950D02*
X7052693Y-11616950D01*
X7052693Y-11616950D02*
X7071741Y-11626474D01*
X7071741Y-11626474D02*
X7081265Y-11645522D01*
X7081265Y-11645522D02*
X7081265Y-11664569D01*
X7081265Y-11664569D02*
X6986027Y-11683617D01*
X7157455Y-11740760D02*
X7176503Y-11750284D01*
X7176503Y-11750284D02*
X7214598Y-11750284D01*
X7214598Y-11750284D02*
X7233646Y-11740760D01*
X7233646Y-11740760D02*
X7243170Y-11721712D01*
X7243170Y-11721712D02*
X7243170Y-11712188D01*
X7243170Y-11712188D02*
X7233646Y-11693141D01*
X7233646Y-11693141D02*
X7214598Y-11683617D01*
X7214598Y-11683617D02*
X7186027Y-11683617D01*
X7186027Y-11683617D02*
X7166979Y-11674093D01*
X7166979Y-11674093D02*
X7157455Y-11655046D01*
X7157455Y-11655046D02*
X7157455Y-11645522D01*
X7157455Y-11645522D02*
X7166979Y-11626474D01*
X7166979Y-11626474D02*
X7186027Y-11616950D01*
X7186027Y-11616950D02*
X7214598Y-11616950D01*
X7214598Y-11616950D02*
X7233646Y-11626474D01*
X7309836Y-11826474D02*
X7319360Y-11816950D01*
X7319360Y-11816950D02*
X7338408Y-11788379D01*
X7338408Y-11788379D02*
X7347932Y-11769331D01*
X7347932Y-11769331D02*
X7357455Y-11740760D01*
X7357455Y-11740760D02*
X7366979Y-11693141D01*
X7366979Y-11693141D02*
X7366979Y-11655046D01*
X7366979Y-11655046D02*
X7357455Y-11607427D01*
X7357455Y-11607427D02*
X7347932Y-11578855D01*
X7347932Y-11578855D02*
X7338408Y-11559808D01*
X7338408Y-11559808D02*
X7319360Y-11531236D01*
X7319360Y-11531236D02*
X7309836Y-11521712D01*
M02*
