G04 #@! TF.GenerationSoftware,KiCad,Pcbnew,8.0.5*
G04 #@! TF.CreationDate,2025-02-16T07:26:16+05:30*
G04 #@! TF.ProjectId,Hades,48616465-732e-46b6-9963-61645f706362,rev?*
G04 #@! TF.SameCoordinates,Original*
G04 #@! TF.FileFunction,Paste,Bot*
G04 #@! TF.FilePolarity,Positive*
%FSLAX46Y46*%
G04 Gerber Fmt 4.6, Leading zero omitted, Abs format (unit mm)*
G04 Created by KiCad (PCBNEW 8.0.5) date 2025-02-16 07:26:16*
%MOMM*%
%LPD*%
G01*
G04 APERTURE LIST*
G04 Aperture macros list*
%AMRoundRect*
0 Rectangle with rounded corners*
0 $1 Rounding radius*
0 $2 $3 $4 $5 $6 $7 $8 $9 X,Y pos of 4 corners*
0 Add a 4 corners polygon primitive as box body*
4,1,4,$2,$3,$4,$5,$6,$7,$8,$9,$2,$3,0*
0 Add four circle primitives for the rounded corners*
1,1,$1+$1,$2,$3*
1,1,$1+$1,$4,$5*
1,1,$1+$1,$6,$7*
1,1,$1+$1,$8,$9*
0 Add four rect primitives between the rounded corners*
20,1,$1+$1,$2,$3,$4,$5,0*
20,1,$1+$1,$4,$5,$6,$7,0*
20,1,$1+$1,$6,$7,$8,$9,0*
20,1,$1+$1,$8,$9,$2,$3,0*%
G04 Aperture macros list end*
%ADD10RoundRect,0.147500X-0.147500X-0.172500X0.147500X-0.172500X0.147500X0.172500X-0.147500X0.172500X0*%
%ADD11RoundRect,0.243750X-0.243750X-0.456250X0.243750X-0.456250X0.243750X0.456250X-0.243750X0.456250X0*%
%ADD12RoundRect,0.243750X0.243750X0.456250X-0.243750X0.456250X-0.243750X-0.456250X0.243750X-0.456250X0*%
%ADD13RoundRect,0.218750X0.256250X-0.218750X0.256250X0.218750X-0.256250X0.218750X-0.256250X-0.218750X0*%
%ADD14RoundRect,0.147500X0.172500X-0.147500X0.172500X0.147500X-0.172500X0.147500X-0.172500X-0.147500X0*%
%ADD15R,0.600000X0.450000*%
G04 APERTURE END LIST*
D10*
X99487000Y-54203600D03*
X100457000Y-54203600D03*
X99487000Y-56438800D03*
X100457000Y-56438800D03*
X99489400Y-55321200D03*
X100459400Y-55321200D03*
X99487000Y-57556400D03*
X100457000Y-57556400D03*
D11*
X38531800Y-47625000D03*
X40406800Y-47625000D03*
X38534100Y-45593000D03*
X40409100Y-45593000D03*
D12*
X43154600Y-39471600D03*
X41279600Y-39471600D03*
X44041300Y-43561000D03*
X42166300Y-43561000D03*
D11*
X34015200Y-43561000D03*
X35890200Y-43561000D03*
D13*
X97713800Y-59740900D03*
X97713800Y-58165900D03*
D14*
X96291400Y-59438400D03*
X96291400Y-58468400D03*
D13*
X68757800Y-70789900D03*
X68757800Y-69214900D03*
D14*
X67310000Y-70487400D03*
X67310000Y-69517400D03*
X39801800Y-76276200D03*
X39801800Y-75306200D03*
D15*
X39946000Y-37566600D03*
X37846000Y-37566600D03*
D11*
X34015200Y-45618400D03*
X35890200Y-45618400D03*
D12*
X40411400Y-41503600D03*
X38536400Y-41503600D03*
D11*
X34015200Y-41503600D03*
X35890200Y-41503600D03*
X34015200Y-39446200D03*
X35890200Y-39446200D03*
D10*
X95931000Y-50901600D03*
X96901000Y-50901600D03*
X95931000Y-49733200D03*
X96901000Y-49733200D03*
X104744800Y-55321200D03*
X105714800Y-55321200D03*
X104747200Y-56489600D03*
X105717200Y-56489600D03*
X99487000Y-53086000D03*
X100457000Y-53086000D03*
X99487000Y-51968400D03*
X100457000Y-51968400D03*
X99489400Y-50850800D03*
X100459400Y-50850800D03*
X99487000Y-49733200D03*
X100457000Y-49733200D03*
D13*
X71729600Y-69164300D03*
X71729600Y-67589300D03*
X73431400Y-69164300D03*
X73431400Y-67589300D03*
D11*
X38531800Y-43561000D03*
X40406800Y-43561000D03*
M02*
