G04 #@! TF.GenerationSoftware,KiCad,Pcbnew,8.0.5*
G04 #@! TF.CreationDate,2025-02-16T07:26:16+05:30*
G04 #@! TF.ProjectId,Hades,48616465-732e-46b6-9963-61645f706362,rev?*
G04 #@! TF.SameCoordinates,Original*
G04 #@! TF.FileFunction,Paste,Top*
G04 #@! TF.FilePolarity,Positive*
%FSLAX46Y46*%
G04 Gerber Fmt 4.6, Leading zero omitted, Abs format (unit mm)*
G04 Created by KiCad (PCBNEW 8.0.5) date 2025-02-16 07:26:16*
%MOMM*%
%LPD*%
G01*
G04 APERTURE LIST*
G04 Aperture macros list*
%AMRoundRect*
0 Rectangle with rounded corners*
0 $1 Rounding radius*
0 $2 $3 $4 $5 $6 $7 $8 $9 X,Y pos of 4 corners*
0 Add a 4 corners polygon primitive as box body*
4,1,4,$2,$3,$4,$5,$6,$7,$8,$9,$2,$3,0*
0 Add four circle primitives for the rounded corners*
1,1,$1+$1,$2,$3*
1,1,$1+$1,$4,$5*
1,1,$1+$1,$6,$7*
1,1,$1+$1,$8,$9*
0 Add four rect primitives between the rounded corners*
20,1,$1+$1,$2,$3,$4,$5,0*
20,1,$1+$1,$4,$5,$6,$7,0*
20,1,$1+$1,$6,$7,$8,$9,0*
20,1,$1+$1,$8,$9,$2,$3,0*%
G04 Aperture macros list end*
%ADD10RoundRect,0.147500X0.147500X0.172500X-0.147500X0.172500X-0.147500X-0.172500X0.147500X-0.172500X0*%
%ADD11RoundRect,0.075000X-0.725000X-0.075000X0.725000X-0.075000X0.725000X0.075000X-0.725000X0.075000X0*%
%ADD12RoundRect,0.075000X-0.075000X-0.725000X0.075000X-0.725000X0.075000X0.725000X-0.075000X0.725000X0*%
%ADD13RoundRect,0.147500X0.172500X-0.147500X0.172500X0.147500X-0.172500X0.147500X-0.172500X-0.147500X0*%
%ADD14RoundRect,0.147500X-0.172500X0.147500X-0.172500X-0.147500X0.172500X-0.147500X0.172500X0.147500X0*%
%ADD15RoundRect,0.250000X0.550000X-1.412500X0.550000X1.412500X-0.550000X1.412500X-0.550000X-1.412500X0*%
%ADD16RoundRect,0.250000X1.075000X-0.375000X1.075000X0.375000X-1.075000X0.375000X-1.075000X-0.375000X0*%
%ADD17RoundRect,0.218750X0.218750X0.256250X-0.218750X0.256250X-0.218750X-0.256250X0.218750X-0.256250X0*%
%ADD18RoundRect,0.218750X-0.256250X0.218750X-0.256250X-0.218750X0.256250X-0.218750X0.256250X0.218750X0*%
%ADD19RoundRect,0.218750X0.256250X-0.218750X0.256250X0.218750X-0.256250X0.218750X-0.256250X-0.218750X0*%
%ADD20RoundRect,0.218750X-0.218750X-0.256250X0.218750X-0.256250X0.218750X0.256250X-0.218750X0.256250X0*%
%ADD21RoundRect,0.147500X-0.147500X-0.172500X0.147500X-0.172500X0.147500X0.172500X-0.147500X0.172500X0*%
%ADD22R,0.600000X0.450000*%
%ADD23R,0.450000X0.600000*%
%ADD24R,1.200000X1.400000*%
%ADD25R,4.000000X4.900000*%
%ADD26RoundRect,0.250000X-0.425000X-1.425000X0.425000X-1.425000X0.425000X1.425000X-0.425000X1.425000X0*%
%ADD27R,0.800000X0.400000*%
%ADD28R,1.750000X2.500000*%
%ADD29R,1.050000X0.650000*%
%ADD30R,1.400000X0.800000*%
%ADD31R,2.400000X0.740000*%
%ADD32R,1.320800X0.508000*%
%ADD33R,0.400000X1.100000*%
%ADD34R,1.150000X0.600000*%
%ADD35R,0.350000X0.580000*%
%ADD36R,0.580000X0.350000*%
%ADD37R,1.060000X0.650000*%
%ADD38R,0.700000X0.650000*%
%ADD39R,0.650000X0.700000*%
%ADD40R,0.350000X0.300000*%
%ADD41R,0.300000X0.350000*%
%ADD42RoundRect,0.150000X-0.150000X0.625000X-0.150000X-0.625000X0.150000X-0.625000X0.150000X0.625000X0*%
%ADD43R,0.450000X1.300000*%
%ADD44R,0.300000X0.400000*%
%ADD45R,0.400000X0.300000*%
%ADD46R,2.830000X2.200000*%
%ADD47R,2.830000X0.900000*%
%ADD48R,1.600000X3.700000*%
%ADD49RoundRect,0.075000X-0.700000X-0.075000X0.700000X-0.075000X0.700000X0.075000X-0.700000X0.075000X0*%
%ADD50RoundRect,0.075000X-0.075000X-0.700000X0.075000X-0.700000X0.075000X0.700000X-0.075000X0.700000X0*%
%ADD51R,0.950000X0.450000*%
%ADD52R,3.450000X4.350000*%
%ADD53R,0.800000X1.500000*%
G04 APERTURE END LIST*
D10*
X92560000Y-58674000D03*
X91590000Y-58674000D03*
D11*
X94306000Y-49702200D03*
X94306000Y-50202200D03*
X94306000Y-50702200D03*
X94306000Y-51202200D03*
X94306000Y-51702200D03*
X94306000Y-52202200D03*
X94306000Y-52702200D03*
X94306000Y-53202200D03*
X94306000Y-53702200D03*
X94306000Y-54202200D03*
X94306000Y-54702200D03*
X94306000Y-55202200D03*
X94306000Y-55702200D03*
X94306000Y-56202200D03*
X94306000Y-56702200D03*
X94306000Y-57202200D03*
X94306000Y-57702200D03*
X94306000Y-58202200D03*
X94306000Y-58702200D03*
X94306000Y-59202200D03*
X94306000Y-59702200D03*
X94306000Y-60202200D03*
X94306000Y-60702200D03*
X94306000Y-61202200D03*
X94306000Y-61702200D03*
D12*
X95981000Y-63377200D03*
X96481000Y-63377200D03*
X96981000Y-63377200D03*
X97481000Y-63377200D03*
X97981000Y-63377200D03*
X98481000Y-63377200D03*
X98981000Y-63377200D03*
X99481000Y-63377200D03*
X99981000Y-63377200D03*
X100481000Y-63377200D03*
X100981000Y-63377200D03*
X101481000Y-63377200D03*
X101981000Y-63377200D03*
X102481000Y-63377200D03*
X102981000Y-63377200D03*
X103481000Y-63377200D03*
X103981000Y-63377200D03*
X104481000Y-63377200D03*
X104981000Y-63377200D03*
X105481000Y-63377200D03*
X105981000Y-63377200D03*
X106481000Y-63377200D03*
X106981000Y-63377200D03*
X107481000Y-63377200D03*
X107981000Y-63377200D03*
D11*
X109656000Y-61702200D03*
X109656000Y-61202200D03*
X109656000Y-60702200D03*
X109656000Y-60202200D03*
X109656000Y-59702200D03*
X109656000Y-59202200D03*
X109656000Y-58702200D03*
X109656000Y-58202200D03*
X109656000Y-57702200D03*
X109656000Y-57202200D03*
X109656000Y-56702200D03*
X109656000Y-56202200D03*
X109656000Y-55702200D03*
X109656000Y-55202200D03*
X109656000Y-54702200D03*
X109656000Y-54202200D03*
X109656000Y-53702200D03*
X109656000Y-53202200D03*
X109656000Y-52702200D03*
X109656000Y-52202200D03*
X109656000Y-51702200D03*
X109656000Y-51202200D03*
X109656000Y-50702200D03*
X109656000Y-50202200D03*
X109656000Y-49702200D03*
D12*
X107981000Y-48027200D03*
X107481000Y-48027200D03*
X106981000Y-48027200D03*
X106481000Y-48027200D03*
X105981000Y-48027200D03*
X105481000Y-48027200D03*
X104981000Y-48027200D03*
X104481000Y-48027200D03*
X103981000Y-48027200D03*
X103481000Y-48027200D03*
X102981000Y-48027200D03*
X102481000Y-48027200D03*
X101981000Y-48027200D03*
X101481000Y-48027200D03*
X100981000Y-48027200D03*
X100481000Y-48027200D03*
X99981000Y-48027200D03*
X99481000Y-48027200D03*
X98981000Y-48027200D03*
X98481000Y-48027200D03*
X97981000Y-48027200D03*
X97481000Y-48027200D03*
X96981000Y-48027200D03*
X96481000Y-48027200D03*
X95981000Y-48027200D03*
D13*
X106172000Y-66629000D03*
X106172000Y-65659000D03*
X72796400Y-76939000D03*
X72796400Y-75969000D03*
D14*
X67716400Y-55697400D03*
X67716400Y-56667400D03*
D15*
X33528000Y-41905000D03*
X33528000Y-36830000D03*
X33528000Y-51432500D03*
X33528000Y-46357500D03*
D16*
X27813000Y-50295000D03*
X27813000Y-47495000D03*
D13*
X46863000Y-44173000D03*
X46863000Y-43203000D03*
D17*
X34976000Y-54635400D03*
X33401000Y-54635400D03*
D18*
X30429200Y-56972000D03*
X30429200Y-58547000D03*
D19*
X112217200Y-50165000D03*
X112217200Y-48590000D03*
D20*
X95732500Y-44805600D03*
X97307500Y-44805600D03*
D21*
X96032600Y-46253400D03*
X97002600Y-46253400D03*
D10*
X92506800Y-52197000D03*
X91536800Y-52197000D03*
X96243000Y-65151000D03*
X95273000Y-65151000D03*
D14*
X109042200Y-63576200D03*
X109042200Y-64546200D03*
D21*
X109878000Y-48641000D03*
X110848000Y-48641000D03*
D10*
X94945200Y-47701200D03*
X93975200Y-47701200D03*
D13*
X92481400Y-54510800D03*
X92481400Y-53540800D03*
D10*
X96245400Y-66268600D03*
X95275400Y-66268600D03*
D14*
X110159800Y-63571400D03*
X110159800Y-64541400D03*
D10*
X94945200Y-46532800D03*
X93975200Y-46532800D03*
D17*
X92329000Y-62407800D03*
X90754000Y-62407800D03*
D14*
X92075000Y-47648000D03*
X92075000Y-48618000D03*
D21*
X87602200Y-52425600D03*
X88572200Y-52425600D03*
D10*
X88572200Y-57962800D03*
X87602200Y-57962800D03*
D13*
X67208400Y-41709200D03*
X67208400Y-40739200D03*
D10*
X111152800Y-71145400D03*
X110182800Y-71145400D03*
D21*
X95273000Y-67640200D03*
X96243000Y-67640200D03*
D20*
X74828400Y-76454000D03*
X76403400Y-76454000D03*
D19*
X79527400Y-64185800D03*
X79527400Y-62610800D03*
D17*
X65100200Y-60579000D03*
X63525200Y-60579000D03*
D21*
X66492400Y-60579000D03*
X67462400Y-60579000D03*
D13*
X76987400Y-63172200D03*
X76987400Y-62202200D03*
D10*
X68021200Y-75438000D03*
X67051200Y-75438000D03*
X65105000Y-62001400D03*
X64135000Y-62001400D03*
D13*
X78105000Y-63172200D03*
X78105000Y-62202200D03*
D21*
X75819000Y-75031600D03*
X76789000Y-75031600D03*
D10*
X68026000Y-76555600D03*
X67056000Y-76555600D03*
D14*
X61366400Y-72667000D03*
X61366400Y-73637000D03*
D21*
X58544600Y-63449200D03*
X59514600Y-63449200D03*
D10*
X59514600Y-69011800D03*
X58544600Y-69011800D03*
D14*
X76200000Y-58064400D03*
X76200000Y-59034400D03*
D21*
X74696600Y-52908200D03*
X75666600Y-52908200D03*
D10*
X53797200Y-68707000D03*
X52827200Y-68707000D03*
D13*
X64592200Y-51285000D03*
X64592200Y-50315000D03*
D14*
X57327800Y-50315000D03*
X57327800Y-51285000D03*
D20*
X74675800Y-50774600D03*
X76250800Y-50774600D03*
D10*
X76200000Y-45999400D03*
X75230000Y-45999400D03*
D14*
X77698600Y-47777400D03*
X77698600Y-48747400D03*
D18*
X79146400Y-47472500D03*
X79146400Y-49047500D03*
D10*
X58905000Y-60934600D03*
X57935000Y-60934600D03*
D20*
X40030400Y-62585600D03*
X41605400Y-62585600D03*
D13*
X98501200Y-39956600D03*
X98501200Y-38986600D03*
X105204260Y-39969160D03*
X105204260Y-38999160D03*
X109547660Y-39976780D03*
X109547660Y-39006780D03*
X116278660Y-39974240D03*
X116278660Y-39004240D03*
D22*
X83536500Y-36385500D03*
X81436500Y-36385500D03*
X94585500Y-36385500D03*
X92485500Y-36385500D03*
D23*
X105689400Y-35289200D03*
X105689400Y-33189200D03*
X116738400Y-35297800D03*
X116738400Y-33197800D03*
D10*
X92557600Y-59969400D03*
X91587600Y-59969400D03*
X63576200Y-70053200D03*
X62606200Y-70053200D03*
D14*
X84404200Y-28902800D03*
X84404200Y-29872800D03*
X95326200Y-28902800D03*
X95326200Y-29872800D03*
X106527600Y-28902800D03*
X106527600Y-29872800D03*
D13*
X116738400Y-37368200D03*
X116738400Y-36398200D03*
D24*
X87237200Y-54094200D03*
X87237200Y-56294200D03*
X88937200Y-56294200D03*
X88937200Y-54094200D03*
X58167800Y-65135400D03*
X58167800Y-67335400D03*
X59867800Y-67335400D03*
X59867800Y-65135400D03*
D25*
X50712000Y-54483000D03*
X39712000Y-54483000D03*
D10*
X40767000Y-76276200D03*
X39797000Y-76276200D03*
D20*
X26771400Y-53340000D03*
X28346400Y-53340000D03*
X26746000Y-64135000D03*
X28321000Y-64135000D03*
D19*
X99491800Y-67335600D03*
X99491800Y-65760600D03*
X101193600Y-67335600D03*
X101193600Y-65760600D03*
X102895400Y-67335600D03*
X102895400Y-65760600D03*
D18*
X103505000Y-43916400D03*
X103505000Y-45491400D03*
X101828600Y-43916500D03*
X101828600Y-45491500D03*
X100152200Y-43916500D03*
X100152200Y-45491500D03*
D19*
X78943200Y-73888800D03*
X78943200Y-72313800D03*
X83972400Y-73888600D03*
X83972400Y-72313600D03*
D18*
X96456500Y-33413500D03*
X96456500Y-34988500D03*
X107505500Y-33413500D03*
X107505500Y-34988500D03*
D26*
X39920000Y-37338000D03*
X45720000Y-37338000D03*
D17*
X28346500Y-54991000D03*
X26771500Y-54991000D03*
X28321000Y-65786000D03*
X26746000Y-65786000D03*
D19*
X101193600Y-70459700D03*
X101193600Y-68884700D03*
X102895400Y-70459800D03*
X102895400Y-68884800D03*
D18*
X103505000Y-41020800D03*
X103505000Y-42595800D03*
X100152200Y-41020900D03*
X100152200Y-42595900D03*
D17*
X92252800Y-56235600D03*
X90677800Y-56235600D03*
D14*
X70358000Y-55697400D03*
X70358000Y-56667400D03*
D10*
X81259400Y-67411600D03*
X80289400Y-67411600D03*
X81257000Y-68580000D03*
X80287000Y-68580000D03*
D17*
X63271400Y-67360800D03*
X61696400Y-67360800D03*
D19*
X78943200Y-77038300D03*
X78943200Y-75463300D03*
X80619600Y-77038300D03*
X80619600Y-75463300D03*
X82296000Y-77038300D03*
X82296000Y-75463300D03*
X83972400Y-77038300D03*
X83972400Y-75463300D03*
D10*
X62080000Y-54381400D03*
X61110000Y-54381400D03*
D21*
X35072600Y-64693800D03*
X36042600Y-64693800D03*
D13*
X41935400Y-76255600D03*
X41935400Y-75285600D03*
D21*
X91613000Y-63982600D03*
X92583000Y-63982600D03*
D13*
X78613000Y-34193200D03*
X78613000Y-33223200D03*
X89662000Y-34193200D03*
X89662000Y-33223200D03*
X90830400Y-34190800D03*
X90830400Y-33220800D03*
D18*
X98107500Y-33413500D03*
X98107500Y-34988500D03*
X109156500Y-33413500D03*
X109156500Y-34988500D03*
D27*
X32053400Y-56479400D03*
X32053400Y-57429400D03*
X32053400Y-58379400D03*
X35053400Y-58379400D03*
X35053400Y-57429400D03*
X35053400Y-56479400D03*
D28*
X33553400Y-57429400D03*
D29*
X85730800Y-47108800D03*
X89880800Y-47108800D03*
X85730800Y-49258800D03*
X89880800Y-49258800D03*
D30*
X79280000Y-79860200D03*
X79280000Y-83360200D03*
X83280000Y-81610200D03*
X73241400Y-79860200D03*
X73241400Y-83360200D03*
X77241400Y-81610200D03*
D29*
X55006600Y-72094200D03*
X59156600Y-72094200D03*
X55006600Y-74244200D03*
X59156600Y-74244200D03*
D31*
X95611400Y-79121000D03*
X99511400Y-79121000D03*
X95611400Y-80391000D03*
X99511400Y-80391000D03*
X95611400Y-81661000D03*
X99511400Y-81661000D03*
X95611400Y-82931000D03*
X99511400Y-82931000D03*
X95611400Y-84201000D03*
X99511400Y-84201000D03*
X86746800Y-79121000D03*
X90646800Y-79121000D03*
X86746800Y-80391000D03*
X90646800Y-80391000D03*
X86746800Y-81661000D03*
X90646800Y-81661000D03*
X86746800Y-82931000D03*
X90646800Y-82931000D03*
X86746800Y-84201000D03*
X90646800Y-84201000D03*
D32*
X48387000Y-41833800D03*
X48387000Y-42468800D03*
X48387000Y-43129200D03*
X48387000Y-43764200D03*
X50927000Y-43764200D03*
X50927000Y-43129200D03*
X50927000Y-42468800D03*
X50927000Y-41833800D03*
D33*
X65540600Y-36012000D03*
X64890600Y-36012000D03*
X64240600Y-36012000D03*
X63590600Y-36012000D03*
X62940600Y-36012000D03*
X62290600Y-36012000D03*
X61640600Y-36012000D03*
X60990600Y-36012000D03*
X60340600Y-36012000D03*
X59690600Y-36012000D03*
X59040600Y-36012000D03*
X58390600Y-36012000D03*
X57740600Y-36012000D03*
X57090600Y-36012000D03*
X57090600Y-41712000D03*
X57740600Y-41712000D03*
X58390600Y-41712000D03*
X59040600Y-41712000D03*
X59690600Y-41712000D03*
X60340600Y-41712000D03*
X60990600Y-41712000D03*
X61640600Y-41712000D03*
X62290600Y-41712000D03*
X62940600Y-41712000D03*
X63590600Y-41712000D03*
X64240600Y-41712000D03*
X64890600Y-41712000D03*
X65540600Y-41712000D03*
D34*
X109417800Y-67782400D03*
X109417800Y-68732400D03*
X109417800Y-69682400D03*
X111917800Y-69682400D03*
X111917800Y-67782400D03*
D35*
X73938000Y-54339000D03*
X74438000Y-54339000D03*
X74938000Y-54339000D03*
X75438000Y-54339000D03*
X75938000Y-54339000D03*
X76438000Y-54339000D03*
X76938000Y-54339000D03*
D36*
X77348000Y-55499000D03*
D35*
X76938000Y-56659000D03*
X76438000Y-56659000D03*
X75938000Y-56659000D03*
X75438000Y-56659000D03*
X74938000Y-56659000D03*
X74438000Y-56659000D03*
X73938000Y-56659000D03*
D36*
X73528000Y-55499000D03*
D37*
X52214600Y-65191600D03*
X52214600Y-66141600D03*
X52214600Y-67091600D03*
X54414600Y-67091600D03*
X54414600Y-66141600D03*
X54414600Y-65191600D03*
D38*
X59690000Y-48700000D03*
X60960000Y-48700000D03*
X62230000Y-48700000D03*
D39*
X63060000Y-49530000D03*
X63060000Y-50800000D03*
X63060000Y-52070000D03*
D38*
X62230000Y-52900000D03*
X60960000Y-52900000D03*
X59690000Y-52900000D03*
D39*
X58860000Y-52070000D03*
X58860000Y-50800000D03*
X58860000Y-49530000D03*
D40*
X74688000Y-47510000D03*
X74688000Y-48010000D03*
X74688000Y-48510000D03*
X74688000Y-49010000D03*
D41*
X75188000Y-49010000D03*
X75688000Y-49010000D03*
D40*
X76188000Y-49010000D03*
X76188000Y-48510000D03*
X76188000Y-48010000D03*
X76188000Y-47510000D03*
D41*
X75688000Y-47510000D03*
X75188000Y-47510000D03*
D34*
X57170000Y-57444600D03*
X57170000Y-58394600D03*
X57170000Y-59344600D03*
X59670000Y-59344600D03*
X59670000Y-57444600D03*
D42*
X103759000Y-33647000D03*
X102489000Y-33647000D03*
X101219000Y-33647000D03*
X99949000Y-33647000D03*
X99949000Y-38997000D03*
X101219000Y-38997000D03*
X102489000Y-38997000D03*
X103759000Y-38997000D03*
X114808000Y-33655000D03*
X113538000Y-33655000D03*
X112268000Y-33655000D03*
X110998000Y-33655000D03*
X110998000Y-39005000D03*
X112268000Y-39005000D03*
X113538000Y-39005000D03*
X114808000Y-39005000D03*
D43*
X80167000Y-31110000D03*
X79517000Y-31110000D03*
X78867000Y-31110000D03*
X78217000Y-31110000D03*
X77567000Y-31110000D03*
X102265000Y-31110000D03*
X101615000Y-31110000D03*
X100965000Y-31110000D03*
X100315000Y-31110000D03*
X99665000Y-31110000D03*
X113314000Y-31110000D03*
X112664000Y-31110000D03*
X112014000Y-31110000D03*
X111364000Y-31110000D03*
X110714000Y-31110000D03*
D16*
X27813000Y-40773000D03*
X27813000Y-37973000D03*
D44*
X39636000Y-46223000D03*
X40286000Y-46223000D03*
X40936000Y-46223000D03*
X41586000Y-46223000D03*
X42236000Y-46223000D03*
X42886000Y-46223000D03*
X43536000Y-46223000D03*
X44186000Y-46223000D03*
D45*
X44811000Y-45448000D03*
X44811000Y-44798000D03*
X44811000Y-44148000D03*
X44811000Y-43498000D03*
X44811000Y-42848000D03*
X44811000Y-42198000D03*
D44*
X44186000Y-41423000D03*
X43536000Y-41423000D03*
X42886000Y-41423000D03*
X42236000Y-41423000D03*
X41586000Y-41423000D03*
X40936000Y-41423000D03*
X40286000Y-41423000D03*
X39636000Y-41423000D03*
D45*
X39011000Y-42198000D03*
X39011000Y-42848000D03*
X39011000Y-43498000D03*
X39011000Y-44148000D03*
X39011000Y-44798000D03*
X39011000Y-45448000D03*
D46*
X42926000Y-44323000D03*
D47*
X42926000Y-42423000D03*
D48*
X40361000Y-43823000D03*
D43*
X91216000Y-31110000D03*
X90566000Y-31110000D03*
X89916000Y-31110000D03*
X89266000Y-31110000D03*
X88616000Y-31110000D03*
D13*
X38633400Y-76281000D03*
X38633400Y-75311000D03*
D49*
X65343400Y-64245800D03*
X65343400Y-64745800D03*
X65343400Y-65245800D03*
X65343400Y-65745800D03*
X65343400Y-66245800D03*
X65343400Y-66745800D03*
X65343400Y-67245800D03*
X65343400Y-67745800D03*
X65343400Y-68245800D03*
X65343400Y-68745800D03*
X65343400Y-69245800D03*
X65343400Y-69745800D03*
X65343400Y-70245800D03*
X65343400Y-70745800D03*
X65343400Y-71245800D03*
X65343400Y-71745800D03*
D50*
X67268400Y-73670800D03*
X67768400Y-73670800D03*
X68268400Y-73670800D03*
X68768400Y-73670800D03*
X69268400Y-73670800D03*
X69768400Y-73670800D03*
X70268400Y-73670800D03*
X70768400Y-73670800D03*
X71268400Y-73670800D03*
X71768400Y-73670800D03*
X72268400Y-73670800D03*
X72768400Y-73670800D03*
X73268400Y-73670800D03*
X73768400Y-73670800D03*
X74268400Y-73670800D03*
X74768400Y-73670800D03*
D49*
X76693400Y-71745800D03*
X76693400Y-71245800D03*
X76693400Y-70745800D03*
X76693400Y-70245800D03*
X76693400Y-69745800D03*
X76693400Y-69245800D03*
X76693400Y-68745800D03*
X76693400Y-68245800D03*
X76693400Y-67745800D03*
X76693400Y-67245800D03*
X76693400Y-66745800D03*
X76693400Y-66245800D03*
X76693400Y-65745800D03*
X76693400Y-65245800D03*
X76693400Y-64745800D03*
X76693400Y-64245800D03*
D50*
X74768400Y-62320800D03*
X74268400Y-62320800D03*
X73768400Y-62320800D03*
X73268400Y-62320800D03*
X72768400Y-62320800D03*
X72268400Y-62320800D03*
X71768400Y-62320800D03*
X71268400Y-62320800D03*
X70768400Y-62320800D03*
X70268400Y-62320800D03*
X69768400Y-62320800D03*
X69268400Y-62320800D03*
X68768400Y-62320800D03*
X68268400Y-62320800D03*
X67768400Y-62320800D03*
X67268400Y-62320800D03*
D20*
X108026000Y-65913000D03*
X109601000Y-65913000D03*
D13*
X85471000Y-77269200D03*
X85471000Y-76299200D03*
D51*
X87616200Y-69672200D03*
X87616200Y-70942200D03*
X87616200Y-72212200D03*
X87616200Y-73482200D03*
X95416200Y-73482200D03*
X95416200Y-72212200D03*
X95416200Y-70942200D03*
X95416200Y-69672200D03*
D52*
X91516200Y-71577200D03*
D14*
X85928200Y-71242200D03*
X85928200Y-72212200D03*
D19*
X99491800Y-70459700D03*
X99491800Y-68884700D03*
D14*
X96774000Y-69822200D03*
X96774000Y-70792200D03*
D53*
X46333400Y-64685400D03*
X45233400Y-64685400D03*
X44133400Y-64685400D03*
X43033400Y-64685400D03*
X41933400Y-64685400D03*
X40833400Y-64685400D03*
X39733400Y-64685400D03*
X38633400Y-64685400D03*
X37533400Y-64685400D03*
X37533400Y-73685400D03*
X38633400Y-73685400D03*
X39733400Y-73685400D03*
X40833400Y-73685400D03*
X41933400Y-73685400D03*
X43033400Y-73685400D03*
X44133400Y-73685400D03*
X45233400Y-73685400D03*
X46333400Y-73685400D03*
D30*
X103003600Y-79860200D03*
X103003600Y-83360200D03*
X107003600Y-81610200D03*
D10*
X107010200Y-77343000D03*
X106040200Y-77343000D03*
D17*
X38303300Y-62585600D03*
X36728300Y-62585600D03*
D13*
X79781400Y-34193200D03*
X79781400Y-33223200D03*
X77444600Y-34193200D03*
X77444600Y-33223200D03*
D21*
X91615400Y-65125600D03*
X92585400Y-65125600D03*
X109878000Y-47548800D03*
X110848000Y-47548800D03*
D13*
X88493600Y-34190800D03*
X88493600Y-33220800D03*
D10*
X65105000Y-63119000D03*
X64135000Y-63119000D03*
D18*
X101828600Y-41020900D03*
X101828600Y-42595900D03*
D10*
X92560000Y-61061600D03*
X91590000Y-61061600D03*
D13*
X105003600Y-66629000D03*
X105003600Y-65659000D03*
D21*
X75819000Y-73914000D03*
X76789000Y-73914000D03*
D19*
X82296000Y-73888800D03*
X82296000Y-72313800D03*
X80619600Y-73888700D03*
X80619600Y-72313700D03*
M02*
