G04*
G04 #@! TF.GenerationSoftware,Altium Limited,Altium Designer,22.5.1 (42)*
G04*
G04 Layer_Color=32896*
%FSLAX44Y44*%
%MOMM*%
G71*
G04*
G04 #@! TF.SameCoordinates,41AE30FE-043A-47DD-A292-25B9FDFD75C8*
G04*
G04*
G04 #@! TF.FilePolarity,Positive*
G04*
G01*
G75*
%ADD10C,0.2000*%
D10*
X675640Y441960D02*
X680720D01*
Y469900D01*
X675640D02*
X680720D01*
X124460Y375920D02*
X129540D01*
X124460Y403860D02*
X129540D01*
X124460Y375920D02*
Y403860D01*
X147320Y78740D02*
Y86360D01*
X177800Y78740D02*
Y81280D01*
X177787Y78727D02*
X177800Y78740D01*
X147388Y78727D02*
X177787D01*
X139065Y78740D02*
X147320D01*
X114300D02*
X122555D01*
X139065D01*
X114300D02*
Y81280D01*
X52406Y158020D02*
Y151355D01*
X49073Y154688D02*
X55738D01*
X47407Y141359D02*
Y148023D01*
X52406D01*
X50739Y144691D01*
Y143025D01*
X52406Y141359D01*
X55738D01*
X57404Y143025D01*
Y146357D01*
X55738Y148023D01*
X47407Y138026D02*
X54072D01*
X57404Y134694D01*
X54072Y131362D01*
X47407D01*
Y118033D02*
Y114701D01*
Y116367D01*
X57404D01*
Y118033D01*
Y114701D01*
Y109702D02*
X47407D01*
X57404Y103038D01*
X47407D01*
X57404Y99705D02*
X47407D01*
Y94707D01*
X49073Y93041D01*
X52406D01*
X54072Y94707D01*
Y99705D01*
X47407Y89709D02*
X55738D01*
X57404Y88042D01*
Y84710D01*
X55738Y83044D01*
X47407D01*
Y79712D02*
Y73047D01*
Y76380D01*
X57404D01*
Y59718D02*
X47407D01*
Y54720D01*
X49073Y53054D01*
X52406D01*
X54072Y54720D01*
Y59718D01*
X47407Y44723D02*
Y48055D01*
X49073Y49722D01*
X55738D01*
X57404Y48055D01*
Y44723D01*
X55738Y43057D01*
X49073D01*
X47407Y44723D01*
Y39725D02*
X57404D01*
X54072Y36393D01*
X57404Y33060D01*
X47407D01*
Y23063D02*
Y29728D01*
X57404D01*
Y23063D01*
X52406Y29728D02*
Y26396D01*
X57404Y19731D02*
X47407D01*
Y14733D01*
X49073Y13067D01*
X52406D01*
X54072Y14733D01*
Y19731D01*
Y16399D02*
X57404Y13067D01*
X64203Y118033D02*
Y121365D01*
X65869Y123031D01*
X72534D01*
X74200Y121365D01*
Y118033D01*
X72534Y116367D01*
X65869D01*
X64203Y118033D01*
X74200Y113034D02*
X64203D01*
Y108036D01*
X65869Y106370D01*
X69202D01*
X70868Y108036D01*
Y113034D01*
X64203Y103038D02*
Y96373D01*
Y99705D01*
X74200D01*
X64203Y93041D02*
Y89709D01*
Y91375D01*
X74200D01*
Y93041D01*
Y89709D01*
X64203Y79712D02*
Y83044D01*
X65869Y84710D01*
X72534D01*
X74200Y83044D01*
Y79712D01*
X72534Y78046D01*
X65869D01*
X64203Y79712D01*
X74200Y74714D02*
X64203D01*
X74200Y68049D01*
X64203D01*
X74200Y64717D02*
X67536D01*
X64203Y61385D01*
X67536Y58052D01*
X74200D01*
X69202D01*
Y64717D01*
X64203Y54720D02*
X74200D01*
Y48056D01*
X666020Y528860D02*
X659355D01*
X656023Y525528D01*
X659355Y522196D01*
X666020D01*
X661022D01*
Y528860D01*
X666020Y518863D02*
X656023D01*
Y513865D01*
X657689Y512199D01*
X661022D01*
X662688Y513865D01*
Y518863D01*
Y515531D02*
X666020Y512199D01*
Y508866D02*
X659355Y502202D01*
X656023Y498870D02*
X666020D01*
Y493871D01*
X664354Y492205D01*
X657689D01*
X656023Y493871D01*
Y498870D01*
Y482208D02*
Y488873D01*
X661022D01*
Y485541D01*
Y488873D01*
X666020D01*
X107383Y461236D02*
X117380D01*
Y466234D01*
X115714Y467900D01*
X112382D01*
X110716Y466234D01*
Y461236D01*
X107383Y457903D02*
X117380D01*
X114048Y454571D01*
X117380Y451239D01*
X107383D01*
X117380Y447906D02*
X110716Y441242D01*
X117380Y437910D02*
X107383D01*
Y432911D01*
X109049Y431245D01*
X112382D01*
X114048Y432911D01*
Y437910D01*
X117380Y427913D02*
X107383D01*
Y422915D01*
X109049Y421248D01*
X112382D01*
X114048Y422915D01*
Y427913D01*
Y424581D02*
X117380Y421248D01*
X107383Y412918D02*
Y416250D01*
X109049Y417916D01*
X115714D01*
X117380Y416250D01*
Y412918D01*
X115714Y411252D01*
X109049D01*
X107383Y412918D01*
X109049Y401255D02*
X107383Y402921D01*
Y406253D01*
X109049Y407919D01*
X115714D01*
X117380Y406253D01*
Y402921D01*
X115714Y401255D01*
X112382D01*
Y404587D01*
X117380Y397923D02*
X110716Y391258D01*
X107383Y387926D02*
Y384594D01*
Y386260D01*
X117380D01*
Y387926D01*
Y384594D01*
X109049Y372931D02*
X107383Y374597D01*
Y377929D01*
X109049Y379595D01*
X110716D01*
X112382Y377929D01*
Y374597D01*
X114048Y372931D01*
X115714D01*
X117380Y374597D01*
Y377929D01*
X115714Y379595D01*
X117380Y369598D02*
X107383D01*
Y364600D01*
X109049Y362934D01*
X112382D01*
X114048Y364600D01*
Y369598D01*
X167469Y152940D02*
X165803Y151274D01*
Y147942D01*
X167469Y146276D01*
X169135D01*
X170802Y147942D01*
Y149608D01*
Y147942D01*
X172468Y146276D01*
X174134D01*
X175800Y147942D01*
Y151274D01*
X174134Y152940D01*
X175800Y142943D02*
X174134D01*
Y141277D01*
X175800D01*
Y142943D01*
X167469Y134613D02*
X165803Y132946D01*
Y129614D01*
X167469Y127948D01*
X169135D01*
X170802Y129614D01*
Y131280D01*
Y129614D01*
X172468Y127948D01*
X174134D01*
X175800Y129614D01*
Y132946D01*
X174134Y134613D01*
X165803Y124616D02*
X172468D01*
X175800Y121284D01*
X172468Y117951D01*
X165803D01*
X140403Y176756D02*
Y183420D01*
X145402D01*
X143736Y180088D01*
Y178422D01*
X145402Y176756D01*
X148734D01*
X150400Y178422D01*
Y181754D01*
X148734Y183420D01*
X140403Y173423D02*
X147068D01*
X150400Y170091D01*
X147068Y166759D01*
X140403D01*
X150400Y163426D02*
X143736Y156762D01*
X142069Y153430D02*
X140403Y151763D01*
Y148431D01*
X142069Y146765D01*
X143736D01*
X145402Y148431D01*
Y150097D01*
Y148431D01*
X147068Y146765D01*
X148734D01*
X150400Y148431D01*
Y151763D01*
X148734Y153430D01*
X150400Y143433D02*
X148734D01*
Y141767D01*
X150400D01*
Y143433D01*
X142069Y135102D02*
X140403Y133436D01*
Y130104D01*
X142069Y128438D01*
X143736D01*
X145402Y130104D01*
Y131770D01*
Y130104D01*
X147068Y128438D01*
X148734D01*
X150400Y130104D01*
Y133436D01*
X148734Y135102D01*
X140403Y125105D02*
X147068D01*
X150400Y121773D01*
X147068Y118441D01*
X140403D01*
X115003Y128496D02*
Y135160D01*
X120002D01*
X118336Y131828D01*
Y130162D01*
X120002Y128496D01*
X123334D01*
X125000Y130162D01*
Y133494D01*
X123334Y135160D01*
X115003Y125163D02*
X121668D01*
X125000Y121831D01*
X121668Y118499D01*
X115003D01*
X42928Y4540D02*
Y11205D01*
X39595Y7872D02*
X46260D01*
X51340Y121380D02*
Y128045D01*
X462820Y69461D02*
X452823D01*
X462820Y62797D01*
X452823D01*
X454489Y52800D02*
X452823Y54466D01*
Y57798D01*
X454489Y59465D01*
X461154D01*
X462820Y57798D01*
Y54466D01*
X461154Y52800D01*
X426549Y72794D02*
X424883Y74460D01*
Y77792D01*
X426549Y79458D01*
X433214D01*
X434880Y77792D01*
Y74460D01*
X433214Y72794D01*
X429882D01*
Y76126D01*
X434880Y69461D02*
X424883D01*
X434880Y62797D01*
X424883D01*
Y59465D02*
X434880D01*
Y54466D01*
X433214Y52800D01*
X426549D01*
X424883Y54466D01*
Y59465D01*
X403689Y72794D02*
X402023Y74460D01*
Y77792D01*
X403689Y79458D01*
X410354D01*
X412020Y77792D01*
Y74460D01*
X410354Y72794D01*
X407022D01*
Y76126D01*
X412020Y69461D02*
X402023D01*
X412020Y62797D01*
X402023D01*
Y59465D02*
X412020D01*
Y54466D01*
X410354Y52800D01*
X403689D01*
X402023Y54466D01*
Y59465D01*
X381622Y76918D02*
Y70254D01*
X378289Y73586D02*
X384954D01*
X376623Y60257D02*
Y66921D01*
X381622D01*
X379955Y63589D01*
Y61923D01*
X381622Y60257D01*
X384954D01*
X386620Y61923D01*
Y65255D01*
X384954Y66921D01*
X376623Y56925D02*
X383288D01*
X386620Y53592D01*
X383288Y50260D01*
X376623D01*
X356222Y86915D02*
Y80250D01*
X352889Y83583D02*
X359554D01*
X352889Y76918D02*
X351223Y75252D01*
Y71920D01*
X352889Y70254D01*
X354556D01*
X356222Y71920D01*
Y73586D01*
Y71920D01*
X357888Y70254D01*
X359554D01*
X361220Y71920D01*
Y75252D01*
X359554Y76918D01*
X351223Y66921D02*
X357888D01*
X361220Y63589D01*
X357888Y60257D01*
X351223D01*
X352889Y56925D02*
X351223Y55258D01*
Y51926D01*
X352889Y50260D01*
X354556D01*
X356222Y51926D01*
Y53592D01*
Y51926D01*
X357888Y50260D01*
X359554D01*
X361220Y51926D01*
Y55258D01*
X359554Y56925D01*
X335820Y96912D02*
X325823D01*
Y91913D01*
X327489Y90247D01*
X330822D01*
X332488Y91913D01*
Y96912D01*
Y93579D02*
X335820Y90247D01*
X325823Y80250D02*
Y86915D01*
X335820D01*
Y80250D01*
X330822Y86915D02*
Y83583D01*
X327489Y70254D02*
X325823Y71920D01*
Y75252D01*
X327489Y76918D01*
X329156D01*
X330822Y75252D01*
Y71920D01*
X332488Y70254D01*
X334154D01*
X335820Y71920D01*
Y75252D01*
X334154Y76918D01*
X325823Y60257D02*
Y66921D01*
X335820D01*
Y60257D01*
X330822Y66921D02*
Y63589D01*
X325823Y56925D02*
Y50260D01*
Y53592D01*
X335820D01*
X305422Y116905D02*
Y110241D01*
X302089Y113573D02*
X308754D01*
X300423Y100244D02*
Y106908D01*
X305422D01*
X303755Y103576D01*
Y101910D01*
X305422Y100244D01*
X308754D01*
X310420Y101910D01*
Y105242D01*
X308754Y106908D01*
X300423Y96912D02*
X307088D01*
X310420Y93579D01*
X307088Y90247D01*
X300423D01*
X310420Y86915D02*
X303755Y80250D01*
X302089Y76918D02*
X300423Y75252D01*
Y71920D01*
X302089Y70254D01*
X303755D01*
X305422Y71920D01*
Y73586D01*
Y71920D01*
X307088Y70254D01*
X308754D01*
X310420Y71920D01*
Y75252D01*
X308754Y76918D01*
X300423Y66921D02*
X307088D01*
X310420Y63589D01*
X307088Y60257D01*
X300423D01*
X302089Y56925D02*
X300423Y55258D01*
Y51926D01*
X302089Y50260D01*
X303755D01*
X305422Y51926D01*
Y53592D01*
Y51926D01*
X307088Y50260D01*
X308754D01*
X310420Y51926D01*
Y55258D01*
X308754Y56925D01*
X287560Y69461D02*
X277563D01*
X287560Y62797D01*
X277563D01*
X279229Y52800D02*
X277563Y54466D01*
Y57798D01*
X279229Y59465D01*
X285894D01*
X287560Y57798D01*
Y54466D01*
X285894Y52800D01*
X658400Y36100D02*
X651736D01*
X648403Y32768D01*
X651736Y29436D01*
X658400D01*
X653402D01*
Y36100D01*
X648403Y26103D02*
X658400D01*
Y21105D01*
X656734Y19439D01*
X650069D01*
X648403Y21105D01*
Y26103D01*
Y9442D02*
Y16106D01*
X653402D01*
X651736Y12774D01*
Y11108D01*
X653402Y9442D01*
X656734D01*
X658400Y11108D01*
Y14440D01*
X656734Y16106D01*
X607600Y84360D02*
X600936D01*
X597603Y81028D01*
X600936Y77695D01*
X607600D01*
X602602D01*
Y84360D01*
X597603Y74363D02*
X607600D01*
Y69365D01*
X605934Y67699D01*
X599269D01*
X597603Y69365D01*
Y74363D01*
X607600Y59368D02*
X597603D01*
X602602Y64366D01*
Y57702D01*
X587280Y84360D02*
X580616D01*
X577283Y81028D01*
X580616Y77695D01*
X587280D01*
X582282D01*
Y84360D01*
X577283Y74363D02*
X587280D01*
Y69365D01*
X585614Y67699D01*
X578949D01*
X577283Y69365D01*
Y74363D01*
X578949Y64366D02*
X577283Y62700D01*
Y59368D01*
X578949Y57702D01*
X580616D01*
X582282Y59368D01*
Y61034D01*
Y59368D01*
X583948Y57702D01*
X585614D01*
X587280Y59368D01*
Y62700D01*
X585614Y64366D01*
X561880Y84360D02*
X555215D01*
X551883Y81028D01*
X555215Y77695D01*
X561880D01*
X556882D01*
Y84360D01*
X551883Y74363D02*
X561880D01*
Y69365D01*
X560214Y67699D01*
X553549D01*
X551883Y69365D01*
Y74363D01*
X561880Y57702D02*
Y64366D01*
X555215Y57702D01*
X553549D01*
X551883Y59368D01*
Y62700D01*
X553549Y64366D01*
X536480Y84360D02*
X529815D01*
X526483Y81028D01*
X529815Y77695D01*
X536480D01*
X531482D01*
Y84360D01*
X526483Y74363D02*
X536480D01*
Y69365D01*
X534814Y67699D01*
X528149D01*
X526483Y69365D01*
Y74363D01*
X536480Y64366D02*
Y61034D01*
Y62700D01*
X526483D01*
X528149Y64366D01*
X511080Y84360D02*
X504416D01*
X501083Y81028D01*
X504416Y77695D01*
X511080D01*
X506082D01*
Y84360D01*
X501083Y74363D02*
X511080D01*
Y69365D01*
X509414Y67699D01*
X502749D01*
X501083Y69365D01*
Y74363D01*
X502749Y64366D02*
X501083Y62700D01*
Y59368D01*
X502749Y57702D01*
X509414D01*
X511080Y59368D01*
Y62700D01*
X509414Y64366D01*
X502749D01*
X556089Y485851D02*
X554423Y484184D01*
Y480852D01*
X552757Y479186D01*
X556089Y475854D02*
X554423Y474188D01*
Y470855D01*
X556089Y469189D01*
X557756D01*
X559422Y470855D01*
Y472522D01*
Y470855D01*
X561088Y469189D01*
X562754D01*
X564420Y470855D01*
Y474188D01*
X562754Y475854D01*
X615220Y483140D02*
Y479808D01*
Y481474D01*
X605223D01*
X606889Y483140D01*
X605223Y464813D02*
Y458148D01*
Y461480D01*
X615220D01*
X605223Y454816D02*
X615220Y448151D01*
X605223D02*
X615220Y454816D01*
Y441487D02*
X611888Y444819D01*
X608555D01*
X605223Y441487D01*
Y431490D02*
Y434822D01*
X606889Y436488D01*
X613554D01*
X615220Y434822D01*
Y431490D01*
X613554Y429824D01*
X606889D01*
X605223Y431490D01*
Y426492D02*
X613554D01*
X615220Y424826D01*
Y421493D01*
X613554Y419827D01*
X605223D01*
Y416495D02*
Y409830D01*
Y413163D01*
X615220D01*
Y406498D02*
X611888Y403166D01*
X608555D01*
X605223Y406498D01*
X589820Y476475D02*
Y483140D01*
X583156Y476475D01*
X581489D01*
X579823Y478142D01*
Y481474D01*
X581489Y483140D01*
X193580Y485680D02*
X186915D01*
X183583Y482348D01*
X186915Y479016D01*
X193580D01*
X188582D01*
Y485680D01*
X183583Y475683D02*
X193580D01*
Y470685D01*
X191914Y469019D01*
X185249D01*
X183583Y470685D01*
Y475683D01*
Y459022D02*
Y465686D01*
X188582D01*
X186915Y462354D01*
Y460688D01*
X188582Y459022D01*
X191914D01*
X193580Y460688D01*
Y464020D01*
X191914Y465686D01*
X193580Y455690D02*
X186915Y449025D01*
X185249Y439028D02*
X183583Y440695D01*
Y444027D01*
X185249Y445693D01*
X186915D01*
X188582Y444027D01*
Y440695D01*
X190248Y439028D01*
X191914D01*
X193580Y440695D01*
Y444027D01*
X191914Y445693D01*
X185249Y429032D02*
X183583Y430698D01*
Y434030D01*
X185249Y435696D01*
X191914D01*
X193580Y434030D01*
Y430698D01*
X191914Y429032D01*
X183583Y425699D02*
X193580D01*
Y419035D01*
X218980Y485680D02*
X212316D01*
X208983Y482348D01*
X212316Y479016D01*
X218980D01*
X213982D01*
Y485680D01*
X208983Y475683D02*
X218980D01*
Y470685D01*
X217314Y469019D01*
X210649D01*
X208983Y470685D01*
Y475683D01*
X218980Y460688D02*
X208983D01*
X213982Y465686D01*
Y459022D01*
X218980Y455690D02*
X212316Y449025D01*
X210649Y439028D02*
X208983Y440695D01*
Y444027D01*
X210649Y445693D01*
X212316D01*
X213982Y444027D01*
Y440695D01*
X215648Y439028D01*
X217314D01*
X218980Y440695D01*
Y444027D01*
X217314Y445693D01*
X208983Y435696D02*
X218980D01*
Y430698D01*
X217314Y429032D01*
X210649D01*
X208983Y430698D01*
Y435696D01*
X218980Y425699D02*
X212316D01*
X208983Y422367D01*
X212316Y419035D01*
X218980D01*
X213982D01*
Y425699D01*
X239382Y485680D02*
Y479016D01*
X236049Y482348D02*
X242714D01*
X244380Y475683D02*
X237715D01*
X234383Y472351D01*
X237715Y469019D01*
X244380D01*
X239382D01*
Y475683D01*
X244380Y465686D02*
X234383D01*
Y460688D01*
X236049Y459022D01*
X239382D01*
X241048Y460688D01*
Y465686D01*
Y462354D02*
X244380Y459022D01*
X234383Y449025D02*
Y455690D01*
X244380D01*
Y449025D01*
X239382Y455690D02*
Y452357D01*
X234383Y439028D02*
Y445693D01*
X239382D01*
Y442361D01*
Y445693D01*
X244380D01*
X261449Y479016D02*
X259783Y480682D01*
Y484014D01*
X261449Y485680D01*
X268114D01*
X269780Y484014D01*
Y480682D01*
X268114Y479016D01*
X264782D01*
Y482348D01*
X269780Y475683D02*
X259783D01*
X269780Y469019D01*
X259783D01*
Y465686D02*
X269780D01*
Y460688D01*
X268114Y459022D01*
X261449D01*
X259783Y460688D01*
Y465686D01*
X295180Y485680D02*
Y482348D01*
Y484014D01*
X285183D01*
X286849Y485680D01*
Y477349D02*
X285183Y475683D01*
Y472351D01*
X286849Y470685D01*
X288515D01*
X290182Y472351D01*
Y474017D01*
Y472351D01*
X291848Y470685D01*
X293514D01*
X295180Y472351D01*
Y475683D01*
X293514Y477349D01*
X320580Y485680D02*
Y482348D01*
Y484014D01*
X310583D01*
X312249Y485680D01*
X320580Y470685D02*
Y477349D01*
X313916Y470685D01*
X312249D01*
X310583Y472351D01*
Y475683D01*
X312249Y477349D01*
X337649Y485680D02*
X335983Y484014D01*
Y480682D01*
X334317Y479016D01*
X345980Y475683D02*
Y472351D01*
Y474017D01*
X335983D01*
X337649Y475683D01*
X345980Y467353D02*
Y464020D01*
Y465686D01*
X335983D01*
X337649Y467353D01*
X363049Y485680D02*
X361383Y484014D01*
Y480682D01*
X359717Y479016D01*
X371380Y475683D02*
Y472351D01*
Y474017D01*
X361383D01*
X363049Y475683D01*
Y467353D02*
X361383Y465686D01*
Y462354D01*
X363049Y460688D01*
X369714D01*
X371380Y462354D01*
Y465686D01*
X369714Y467353D01*
X363049D01*
X388449Y485680D02*
X386783Y484014D01*
Y480682D01*
X385117Y479016D01*
X395114Y475683D02*
X396780Y474017D01*
Y470685D01*
X395114Y469019D01*
X388449D01*
X386783Y470685D01*
Y474017D01*
X388449Y475683D01*
X390116D01*
X391782Y474017D01*
Y469019D01*
X413849Y483140D02*
X412183Y481474D01*
Y478142D01*
X413849Y476475D01*
X415516D01*
X417182Y478142D01*
X418848Y476475D01*
X420514D01*
X422180Y478142D01*
Y481474D01*
X420514Y483140D01*
X418848D01*
X417182Y481474D01*
X415516Y483140D01*
X413849D01*
X417182Y481474D02*
Y478142D01*
X452823Y483140D02*
Y476475D01*
X454489D01*
X461154Y483140D01*
X462820D01*
X479889Y485680D02*
X478223Y484014D01*
Y480682D01*
X476557Y479016D01*
X478223Y469019D02*
X479889Y472351D01*
X483222Y475683D01*
X486554D01*
X488220Y474017D01*
Y470685D01*
X486554Y469019D01*
X484888D01*
X483222Y470685D01*
Y475683D01*
X505289Y485680D02*
X503623Y484014D01*
Y480682D01*
X501957Y479016D01*
X503623Y469019D02*
Y475683D01*
X508622D01*
X506955Y472351D01*
Y470685D01*
X508622Y469019D01*
X511954D01*
X513620Y470685D01*
Y474017D01*
X511954Y475683D01*
X539020Y478142D02*
X529023D01*
X534022Y483140D01*
Y476475D01*
X632289Y485680D02*
X630623Y484014D01*
Y480682D01*
X632289Y479016D01*
X638954D01*
X640620Y480682D01*
Y484014D01*
X638954Y485680D01*
X632289D01*
X640620Y465686D02*
X630623D01*
Y460688D01*
X632289Y459022D01*
X635622D01*
X637288Y460688D01*
Y465686D01*
Y462354D02*
X640620Y459022D01*
X630623Y455690D02*
X640620Y449025D01*
X630623D02*
X640620Y455690D01*
Y442361D02*
X637288Y445693D01*
X633955D01*
X630623Y442361D01*
Y437362D02*
Y434030D01*
Y435696D01*
X640620D01*
Y437362D01*
Y434030D01*
Y429032D02*
X630623D01*
X640620Y422367D01*
X630623D01*
X640620Y419035D02*
X637288Y415703D01*
X633955D01*
X630623Y419035D01*
M02*
