M48
;Layer_Color=9474304
;FILE_FORMAT=4:4
METRIC,LZ
;TYPE=PLATED
T1F00S00C0.3000
T3F00S00C1.0000
T4F00S00C1.1000
T5F00S00C1.5000
T6F00S00C3.2000
%
T01
X0059944Y0008128
X0060198Y0011176
X0055118Y0009652
X004445Y0004572
X0042672
X0040132Y0001016
X0023114Y0005334
X001778Y0005842
X0018542Y0009398
X0011176Y0005588
X0005588Y0004572
X0006096Y0009398
X0004064
X0005334Y0018034
X00120485Y00149632
X00127Y0022352
X0015494Y0023876
X0015748Y0027432
X0014986Y002794
X0013462Y0028448
X00127Y0032258
X0014224
X0016256Y0032512
X0011684Y003429
X0010922Y0033782
X001016Y003429
X0008128Y0035306
X000635Y0037338
X001016Y0039878
X0011176Y0041148
X0012192Y0038608
X0016256Y004191
X001143Y0048006
X0010414Y0047752
X0009652Y0046482
X0006858Y0043688
X0005842Y0043942
X0009398Y003175
X0009652Y0030988
X0009144Y0030226
X000889Y0029464
X0006858Y0028956
X0009652Y0024892
X001651Y0023114
X0018288Y0020066
X0020574Y0021336
X0023368Y0021844
X0023876Y0023114
X0025146Y0020574
X0023622Y0017526
X0018796Y001651
X002032Y0014732
X0028194Y0016002
X003048Y0023368
X0029972Y0032512
X003048Y0038862
X0027686Y004064
Y0042926
X0022352Y0045466
X0020828Y004699
X0020066Y0047498
Y0048514
X0018034Y0048006
X0016764Y0049022
Y0044958
X0019558Y0042926
Y0040386
X001778Y0040894
X0022606Y00381
X002159Y003429
X0017526Y0030988
X0017272Y0029972
X0018034Y0028448
X0023368Y0047752
X0023114Y0048514
X00520351Y00431831
X0053086Y0041148
X0052324Y0039624
X005461Y0035814
Y003302
X0053086Y003429
X0055372Y0030734
X0055118Y002921
X0053848Y0028448
X0054864Y0027178
X005588
X0054864Y0025146
X0053594Y0023876
X0052832Y0025908
X0047498
X0043434Y0016764
X0055118Y001778
X0061722Y0023368
X006477Y0023114
X0065532Y0020574
X0058166Y0026924
T03
X002065Y000135
X002515
Y000785
X002065
X0060758Y0025944
Y0030444
X0067258
Y0025944
T04
X005842Y000254
X006096
X00635
X005588
X005334
X00508
X004572
X004318
X004064
X00381
X003556
X003302
X003048
X002794
X001714Y001
X00146
X001206
X00146Y003779
Y004033
Y004287
Y004541
X000762Y004603
X000508
X000254
Y004857
X000508
X000762
Y004127
Y003873
X000508
X000254
Y004127
X000508
Y0036
Y003346
X000254
Y0036
X0018796Y00508
X0021336
X0023876
X0026416
X0028956
X0031496
X0034036
X0036576
X0039116
X0041656
X004572
X004826
X00508
X005334
X005588
X0053848Y0020574
X0051308
X0048768
X0046228
X0043688
X0041148
X0038608
X0036068
X0033528
X0030988
X0028448
Y0012954
X0030988
X0033528
X0036068
X0038608
X0041148
X0043688
X0046228
X0048768
X0051308
X0053848
X0056388
X0058928
X0061468
Y0020574
X0058928
X0056388
X00662Y004182
Y004436
Y00469
X00635Y00508
X006096
X005842
T05
X0002286Y0002794
Y0013462
T06
X00648Y00081
X0015Y00026
X00131Y00506
X00648Y003556
M30
