G04*
G04 #@! TF.GenerationSoftware,Altium Limited,Altium Designer,22.5.1 (42)*
G04*
G04 Layer_Physical_Order=2*
G04 Layer_Color=16711680*
%FSLAX44Y44*%
%MOMM*%
G71*
G04*
G04 #@! TF.SameCoordinates,41AE30FE-043A-47DD-A292-25B9FDFD75C8*
G04*
G04*
G04 #@! TF.FilePolarity,Positive*
G04*
G01*
G75*
%ADD11C,0.2540*%
%ADD12C,0.4000*%
%ADD21R,1.9000X1.9000*%
%ADD62C,1.9000*%
%ADD68C,0.2032*%
%ADD69C,0.3000*%
%ADD72C,4.0000*%
%ADD73C,3.2000*%
%ADD74R,1.6000X2.0000*%
%ADD75O,1.6000X2.0000*%
%ADD76O,2.0000X1.6000*%
%ADD77R,2.0000X1.6000*%
%ADD78R,1.7000X1.7000*%
%ADD79C,1.7000*%
%ADD80R,1.9000X1.9000*%
%ADD81C,7.4000*%
G04:AMPARAMS|DCode=82|XSize=2mm|YSize=1.2mm|CornerRadius=0.3mm|HoleSize=0mm|Usage=FLASHONLY|Rotation=0.000|XOffset=0mm|YOffset=0mm|HoleType=Round|Shape=RoundedRectangle|*
%AMROUNDEDRECTD82*
21,1,2.0000,0.6000,0,0,0.0*
21,1,1.4000,1.2000,0,0,0.0*
1,1,0.6000,0.7000,-0.3000*
1,1,0.6000,-0.7000,-0.3000*
1,1,0.6000,-0.7000,0.3000*
1,1,0.6000,0.7000,0.3000*
%
%ADD82ROUNDEDRECTD82*%
G04:AMPARAMS|DCode=83|XSize=2mm|YSize=1.2mm|CornerRadius=0.36mm|HoleSize=0mm|Usage=FLASHONLY|Rotation=0.000|XOffset=0mm|YOffset=0mm|HoleType=Round|Shape=RoundedRectangle|*
%AMROUNDEDRECTD83*
21,1,2.0000,0.4800,0,0,0.0*
21,1,1.2800,1.2000,0,0,0.0*
1,1,0.7200,0.6400,-0.2400*
1,1,0.7200,-0.6400,-0.2400*
1,1,0.7200,-0.6400,0.2400*
1,1,0.7200,0.6400,0.2400*
%
%ADD83ROUNDEDRECTD83*%
%ADD84C,0.6000*%
G36*
X114691Y461922D02*
Y417052D01*
X113421Y416204D01*
X112755Y416480D01*
X110765D01*
X108928Y415719D01*
X107521Y414312D01*
X106760Y412475D01*
Y410485D01*
X107521Y408648D01*
X108191Y407977D01*
Y402088D01*
X107754Y401719D01*
X106297Y401918D01*
X104738Y403477D01*
X102870Y404250D01*
Y398780D01*
X101600D01*
Y397510D01*
X96130D01*
X96851Y395768D01*
X96636Y395624D01*
X92171Y391160D01*
X88900D01*
Y436880D01*
X81280Y444500D01*
X74168D01*
X68354Y450313D01*
X68422Y450670D01*
X68689Y450883D01*
X69820Y451235D01*
X71939Y450012D01*
X74747Y449260D01*
X74930D01*
Y460300D01*
X76200D01*
Y461570D01*
X87240D01*
Y461753D01*
X86488Y464561D01*
X85034Y467079D01*
X82979Y469134D01*
X80461Y470588D01*
X78288Y471170D01*
X78455Y472440D01*
X104173D01*
X114691Y461922D01*
D02*
G37*
%LPC*%
G36*
X97790Y470290D02*
Y466090D01*
X101990D01*
X101217Y467958D01*
X99658Y469517D01*
X97790Y470290D01*
D02*
G37*
G36*
X95250D02*
X93382Y469517D01*
X91823Y467958D01*
X91050Y466090D01*
X95250D01*
Y470290D01*
D02*
G37*
G36*
X101990Y463550D02*
X97790D01*
Y459350D01*
X99658Y460123D01*
X101217Y461682D01*
X101990Y463550D01*
D02*
G37*
G36*
X95250D02*
X91050D01*
X91823Y461682D01*
X93382Y460123D01*
X95250Y459350D01*
Y463550D01*
D02*
G37*
G36*
X87240Y459030D02*
X77470D01*
Y449260D01*
X77653D01*
X80461Y450012D01*
X82979Y451466D01*
X85034Y453521D01*
X86488Y456039D01*
X87240Y458847D01*
Y459030D01*
D02*
G37*
G36*
X100330Y404250D02*
X98462Y403477D01*
X96903Y401918D01*
X96130Y400050D01*
X100330D01*
Y404250D01*
D02*
G37*
%LPD*%
D11*
X576120Y269240D02*
X581660D01*
X546100Y330200D02*
Y335740D01*
Y330200D02*
X551640D01*
X546100Y358140D02*
Y363680D01*
Y324660D02*
Y330200D01*
X558800Y271780D02*
X564340D01*
X558800Y266240D02*
Y271780D01*
X548640D02*
Y277320D01*
X558800Y271780D02*
Y277320D01*
X548640Y266240D02*
Y271780D01*
X647700Y231140D02*
Y236680D01*
X642160Y231140D02*
X647700D01*
X617220Y233680D02*
X622760D01*
X617220D02*
Y239220D01*
X581660Y263700D02*
Y269240D01*
X548640Y251460D02*
Y257000D01*
Y251460D02*
X554180D01*
X548640Y245920D02*
Y251460D01*
X611680Y233680D02*
X617220D01*
X546100Y358140D02*
X551640D01*
X540560D02*
X546100D01*
Y352600D02*
Y358140D01*
X540560Y330200D02*
X546100D01*
X530860Y342900D02*
Y348440D01*
Y337360D02*
Y342900D01*
X536400D01*
X525320D02*
X530860D01*
X543100Y271780D02*
X548640D01*
X538480Y284480D02*
X544020D01*
X543100Y251460D02*
X548640D01*
X538480Y284480D02*
Y290020D01*
Y278940D02*
Y284480D01*
X532940D02*
X538480D01*
X535940Y238760D02*
Y244300D01*
X530400Y238760D02*
X535940D01*
X541480D01*
X535940Y233220D02*
Y238760D01*
X25400Y485700D02*
X36440D01*
X25400D02*
Y496740D01*
Y474660D02*
Y485700D01*
Y412700D02*
Y423740D01*
Y412700D02*
X36440D01*
X14360Y485700D02*
X25400D01*
Y401660D02*
Y412700D01*
X14360D02*
X25400D01*
X217980Y454660D02*
X223520D01*
Y449120D02*
Y454660D01*
Y460200D01*
X276860Y429260D02*
Y434800D01*
X223520Y454660D02*
X229060D01*
X271320Y429260D02*
X276860D01*
X282400D01*
X276860Y423720D02*
Y429260D01*
Y406400D02*
X282400D01*
X276860D02*
Y411940D01*
X271320Y406400D02*
X276860D01*
Y400860D02*
Y406400D01*
X195580Y429260D02*
X201120D01*
X195580Y403860D02*
X201120D01*
X190040D02*
X195580D01*
Y429260D02*
Y434800D01*
X190040Y429260D02*
X195580D01*
Y423720D02*
Y429260D01*
Y398320D02*
Y403860D01*
Y409400D01*
X142240Y322580D02*
Y328120D01*
Y322580D02*
X147780D01*
X142240Y317040D02*
Y322580D01*
X146000Y100000D02*
Y112540D01*
X81280Y353060D02*
X86820D01*
X81280Y347520D02*
Y353060D01*
X25400Y412700D02*
X36440D01*
X25400Y401660D02*
Y412700D01*
Y423740D01*
X81280Y353060D02*
Y358600D01*
X75740Y353060D02*
X81280D01*
X101600Y342900D02*
Y348440D01*
Y337360D02*
Y342900D01*
X127000Y322580D02*
Y328120D01*
X121460Y322580D02*
X127000D01*
Y317040D02*
Y322580D01*
X96060Y342900D02*
X101600D01*
X68580Y289560D02*
X74120D01*
X68580D02*
Y295100D01*
X63040Y289560D02*
X68580D01*
Y284020D02*
Y289560D01*
X53340Y180340D02*
Y185880D01*
Y174800D02*
Y180340D01*
X47800D02*
X53340D01*
X58880D01*
X60960Y93980D02*
X66500D01*
X60960D02*
Y99520D01*
X55420Y93980D02*
X60960D01*
Y88440D02*
Y93980D01*
X40640D02*
X46180D01*
X40640Y88440D02*
Y93980D01*
Y99520D01*
X35100Y93980D02*
X40640D01*
X381000Y25400D02*
Y37940D01*
Y25400D02*
X391540D01*
X381000Y12860D02*
Y25400D01*
X111760Y55880D02*
Y61420D01*
Y55880D02*
X117300D01*
X106220D02*
X111760D01*
Y50340D02*
Y55880D01*
X55880Y45720D02*
X61420D01*
X55880D02*
Y51260D01*
X50340Y45720D02*
X55880D01*
Y40180D02*
Y45720D01*
X22860Y27940D02*
Y50480D01*
Y27940D02*
X45400D01*
X355600Y25400D02*
Y37940D01*
X171400Y100000D02*
X181940D01*
X185420Y93980D02*
Y99520D01*
X171400Y100000D02*
Y112540D01*
X185420Y93980D02*
X190960D01*
D12*
X474980Y259080D02*
X528320D01*
X154861Y283860D02*
X162920D01*
X167020Y279760D01*
X149860Y279400D02*
X150401D01*
X154861Y283860D01*
X167020Y264300D02*
Y279760D01*
X152760Y272400D02*
X154297Y273937D01*
X157097D01*
X157480Y274320D01*
X143225Y272821D02*
X146539D01*
X146960Y272400D02*
X152760D01*
X206281Y213360D02*
X211361Y218440D01*
X233680D01*
X205740Y213360D02*
X206281D01*
X201700Y494000D02*
X208280Y487420D01*
Y469900D02*
Y487420D01*
X187989Y527000D02*
X247160D01*
X264160Y510000D01*
X175960Y501030D02*
Y514971D01*
X264160Y508000D02*
Y510000D01*
X175960Y514971D02*
X187989Y527000D01*
X175960Y501030D02*
X182989Y494000D01*
X201700D01*
X622300Y76200D02*
Y90929D01*
X76200Y485140D02*
X78120Y487060D01*
X73660Y411480D02*
X76200Y414020D01*
X557101Y304500D02*
X605500D01*
X554261Y307340D02*
X557101Y304500D01*
X553720Y307340D02*
X554261D01*
X195580Y213360D02*
X205740D01*
X182880Y200660D02*
X195580Y213360D01*
X96903Y249303D02*
X111222D01*
X96520Y248920D02*
X96903Y249303D01*
X111222D02*
X140936Y279017D01*
X355600Y25400D02*
Y55880D01*
X307340Y104140D02*
X355600Y55880D01*
X231140Y104140D02*
X307340D01*
X220980Y93980D02*
X231140Y104140D01*
X185420Y93980D02*
X220980D01*
X154940Y252220D02*
X167020Y264300D01*
X154940Y238760D02*
Y252220D01*
X114000Y243596D02*
X143225Y272821D01*
X146539D02*
X146960Y272400D01*
X114000Y194539D02*
Y243596D01*
X140936Y279017D02*
X149477D01*
X149860Y279400D01*
X162560Y325120D02*
Y419100D01*
X203200Y404240D02*
Y421640D01*
X195580Y429260D02*
X203200Y421640D01*
X303823Y167640D02*
X434340D01*
X301480Y169983D02*
X303823Y167640D01*
X307700Y240680D02*
X311800Y236579D01*
X299720Y243023D02*
X302063Y240680D01*
X307700D01*
X311800Y222791D02*
Y236579D01*
Y222791D02*
X321880Y212710D01*
X301480Y178369D02*
X321880Y198769D01*
X301480Y169983D02*
Y178369D01*
X321880Y198769D02*
Y212710D01*
X299720Y243023D02*
Y325120D01*
X564077Y45720D02*
X566420Y48063D01*
X444500Y45720D02*
X564077D01*
X566420Y48063D02*
Y81280D01*
X551180Y96520D02*
X566420Y81280D01*
X122880Y67000D02*
X198908D01*
X111760Y55880D02*
X122880Y67000D01*
X198908D02*
X200908Y65000D01*
X167640Y449580D02*
Y469360D01*
X131000Y506000D02*
X167640Y469360D01*
X197543Y401897D02*
X200857D01*
X203200Y404240D01*
X195580Y403860D02*
X197543Y401897D01*
X177930Y58550D02*
X190140Y46340D01*
X224140D02*
X231140Y53340D01*
X190140Y46340D02*
X224140D01*
X106297Y56263D02*
X111377D01*
X111760Y55880D01*
X173020Y180040D02*
X187960Y165100D01*
X368300Y13743D02*
Y43377D01*
X316800Y11400D02*
X365957D01*
X304800Y23400D02*
X316800Y11400D01*
X365957D02*
X368300Y13743D01*
Y43377D02*
X370643Y45720D01*
X426720D01*
X304800Y23400D02*
Y25400D01*
X426720Y45720D02*
Y45720D01*
X304800Y25400D02*
X307542Y22658D01*
X78120Y487060D02*
X112060D01*
X63700Y473200D02*
X76200Y485700D01*
X112060Y487060D02*
X131000Y506000D01*
X63700Y449200D02*
Y473200D01*
X114000Y194539D02*
X120485Y188054D01*
X175260Y309880D02*
Y318880D01*
X175560Y319180D01*
X165045Y316580D02*
X169560Y321095D01*
X175560Y322880D02*
X199003Y346323D01*
X175560Y319180D02*
Y322880D01*
X150913Y325045D02*
X159378Y316580D01*
X165045D01*
X145246Y325045D02*
X150913D01*
X142240Y322580D02*
X142781D01*
X145246Y325045D01*
X120485Y149632D02*
Y188054D01*
X172720Y299720D02*
X179957Y292483D01*
Y284863D02*
Y292483D01*
Y284863D02*
X180340Y284480D01*
X157361Y305179D02*
Y307459D01*
X73570Y439330D02*
X76200Y436700D01*
X63700Y449200D02*
X73570Y439330D01*
X71571D02*
X73570D01*
X68580Y436880D02*
X69121D01*
X71571Y439330D01*
X76200Y414020D02*
Y436700D01*
X177800Y27940D02*
X178183Y27557D01*
X200908Y65000D02*
X213343D01*
X101600Y328160D02*
Y342900D01*
Y328160D02*
X107180Y322580D01*
X551180Y177800D02*
Y227330D01*
X581660Y256540D02*
X596900Y241300D01*
X581660Y256540D02*
Y269240D01*
X579120Y271780D02*
X581660Y269240D01*
X558800Y271780D02*
X579120D01*
X205740Y342900D02*
X215900D01*
X202317Y346323D02*
X205740Y342900D01*
X199003Y346323D02*
X202317D01*
D21*
X607580Y304440D02*
D03*
D62*
Y259440D02*
D03*
X672580D02*
D03*
Y304440D02*
D03*
X206500Y78500D02*
D03*
Y13500D02*
D03*
X251500D02*
D03*
D68*
X573384Y276210D02*
G03*
X576580Y274884I3196J3190D01*
G01*
X573387Y276207D02*
G03*
X576580Y274884I3193J3193D01*
G01*
X553554Y300953D02*
G03*
X557101Y299484I3547J3547D01*
G01*
X553545Y300962D02*
G03*
X557101Y299484I3556J3538D01*
G01*
X567076Y295290D02*
G03*
X563880Y296616I-3196J-3190D01*
G01*
X567073Y295293D02*
G03*
X563880Y296616I-3193J-3193D01*
G01*
X559329Y309516D02*
G03*
X553157Y301350I-5609J-2176D01*
G01*
X565356Y271780D02*
G03*
X553720Y275924I-6556J0D01*
G01*
X620413Y245004D02*
G03*
X621354Y246380I-3193J3193D01*
G01*
X620410Y245001D02*
G03*
X621354Y246380I-3190J3196D01*
G01*
X615463Y241924D02*
G03*
X618659Y243250I0J4516D01*
G01*
X623776Y233680D02*
G03*
X613076Y228600I-6556J0D01*
G01*
X615463Y241924D02*
G03*
X618656Y243247I0J4516D01*
G01*
X653344Y234476D02*
G03*
X641656Y228600I-5644J-3336D01*
G01*
X621364D02*
G03*
X623776Y233680I-4144J5080D01*
G01*
X578324Y274884D02*
G03*
X586740Y265096I3336J-5644D01*
G01*
X553720Y267636D02*
G03*
X565356Y271780I5080J4144D01*
G01*
X599036Y243213D02*
G03*
X602195Y241924I3159J3227D01*
G01*
X599036Y243213D02*
G03*
X602195Y241924I3159J3227D01*
G01*
X595056Y244536D02*
G03*
X598249Y243213I3193J3193D01*
G01*
X595053Y244539D02*
G03*
X598249Y243213I3196J3190D01*
G01*
X552656Y358140D02*
G03*
X552656Y358140I-6556J0D01*
G01*
Y330200D02*
G03*
X552656Y330200I-6556J0D01*
G01*
X533400Y384104D02*
G03*
X536596Y385430I0J4516D01*
G01*
X533400Y384104D02*
G03*
X536593Y385427I0J4516D01*
G01*
X537416Y342900D02*
G03*
X537416Y342900I-6556J0D01*
G01*
X555155Y296616D02*
G03*
X555155Y287584I-3975J-4516D01*
G01*
X553720Y275924D02*
G03*
X553720Y267636I-5080J-4144D01*
G01*
X545036Y284480D02*
G03*
X545036Y284480I-6556J0D01*
G01*
X555196Y251460D02*
G03*
X555196Y251460I-6556J0D01*
G01*
X542496Y238760D02*
G03*
X542496Y238760I-6556J0D01*
G01*
X534336Y259080D02*
G03*
X524999Y264096I-6016J0D01*
G01*
Y254064D02*
G03*
X534336Y259080I3321J5016D01*
G01*
X40640Y491121D02*
G03*
X40640Y480279I10160J-5422D01*
G01*
Y465722D02*
G03*
X40640Y454879I10160J-5422D01*
G01*
Y418121D02*
G03*
X40640Y407279I10160J-5422D01*
G01*
Y392721D02*
G03*
X40640Y381879I10160J-5422D01*
G01*
Y340022D02*
G03*
X40640Y329179I10160J-5422D01*
G01*
X36084Y355703D02*
G03*
X36916Y360000I-10684J4297D01*
G01*
X34207Y344807D02*
G03*
X37400Y343484I3193J3193D01*
G01*
X36084Y330303D02*
G03*
X36916Y334600I-10684J4297D01*
G01*
X34204Y344809D02*
G03*
X37400Y343484I3196J3190D01*
G01*
X37456Y485700D02*
G03*
X37456Y485700I-12056J0D01*
G01*
Y412700D02*
G03*
X37456Y412700I-12056J0D01*
G01*
X36916Y360000D02*
G03*
X29697Y349316I-11516J0D01*
G01*
X36916Y334600D02*
G03*
X29697Y323916I-11516J0D01*
G01*
X238443Y461504D02*
G03*
X241639Y462830I0J4516D01*
G01*
X238443Y461504D02*
G03*
X241637Y462827I0J4516D01*
G01*
X222773D02*
G03*
X225966Y461504I3193J3193D01*
G01*
X222770Y462830D02*
G03*
X225966Y461504I3196J3190D01*
G01*
X283416Y429260D02*
G03*
X283416Y429260I-6556J0D01*
G01*
X197437Y469900D02*
G03*
X202306Y469193I3223J5080D01*
G01*
D02*
G03*
X214296Y469900I5974J706D01*
G01*
X230076Y454660D02*
G03*
X230076Y454660I-6556J0D01*
G01*
X202136Y429260D02*
G03*
X202136Y429260I-6556J0D01*
G01*
X283416Y406400D02*
G03*
X283416Y406400I-6556J0D01*
G01*
X202136Y403860D02*
G03*
X189028Y404098I-6556J0D01*
G01*
X195818Y397308D02*
G03*
X202136Y403860I-238J6552D01*
G01*
X173656Y449580D02*
G03*
X172656Y452901I-6016J0D01*
G01*
X162624D02*
G03*
X173656Y449580I5016J-3321D01*
G01*
X167576Y415779D02*
G03*
X168576Y419100I-5016J3321D01*
G01*
X183804Y409323D02*
G03*
X177417Y402936I-6004J-383D01*
G01*
X159016Y428700D02*
G03*
X148000Y439716I-11016J0D01*
G01*
X168576Y419100D02*
G03*
X157544Y415779I-6016J0D01*
G01*
X148000Y417684D02*
G03*
X159016Y428700I0J11016D01*
G01*
X157544Y408801D02*
G03*
X148000Y414316I-9544J-5501D01*
G01*
Y392284D02*
G03*
X157544Y397799I0J11016D01*
G01*
X148000Y366884D02*
G03*
X157544Y372399I0J11016D01*
G01*
Y383401D02*
G03*
X148000Y388916I-9544J-5501D01*
G01*
X139136Y355600D02*
G03*
X137810Y358796I-4516J0D01*
G01*
X172013Y326427D02*
G03*
X170544Y322880I3547J-3547D01*
G01*
X172022Y326436D02*
G03*
X170544Y322880I3538J-3556D01*
G01*
Y320589D02*
G03*
X170244Y318880I4716J-1709D01*
G01*
X170544Y320589D02*
G03*
X170244Y318880I4716J-1709D01*
G01*
X176863Y304082D02*
G03*
X177800Y304426I-1603J5798D01*
G01*
Y302943D02*
G03*
X176863Y304082I-5080J-3223D01*
G01*
X174941Y287134D02*
G03*
X177800Y279027I5399J-2655D01*
G01*
X170244Y313201D02*
G03*
X171117Y305518I5016J-3321D01*
G01*
X168576Y325120D02*
G03*
X167576Y328441I-6016J0D01*
G01*
X157544D02*
G03*
X168576Y325120I5016J-3321D01*
G01*
X171117Y305518D02*
G03*
X171522Y293825I1603J-5798D01*
G01*
X172036Y279760D02*
G03*
X170567Y283306I-5016J0D01*
G01*
X172036Y279760D02*
G03*
X170558Y283315I-5016J0D01*
G01*
X170567Y260753D02*
G03*
X172036Y264300I-3547J3547D01*
G01*
X177800Y203883D02*
G03*
X177800Y197437I5080J-3223D01*
G01*
X170558Y260744D02*
G03*
X172036Y264300I-3538J3556D01*
G01*
X171116Y231140D02*
G03*
X161125Y235656I-6016J0D01*
G01*
Y226624D02*
G03*
X171116Y231140I3975J4516D01*
G01*
X154861Y288876D02*
G03*
X151314Y287407I0J-5016D01*
G01*
X154861Y288876D02*
G03*
X151305Y287398I0J-5016D01*
G01*
X166475D02*
G03*
X162920Y288876I-3556J-3538D01*
G01*
X166466Y287407D02*
G03*
X162920Y288876I-3547J-3547D01*
G01*
X149297Y285390D02*
G03*
X146023Y284033I563J-5990D01*
G01*
X139136Y355600D02*
G03*
X137813Y358793I-4516J0D01*
G01*
X148796Y322580D02*
G03*
X139136Y328355I-6556J0D01*
G01*
Y316805D02*
G03*
X148796Y322580I3104J5775D01*
G01*
X140636Y284480D02*
G03*
X139136Y288455I-6016J0D01*
G01*
X155925Y268509D02*
G03*
X162004Y270354I1556J5811D01*
G01*
X152760Y267384D02*
G03*
X155925Y268509I0J5016D01*
G01*
X152760Y267384D02*
G03*
X155925Y268509I0J5016D01*
G01*
X151393Y255767D02*
G03*
X149924Y252220I3547J-3547D01*
G01*
X160093Y235656D02*
G03*
X160956Y238760I-5153J3104D01*
G01*
D02*
G03*
X159956Y242081I-6016J0D01*
G01*
X153123Y88900D02*
G03*
X154940Y90678I-7123J9100D01*
G01*
X145201Y267703D02*
G03*
X146960Y267384I1760J4697D01*
G01*
X145201Y267703D02*
G03*
X146960Y267384I1760J4697D01*
G01*
X151402Y255776D02*
G03*
X149924Y252220I3538J-3556D01*
G01*
Y242081D02*
G03*
X149787Y235656I5016J-3321D01*
G01*
X154940Y109322D02*
G03*
X137160Y109443I-8940J-7322D01*
G01*
Y90557D02*
G03*
X138877Y88900I8840J7443D01*
G01*
X133032Y427672D02*
G03*
X144000Y417684I10968J1028D01*
G01*
Y388916D02*
G03*
X144000Y366884I0J-11016D01*
G01*
Y414316D02*
G03*
X144000Y392284I0J-11016D01*
G01*
X126453Y393912D02*
G03*
X127776Y397106I-3193J3193D01*
G01*
X126450Y393909D02*
G03*
X127776Y397106I-3190J3196D01*
G01*
X126436Y382105D02*
G03*
X127936Y386080I-4516J3975D01*
G01*
D02*
G03*
X124192Y391651I-6016J0D01*
G01*
X96850Y391224D02*
G03*
X95527Y388031I3193J-3193D01*
G01*
X96853Y391227D02*
G03*
X95527Y388031I3190J-3196D01*
G01*
X68016Y379198D02*
G03*
X86888Y383012I8184J8102D01*
G01*
X121356Y350520D02*
G03*
X120030Y353716I-4516J0D01*
G01*
X121356Y350520D02*
G03*
X120033Y353713I-4516J0D01*
G01*
X103236Y352841D02*
G03*
X104559Y356034I-3193J3193D01*
G01*
X103233Y352838D02*
G03*
X104559Y356034I-3190J3196D01*
G01*
X104704Y348675D02*
G03*
X99509Y349114I-3104J-5775D01*
G01*
X87836Y353060D02*
G03*
X87836Y353060I-6556J0D01*
G01*
X46512Y423388D02*
G03*
X58984Y404598I4288J-10688D01*
G01*
Y395402D02*
G03*
X58984Y379198I-8184J-8102D01*
G01*
X71912Y397988D02*
G03*
X68016Y395402I4288J-10688D01*
G01*
X37456Y412700D02*
G03*
X22860Y424485I-12056J0D01*
G01*
Y400915D02*
G03*
X37456Y412700I2540J11785D01*
G01*
X69516Y373380D02*
G03*
X68016Y377355I-6016J0D01*
G01*
X62316Y367482D02*
G03*
X69516Y373380I1184J5898D01*
G01*
X58984Y377355D02*
G03*
X57780Y371516I4516J-3975D01*
G01*
X36084Y355703D02*
G03*
X36916Y360000I-10684J4297D01*
G01*
D02*
G03*
X22860Y371232I-11516J0D01*
G01*
Y348768D02*
G03*
X29697Y349316I2540J11232D01*
G01*
X115194Y337113D02*
G03*
X122856Y342900I1646J5786D01*
G01*
D02*
G03*
X121356Y346875I-6016J0D01*
G01*
X103334Y336577D02*
G03*
X115194Y337113I5886J1243D01*
G01*
X130104Y328355D02*
G03*
X130104Y316805I-3104J-5775D01*
G01*
Y288455D02*
G03*
X129166Y281940I4516J-3975D01*
G01*
X95386Y344991D02*
G03*
X103334Y336577I6214J-2091D01*
G01*
X99499Y315107D02*
G03*
X99996Y317500I-5519J2394D01*
G01*
D02*
G03*
X94801Y323460I-6016J0D01*
G01*
X102536Y309880D02*
G03*
X99499Y315106I-6016J0D01*
G01*
X97226Y303906D02*
G03*
X102536Y309880I-706J5974D01*
G01*
X83247Y345624D02*
G03*
X81924Y342431I3193J-3193D01*
G01*
X83250Y345627D02*
G03*
X81924Y342431I3190J-3196D01*
G01*
X94833Y331275D02*
G03*
X93508Y334472I-4516J0D01*
G01*
X94833Y331275D02*
G03*
X93511Y334469I-4516J0D01*
G01*
X34207Y344807D02*
G03*
X37400Y343484I3193J3193D01*
G01*
X34204Y344809D02*
G03*
X37400Y343484I3196J3190D01*
G01*
X36916Y334600D02*
G03*
X22860Y345832I-11516J0D01*
G01*
X43472Y343484D02*
G03*
X42237Y326900I7327J-8884D01*
G01*
X36084Y330303D02*
G03*
X36916Y334600I-10684J4297D01*
G01*
X97456Y302260D02*
G03*
X97226Y303906I-6016J0D01*
G01*
X94419Y297034D02*
G03*
X97456Y302260I-2979J5226D01*
G01*
X94916Y294640D02*
G03*
X94419Y297034I-6016J0D01*
G01*
X72964Y306060D02*
G03*
X74290Y302864I4516J0D01*
G01*
X72964Y306060D02*
G03*
X74287Y302867I4516J0D01*
G01*
X82896Y294257D02*
G03*
X94916Y294640I6004J383D01*
G01*
X34423Y319191D02*
G03*
X37616Y317868I3193J3193D01*
G01*
X22860Y323368D02*
G03*
X29697Y323916I2540J11232D01*
G01*
X34420Y319194D02*
G03*
X37616Y317868I3196J3190D01*
G01*
X75136Y289560D02*
G03*
X75136Y289560I-6556J0D01*
G01*
X59896Y180340D02*
G03*
X59896Y180340I-6556J0D01*
G01*
X67516Y93980D02*
G03*
X67516Y93980I-6556J0D01*
G01*
X45876Y134620D02*
G03*
X39145Y150884I-23016J0D01*
G01*
X38190Y117452D02*
G03*
X45876Y134620I-15330J17168D01*
G01*
X47196Y93980D02*
G03*
X47196Y93980I-6556J0D01*
G01*
X12051Y114300D02*
G03*
X33669Y114300I10809J20320D01*
G01*
X392556Y27400D02*
G03*
X373380Y36088I-11556J0D01*
G01*
X294640Y31658D02*
G03*
X293784Y27400I10160J-4257D01*
G01*
X232338Y47445D02*
G03*
X237156Y53340I-1198J5896D01*
G01*
D02*
G03*
X225245Y54538I-6016J0D01*
G01*
X224140Y41324D02*
G03*
X227696Y42802I0J5016D01*
G01*
X224140Y41324D02*
G03*
X227687Y42793I0J5016D01*
G01*
X373380Y14712D02*
G03*
X392556Y23400I7620J8688D01*
G01*
X365957Y6384D02*
G03*
X369513Y7862I0J5016D01*
G01*
X365957Y6384D02*
G03*
X369504Y7853I0J5016D01*
G01*
X313253D02*
G03*
X316800Y6384I3547J3547D01*
G01*
X313244Y7862D02*
G03*
X316800Y6384I3556J3538D01*
G01*
X293784Y23400D02*
G03*
X294640Y19143I11016J0D01*
G01*
X264016Y13500D02*
G03*
X242240Y5080I-12516J0D01*
G01*
X219016Y13500D02*
G03*
X197240Y5080I-12516J0D01*
G01*
X260760D02*
G03*
X264016Y13500I-9260J8420D01*
G01*
X215760Y5080D02*
G03*
X219016Y13500I-9260J8420D01*
G01*
X194233Y80982D02*
G03*
X216464Y70925I12267J-2482D01*
G01*
X183616Y59958D02*
G03*
X171882Y59503I-5816J-1538D01*
G01*
X118316Y55880D02*
G03*
X118316Y55880I-6556J0D01*
G01*
X186594Y42793D02*
G03*
X190140Y41324I3547J3547D01*
G01*
X186585Y42802D02*
G03*
X190140Y41324I3556J3538D01*
G01*
X190016Y26000D02*
G03*
X186080Y43307I-40016J0D01*
G01*
X171882Y59503D02*
G03*
X115888Y5080I-21882J-33503D01*
G01*
X184112D02*
G03*
X190016Y26000I-34112J20920D01*
G01*
X62436Y45720D02*
G03*
X62436Y45720I-6556J0D01*
G01*
X46416Y27940D02*
G03*
X2540Y39856I-23556J0D01*
G01*
X28544Y5080D02*
G03*
X46416Y27940I-5684J22860D01*
G01*
X364753Y46924D02*
G03*
X363284Y43377I3547J-3547D01*
G01*
X364762Y46933D02*
G03*
X363284Y43377I3538J-3556D01*
G01*
Y36031D02*
G03*
X345440Y32906I-7684J-8631D01*
G01*
X332820Y38100D02*
G03*
X327580Y38100I-2620J-10700D01*
G01*
X182956Y102000D02*
G03*
X160020Y104009I-11556J0D01*
G01*
X213463Y88900D02*
G03*
X199536Y88900I-6963J-10400D01*
G01*
X191976Y93980D02*
G03*
X182956Y100055I-6556J0D01*
G01*
X189564Y88900D02*
G03*
X191976Y93980I-4144J5080D01*
G01*
X576580Y327660D02*
Y385479D01*
X552532Y331470D02*
X576580D01*
X575979Y386080D02*
X576580Y385479D01*
Y309516D02*
Y327660D01*
X559329Y309516D02*
X576580D01*
X558376Y311150D02*
X576580D01*
X552532Y356870D02*
X576580D01*
X547730Y351790D02*
X576580D01*
X551435Y361950D02*
X576580D01*
X551435Y326390D02*
X576580D01*
X547730Y336550D02*
X576580D01*
Y285787D02*
Y299484D01*
Y274884D02*
X578324D01*
X566305Y295910D02*
X576580D01*
X571537Y290830D02*
X576580D01*
X557101Y299484D02*
X576580D01*
X567076Y295290D02*
X576580Y285787D01*
X560430Y265430D02*
X576325D01*
X555155Y296616D02*
X563880D01*
X562009Y287584D02*
X573384Y276210D01*
X564135Y275590D02*
X574156D01*
X565232Y270510D02*
X575228D01*
X555155Y287584D02*
X562009D01*
X621354Y246380D02*
X651473D01*
X620516Y245110D02*
X652743D01*
X653344Y234476D02*
Y244509D01*
X651473Y246380D02*
X653344Y244509D01*
X618659Y243250D02*
X620410Y245001D01*
X623652Y234950D02*
X642365D01*
X622555Y229870D02*
X641268D01*
X618851Y240030D02*
X653344D01*
X621364Y228600D02*
X641656D01*
X553975Y255270D02*
X586740D01*
Y251460D02*
X590915Y248677D01*
X586740Y251460D02*
Y265096D01*
X550271Y265430D02*
X557169D01*
X598249Y243213D02*
X599036D01*
X602195Y241924D02*
X615463D01*
X590915Y248677D02*
X595053Y244539D01*
X550271Y245110D02*
X594482D01*
X555072Y250190D02*
X588645D01*
X537247Y386080D02*
X575979D01*
X490220Y377190D02*
X576580D01*
X490220Y372110D02*
X576580D01*
X490220Y382270D02*
X576580D01*
X536195Y346710D02*
X576580D01*
X490220Y367030D02*
X576580D01*
X537292Y341630D02*
X576580D01*
X490220Y295910D02*
X546524D01*
X540111Y290830D02*
X545300D01*
X490220Y321310D02*
X576580D01*
X490220Y316230D02*
X576580D01*
X490220Y311150D02*
X549064D01*
X490220Y300990D02*
X553517D01*
X490220Y306070D02*
X547840D01*
X536596Y385430D02*
X537247Y386080D01*
X490220Y361950D02*
X540765D01*
X490220Y356870D02*
X539668D01*
X490220Y384104D02*
X533400D01*
X490220Y351790D02*
X544469D01*
X490220Y297180D02*
Y384104D01*
X532491Y336550D02*
X544469D01*
X490220Y290830D02*
X536850D01*
X490220Y346710D02*
X525525D01*
X490220Y336550D02*
X529230D01*
X490220Y341630D02*
X524428D01*
X490220Y326390D02*
X540765D01*
X490220Y331470D02*
X539668D01*
X544912Y285750D02*
X563843D01*
X543815Y280670D02*
X568923D01*
X490220Y275590D02*
X543305D01*
X534200Y260350D02*
X586740D01*
X490220Y265430D02*
X547010D01*
X537570Y245110D02*
X547010D01*
X542372Y240030D02*
X615589D01*
X541275Y234950D02*
X610788D01*
X532976Y255270D02*
X543305D01*
X490220Y250190D02*
X542208D01*
X490220Y228600D02*
X613076D01*
X490220Y229870D02*
X611885D01*
X490220Y264096D02*
X524999D01*
X490220Y285750D02*
X532048D01*
X490220Y280670D02*
X533145D01*
X490220Y276860D02*
Y297180D01*
Y270510D02*
X542208D01*
X490220Y264096D02*
Y276860D01*
Y245110D02*
X534310D01*
X490220Y240030D02*
X529508D01*
X490220Y254064D02*
X524999D01*
X490220Y234950D02*
X530605D01*
X490220Y228600D02*
Y254064D01*
X40640Y491121D02*
Y525780D01*
Y465722D02*
Y480279D01*
X26660Y473710D02*
X40640D01*
X35279Y478790D02*
X40640D01*
X36916Y468630D02*
X40640D01*
Y418121D02*
Y454879D01*
Y392721D02*
Y407279D01*
X36916Y397510D02*
X40640D01*
X31811Y422910D02*
X40640D01*
X36916Y453390D02*
X40640D01*
X31968Y402590D02*
X40640D01*
X34115Y494030D02*
X40640D01*
X37010Y488950D02*
X39752D01*
X37316Y483870D02*
X39430D01*
X36916Y448784D02*
Y471816D01*
Y463550D02*
X39752D01*
X36916Y458470D02*
X39430D01*
X36357Y407670D02*
X40441D01*
X37456Y412750D02*
X39284D01*
X36310Y417830D02*
X40490D01*
X39284Y371516D02*
X40640D01*
X37400Y343484D02*
X40640D01*
Y371516D02*
Y381879D01*
X36916Y392430D02*
X40490D01*
X36916Y382270D02*
X40441D01*
X36916Y377190D02*
X40640D01*
Y340022D02*
Y343484D01*
Y326900D02*
Y329179D01*
X39486Y326900D02*
X40640D01*
X34521Y341630D02*
X40640D01*
X36483Y331470D02*
X39718D01*
X36084Y330303D02*
X39486Y326900D01*
X36916Y387350D02*
X39284D01*
X36916Y375784D02*
Y398816D01*
X39284Y352516D02*
Y371516D01*
X36750Y361950D02*
X39284D01*
X36483Y356870D02*
X39284D01*
X34521Y367030D02*
X39284D01*
X36084Y355703D02*
X39271Y352516D01*
X36750Y336550D02*
X39450D01*
X29697Y349316D02*
X34204Y344809D01*
X29697Y323916D02*
X31033Y322580D01*
X10160Y509270D02*
X40640D01*
X10160Y514350D02*
X40640D01*
X10160Y499110D02*
X40640D01*
X10160Y504190D02*
X40640D01*
X10160Y524510D02*
X40640D01*
X10160Y525780D02*
X40640D01*
X10160Y519430D02*
X40640D01*
X13884Y448784D02*
X36916D01*
X10160Y427990D02*
X40640D01*
X10160Y433070D02*
X40640D01*
X10160Y443230D02*
X40640D01*
X10160Y448310D02*
X40640D01*
X10160Y438150D02*
X40640D01*
X10160Y478790D02*
X15521D01*
X10160Y473710D02*
X24140D01*
X13884Y448784D02*
Y471816D01*
X10160Y494030D02*
X16685D01*
X10160Y488950D02*
X13790D01*
X10160Y483870D02*
X13484D01*
X13884Y471816D02*
X36916D01*
X10160Y453390D02*
X13884D01*
X10160Y422910D02*
X18989D01*
X10160Y417830D02*
X14490D01*
X10160Y463550D02*
X13884D01*
X10160Y468630D02*
X13884D01*
X10160Y458470D02*
X13884D01*
Y375784D02*
X36916D01*
X13884Y398816D02*
X36916D01*
X10160Y402590D02*
X18832D01*
X10160Y372110D02*
X40640D01*
X10160Y326390D02*
X17325D01*
X10160Y322580D02*
X31033D01*
X10160Y346710D02*
X32303D01*
X10160Y351790D02*
X17325D01*
X10160Y341630D02*
X16279D01*
X10160Y392430D02*
X13884D01*
X10160Y397510D02*
X13884D01*
Y375784D02*
Y398816D01*
X10160Y387350D02*
X13884D01*
X10160Y407670D02*
X14443D01*
X10160Y412750D02*
X13344D01*
X10160Y322580D02*
Y525780D01*
Y356870D02*
X14318D01*
X10160Y361950D02*
X14050D01*
X10160Y331470D02*
X14318D01*
X10160Y336550D02*
X14050D01*
X10160Y377190D02*
X13884D01*
X10160Y382270D02*
X13884D01*
X10160Y367030D02*
X16279D01*
X241654Y462844D02*
X297180D01*
X228855Y458470D02*
X297180D01*
X225966Y461504D02*
X238443D01*
X297180Y388620D02*
Y462844D01*
X229952Y453390D02*
X297180D01*
X225151Y448310D02*
X297180D01*
X215700Y469900D02*
X222770Y462830D01*
X214296Y469900D02*
X215700D01*
X214160Y468630D02*
X216970D01*
X172656Y463550D02*
X222050D01*
X175260Y469900D02*
X197437D01*
X173990Y468630D02*
X202400D01*
X173520Y448310D02*
X221889D01*
X159016Y443230D02*
X297180D01*
X153661Y438150D02*
X297180D01*
X172656Y453390D02*
X217088D01*
X172656Y458470D02*
X218185D01*
X283292Y427990D02*
X297180D01*
X278491Y422910D02*
X297180D01*
X283292Y407670D02*
X297180D01*
X278491Y412750D02*
X297180D01*
X282195Y433070D02*
X297180D01*
X282195Y402590D02*
X297180D01*
X204507Y388620D02*
X297180D01*
X200915Y433070D02*
X271525D01*
X197211Y422910D02*
X275229D01*
X182456Y412750D02*
X275229D01*
X168440Y417830D02*
X297180D01*
X202012Y427990D02*
X270428D01*
X200915Y407670D02*
X270428D01*
X202012Y402590D02*
X271525D01*
X197211Y397510D02*
X297180D01*
X200697Y392430D02*
X297180D01*
X195818Y397308D02*
X204507Y388620D01*
X172656Y452901D02*
Y467296D01*
X175260Y469900D01*
X162624Y452901D02*
Y457264D01*
X159016Y447600D02*
Y453656D01*
Y448310D02*
X161760D01*
X159016Y453390D02*
X162624D01*
X167216Y422910D02*
X193950D01*
X159016Y443084D02*
Y447600D01*
X167576Y412750D02*
X173144D01*
X159016Y453656D02*
X162624Y457264D01*
X158993Y427990D02*
X189148D01*
X158112Y433070D02*
X190245D01*
X148444Y443084D02*
X154500D01*
X145076Y439716D02*
X148444Y443084D01*
X154500D02*
X159016D01*
X145076Y439716D02*
X148000D01*
X157544Y408801D02*
Y415779D01*
X149788Y417830D02*
X156680D01*
X144000Y417684D02*
X148000D01*
X144000Y414316D02*
X148000D01*
X177800Y388620D02*
X191733D01*
X177417Y402936D02*
X191733Y388620D01*
X185457Y407670D02*
X190245D01*
X183804Y409323D02*
X189028Y404098D01*
X167576Y392430D02*
X187923D01*
X167576Y397510D02*
X182843D01*
X167576Y367030D02*
X177800D01*
X167576Y372110D02*
X177800D01*
X167576Y356870D02*
X177800D01*
X167576Y361950D02*
X177800D01*
X167576Y382270D02*
X177800D01*
X167576Y387350D02*
X177800D01*
X167576Y377190D02*
X177800D01*
X167576Y402590D02*
X177763D01*
X167576Y407670D02*
X171920D01*
X153661Y387350D02*
X157544D01*
X153661Y412750D02*
X157544D01*
X149788Y392430D02*
X157544D01*
X144000Y388916D02*
X148000D01*
X144000Y392284D02*
X148000D01*
X157544Y383401D02*
Y397799D01*
X149788Y367030D02*
X157544D01*
X138954Y356870D02*
X157544D01*
X144000Y366884D02*
X148000D01*
X177800Y332214D02*
Y388620D01*
X172022Y326436D02*
X177800Y332214D01*
X170544Y320589D02*
Y322880D01*
X168440Y326390D02*
X171977D01*
X177800Y302943D02*
Y304426D01*
X170244Y313201D02*
Y318880D01*
X174941Y287134D02*
Y290405D01*
X171522Y293825D02*
X174941Y290405D01*
X167576Y346710D02*
X177800D01*
X167576Y351790D02*
X177800D01*
X167576Y336550D02*
X177800D01*
X167576Y341630D02*
X177800D01*
X167576Y331470D02*
X177056D01*
X167216Y321310D02*
X170544D01*
X139136Y306070D02*
X170604D01*
X168123Y285750D02*
X174460D01*
X139136Y290830D02*
X174516D01*
X143870Y316230D02*
X170244D01*
X139136Y311150D02*
X169380D01*
X166475Y287398D02*
X170558Y283315D01*
X172036Y275590D02*
X177800D01*
X171953Y280670D02*
X175684D01*
X172036Y265430D02*
X177800D01*
X172036Y270510D02*
X177800D01*
X172036Y264300D02*
Y279760D01*
X177800Y203883D02*
Y279027D01*
X170980Y229870D02*
X177800D01*
Y127000D02*
Y197437D01*
X170163Y260350D02*
X177800D01*
X169756Y234950D02*
X177800D01*
X165083Y255270D02*
X177800D01*
X160003Y250190D02*
X177800D01*
X160820Y240030D02*
X177800D01*
X159956Y245110D02*
X177800D01*
X159956Y250143D02*
X170558Y260744D01*
X137160Y199390D02*
X177000D01*
X137160Y133350D02*
X177800D01*
X137160Y138430D02*
X177800D01*
X154940Y127000D02*
X177800D01*
X137160Y128270D02*
X177800D01*
X137160Y189230D02*
X177800D01*
X137160Y194310D02*
X177800D01*
X137160Y158750D02*
X177800D01*
X167576Y328441D02*
Y415779D01*
X157544Y328441D02*
Y372399D01*
X154861Y288876D02*
X162920D01*
X148672Y321310D02*
X157904D01*
X147575Y326390D02*
X156680D01*
X149297Y285390D02*
X151305Y287398D01*
X140936Y284033D02*
X146023D01*
X139136Y341630D02*
X157544D01*
X139136Y346710D02*
X157544D01*
X139136Y331470D02*
X157544D01*
X139136Y336550D02*
X157544D01*
X139136Y328355D02*
Y355600D01*
Y351790D02*
X157544D01*
X139136Y300990D02*
X166840D01*
X140500Y285750D02*
X149657D01*
X139136Y295910D02*
X168064D01*
X139136Y316230D02*
X140610D01*
X139136Y288455D02*
Y316805D01*
X162004Y266378D02*
Y270354D01*
X159956Y242081D02*
Y250143D01*
X151402Y255776D02*
X162004Y266378D01*
X149924Y242081D02*
Y252220D01*
X160093Y235656D02*
X161125D01*
X154940Y88900D02*
Y90678D01*
Y109322D02*
Y127000D01*
X153123Y88900D02*
X154940D01*
X146960Y267384D02*
X152760D01*
X142928Y265430D02*
X161056D01*
X137848Y260350D02*
X155976D01*
X137160Y123190D02*
X154940D01*
X137160Y118110D02*
X154940D01*
X149447Y113030D02*
X154940D01*
X137160D02*
X142553D01*
X137160Y88900D02*
X138877D01*
X127776Y417830D02*
X142212D01*
X127776Y397510D02*
X134628D01*
X127776Y412750D02*
X138339D01*
X128270Y422910D02*
X134628D01*
X127776Y422416D02*
X133032Y427672D01*
X127776Y402590D02*
X133007D01*
X127776Y407670D02*
X133888D01*
X127800Y387350D02*
X138339D01*
X126576Y382270D02*
X133888D01*
X127776Y397106D02*
Y422416D01*
X124192Y391651D02*
X126450Y393909D01*
X96853Y391227D02*
X98987Y393361D01*
X124971Y392430D02*
X142212D01*
X92710Y387350D02*
X95527D01*
X86559Y382270D02*
X87630D01*
X95527Y357905D02*
Y388031D01*
X87630Y382270D02*
X98810Y393450D01*
X104704Y348675D02*
Y386305D01*
X104559Y356034D02*
Y386160D01*
X86888Y383012D02*
X87630Y382270D01*
X87630Y382270D02*
X95527D01*
X126436Y370171D02*
X137810Y358796D01*
X126436Y372110D02*
X134628D01*
X134657Y361950D02*
X157544D01*
X129577Y367030D02*
X142212D01*
X126436Y377190D02*
X133007D01*
X126436Y370171D02*
Y382105D01*
X119936Y356870D02*
X126963D01*
X119936Y361950D02*
X121883D01*
X121174Y351790D02*
X130104D01*
X119936Y363897D02*
X130104Y353729D01*
X121496Y346710D02*
X130104D01*
X121356Y346875D02*
Y350520D01*
X119936Y353811D02*
Y363897D01*
X62316Y361950D02*
X95527D01*
X62316Y367030D02*
X95527D01*
X81714Y377190D02*
X95527D01*
X69380Y372110D02*
X95527D01*
X86615Y356870D02*
X94492D01*
X99509Y349114D02*
X103233Y352838D01*
X87712Y351790D02*
X89412D01*
X102185D02*
X104704D01*
X82910Y346710D02*
X84332D01*
X56314Y402590D02*
X58984D01*
X68016Y401884D02*
X71912Y397988D01*
X56127Y397510D02*
X58984D01*
X37456Y412750D02*
X39284D01*
X36310Y417830D02*
X40490D01*
X36916Y397510D02*
X45473D01*
X36357Y407670D02*
X40441D01*
X68016Y395402D02*
Y401884D01*
Y397510D02*
X70873D01*
X58984Y395402D02*
Y404598D01*
X36916Y375784D02*
Y398816D01*
Y392430D02*
X40490D01*
X22860Y427990D02*
X41910D01*
X22860Y447040D02*
X46512Y423388D01*
X31811Y422910D02*
X45473D01*
X22860Y443230D02*
X26670D01*
X22860Y424485D02*
Y447040D01*
Y433070D02*
X36830D01*
X22860Y438150D02*
X31750D01*
X31968Y402590D02*
X45286D01*
X22860Y398816D02*
X36916D01*
X22860D02*
Y400915D01*
X68016Y377355D02*
Y379198D01*
X68156Y377190D02*
X70686D01*
X58984Y377355D02*
Y379198D01*
X56314Y377190D02*
X58844D01*
X39284Y371516D02*
X57780D01*
X62316Y356870D02*
X75945D01*
X70477Y346710D02*
X79650D01*
X62316Y354871D02*
Y367482D01*
X39284Y352516D02*
Y371516D01*
X65397Y351790D02*
X74848D01*
X36916Y382270D02*
X40441D01*
X36916Y387350D02*
X39284D01*
X36916Y377190D02*
X45286D01*
X22860Y372110D02*
X57620D01*
X22860Y375784D02*
X36916D01*
X22860Y371232D02*
Y375784D01*
X36750Y361950D02*
X39284D01*
X34521Y367030D02*
X39284D01*
X36483Y356870D02*
X39284D01*
X36084Y355703D02*
X39271Y352516D01*
X22860Y347980D02*
Y348768D01*
Y346710D02*
X32303D01*
X130104Y328355D02*
Y353729D01*
X122720Y341630D02*
X130104D01*
X115100Y336550D02*
X130104D01*
Y288455D02*
Y316805D01*
X102400Y311150D02*
X130104D01*
X128631Y316230D02*
X130104D01*
X94833Y326390D02*
X121665D01*
X94829Y331470D02*
X130104D01*
X99860Y316230D02*
X125370D01*
X98636Y321310D02*
X120568D01*
X101176Y306070D02*
X130104D01*
X97320Y300990D02*
X130104D01*
X94780Y295910D02*
X130104D01*
X93556Y290830D02*
X130104D01*
X73915Y285750D02*
X128740D01*
X137160Y179070D02*
X177800D01*
X137160Y184150D02*
X177800D01*
X137160Y168910D02*
X177800D01*
X137160Y173990D02*
X177800D01*
X137160Y214630D02*
X177800D01*
X137160Y219710D02*
X177800D01*
X137160Y204470D02*
X177800D01*
X137160Y209550D02*
X177800D01*
X137160Y153670D02*
X177800D01*
X137160Y163830D02*
X177800D01*
X137160Y143510D02*
X177800D01*
X137160Y148590D02*
X177800D01*
X137160Y88900D02*
Y90557D01*
Y88900D02*
Y90557D01*
Y88900D02*
Y90557D01*
Y250190D02*
X149924D01*
X137160Y255270D02*
X150958D01*
X137160Y240030D02*
X149060D01*
X137160Y245110D02*
X149924D01*
X137160Y259662D02*
X145201Y267703D01*
X22860Y281940D02*
X129166D01*
X137160Y235656D02*
Y259662D01*
Y235656D02*
Y259662D01*
Y109443D02*
Y226624D01*
Y235656D02*
X149787D01*
X137160Y224790D02*
X177800D01*
X137160Y226624D02*
X161125D01*
X137160Y109443D02*
Y226624D01*
Y235656D02*
Y259662D01*
Y109443D02*
Y226624D01*
X90956Y340560D02*
X95386Y344991D01*
X83250Y345627D02*
X95527Y357905D01*
X92025Y341630D02*
X95168D01*
X90956Y337024D02*
Y340560D01*
X80637Y336550D02*
X81924D01*
X75557Y341630D02*
X81924D01*
X91430Y336550D02*
X99970D01*
X94833Y323997D02*
Y331275D01*
X81924Y335263D02*
Y342431D01*
X62316Y354871D02*
X81924Y335263D01*
X90956Y337024D02*
X93508Y334472D01*
X37400Y343484D02*
X43472D01*
X36750Y336550D02*
X39450D01*
X34521Y341630D02*
X41679D01*
X29697Y349316D02*
X34204Y344809D01*
X22860Y345832D02*
Y347980D01*
X59792Y327405D02*
X61508D01*
X59363Y326900D02*
X62013D01*
X39486D02*
X42237D01*
X36483Y331470D02*
X39718D01*
X36084Y330303D02*
X39486Y326900D01*
X70210Y295910D02*
X81243D01*
X72964Y306060D02*
Y308878D01*
X63974Y317868D02*
X72964Y308878D01*
X74290Y302864D02*
X82896Y294257D01*
X75012Y290830D02*
X84244D01*
X37616Y317868D02*
X63974D01*
X22860Y311150D02*
X70692D01*
X22860Y316230D02*
X65612D01*
X29697Y323916D02*
X34420Y319194D01*
X22860Y321310D02*
X32303D01*
X22860Y300990D02*
X76163D01*
X22860Y306070D02*
X72964D01*
X22860Y295910D02*
X66950D01*
X22860Y290830D02*
X62148D01*
X22860Y281940D02*
Y323368D01*
Y285750D02*
X63245D01*
X40640Y203200D02*
X66040D01*
X58675Y184150D02*
X66040D01*
X40531Y199390D02*
X66040D01*
X40386Y194310D02*
X66040D01*
X59772Y179070D02*
X66040D01*
X54970Y173990D02*
X66040D01*
X45841Y133350D02*
X66040D01*
X44983Y128270D02*
X66040D01*
X45559Y138430D02*
X66040D01*
X41151Y148590D02*
X66040D01*
X44090Y143510D02*
X66040D01*
X66295Y97790D02*
X86360D01*
Y86360D02*
Y116840D01*
X66040D02*
X86360D01*
X67392Y92710D02*
X86360D01*
Y81280D02*
Y86360D01*
X62590Y87630D02*
X86360D01*
X66040Y116840D02*
X66040Y203200D01*
X42837Y123190D02*
X66040D01*
X45975Y97790D02*
X55625D01*
X47072Y92710D02*
X54528D01*
X42270Y87630D02*
X59330D01*
X40241Y189230D02*
X66040D01*
X40096Y184150D02*
X48005D01*
X39805Y173990D02*
X51709D01*
X39660Y168910D02*
X66040D01*
X39515Y163830D02*
X66040D01*
X39370Y158750D02*
X66040D01*
X39225Y153670D02*
X66040D01*
X38896Y118110D02*
X66040D01*
X39951Y179070D02*
X46908D01*
X39145Y150884D02*
X40640Y203200D01*
X33669Y114300D02*
X38100D01*
X38190Y117452D01*
X5080Y114300D02*
X12051D01*
X5080Y113030D02*
X14885D01*
X30835D02*
X86360D01*
X5080Y107950D02*
X86360D01*
X5080Y102870D02*
X86360D01*
X5080Y82550D02*
X86360D01*
X5080Y81280D02*
X86360D01*
X5080Y97790D02*
X35305D01*
X5080Y81280D02*
Y114300D01*
Y87630D02*
X39009D01*
X5080Y92710D02*
X34208D01*
X373380Y40640D02*
X393700D01*
X387679Y36830D02*
X393700D01*
X373380D02*
X374320D01*
X373380Y36088D02*
Y40640D01*
X290416Y37471D02*
X294640Y35560D01*
Y31658D02*
Y35560D01*
X290416Y31750D02*
X294640D01*
X392556Y26670D02*
X393700D01*
X391706Y31750D02*
X393700D01*
X392556Y23400D02*
Y27400D01*
X290416Y26670D02*
X293784D01*
X290416Y21590D02*
X293934D01*
X293784Y23400D02*
Y27400D01*
X235796Y57150D02*
X246915D01*
X237020Y52070D02*
X258144D01*
X231884Y46990D02*
X269374D01*
X227696Y42802D02*
X232338Y47445D01*
X212107Y67310D02*
X224456D01*
X216464Y70925D02*
X288327Y38416D01*
X222062Y51356D02*
X225245Y54538D01*
X288327Y38416D02*
X290416Y37471D01*
X268384Y38416D02*
X288327D01*
X290416Y36830D02*
X291833D01*
X261050Y21590D02*
X268384D01*
X226493Y41910D02*
X280603D01*
X216050Y21590D02*
X241950D01*
X392413D02*
X393700D01*
X390277Y16510D02*
X393700D01*
Y5080D02*
Y40640D01*
X373380Y11430D02*
X393700D01*
X373380Y10160D02*
Y14712D01*
X369513Y7862D02*
X371810Y10160D01*
X310946D02*
X313244Y7862D01*
X371810Y10160D02*
X373380D01*
X316800Y6384D02*
X365957D01*
X260760Y5080D02*
X393700D01*
X261773Y6350D02*
X393700D01*
X290416Y16510D02*
X294640D01*
X268384Y12384D02*
Y38416D01*
X294640Y10160D02*
Y19143D01*
X290416Y12384D02*
Y37471D01*
X263649Y16510D02*
X268384D01*
X218649D02*
X239351D01*
X263844Y11430D02*
X294640D01*
X268384Y12384D02*
X290416D01*
X294640Y10160D02*
X310946D01*
X216773Y6350D02*
X241227D01*
X218844Y11430D02*
X239156D01*
X215760Y5080D02*
X242240D01*
X187960Y83820D02*
X194233Y80982D01*
X118110Y82550D02*
X190767D01*
X119380Y83820D02*
X187960D01*
X107950Y72390D02*
X195577D01*
X113030Y77470D02*
X194026D01*
X102870Y67310D02*
X200893D01*
X113391Y62230D02*
X133010D01*
X186424Y57150D02*
X226484D01*
X191504Y52070D02*
X222776D01*
X192218Y51356D02*
X222062D01*
X183616Y59958D02*
X192218Y51356D01*
X182456Y62230D02*
X235685D01*
X166990D02*
X173144D01*
X118192Y57150D02*
X124881D01*
X117095Y52070D02*
X119642D01*
X97790Y62230D02*
X110129D01*
X92710Y57150D02*
X105328D01*
X88900Y53340D02*
X119380Y83820D01*
X2540Y53340D02*
X88900D01*
X62312Y46990D02*
X115931D01*
X57510Y52070D02*
X106425D01*
X2540D02*
X54250D01*
X2540Y46990D02*
X9004D01*
X36716D02*
X49448D01*
X190140Y41324D02*
X224140D01*
X188523Y36830D02*
X268384D01*
X186717Y41910D02*
X187788D01*
X190010Y26670D02*
X268384D01*
X189601Y31750D02*
X268384D01*
X189772Y21590D02*
X196950D01*
X188874Y16510D02*
X194351D01*
X184859Y6350D02*
X196227D01*
X187269Y11430D02*
X194156D01*
X28544Y5080D02*
X115888D01*
X32281Y6350D02*
X115141D01*
X184112Y5080D02*
X197240D01*
X61215Y41910D02*
X113283D01*
X41827D02*
X50545D01*
X2540D02*
X3894D01*
X2540Y39856D02*
Y53340D01*
X44674Y36830D02*
X111477D01*
X46106Y31750D02*
X110399D01*
X45544Y21590D02*
X110228D01*
X46382Y26670D02*
X109990D01*
X43457Y16510D02*
X111126D01*
X39662Y11430D02*
X112731D01*
X308610Y62230D02*
X365760D01*
Y47930D02*
Y86360D01*
X298450Y72390D02*
X365760D01*
X303530Y67310D02*
X365760D01*
X318770Y52070D02*
X365760D01*
X364762Y46933D02*
X365760Y47930D01*
X313690Y57150D02*
X365760D01*
X283210Y87630D02*
X364490D01*
X340360Y111760D02*
X365760Y86360D01*
X273050Y97790D02*
X354330D01*
X278130Y92710D02*
X359410D01*
X293370Y77470D02*
X365760D01*
X322580Y46990D02*
X364819D01*
X288290Y82550D02*
X365760D01*
X363284Y36031D02*
Y43377D01*
X322580Y41910D02*
X363284D01*
X362280Y36830D02*
X363284D01*
X322580Y38100D02*
X327580D01*
X322580D02*
Y48260D01*
X345440Y36830D02*
X348921D01*
X345440Y32906D02*
Y38100D01*
X332820D02*
X345440D01*
X174847Y113030D02*
X201930D01*
X195580Y119380D02*
X203200Y111760D01*
X160020Y119380D02*
X195580D01*
X160020Y118110D02*
X196850D01*
X203200Y111760D02*
X340360D01*
X182923Y102870D02*
X349250D01*
X181306Y107950D02*
X344170D01*
X160020Y113030D02*
X167953D01*
X160020Y104009D02*
Y119380D01*
X182956Y100055D02*
Y102000D01*
X160020Y107950D02*
X161493D01*
X241300Y99060D02*
X271780D01*
X322580Y48260D01*
X190755Y97790D02*
X240030D01*
X231140Y88900D02*
X241300Y99060D01*
X213463Y88900D02*
X231140D01*
X191852Y92710D02*
X234950D01*
X189564Y88900D02*
X199536D01*
D69*
X85834Y307866D02*
Y309382D01*
X82480Y312737D02*
X85834Y309382D01*
Y307866D02*
X91440Y302260D01*
X213780Y478206D02*
X225966Y466020D01*
X213780Y478206D02*
Y489698D01*
X213360Y490118D02*
Y508000D01*
Y490118D02*
X213780Y489698D01*
X225966Y466020D02*
X238443D01*
X224640Y487832D02*
X224860Y488052D01*
Y514763D01*
X199460Y521500D02*
X218123D01*
X224640Y477423D02*
Y487832D01*
Y477423D02*
X224860Y477203D01*
X187960Y510000D02*
X199460Y521500D01*
X187960Y508000D02*
Y510000D01*
X218123Y521500D02*
X224860Y514763D01*
X612623Y10160D02*
X621100Y18637D01*
X401320Y10160D02*
X612623D01*
X621100Y18637D02*
Y38722D01*
X599440Y60382D02*
X621100Y38722D01*
X599440Y60382D02*
Y81280D01*
X601980Y111760D02*
Y193040D01*
X589280Y129540D02*
Y167640D01*
X407554Y291931D02*
X480843D01*
X393104Y277482D02*
X407554Y291931D01*
X482600Y293689D02*
Y386863D01*
X480843Y291931D02*
X482600Y293689D01*
X422980Y177017D02*
Y212503D01*
Y177017D02*
X424737Y175260D01*
X548488Y171300D02*
X585620D01*
X589280Y167640D01*
X424737Y175260D02*
X544528D01*
X548488Y171300D01*
X484357Y388620D02*
X533400D01*
X482600Y386863D02*
X484357Y388620D01*
X614680Y129540D02*
Y156820D01*
X611357Y185420D02*
X624840D01*
X609600Y161900D02*
X614680Y156820D01*
X609600Y161900D02*
Y183663D01*
X629137Y198120D02*
X660400D01*
X626989Y187569D02*
Y195971D01*
X662860Y200580D02*
Y248451D01*
X626597Y256540D02*
X655320D01*
X624840Y258297D02*
Y311130D01*
X655320Y256540D02*
X660400Y251460D01*
X618530Y317440D02*
X624840Y311130D01*
X596630Y317440D02*
X618530D01*
X588160Y315597D02*
X594788D01*
X609600Y183663D02*
X611357Y185420D01*
X624840D02*
X626989Y187569D01*
Y195971D02*
X629137Y198120D01*
X660400D02*
X662860Y200580D01*
X660400Y250911D02*
X662860Y248451D01*
X660400Y250911D02*
Y251460D01*
X624840Y258297D02*
X626597Y256540D01*
X594788Y315597D02*
X596630Y317440D01*
X588160Y315597D02*
Y380285D01*
X496005Y472440D02*
X588160Y380285D01*
X657860Y207497D02*
Y246380D01*
X652780Y251460D02*
X657860Y246380D01*
X619760Y251460D02*
X652780D01*
X656103Y205740D02*
X657860Y207497D01*
X617220Y248197D02*
Y248920D01*
X619760Y251460D01*
X615463Y246440D02*
X617220Y248197D01*
X655320Y205740D02*
X656103D01*
X602195Y246440D02*
X615463D01*
X551180Y292100D02*
X563880D01*
X576580Y279400D01*
X590063D01*
X614680Y205740D02*
X655320D01*
X600906Y247729D02*
X602195Y246440D01*
X598249Y247729D02*
X600906D01*
X590063Y279400D02*
X591820Y277643D01*
Y254158D02*
Y277643D01*
Y254158D02*
X598249Y247729D01*
X601980Y193040D02*
X614680Y205740D01*
X420449Y215035D02*
Y223520D01*
Y215035D02*
X422980Y212503D01*
X134620Y231140D02*
X165100D01*
X127000Y223520D02*
X134620Y231140D01*
X228600Y373380D02*
X312420D01*
X208432Y378308D02*
X219560D01*
X223368Y374500D01*
X227480D01*
X177800Y408940D02*
X208432Y378308D01*
X227480Y374500D02*
X228600Y373380D01*
X312420D02*
X335280Y396240D01*
X393104Y250864D02*
Y277482D01*
Y250864D02*
X420449Y223520D01*
X335280Y396240D02*
X523240D01*
X533400Y388620D02*
X537360Y392580D01*
Y424014D01*
X236372Y471020D02*
X237792Y472440D01*
X494014Y467360D02*
X537360Y424014D01*
X238443Y466020D02*
X239783Y467360D01*
X494014D01*
X228037Y471020D02*
X236372D01*
X224860Y474197D02*
X228037Y471020D01*
X237792Y472440D02*
X496005D01*
X224860Y474197D02*
Y477203D01*
X25400Y360000D02*
X37400Y348000D01*
X55729D01*
X25400Y334600D02*
X37616Y322384D01*
X65844D01*
X55729Y348000D02*
X87480Y316249D01*
Y314808D02*
Y316249D01*
X63500Y373380D02*
Y416970D01*
X58420Y422051D02*
Y439420D01*
Y422051D02*
X63500Y416970D01*
X180340Y480060D02*
X180787D01*
X185867Y474980D02*
X200660D01*
X180787Y480060D02*
X185867Y474980D01*
X351860Y501237D02*
Y514763D01*
X345123Y521500D02*
X351860Y514763D01*
X326460Y521500D02*
X345123D01*
X314960Y510000D02*
X326460Y521500D01*
X328143Y477520D02*
X351860Y501237D01*
X314960Y508000D02*
Y510000D01*
X233680Y477520D02*
X328143D01*
X231140Y485140D02*
X319500D01*
X340360Y506000D01*
X230357Y485140D02*
X231384Y484114D01*
X230357Y485140D02*
X231140D01*
X167640Y490220D02*
X168357D01*
X170897Y487680D02*
X197403D01*
X199943Y485140D02*
X200660D01*
X168357Y490220D02*
X170897Y487680D01*
X197403D02*
X199943Y485140D01*
X340360Y506000D02*
Y508000D01*
X302260Y411007D02*
Y430043D01*
X304017Y431800D02*
X520320D01*
X302260Y430043D02*
X304017Y431800D01*
X86440Y335153D02*
Y342431D01*
X100043Y356034D01*
Y388031D01*
X134620Y284480D02*
Y355600D01*
X121920Y368300D02*
X134620Y355600D01*
X116840Y342900D02*
Y350520D01*
X90317Y323997D02*
Y331275D01*
X88900Y322580D02*
X90317Y323997D01*
X86440Y335153D02*
X90317Y331275D01*
X109220Y390137D02*
X118260Y399177D01*
X109220Y337820D02*
Y390137D01*
X115420Y389266D02*
X123260Y397106D01*
X115420Y351940D02*
X116840Y350520D01*
X115420Y351940D02*
Y389266D01*
X251460Y205740D02*
X284480D01*
X123260Y397106D02*
Y471100D01*
X114300Y480060D02*
X123260Y471100D01*
X111760Y399748D02*
Y411480D01*
X118260Y399177D02*
Y463400D01*
X104140Y477520D02*
X118260Y463400D01*
X100043Y388031D02*
X111760Y399748D01*
X121920Y368300D02*
Y386080D01*
X96520Y404307D02*
X101600Y399227D01*
Y398780D02*
Y399227D01*
X96520Y404307D02*
Y464820D01*
X88560Y322240D02*
X93300Y317500D01*
X50800Y360000D02*
X88560Y322240D01*
X91288Y311000D02*
X96672D01*
X77480Y306060D02*
Y310749D01*
Y306060D02*
X88900Y294640D01*
X65844Y322384D02*
X77480Y310749D01*
X87480Y314808D02*
X91288Y311000D01*
X63378Y331921D02*
X82480Y312819D01*
Y312737D02*
Y312819D01*
X93300Y317500D02*
X93980D01*
X50800Y334600D02*
X53479Y331921D01*
X63378D01*
X330200Y25400D02*
Y27400D01*
X148000Y454100D02*
X154500Y447600D01*
X146000Y454100D02*
X148000D01*
X226060Y381000D02*
X309880D01*
X320040Y391160D01*
X302260Y411007D02*
X304800Y408467D01*
Y388620D02*
Y408467D01*
X320040Y391160D02*
Y401320D01*
X330200Y411480D02*
X530860D01*
X320040Y401320D02*
X330200Y411480D01*
X520320Y431800D02*
X520351Y431831D01*
X295980Y174060D02*
Y224860D01*
X304800Y233680D01*
X281940Y160020D02*
X295980Y174060D01*
D72*
X22860Y134620D02*
D03*
Y27940D02*
D03*
D73*
X131000Y506000D02*
D03*
D74*
X416560Y508000D02*
D03*
X279400Y25400D02*
D03*
X635000Y508000D02*
D03*
X120600Y100000D02*
D03*
X508000Y25400D02*
D03*
X614680Y205740D02*
D03*
D75*
X391160Y508000D02*
D03*
X365760D02*
D03*
X340360D02*
D03*
X314960D02*
D03*
X289560D02*
D03*
X264160D02*
D03*
X238760D02*
D03*
X213360D02*
D03*
X187960D02*
D03*
X457200Y25400D02*
D03*
X431800D02*
D03*
X406400D02*
D03*
X381000D02*
D03*
X355600D02*
D03*
X330200D02*
D03*
X304800D02*
D03*
X457200Y508000D02*
D03*
X482600D02*
D03*
X508000D02*
D03*
X533400D02*
D03*
X558800D02*
D03*
X584200D02*
D03*
X609600D02*
D03*
X146000Y100000D02*
D03*
X171400D02*
D03*
X533400Y25400D02*
D03*
X558800D02*
D03*
X584200D02*
D03*
X609600D02*
D03*
X635000D02*
D03*
X284480Y129540D02*
D03*
X309880D02*
D03*
X335280D02*
D03*
X360680D02*
D03*
X386080D02*
D03*
X411480D02*
D03*
X436880D02*
D03*
X487680D02*
D03*
X513080D02*
D03*
X538480D02*
D03*
X563880D02*
D03*
X589280D02*
D03*
X614680D02*
D03*
X284480Y205740D02*
D03*
X309880D02*
D03*
X335280D02*
D03*
X360680D02*
D03*
X386080D02*
D03*
X411480D02*
D03*
X462280D02*
D03*
X487680D02*
D03*
X513080D02*
D03*
X538480D02*
D03*
X563880D02*
D03*
X589280D02*
D03*
X462280Y129540D02*
D03*
X436880Y205740D02*
D03*
D76*
X146000Y377900D02*
D03*
Y403300D02*
D03*
Y428700D02*
D03*
X662000Y443600D02*
D03*
Y418200D02*
D03*
D77*
X146000Y454100D02*
D03*
X662000Y469000D02*
D03*
D78*
X25400Y460300D02*
D03*
Y387300D02*
D03*
X50800Y360000D02*
D03*
D79*
Y460300D02*
D03*
X76200D02*
D03*
X25400Y485700D02*
D03*
X50800D02*
D03*
X76200D02*
D03*
X50800Y387300D02*
D03*
X76200D02*
D03*
X25400Y412700D02*
D03*
X50800D02*
D03*
X76200D02*
D03*
X25400Y334600D02*
D03*
X50800D02*
D03*
X25400Y360000D02*
D03*
D80*
X251500Y78500D02*
D03*
D81*
X150000Y26000D02*
D03*
X648000Y81000D02*
D03*
Y355600D02*
D03*
D82*
X21995Y234000D02*
D03*
D83*
Y168000D02*
D03*
D84*
X474980Y259080D02*
D03*
X528320D02*
D03*
X157480Y274320D02*
D03*
X91440Y302260D02*
D03*
X208280Y469900D02*
D03*
X553720Y307340D02*
D03*
X205740Y213360D02*
D03*
X96520Y248920D02*
D03*
X401320Y10160D02*
D03*
X599440Y81280D02*
D03*
X601980Y111760D02*
D03*
X149860Y279400D02*
D03*
X55880Y45720D02*
D03*
X60960Y93980D02*
D03*
X40640D02*
D03*
X68580Y289560D02*
D03*
X195580Y429260D02*
D03*
X223520Y454660D02*
D03*
X276860Y406400D02*
D03*
Y429260D02*
D03*
X655320Y205740D02*
D03*
X165100Y231140D02*
D03*
X185420Y93980D02*
D03*
X162560Y419100D02*
D03*
Y325120D02*
D03*
X167640Y449580D02*
D03*
X195580Y403860D02*
D03*
X523240Y396240D02*
D03*
X203200Y147320D02*
D03*
X647700Y231140D02*
D03*
X546100Y358140D02*
D03*
X530860Y342900D02*
D03*
X546100Y330200D02*
D03*
X535940Y238760D02*
D03*
X548640Y251460D02*
D03*
X617220Y233680D02*
D03*
X548640Y271780D02*
D03*
X538480Y284480D02*
D03*
X238760Y231140D02*
D03*
X236220Y175260D02*
D03*
X233680Y218440D02*
D03*
X53340Y180340D02*
D03*
X551180Y96520D02*
D03*
X81280Y353060D02*
D03*
X231140Y53340D02*
D03*
X200660Y474980D02*
D03*
X233680Y477520D02*
D03*
X180340Y480060D02*
D03*
X167640Y490220D02*
D03*
X200660Y485140D02*
D03*
X231140D02*
D03*
X154940Y238760D02*
D03*
X120485Y149632D02*
D03*
X172720Y299720D02*
D03*
X180340Y284480D02*
D03*
X187960Y165100D02*
D03*
X68580Y436880D02*
D03*
X182880Y200660D02*
D03*
X177800Y58420D02*
D03*
X426720Y45720D02*
D03*
X111760Y55880D02*
D03*
X101600Y342900D02*
D03*
X127000Y322580D02*
D03*
X142240D02*
D03*
X551180Y177800D02*
D03*
X444500Y45720D02*
D03*
X116840Y342900D02*
D03*
X581660Y269240D02*
D03*
X558800Y271780D02*
D03*
X109220Y337820D02*
D03*
X127000Y223520D02*
D03*
X251460Y205740D02*
D03*
X63500Y373380D02*
D03*
X114300Y480060D02*
D03*
X58420Y439420D02*
D03*
X96520Y464820D02*
D03*
X104140Y477520D02*
D03*
X134620Y284480D02*
D03*
X111760Y411480D02*
D03*
X101600Y398780D02*
D03*
X121920Y386080D02*
D03*
X215900Y342900D02*
D03*
X175260Y309880D02*
D03*
X88900Y294640D02*
D03*
X96520Y309880D02*
D03*
X93980Y317500D02*
D03*
X177800Y408940D02*
D03*
X551180Y292100D02*
D03*
X434340Y167640D02*
D03*
X299720Y325120D02*
D03*
X304800Y388620D02*
D03*
X226060Y381000D02*
D03*
X530860Y411480D02*
D03*
X520351Y431831D02*
D03*
X281940Y160020D02*
D03*
X304800Y233680D02*
D03*
M02*
