G04*
G04 #@! TF.GenerationSoftware,Altium Limited,Altium Designer,22.5.1 (42)*
G04*
G04 Layer_Color=65535*
%FSLAX44Y44*%
%MOMM*%
G71*
G04*
G04 #@! TF.SameCoordinates,41AE30FE-043A-47DD-A292-25B9FDFD75C8*
G04*
G04*
G04 #@! TF.FilePolarity,Positive*
G04*
G01*
G75*
%ADD10C,0.2000*%
%ADD11C,0.2540*%
%ADD12C,0.4000*%
%ADD13C,0.2500*%
%ADD14C,0.1000*%
D10*
X168000Y506000D02*
G03*
X168000Y506000I-37000J0D01*
G01*
X627580Y173990D02*
G03*
X627580Y161290I0J-6350D01*
G01*
X182010Y284698D02*
Y330148D01*
X123710D02*
X182010D01*
X123710Y271848D02*
Y330148D01*
Y271848D02*
X169160D01*
X182010Y284698D01*
X431800Y495300D02*
Y520700D01*
X172720Y495300D02*
X431800D01*
X172720D02*
Y520700D01*
X431800D01*
X264160Y12700D02*
X472440D01*
X264160Y38100D02*
X472440D01*
X264160Y12700D02*
Y38100D01*
X472440Y12700D02*
Y38100D01*
X441960Y520700D02*
X650240D01*
X441960Y495300D02*
X650240D01*
Y520700D01*
X441960Y495300D02*
Y520700D01*
X133300Y367232D02*
X158954D01*
Y466292D01*
X133300D02*
X158954D01*
X133300Y367232D02*
Y466292D01*
X184100Y87300D02*
Y112700D01*
X107900Y87300D02*
Y112700D01*
X184100D01*
X107900Y87300D02*
X184100D01*
X649300Y405500D02*
X674700D01*
X649300Y481700D02*
X674700D01*
Y405500D02*
Y481700D01*
X649300Y405500D02*
Y481700D01*
X12700Y466650D02*
Y497130D01*
Y448870D02*
Y479350D01*
Y448870D02*
X88900D01*
Y497130D01*
X12700D02*
X88900D01*
X12700Y393650D02*
Y424130D01*
Y375870D02*
Y406350D01*
Y375870D02*
X88900D01*
Y424130D01*
X12700D02*
X88900D01*
X12700Y321900D02*
X63500D01*
X12700D02*
Y372700D01*
X63500D01*
Y340950D02*
Y372700D01*
Y321900D02*
Y353650D01*
X185000Y139000D02*
Y177000D01*
X182000Y139000D02*
X185000D01*
X172000Y177000D02*
X185000D01*
X117000D02*
X131000D01*
X117000Y139000D02*
Y177000D01*
Y139000D02*
X120000D01*
X610080Y272940D02*
Y290940D01*
X670080Y272940D02*
Y290940D01*
X620080Y251940D02*
X660080D01*
X620080Y311940D02*
X660080D01*
X220000Y76000D02*
X238000D01*
X220000Y16000D02*
X238000D01*
X199000Y26000D02*
Y66000D01*
X259000Y26000D02*
Y66000D01*
X-17630Y203000D02*
X-15130Y200500D01*
X-17630Y198000D02*
X-15130Y200500D01*
X-14630D01*
X-22130D02*
X-14630D01*
Y166000D02*
X-9630D01*
X-14630Y236000D02*
X-9630D01*
X-24630Y146000D02*
X-14630D01*
X-25630Y255000D02*
X-14630D01*
Y146000D02*
Y255000D01*
X7370Y161000D02*
Y240000D01*
X370Y161000D02*
Y240000D01*
X33370D02*
X36370D01*
X33370Y161000D02*
X36370D01*
X51370Y219000D02*
Y224000D01*
Y178000D02*
Y184000D01*
X-5630Y161000D02*
X10370D01*
X-5630D02*
Y240000D01*
X10370D01*
X45500Y98500D02*
Y143500D01*
X60500D01*
X100500Y98500D02*
Y143500D01*
X85500D02*
X100500D01*
X85500Y88500D02*
X90500D01*
X100500Y98500D01*
X55500Y88500D02*
X60500D01*
X45500Y98500D02*
X55500Y88500D01*
X100500Y14000D02*
Y59000D01*
X85500Y14000D02*
X100500D01*
X45500D02*
Y59000D01*
Y14000D02*
X60500D01*
X55500Y69000D02*
X60500D01*
X45500Y59000D02*
X55500Y69000D01*
X85500D02*
X90500D01*
X100500Y59000D01*
X230000Y259000D02*
X268000D01*
X230000D02*
Y341000D01*
X268000D01*
Y259000D02*
Y341000D01*
X467000Y272000D02*
Y310000D01*
X385000Y272000D02*
X467000D01*
X385000D02*
Y310000D01*
X467000D01*
X231220Y364160D02*
X266780D01*
X231220Y343840D02*
Y364160D01*
Y343840D02*
X266780D01*
Y364160D01*
X234220Y256160D02*
X269780D01*
X234220Y235840D02*
Y256160D01*
Y235840D02*
X269780D01*
Y256160D01*
X126220Y247160D02*
X161780D01*
X126220Y226840D02*
Y247160D01*
Y226840D02*
X161780D01*
Y247160D01*
X382720Y245840D02*
X418280D01*
Y266160D01*
X382720D02*
X418280D01*
X382720Y245840D02*
Y266160D01*
X431220Y247840D02*
X466780D01*
Y268160D01*
X431220D02*
X466780D01*
X431220Y247840D02*
Y268160D01*
X453160Y52220D02*
Y87780D01*
X432840D02*
X453160D01*
X432840Y52220D02*
Y87780D01*
Y52220D02*
X453160D01*
X456220Y43840D02*
X491780D01*
Y64160D01*
X456220D02*
X491780D01*
X456220Y43840D02*
Y64160D01*
X208160Y174220D02*
Y209780D01*
X187840D02*
X208160D01*
X187840Y174220D02*
Y209780D01*
Y174220D02*
X208160D01*
X17780Y525780D02*
X53340D01*
X17780Y505460D02*
Y525780D01*
Y505460D02*
X53340D01*
Y525780D01*
X232160Y212220D02*
Y247780D01*
X211840D02*
X232160D01*
X211840Y212220D02*
Y247780D01*
Y212220D02*
X232160D01*
X208160D02*
Y247780D01*
X187840D02*
X208160D01*
X187840Y212220D02*
Y247780D01*
Y212220D02*
X208160D01*
X227160Y299220D02*
Y334780D01*
X206840D02*
X227160D01*
X206840Y299220D02*
Y334780D01*
Y299220D02*
X227160D01*
X198840Y433220D02*
Y468780D01*
Y433220D02*
X219160D01*
Y468780D01*
X198840D02*
X219160D01*
X646160Y446220D02*
Y481780D01*
X625840D02*
X646160D01*
X625840Y446220D02*
Y481780D01*
Y446220D02*
X646160D01*
X185160Y212220D02*
Y247780D01*
X164840D02*
X185160D01*
X164840Y212220D02*
Y247780D01*
Y212220D02*
X185160D01*
X12700Y447040D02*
X48260D01*
X12700Y426720D02*
Y447040D01*
Y426720D02*
X48260D01*
Y447040D01*
X93840Y148220D02*
Y183780D01*
Y148220D02*
X114160D01*
Y183780D01*
X93840D02*
X114160D01*
X208160Y107220D02*
Y142780D01*
X187840D02*
X208160D01*
X187840Y107220D02*
Y142780D01*
Y107220D02*
X208160D01*
X236880Y492760D02*
X272440D01*
X236880Y472440D02*
Y492760D01*
Y472440D02*
X272440D01*
Y492760D01*
X374220Y63160D02*
X409780D01*
X374220Y42840D02*
Y63160D01*
Y42840D02*
X409780D01*
Y63160D01*
X292840Y40220D02*
Y75780D01*
Y40220D02*
X313160D01*
Y75780D01*
X292840D02*
X313160D01*
X330220Y41840D02*
X365780D01*
Y62160D01*
X330220D02*
X365780D01*
X330220Y41840D02*
Y62160D01*
X515620Y342900D02*
Y378460D01*
Y342900D02*
X535940D01*
Y378460D01*
X515620D02*
X535940D01*
X393220Y67840D02*
X428780D01*
Y88160D01*
X393220D02*
X428780D01*
X393220Y67840D02*
Y88160D01*
Y90840D02*
X428780D01*
Y111160D01*
X393220D02*
X428780D01*
X393220Y90840D02*
Y111160D01*
X432220D02*
X467780D01*
X432220Y90840D02*
Y111160D01*
Y90840D02*
X467780D01*
Y111160D01*
X456220Y66840D02*
X491780D01*
Y87160D01*
X456220D02*
X491780D01*
X456220Y66840D02*
Y87160D01*
X432220Y222840D02*
X467780D01*
Y243160D01*
X432220D02*
X467780D01*
X432220Y222840D02*
Y243160D01*
X523240Y281940D02*
Y317500D01*
Y281940D02*
X543560D01*
Y317500D01*
X523240D02*
X543560D01*
X95160Y241220D02*
Y276780D01*
X74840D02*
X95160D01*
X74840Y241220D02*
Y276780D01*
Y241220D02*
X95160D01*
X548640Y233680D02*
Y269240D01*
Y233680D02*
X568960D01*
Y269240D01*
X548640D02*
X568960D01*
X8720Y298160D02*
X44280D01*
X8720Y277840D02*
Y298160D01*
Y277840D02*
X44280D01*
Y298160D01*
X289160Y40220D02*
Y75780D01*
X268840D02*
X289160D01*
X268840Y40220D02*
Y75780D01*
Y40220D02*
X289160D01*
X269240Y99060D02*
X304800D01*
X269240Y78740D02*
Y99060D01*
Y78740D02*
X304800D01*
Y99060D01*
X5000Y111000D02*
X37000D01*
Y53000D02*
Y111000D01*
X5000Y53000D02*
X37000D01*
X5000D02*
Y111000D01*
X259490Y408840D02*
X292510D01*
Y429160D01*
X259490D02*
X292510D01*
X259490Y408840D02*
Y429160D01*
Y385840D02*
X292510D01*
Y406160D01*
X259490D02*
X292510D01*
X259490Y385840D02*
Y406160D01*
X166370Y378460D02*
X199390D01*
Y398780D01*
X166370D02*
X199390D01*
X166370Y378460D02*
Y398780D01*
X103490Y64840D02*
X136510D01*
Y85160D01*
X103490D02*
X136510D01*
X103490Y64840D02*
Y85160D01*
X160490Y64840D02*
X193510D01*
Y85160D01*
X160490D02*
X193510D01*
X160490Y64840D02*
Y85160D01*
X71120Y245770D02*
Y278790D01*
X50800D02*
X71120D01*
X50800Y245770D02*
Y278790D01*
Y245770D02*
X71120D01*
X83820Y186690D02*
Y219710D01*
X63500D02*
X83820D01*
X63500Y186690D02*
Y219710D01*
Y186690D02*
X83820D01*
X226060Y255270D02*
Y288290D01*
X205740D02*
X226060D01*
X205740Y255270D02*
Y288290D01*
Y255270D02*
X226060D01*
X65490Y373160D02*
X98510D01*
X65490Y352840D02*
Y373160D01*
Y352840D02*
X98510D01*
Y373160D01*
X128490Y224160D02*
X161510D01*
X128490Y203840D02*
Y224160D01*
Y203840D02*
X161510D01*
Y224160D01*
X223490Y469160D02*
X256510D01*
X223490Y448840D02*
Y469160D01*
Y448840D02*
X256510D01*
Y469160D01*
X547630Y367000D02*
X580650D01*
X547630Y346680D02*
Y367000D01*
Y346680D02*
X580650D01*
Y367000D01*
X90170Y213360D02*
X123190D01*
Y233680D01*
X90170D02*
X123190D01*
X90170Y213360D02*
Y233680D01*
Y190500D02*
X123190D01*
Y210820D01*
X90170D02*
X123190D01*
X90170Y190500D02*
Y210820D01*
X623160Y450490D02*
Y483510D01*
X602840D02*
X623160D01*
X602840Y450490D02*
Y483510D01*
Y450490D02*
X623160D01*
X599160D02*
Y483510D01*
X578840D02*
X599160D01*
X578840Y450490D02*
Y483510D01*
Y450490D02*
X599160D01*
X642620Y400050D02*
Y433070D01*
X622300D02*
X642620D01*
X622300Y400050D02*
Y433070D01*
Y400050D02*
X642620D01*
X680720Y212090D02*
Y245110D01*
X660400D02*
X680720D01*
X660400Y212090D02*
Y245110D01*
Y212090D02*
X680720D01*
X357490Y111160D02*
X390510D01*
X357490Y90840D02*
Y111160D01*
Y90840D02*
X390510D01*
Y111160D01*
X383490Y243160D02*
X416510D01*
X383490Y222840D02*
Y243160D01*
Y222840D02*
X416510D01*
Y243160D01*
X600710Y226060D02*
X633730D01*
Y246380D01*
X600710D02*
X633730D01*
X600710Y226060D02*
Y246380D01*
X549910Y337820D02*
X582930D01*
X549910Y317500D02*
Y337820D01*
Y317500D02*
X582930D01*
Y337820D01*
X65490Y329840D02*
X98510D01*
Y350160D01*
X65490D02*
X98510D01*
X65490Y329840D02*
Y350160D01*
X574040Y232410D02*
Y265430D01*
Y232410D02*
X594360D01*
Y265430D01*
X574040D02*
X594360D01*
X9490Y320160D02*
X42510D01*
X9490Y299840D02*
Y320160D01*
Y299840D02*
X42510D01*
Y320160D01*
X231160Y91490D02*
Y124510D01*
X210840D02*
X231160D01*
X210840Y91490D02*
Y124510D01*
Y91490D02*
X231160D01*
X254000Y92710D02*
Y125730D01*
X233680D02*
X254000D01*
X233680Y92710D02*
Y125730D01*
Y92710D02*
X254000D01*
X212090Y182880D02*
X245110D01*
Y203200D01*
X212090D02*
X245110D01*
X212090Y182880D02*
Y203200D01*
X224220Y412380D02*
X226760D01*
X224220Y427620D02*
X226760D01*
X224220Y412380D02*
Y427620D01*
X226760Y412380D02*
X257240D01*
Y427620D01*
X226760D02*
X257240D01*
X226760Y412380D02*
Y427620D01*
X224220Y393380D02*
X226760D01*
X224220Y408620D02*
X226760D01*
X224220Y393380D02*
Y408620D01*
X226760Y393380D02*
X257240D01*
Y408620D01*
X226760D02*
X257240D01*
X226760Y393380D02*
Y408620D01*
X224220Y430380D02*
X226760D01*
X224220Y445620D02*
X226760D01*
X224220Y430380D02*
Y445620D01*
X226760Y430380D02*
X257240D01*
Y445620D01*
X226760D02*
X257240D01*
X226760Y430380D02*
Y445620D01*
X547360Y371220D02*
X549900D01*
X547360Y386460D02*
X549900D01*
X547360Y371220D02*
Y386460D01*
X549900Y371220D02*
X580380D01*
Y386460D01*
X549900D02*
X580380D01*
X549900Y371220D02*
Y386460D01*
X87630Y165100D02*
Y180340D01*
X59690Y165100D02*
Y180340D01*
X87630D01*
X59690Y165100D02*
X87630D01*
Y220980D02*
Y236220D01*
X59690Y220980D02*
Y236220D01*
X87630D01*
X59690Y220980D02*
X87630D01*
X650240Y12700D02*
Y38100D01*
X492760Y12700D02*
Y38100D01*
X650240D01*
X492760Y12700D02*
X650240D01*
X271580Y219640D02*
X627580D01*
X271580Y115640D02*
Y219640D01*
Y115640D02*
X627580D01*
Y161290D01*
Y173990D02*
Y219640D01*
X47884Y154899D02*
X46218D01*
X47051D01*
Y150734D01*
X46218Y149901D01*
X45385D01*
X44552Y150734D01*
X49550Y149901D02*
X51217D01*
X50384D01*
Y154899D01*
X49550Y154066D01*
X53716D02*
X54549Y154899D01*
X56215D01*
X57048Y154066D01*
Y150734D01*
X56215Y149901D01*
X54549D01*
X53716Y150734D01*
Y154066D01*
X413480Y528860D02*
Y525528D01*
Y527194D01*
X423477D01*
X421811Y528860D01*
X282480Y4540D02*
Y7872D01*
Y6206D01*
X272483D01*
X274149Y4540D01*
X631920Y528860D02*
Y525528D01*
Y527194D01*
X641917D01*
X640251Y528860D01*
X121380Y449040D02*
X124712D01*
X123046D01*
Y459037D01*
X121380Y457371D01*
X99600Y75660D02*
Y78992D01*
Y77326D01*
X89603D01*
X91269Y75660D01*
X261080Y443797D02*
Y435466D01*
X262746Y433800D01*
X266078D01*
X267745Y435466D01*
Y443797D01*
X212820Y423477D02*
X219485D01*
X216152D01*
Y413480D01*
X212820Y395700D02*
Y405697D01*
X217818D01*
X219485Y404031D01*
Y400698D01*
X217818Y399032D01*
X212820D01*
X216152D02*
X219485Y395700D01*
X564925Y101060D02*
X558260D01*
X564925Y107725D01*
Y109391D01*
X563258Y111057D01*
X559926D01*
X558260Y109391D01*
X574921Y111057D02*
X571589Y109391D01*
X568257Y106058D01*
Y102726D01*
X569923Y101060D01*
X573255D01*
X574921Y102726D01*
Y104392D01*
X573255Y106058D01*
X568257D01*
X309340Y101060D02*
X312672D01*
X311006D01*
Y111057D01*
X309340Y109391D01*
X324335Y111057D02*
X321003Y109391D01*
X317671Y106058D01*
Y102726D01*
X319337Y101060D01*
X322669D01*
X324335Y102726D01*
Y104392D01*
X322669Y106058D01*
X317671D01*
X281400Y222980D02*
X284732D01*
X283066D01*
Y232977D01*
X281400Y231311D01*
X294729Y222980D02*
Y232977D01*
X289731Y227978D01*
X296395D01*
X365220Y222980D02*
X368552D01*
X366886D01*
Y232977D01*
X365220Y231311D01*
X373551D02*
X375217Y232977D01*
X378549D01*
X380215Y231311D01*
Y224646D01*
X378549Y222980D01*
X375217D01*
X373551Y224646D01*
Y231311D01*
X516665Y232977D02*
X510000D01*
Y227978D01*
X513332Y229645D01*
X514998D01*
X516665Y227978D01*
Y224646D01*
X514998Y222980D01*
X511666D01*
X510000Y224646D01*
X7039Y360140D02*
Y365138D01*
X4540Y362639D01*
X7872D01*
X4540Y333825D02*
X5373Y334658D01*
X7039D01*
X7872Y333825D01*
Y332992D01*
X7039Y332159D01*
X6206D01*
X7039D01*
X7872Y331326D01*
Y330493D01*
X7039Y329660D01*
X5373D01*
X4540Y330493D01*
X81532Y337280D02*
X78200D01*
X81532Y340612D01*
Y341445D01*
X80699Y342278D01*
X79033D01*
X78200Y341445D01*
X80740Y360140D02*
X82406D01*
X81573D01*
Y365138D01*
X80740Y364305D01*
X511080Y4540D02*
Y7872D01*
Y6206D01*
X501083D01*
X502749Y4540D01*
X529235Y490138D02*
X525902D01*
X527569D01*
Y481808D01*
X525902Y480142D01*
X524236D01*
X522570Y481808D01*
X532567Y480142D02*
X535899D01*
X534233D01*
Y490138D01*
X532567Y488472D01*
X540898Y480142D02*
X544230D01*
X542564D01*
Y490138D01*
X540898Y488472D01*
X99934Y408858D02*
X96602D01*
X98268D01*
Y400528D01*
X96602Y398862D01*
X94936D01*
X93269Y400528D01*
X109931Y408858D02*
X106598Y407192D01*
X103266Y403860D01*
Y400528D01*
X104932Y398862D01*
X108265D01*
X109931Y400528D01*
Y402194D01*
X108265Y403860D01*
X103266D01*
X99934Y469818D02*
X96602D01*
X98268D01*
Y461488D01*
X96602Y459822D01*
X94936D01*
X93269Y461488D01*
X103266Y468152D02*
X104932Y469818D01*
X108265D01*
X109931Y468152D01*
Y466486D01*
X108265Y464820D01*
X106598D01*
X108265D01*
X109931Y463154D01*
Y461488D01*
X108265Y459822D01*
X104932D01*
X103266Y461488D01*
X567294Y53258D02*
X563962D01*
X565628D01*
Y44928D01*
X563962Y43262D01*
X562295D01*
X560629Y44928D01*
X570626D02*
X572292Y43262D01*
X575625D01*
X577291Y44928D01*
Y51592D01*
X575625Y53258D01*
X572292D01*
X570626Y51592D01*
Y49926D01*
X572292Y48260D01*
X577291D01*
X57587Y10119D02*
X55921D01*
X56754D01*
Y5954D01*
X55921Y5121D01*
X55088D01*
X54255Y5954D01*
X59253Y9286D02*
X60086Y10119D01*
X61752D01*
X62585Y9286D01*
Y8453D01*
X61752Y7620D01*
X62585Y6787D01*
Y5954D01*
X61752Y5121D01*
X60086D01*
X59253Y5954D01*
Y6787D01*
X60086Y7620D01*
X59253Y8453D01*
Y9286D01*
X60086Y7620D02*
X61752D01*
X418724Y48219D02*
X417058D01*
X417891D01*
Y44054D01*
X417058Y43221D01*
X416225D01*
X415392Y44054D01*
X420390Y43221D02*
X422057D01*
X421223D01*
Y48219D01*
X420390Y47386D01*
X427888Y43221D02*
X424556D01*
X427888Y46553D01*
Y47386D01*
X427055Y48219D01*
X425389D01*
X424556Y47386D01*
X282814Y490138D02*
X279482D01*
X281148D01*
Y481808D01*
X279482Y480142D01*
X277815D01*
X276149Y481808D01*
X286146Y490138D02*
X292811D01*
Y488472D01*
X286146Y481808D01*
Y480142D01*
X672267Y490179D02*
X670601D01*
X671434D01*
Y486014D01*
X670601Y485181D01*
X669768D01*
X668935Y486014D01*
X677265Y490179D02*
X673933D01*
Y487680D01*
X675599Y488513D01*
X676432D01*
X677265Y487680D01*
Y486014D01*
X676432Y485181D01*
X674766D01*
X673933Y486014D01*
X124267Y484469D02*
X120934D01*
X122600D01*
Y476138D01*
X120934Y474472D01*
X119268D01*
X117602Y476138D01*
X132597Y474472D02*
Y484469D01*
X127599Y479470D01*
X134263D01*
D11*
X195000Y440000D02*
Y458000D01*
X163000Y440000D02*
Y458000D01*
X176000Y440000D02*
X182000D01*
X593000Y284000D02*
Y302000D01*
X561000Y284000D02*
Y302000D01*
X574000Y284000D02*
X580000D01*
X19000Y276000D02*
X37000D01*
X19000Y244000D02*
X37000D01*
Y257000D02*
Y263000D01*
X222140Y144020D02*
X240140D01*
X222140Y176020D02*
X240140D01*
X222140Y157020D02*
Y163020D01*
X639700Y210600D02*
X655700D01*
X639700D02*
Y246600D01*
X655700Y210600D02*
Y246600D01*
X48000Y282000D02*
X64000D01*
X48000D02*
Y318000D01*
X64000Y282000D02*
Y318000D01*
X105410Y373883D02*
Y361187D01*
X107949Y358648D01*
X113027D01*
X115567Y361187D01*
Y373883D01*
X120645Y358648D02*
X125723D01*
X123184D01*
Y373883D01*
X120645Y371344D01*
D12*
X643382Y246380D02*
X652018D01*
X51682Y317780D02*
X60318D01*
D13*
X350536Y457886D02*
Y442891D01*
X358033D01*
X360532Y445390D01*
Y455387D01*
X358033Y457886D01*
X350536D01*
X373028Y442891D02*
X368030D01*
X365531Y445390D01*
Y450388D01*
X368030Y452888D01*
X373028D01*
X375527Y450388D01*
Y447889D01*
X365531D01*
X380526Y442891D02*
X388023D01*
X390522Y445390D01*
X388023Y447889D01*
X383025D01*
X380526Y450388D01*
X383025Y452888D01*
X390522D01*
X395521Y442891D02*
X400519D01*
X398020D01*
Y452888D01*
X395521D01*
X413015Y437892D02*
X415514D01*
X418014Y440392D01*
Y452888D01*
X410516D01*
X408017Y450388D01*
Y445390D01*
X410516Y442891D01*
X418014D01*
X423012D02*
Y452888D01*
X430510D01*
X433009Y450388D01*
Y442891D01*
X445505D02*
X440506D01*
X438007Y445390D01*
Y450388D01*
X440506Y452888D01*
X445505D01*
X448004Y450388D01*
Y447889D01*
X438007D01*
X462999Y457886D02*
Y442891D01*
X455502D01*
X453002Y445390D01*
Y450388D01*
X455502Y452888D01*
X462999D01*
X482993Y457886D02*
Y442891D01*
X490490D01*
X492989Y445390D01*
Y447889D01*
Y450388D01*
X490490Y452888D01*
X482993D01*
X497988D02*
Y445390D01*
X500487Y442891D01*
X507985D01*
Y440392D01*
X505485Y437892D01*
X502986D01*
X507985Y442891D02*
Y452888D01*
X338040Y426394D02*
X335540Y428894D01*
X330542D01*
X328043Y426394D01*
Y423895D01*
X330542Y421396D01*
X335540D01*
X338040Y418897D01*
Y416398D01*
X335540Y413898D01*
X330542D01*
X328043Y416398D01*
X343038Y428894D02*
Y413898D01*
Y421396D01*
X345537Y423895D01*
X350536D01*
X353035Y421396D01*
Y413898D01*
X358033Y423895D02*
Y413898D01*
Y418897D01*
X360532Y421396D01*
X363032Y423895D01*
X365531D01*
X380526Y413898D02*
X375527D01*
X373028Y416398D01*
Y421396D01*
X375527Y423895D01*
X380526D01*
X383025Y421396D01*
Y418897D01*
X373028D01*
X388023Y423895D02*
Y416398D01*
X390522Y413898D01*
X398020D01*
Y411399D01*
X395521Y408900D01*
X393022D01*
X398020Y413898D02*
Y423895D01*
X405518D02*
X410516D01*
X413015Y421396D01*
Y413898D01*
X405518D01*
X403018Y416398D01*
X405518Y418897D01*
X413015D01*
X418014Y413898D02*
X425511D01*
X428010Y416398D01*
X425511Y418897D01*
X420513D01*
X418014Y421396D01*
X420513Y423895D01*
X428010D01*
X433009Y428894D02*
Y413898D01*
Y421396D01*
X435508Y423895D01*
X440506D01*
X443005Y421396D01*
Y413898D01*
X472996Y426394D02*
X470497Y428894D01*
X465498D01*
X462999Y426394D01*
Y416398D01*
X465498Y413898D01*
X470497D01*
X472996Y416398D01*
Y421396D01*
X467998D01*
X480493Y413898D02*
X485492D01*
X487991Y416398D01*
Y421396D01*
X485492Y423895D01*
X480493D01*
X477994Y421396D01*
Y416398D01*
X480493Y413898D01*
X492989D02*
X497988D01*
X495489D01*
Y428894D01*
X492989D01*
X507985Y423895D02*
X512983D01*
X515482Y421396D01*
Y413898D01*
X507985D01*
X505485Y416398D01*
X507985Y418897D01*
X515482D01*
X520480Y413898D02*
Y423895D01*
X522980D01*
X525479Y421396D01*
Y413898D01*
Y421396D01*
X527978Y423895D01*
X530477Y421396D01*
Y413898D01*
D14*
X679180Y468360D02*
X680846D01*
X680013D01*
Y473358D01*
X679180Y472525D01*
X92440Y423558D02*
X94439D01*
X93440D01*
Y417560D01*
X92440D01*
X94439D01*
X101437Y422558D02*
X100437Y423558D01*
X98438D01*
X97438Y422558D01*
Y418560D01*
X98438Y417560D01*
X100437D01*
X101437Y418560D01*
X107435Y422558D02*
X106435Y423558D01*
X104436D01*
X103436Y422558D01*
Y421559D01*
X104436Y420559D01*
X106435D01*
X107435Y419559D01*
Y418560D01*
X106435Y417560D01*
X104436D01*
X103436Y418560D01*
X109434Y417560D02*
Y423558D01*
X112434D01*
X113433Y422558D01*
Y420559D01*
X112434Y419559D01*
X109434D01*
X119431Y417560D02*
X115433D01*
X119431Y421559D01*
Y422558D01*
X118432Y423558D01*
X116432D01*
X115433Y422558D01*
X59420Y531778D02*
X61086D01*
X60253D01*
Y526780D01*
X59420D01*
X61086D01*
X66918Y530945D02*
X66084Y531778D01*
X64418D01*
X63585Y530945D01*
Y527613D01*
X64418Y526780D01*
X66084D01*
X66918Y527613D01*
X71916Y530945D02*
X71083Y531778D01*
X69417D01*
X68584Y530945D01*
Y530112D01*
X69417Y529279D01*
X71083D01*
X71916Y528446D01*
Y527613D01*
X71083Y526780D01*
X69417D01*
X68584Y527613D01*
X73582Y526780D02*
Y531778D01*
X76081D01*
X76914Y530945D01*
Y529279D01*
X76081Y528446D01*
X73582D01*
X108844Y126959D02*
X107178D01*
X108011D01*
Y122794D01*
X107178Y121961D01*
X106345D01*
X105512Y122794D01*
X110510Y121961D02*
X112177D01*
X111343D01*
Y126959D01*
X110510Y126126D01*
X114676Y126959D02*
X118008D01*
Y126126D01*
X114676Y122794D01*
Y121961D01*
X2040Y247880D02*
X1041D01*
X1540D01*
Y245380D01*
X1041Y244881D01*
X541D01*
X41Y245380D01*
X5039Y244881D02*
X3040D01*
X5039Y246880D01*
Y247380D01*
X4539Y247880D01*
X3540D01*
X3040Y247380D01*
X5080Y350479D02*
X3414D01*
X4247D01*
Y346314D01*
X3414Y345481D01*
X2581D01*
X1748Y346314D01*
X6746Y345481D02*
X8412D01*
X7579D01*
Y350479D01*
X6746Y349646D01*
M02*
