G04*
G04 #@! TF.GenerationSoftware,Altium Limited,Altium Designer,22.5.1 (42)*
G04*
G04 Layer_Color=15987699*
%FSLAX44Y44*%
%MOMM*%
G71*
G04*
G04 #@! TF.SameCoordinates,41AE30FE-043A-47DD-A292-25B9FDFD75C8*
G04*
G04*
G04 #@! TF.FilePolarity,Positive*
G04*
G01*
G75*
%ADD12C,0.4000*%
D12*
X87657Y1058804D02*
X77660D01*
Y1051307D01*
X82658D01*
X77660D01*
Y1043809D01*
X92655D02*
X97654D01*
X95154D01*
Y1053806D01*
X92655D01*
X105151Y1043809D02*
X110149D01*
X107650D01*
Y1058804D01*
X105151D01*
X125145Y1043809D02*
X120146D01*
X117647Y1046308D01*
Y1051307D01*
X120146Y1053806D01*
X125145D01*
X127644Y1051307D01*
Y1048808D01*
X117647D01*
X132642Y1043809D02*
X140140D01*
X142639Y1046308D01*
X140140Y1048808D01*
X135141D01*
X132642Y1051307D01*
X135141Y1053806D01*
X142639D01*
X77660Y1028711D02*
X87657Y1018714D01*
X77660D02*
X87657Y1028711D01*
X77660Y1023713D02*
X87657D01*
X82658Y1018714D02*
Y1028711D01*
X92655Y1016215D02*
Y1018714D01*
X95154D01*
Y1016215D01*
X92655D01*
X115148Y1028711D02*
X112649Y1031210D01*
X107650D01*
X105151Y1028711D01*
Y1018714D01*
X107650Y1016215D01*
X112649D01*
X115148Y1018714D01*
Y1023713D01*
X110149D01*
X120146Y1031210D02*
X130143D01*
X125145D01*
Y1016215D01*
X142639Y1031210D02*
X137641D01*
X135141Y1028711D01*
Y1018714D01*
X137641Y1016215D01*
X142639D01*
X145138Y1018714D01*
Y1028711D01*
X142639Y1031210D01*
X165132Y1023713D02*
X175128D01*
X195122Y1031210D02*
X205119D01*
X200120D01*
Y1016215D01*
X217615Y1031210D02*
X212616D01*
X210117Y1028711D01*
Y1018714D01*
X212616Y1016215D01*
X217615D01*
X220114Y1018714D01*
Y1028711D01*
X217615Y1031210D01*
X225112Y1016215D02*
Y1031210D01*
X232610D01*
X235109Y1028711D01*
Y1023713D01*
X232610Y1021214D01*
X225112D01*
X262600Y1031210D02*
X257602D01*
X255103Y1028711D01*
Y1018714D01*
X257602Y1016215D01*
X262600D01*
X265099Y1018714D01*
Y1028711D01*
X262600Y1031210D01*
X270098Y1026212D02*
X275096Y1016215D01*
X280094Y1026212D01*
X292590Y1016215D02*
X287592D01*
X285093Y1018714D01*
Y1023713D01*
X287592Y1026212D01*
X292590D01*
X295090Y1023713D01*
Y1021214D01*
X285093D01*
X300088Y1026212D02*
Y1016215D01*
Y1021214D01*
X302587Y1023713D01*
X305086Y1026212D01*
X307586D01*
X315083Y1016215D02*
X320081D01*
X317582D01*
Y1031210D01*
X315083D01*
X330078Y1026212D02*
X335077D01*
X337576Y1023713D01*
Y1016215D01*
X330078D01*
X327579Y1018714D01*
X330078Y1021214D01*
X337576D01*
X342574Y1026212D02*
Y1018714D01*
X345073Y1016215D01*
X352571D01*
Y1013716D01*
X350072Y1011217D01*
X347573D01*
X352571Y1016215D02*
Y1026212D01*
X77660Y996118D02*
X87657Y986122D01*
X77660D02*
X87657Y996118D01*
X77660Y991120D02*
X87657D01*
X82658Y986122D02*
Y996118D01*
X92655Y983623D02*
Y986122D01*
X95154D01*
Y983623D01*
X92655D01*
X115148Y996118D02*
X112649Y998618D01*
X107650D01*
X105151Y996118D01*
Y986122D01*
X107650Y983623D01*
X112649D01*
X115148Y986122D01*
Y991120D01*
X110149D01*
X120146Y998618D02*
X130143D01*
X125145D01*
Y983623D01*
X135141D02*
Y998618D01*
X142639D01*
X145138Y996118D01*
Y991120D01*
X142639Y988621D01*
X135141D01*
X165132Y991120D02*
X175128D01*
X195122Y998618D02*
X205119D01*
X200120D01*
Y983623D01*
X217615Y998618D02*
X212616D01*
X210117Y996118D01*
Y986122D01*
X212616Y983623D01*
X217615D01*
X220114Y986122D01*
Y996118D01*
X217615Y998618D01*
X225112Y983623D02*
Y998618D01*
X232610D01*
X235109Y996118D01*
Y991120D01*
X232610Y988621D01*
X225112D01*
X255103Y983623D02*
Y998618D01*
X262600D01*
X265099Y996118D01*
Y991120D01*
X262600Y988621D01*
X255103D01*
X272597Y993619D02*
X277595D01*
X280094Y991120D01*
Y983623D01*
X272597D01*
X270098Y986122D01*
X272597Y988621D01*
X280094D01*
X285093Y983623D02*
X292590D01*
X295090Y986122D01*
X292590Y988621D01*
X287592D01*
X285093Y991120D01*
X287592Y993619D01*
X295090D01*
X302587Y996118D02*
Y993619D01*
X300088D01*
X305086D01*
X302587D01*
Y986122D01*
X305086Y983623D01*
X320081D02*
X315083D01*
X312584Y986122D01*
Y991120D01*
X315083Y993619D01*
X320081D01*
X322581Y991120D01*
Y988621D01*
X312584D01*
X77660Y968524D02*
X87657Y958528D01*
X77660D02*
X87657Y968524D01*
X77660Y963526D02*
X87657D01*
X82658Y958528D02*
Y968524D01*
X92655Y956028D02*
Y958528D01*
X95154D01*
Y956028D01*
X92655D01*
X115148Y968524D02*
X112649Y971023D01*
X107650D01*
X105151Y968524D01*
Y958528D01*
X107650Y956028D01*
X112649D01*
X115148Y958528D01*
Y963526D01*
X110149D01*
X120146Y971023D02*
X130143D01*
X125145D01*
Y956028D01*
X145138Y968524D02*
X142639Y971023D01*
X137641D01*
X135141Y968524D01*
Y966025D01*
X137641Y963526D01*
X142639D01*
X145138Y961027D01*
Y958528D01*
X142639Y956028D01*
X137641D01*
X135141Y958528D01*
X165132Y963526D02*
X175128D01*
X195122Y971023D02*
X205119D01*
X200120D01*
Y956028D01*
X217615Y971023D02*
X212616D01*
X210117Y968524D01*
Y958528D01*
X212616Y956028D01*
X217615D01*
X220114Y958528D01*
Y968524D01*
X217615Y971023D01*
X225112Y956028D02*
Y971023D01*
X232610D01*
X235109Y968524D01*
Y963526D01*
X232610Y961027D01*
X225112D01*
X265099Y968524D02*
X262600Y971023D01*
X257602D01*
X255103Y968524D01*
Y966025D01*
X257602Y963526D01*
X262600D01*
X265099Y961027D01*
Y958528D01*
X262600Y956028D01*
X257602D01*
X255103Y958528D01*
X272597Y956028D02*
X277595D01*
X280094Y958528D01*
Y963526D01*
X277595Y966025D01*
X272597D01*
X270098Y963526D01*
Y958528D01*
X272597Y956028D01*
X285093D02*
X290091D01*
X287592D01*
Y971023D01*
X285093D01*
X307586D02*
Y956028D01*
X300088D01*
X297589Y958528D01*
Y963526D01*
X300088Y966025D01*
X307586D01*
X320081Y956028D02*
X315083D01*
X312584Y958528D01*
Y963526D01*
X315083Y966025D01*
X320081D01*
X322581Y963526D01*
Y961027D01*
X312584D01*
X327579Y966025D02*
Y956028D01*
Y961027D01*
X330078Y963526D01*
X332578Y966025D01*
X335077D01*
X77660Y940930D02*
X87657Y930933D01*
X77660D02*
X87657Y940930D01*
X77660Y935932D02*
X87657D01*
X82658Y930933D02*
Y940930D01*
X92655Y928434D02*
Y930933D01*
X95154D01*
Y928434D01*
X92655D01*
X115148Y940930D02*
X112649Y943429D01*
X107650D01*
X105151Y940930D01*
Y930933D01*
X107650Y928434D01*
X112649D01*
X115148Y930933D01*
Y935932D01*
X110149D01*
X120146Y943429D02*
X130143D01*
X125145D01*
Y928434D01*
X135141Y943429D02*
Y928434D01*
X145138D01*
X165132Y935932D02*
X175128D01*
X195122Y943429D02*
Y928434D01*
X205119D01*
X210117D02*
X215116D01*
X212616D01*
Y943429D01*
X210117Y940930D01*
X242607Y928434D02*
X237608Y933433D01*
Y938431D01*
X242607Y943429D01*
X250104Y928434D02*
Y943429D01*
X257602D01*
X260101Y940930D01*
Y935932D01*
X257602Y933433D01*
X250104D01*
X267598Y928434D02*
X272597D01*
X275096Y930933D01*
Y935932D01*
X272597Y938431D01*
X267598D01*
X265099Y935932D01*
Y930933D01*
X267598Y928434D01*
X280095D02*
X287592D01*
X290091Y930933D01*
X287592Y933433D01*
X282594D01*
X280095Y935932D01*
X282594Y938431D01*
X290091D01*
X295090Y928434D02*
X300088D01*
X297589D01*
Y938431D01*
X295090D01*
X310085Y940930D02*
Y938431D01*
X307586D01*
X312584D01*
X310085D01*
Y930933D01*
X312584Y928434D01*
X320081D02*
X325080D01*
X322581D01*
Y938431D01*
X320081D01*
X332578D02*
X337576Y928434D01*
X342574Y938431D01*
X355070Y928434D02*
X350072D01*
X347573Y930933D01*
Y935932D01*
X350072Y938431D01*
X355070D01*
X357569Y935932D01*
Y933433D01*
X347573D01*
X362568Y928434D02*
X367566Y933433D01*
Y938431D01*
X362568Y943429D01*
X77660Y913336D02*
X87657Y903339D01*
X77660D02*
X87657Y913336D01*
X77660Y908338D02*
X87657D01*
X82658Y903339D02*
Y913336D01*
X92655Y900840D02*
Y903339D01*
X95154D01*
Y900840D01*
X92655D01*
X115148Y913336D02*
X112649Y915835D01*
X107650D01*
X105151Y913336D01*
Y903339D01*
X107650Y900840D01*
X112649D01*
X115148Y903339D01*
Y908338D01*
X110149D01*
X120146Y915835D02*
Y900840D01*
X127644D01*
X130143Y903339D01*
Y905838D01*
X127644Y908338D01*
X120146D01*
X127644D01*
X130143Y910837D01*
Y913336D01*
X127644Y915835D01*
X120146D01*
X135141D02*
Y900840D01*
X145138D01*
X165132Y908338D02*
X175128D01*
X195122Y915835D02*
Y900840D01*
X205119D01*
X220114D02*
X210117D01*
X220114Y910837D01*
Y913336D01*
X217615Y915835D01*
X212616D01*
X210117Y913336D01*
X245106Y900840D02*
X240107Y905838D01*
Y910837D01*
X245106Y915835D01*
X252603Y900840D02*
Y915835D01*
X260101D01*
X262600Y913336D01*
Y908338D01*
X260101Y905838D01*
X252603D01*
X270098Y900840D02*
X275096D01*
X277595Y903339D01*
Y908338D01*
X275096Y910837D01*
X270098D01*
X267598Y908338D01*
Y903339D01*
X270098Y900840D01*
X282594D02*
X290091D01*
X292590Y903339D01*
X290091Y905838D01*
X285093D01*
X282594Y908338D01*
X285093Y910837D01*
X292590D01*
X297589Y900840D02*
X302587D01*
X300088D01*
Y910837D01*
X297589D01*
X312584Y913336D02*
Y910837D01*
X310085D01*
X315083D01*
X312584D01*
Y903339D01*
X315083Y900840D01*
X322581D02*
X327579D01*
X325080D01*
Y910837D01*
X322581D01*
X335077D02*
X340075Y900840D01*
X345073Y910837D01*
X357569Y900840D02*
X352571D01*
X350072Y903339D01*
Y908338D01*
X352571Y910837D01*
X357569D01*
X360069Y908338D01*
Y905838D01*
X350072D01*
X365067Y900840D02*
X370065Y905838D01*
Y910837D01*
X365067Y915835D01*
X77660Y885742D02*
X87657Y875745D01*
X77660D02*
X87657Y885742D01*
X77660Y880743D02*
X87657D01*
X82658Y875745D02*
Y885742D01*
X92655Y873246D02*
Y875745D01*
X95154D01*
Y873246D01*
X92655D01*
X115148Y885742D02*
X112649Y888241D01*
X107650D01*
X105151Y885742D01*
Y875745D01*
X107650Y873246D01*
X112649D01*
X115148Y875745D01*
Y880743D01*
X110149D01*
X120146Y888241D02*
Y873246D01*
X127644D01*
X130143Y875745D01*
Y878244D01*
X127644Y880743D01*
X120146D01*
X127644D01*
X130143Y883243D01*
Y885742D01*
X127644Y888241D01*
X120146D01*
X145138Y885742D02*
X142639Y888241D01*
X137641D01*
X135141Y885742D01*
Y883243D01*
X137641Y880743D01*
X142639D01*
X145138Y878244D01*
Y875745D01*
X142639Y873246D01*
X137641D01*
X135141Y875745D01*
X165132Y880743D02*
X175128D01*
X195122Y888241D02*
Y873246D01*
X202619D01*
X205119Y875745D01*
Y878244D01*
X202619Y880743D01*
X195122D01*
X202619D01*
X205119Y883243D01*
Y885742D01*
X202619Y888241D01*
X195122D01*
X212616Y873246D02*
X217615D01*
X220114Y875745D01*
Y880743D01*
X217615Y883243D01*
X212616D01*
X210117Y880743D01*
Y875745D01*
X212616Y873246D01*
X227611Y885742D02*
Y883243D01*
X225112D01*
X230111D01*
X227611D01*
Y875745D01*
X230111Y873246D01*
X240107Y885742D02*
Y883243D01*
X237608D01*
X242607D01*
X240107D01*
Y875745D01*
X242607Y873246D01*
X252603D02*
X257602D01*
X260101Y875745D01*
Y880743D01*
X257602Y883243D01*
X252603D01*
X250104Y880743D01*
Y875745D01*
X252603Y873246D01*
X265099D02*
Y883243D01*
X267598D01*
X270098Y880743D01*
Y873246D01*
Y880743D01*
X272597Y883243D01*
X275096Y880743D01*
Y873246D01*
X305086Y885742D02*
X302587Y888241D01*
X297589D01*
X295090Y885742D01*
Y883243D01*
X297589Y880743D01*
X302587D01*
X305086Y878244D01*
Y875745D01*
X302587Y873246D01*
X297589D01*
X295090Y875745D01*
X312584Y873246D02*
X317582D01*
X320081Y875745D01*
Y880743D01*
X317582Y883243D01*
X312584D01*
X310085Y880743D01*
Y875745D01*
X312584Y873246D01*
X325080D02*
X330078D01*
X327579D01*
Y888241D01*
X325080D01*
X347573D02*
Y873246D01*
X340075D01*
X337576Y875745D01*
Y880743D01*
X340075Y883243D01*
X347573D01*
X360069Y873246D02*
X355070D01*
X352571Y875745D01*
Y880743D01*
X355070Y883243D01*
X360069D01*
X362568Y880743D01*
Y878244D01*
X352571D01*
X367566Y883243D02*
Y873246D01*
Y878244D01*
X370065Y880743D01*
X372565Y883243D01*
X375064D01*
X77660Y858148D02*
X87657Y848151D01*
X77660D02*
X87657Y858148D01*
X77660Y853149D02*
X87657D01*
X82658Y848151D02*
Y858148D01*
X92655Y845652D02*
Y848151D01*
X95154D01*
Y845652D01*
X92655D01*
X115148Y858148D02*
X112649Y860647D01*
X107650D01*
X105151Y858148D01*
Y848151D01*
X107650Y845652D01*
X112649D01*
X115148Y848151D01*
Y853149D01*
X110149D01*
X120146Y860647D02*
Y845652D01*
X127644D01*
X130143Y848151D01*
Y850650D01*
X127644Y853149D01*
X120146D01*
X127644D01*
X130143Y855648D01*
Y858148D01*
X127644Y860647D01*
X120146D01*
X135141Y858148D02*
X137641Y860647D01*
X142639D01*
X145138Y858148D01*
Y848151D01*
X142639Y845652D01*
X137641D01*
X135141Y848151D01*
Y858148D01*
X165132Y853149D02*
X175128D01*
X195122Y860647D02*
Y845652D01*
X202619D01*
X205119Y848151D01*
Y850650D01*
X202619Y853149D01*
X195122D01*
X202619D01*
X205119Y855648D01*
Y858148D01*
X202619Y860647D01*
X195122D01*
X212616Y845652D02*
X217615D01*
X220114Y848151D01*
Y853149D01*
X217615Y855648D01*
X212616D01*
X210117Y853149D01*
Y848151D01*
X212616Y845652D01*
X227611Y858148D02*
Y855648D01*
X225112D01*
X230111D01*
X227611D01*
Y848151D01*
X230111Y845652D01*
X240107Y858148D02*
Y855648D01*
X237608D01*
X242607D01*
X240107D01*
Y848151D01*
X242607Y845652D01*
X252603D02*
X257602D01*
X260101Y848151D01*
Y853149D01*
X257602Y855648D01*
X252603D01*
X250104Y853149D01*
Y848151D01*
X252603Y845652D01*
X265099D02*
Y855648D01*
X267598D01*
X270098Y853149D01*
Y845652D01*
Y853149D01*
X272597Y855648D01*
X275096Y853149D01*
Y845652D01*
X302587Y860647D02*
X297589D01*
X295090Y858148D01*
Y848151D01*
X297589Y845652D01*
X302587D01*
X305086Y848151D01*
Y858148D01*
X302587Y860647D01*
X310085Y855648D02*
X315083Y845652D01*
X320081Y855648D01*
X332578Y845652D02*
X327579D01*
X325080Y848151D01*
Y853149D01*
X327579Y855648D01*
X332578D01*
X335077Y853149D01*
Y850650D01*
X325080D01*
X340075Y855648D02*
Y845652D01*
Y850650D01*
X342574Y853149D01*
X345073Y855648D01*
X347573D01*
X355070Y845652D02*
X360069D01*
X357569D01*
Y860647D01*
X355070D01*
X370065Y855648D02*
X375064D01*
X377563Y853149D01*
Y845652D01*
X370065D01*
X367566Y848151D01*
X370065Y850650D01*
X377563D01*
X382561Y855648D02*
Y848151D01*
X385061Y845652D01*
X392558D01*
Y843153D01*
X390059Y840653D01*
X387560D01*
X392558Y845652D02*
Y855648D01*
X77660Y825555D02*
X87657Y815558D01*
X77660D02*
X87657Y825555D01*
X77660Y820557D02*
X87657D01*
X82658Y815558D02*
Y825555D01*
X92655Y813059D02*
Y815558D01*
X95154D01*
Y813059D01*
X92655D01*
X115148Y825555D02*
X112649Y828054D01*
X107650D01*
X105151Y825555D01*
Y815558D01*
X107650Y813059D01*
X112649D01*
X115148Y815558D01*
Y820557D01*
X110149D01*
X120146Y813059D02*
Y828054D01*
X125145Y823056D01*
X130143Y828054D01*
Y813059D01*
X145138D02*
X135141D01*
X145138Y823056D01*
Y825555D01*
X142639Y828054D01*
X137641D01*
X135141Y825555D01*
X165132Y820557D02*
X175128D01*
X195122Y813059D02*
Y828054D01*
X200120Y823056D01*
X205119Y828054D01*
Y813059D01*
X217615D02*
X212616D01*
X210117Y815558D01*
Y820557D01*
X212616Y823056D01*
X217615D01*
X220114Y820557D01*
Y818058D01*
X210117D01*
X235109Y823056D02*
X227611D01*
X225112Y820557D01*
Y815558D01*
X227611Y813059D01*
X235109D01*
X240107Y828054D02*
Y813059D01*
Y820557D01*
X242607Y823056D01*
X247605D01*
X250104Y820557D01*
Y813059D01*
X257602Y823056D02*
X262600D01*
X265099Y820557D01*
Y813059D01*
X257602D01*
X255103Y815558D01*
X257602Y818058D01*
X265099D01*
X270098Y813059D02*
Y823056D01*
X277595D01*
X280094Y820557D01*
Y813059D01*
X285093D02*
X290091D01*
X287592D01*
Y823056D01*
X285093D01*
X307586D02*
X300088D01*
X297589Y820557D01*
Y815558D01*
X300088Y813059D01*
X307586D01*
X315083Y823056D02*
X320081D01*
X322581Y820557D01*
Y813059D01*
X315083D01*
X312584Y815558D01*
X315083Y818058D01*
X322581D01*
X327579Y813059D02*
X332578D01*
X330078D01*
Y828054D01*
X327579D01*
X355070D02*
Y813059D01*
X362568D01*
X365067Y815558D01*
Y825555D01*
X362568Y828054D01*
X355070D01*
X370065Y823056D02*
Y813059D01*
Y818058D01*
X372565Y820557D01*
X375064Y823056D01*
X377563D01*
X387560D02*
X392558D01*
X395057Y820557D01*
Y813059D01*
X387560D01*
X385061Y815558D01*
X387560Y818058D01*
X395057D01*
X400056Y823056D02*
Y815558D01*
X402555Y813059D01*
X405054Y815558D01*
X407553Y813059D01*
X410052Y815558D01*
Y823056D01*
X415051Y813059D02*
X420049D01*
X417550D01*
Y823056D01*
X415051D01*
X427547Y813059D02*
Y823056D01*
X435044D01*
X437543Y820557D01*
Y813059D01*
X447540Y808061D02*
X450039D01*
X452539Y810560D01*
Y823056D01*
X445041D01*
X442542Y820557D01*
Y815558D01*
X445041Y813059D01*
X452539D01*
X77660Y792963D02*
X87657Y782966D01*
X77660D02*
X87657Y792963D01*
X77660Y787964D02*
X87657D01*
X82658Y782966D02*
Y792963D01*
X92655Y780467D02*
Y782966D01*
X95154D01*
Y780467D01*
X92655D01*
X115148Y792963D02*
X112649Y795462D01*
X107650D01*
X105151Y792963D01*
Y782966D01*
X107650Y780467D01*
X112649D01*
X115148Y782966D01*
Y787964D01*
X110149D01*
X120146Y780467D02*
Y795462D01*
X125145Y790463D01*
X130143Y795462D01*
Y780467D01*
X135141Y792963D02*
X137641Y795462D01*
X142639D01*
X145138Y792963D01*
Y790463D01*
X142639Y787964D01*
X140140D01*
X142639D01*
X145138Y785465D01*
Y782966D01*
X142639Y780467D01*
X137641D01*
X135141Y782966D01*
X165132Y787964D02*
X175128D01*
X195122Y780467D02*
Y795462D01*
X200120Y790463D01*
X205119Y795462D01*
Y780467D01*
X212616Y790463D02*
X217615D01*
X220114Y787964D01*
Y780467D01*
X212616D01*
X210117Y782966D01*
X212616Y785465D01*
X220114D01*
X225112Y780467D02*
Y790463D01*
X232610D01*
X235109Y787964D01*
Y780467D01*
X240107Y790463D02*
Y782966D01*
X242607Y780467D01*
X250104D01*
Y790463D01*
X257602Y780467D02*
Y792963D01*
Y787964D01*
X255103D01*
X260101D01*
X257602D01*
Y792963D01*
X260101Y795462D01*
X270098Y790463D02*
X275096D01*
X277595Y787964D01*
Y780467D01*
X270098D01*
X267598Y782966D01*
X270098Y785465D01*
X277595D01*
X292590Y790463D02*
X285093D01*
X282594Y787964D01*
Y782966D01*
X285093Y780467D01*
X292590D01*
X300088Y792963D02*
Y790463D01*
X297589D01*
X302587D01*
X300088D01*
Y782966D01*
X302587Y780467D01*
X310085Y790463D02*
Y782966D01*
X312584Y780467D01*
X320081D01*
Y790463D01*
X325080D02*
Y780467D01*
Y785465D01*
X327579Y787964D01*
X330078Y790463D01*
X332578D01*
X340075Y780467D02*
X345073D01*
X342574D01*
Y790463D01*
X340075D01*
X352571Y780467D02*
Y790463D01*
X360069D01*
X362568Y787964D01*
Y780467D01*
X372565Y775468D02*
X375064D01*
X377563Y777968D01*
Y790463D01*
X370065D01*
X367566Y787964D01*
Y782966D01*
X370065Y780467D01*
X377563D01*
X397556D02*
Y795462D01*
X407553Y780467D01*
Y795462D01*
X415051Y780467D02*
X420049D01*
X422548Y782966D01*
Y787964D01*
X420049Y790463D01*
X415051D01*
X412552Y787964D01*
Y782966D01*
X415051Y780467D01*
X430046Y792963D02*
Y790463D01*
X427547D01*
X432545D01*
X430046D01*
Y782966D01*
X432545Y780467D01*
X447540D02*
X442542D01*
X440043Y782966D01*
Y787964D01*
X442542Y790463D01*
X447540D01*
X450039Y787964D01*
Y785465D01*
X440043D01*
X455038Y780467D02*
X462535D01*
X465035Y782966D01*
X462535Y785465D01*
X457537D01*
X455038Y787964D01*
X457537Y790463D01*
X465035D01*
X77660Y760370D02*
X87657Y750373D01*
X77660D02*
X87657Y760370D01*
X77660Y755372D02*
X87657D01*
X82658Y750373D02*
Y760370D01*
X92655Y747874D02*
Y750373D01*
X95154D01*
Y747874D01*
X92655D01*
X115148Y760370D02*
X112649Y762869D01*
X107650D01*
X105151Y760370D01*
Y750373D01*
X107650Y747874D01*
X112649D01*
X115148Y750373D01*
Y755372D01*
X110149D01*
X120146Y747874D02*
Y762869D01*
X125145Y757871D01*
X130143Y762869D01*
Y747874D01*
X142639D02*
Y762869D01*
X135141Y755372D01*
X145138D01*
X165132D02*
X175128D01*
X195122Y762869D02*
Y747874D01*
X205119D01*
X210117D02*
X215116D01*
X212616D01*
Y757871D01*
X210117D01*
X232610D02*
X225112D01*
X222613Y755372D01*
Y750373D01*
X225112Y747874D01*
X232610D01*
X245106D02*
X240107D01*
X237608Y750373D01*
Y755372D01*
X240107Y757871D01*
X245106D01*
X247605Y755372D01*
Y752872D01*
X237608D01*
X252603Y747874D02*
Y757871D01*
X260101D01*
X262600Y755372D01*
Y747874D01*
X277595Y757871D02*
X270098D01*
X267598Y755372D01*
Y750373D01*
X270098Y747874D01*
X277595D01*
X290091D02*
X285093D01*
X282594Y750373D01*
Y755372D01*
X285093Y757871D01*
X290091D01*
X292590Y755372D01*
Y752872D01*
X282594D01*
X77660Y732776D02*
X87657Y722779D01*
X77660D02*
X87657Y732776D01*
X77660Y727778D02*
X87657D01*
X82658Y722779D02*
Y732776D01*
X92655Y720280D02*
Y722779D01*
X95154D01*
Y720280D01*
X92655D01*
X115148Y732776D02*
X112649Y735275D01*
X107650D01*
X105151Y732776D01*
Y722779D01*
X107650Y720280D01*
X112649D01*
X115148Y722779D01*
Y727778D01*
X110149D01*
X120146Y720280D02*
Y735275D01*
X125145Y730277D01*
X130143Y735275D01*
Y720280D01*
X145138D02*
X135141D01*
X145138Y730277D01*
Y732776D01*
X142639Y735275D01*
X137641D01*
X135141Y732776D01*
X150136D02*
X152636Y735275D01*
X157634D01*
X160133Y732776D01*
Y730277D01*
X157634Y727778D01*
X160133Y725278D01*
Y722779D01*
X157634Y720280D01*
X152636D01*
X150136Y722779D01*
Y725278D01*
X152636Y727778D01*
X150136Y730277D01*
Y732776D01*
X152636Y727778D02*
X157634D01*
X180127D02*
X190124D01*
X210117Y735275D02*
Y720280D01*
X217615D01*
X220114Y722779D01*
Y725278D01*
X217615Y727778D01*
X210117D01*
X217615D01*
X220114Y730277D01*
Y732776D01*
X217615Y735275D01*
X210117D01*
X227611Y720280D02*
X232610D01*
X235109Y722779D01*
Y727778D01*
X232610Y730277D01*
X227611D01*
X225112Y727778D01*
Y722779D01*
X227611Y720280D01*
X242607Y730277D02*
X247605D01*
X250104Y727778D01*
Y720280D01*
X242607D01*
X240107Y722779D01*
X242607Y725278D01*
X250104D01*
X255103Y730277D02*
Y720280D01*
Y725278D01*
X257602Y727778D01*
X260101Y730277D01*
X262600D01*
X280094Y735275D02*
Y720280D01*
X272597D01*
X270098Y722779D01*
Y727778D01*
X272597Y730277D01*
X280094D01*
X307586Y735275D02*
X302587D01*
X300088Y732776D01*
Y722779D01*
X302587Y720280D01*
X307586D01*
X310085Y722779D01*
Y732776D01*
X307586Y735275D01*
X315083Y730277D02*
Y722779D01*
X317582Y720280D01*
X325080D01*
Y730277D01*
X332577Y732776D02*
Y730277D01*
X330078D01*
X335077D01*
X332577D01*
Y722779D01*
X335077Y720280D01*
X342574D02*
X347573D01*
X345073D01*
Y735275D01*
X342574D01*
X355070Y720280D02*
X360069D01*
X357569D01*
Y730277D01*
X355070D01*
X367566Y720280D02*
Y730277D01*
X375064D01*
X377563Y727778D01*
Y720280D01*
X390059D02*
X385061D01*
X382561Y722779D01*
Y727778D01*
X385061Y730277D01*
X390059D01*
X392558Y727778D01*
Y725278D01*
X382561D01*
X997140Y1012208D02*
Y997213D01*
X1004638D01*
X1007137Y999712D01*
Y1002211D01*
X1004638Y1004710D01*
X997140D01*
X1004638D01*
X1007137Y1007210D01*
Y1009709D01*
X1004638Y1012208D01*
X997140D01*
X1014634Y997213D02*
X1019633D01*
X1022132Y999712D01*
Y1004710D01*
X1019633Y1007210D01*
X1014634D01*
X1012135Y1004710D01*
Y999712D01*
X1014634Y997213D01*
X1029630Y1007210D02*
X1034628D01*
X1037127Y1004710D01*
Y997213D01*
X1029630D01*
X1027130Y999712D01*
X1029630Y1002211D01*
X1037127D01*
X1042125Y1007210D02*
Y997213D01*
Y1002211D01*
X1044625Y1004710D01*
X1047124Y1007210D01*
X1049623D01*
X1067117Y1012208D02*
Y997213D01*
X1059620D01*
X1057121Y999712D01*
Y1004710D01*
X1059620Y1007210D01*
X1067117D01*
X1087111Y1012208D02*
X1092109D01*
X1089610D01*
Y997213D01*
X1087111D01*
X1092109D01*
X1099607D02*
Y1007210D01*
X1107104D01*
X1109604Y1004710D01*
Y997213D01*
X1117101D02*
Y1009709D01*
Y1004710D01*
X1114602D01*
X1119600D01*
X1117101D01*
Y1009709D01*
X1119600Y1012208D01*
X1129597Y997213D02*
X1134595D01*
X1137095Y999712D01*
Y1004710D01*
X1134595Y1007210D01*
X1129597D01*
X1127098Y1004710D01*
Y999712D01*
X1129597Y997213D01*
X997140Y969619D02*
Y984614D01*
X1002138Y979615D01*
X1007137Y984614D01*
Y969619D01*
X1012135D02*
X1017133D01*
X1014634D01*
Y979615D01*
X1012135D01*
X1024631Y969619D02*
Y979615D01*
X1032129D01*
X1034628Y977116D01*
Y969619D01*
X1039626D02*
X1044625D01*
X1042125D01*
Y979615D01*
X1039626D01*
X1052122Y969619D02*
Y979615D01*
X1054621D01*
X1057121Y977116D01*
Y969619D01*
Y977116D01*
X1059620Y979615D01*
X1062119Y977116D01*
Y969619D01*
X1067117Y979615D02*
Y972118D01*
X1069616Y969619D01*
X1077114D01*
Y979615D01*
X1082113Y969619D02*
Y979615D01*
X1084612D01*
X1087111Y977116D01*
Y969619D01*
Y977116D01*
X1089610Y979615D01*
X1092109Y977116D01*
Y969619D01*
X1112103Y984614D02*
X1122100D01*
X1117101D01*
Y969619D01*
X1127098Y979615D02*
Y969619D01*
Y974617D01*
X1129597Y977116D01*
X1132096Y979615D01*
X1134595D01*
X1144592D02*
X1149591D01*
X1152090Y977116D01*
Y969619D01*
X1144592D01*
X1142093Y972118D01*
X1144592Y974617D01*
X1152090D01*
X1167085Y979615D02*
X1159587D01*
X1157088Y977116D01*
Y972118D01*
X1159587Y969619D01*
X1167085D01*
X1172083D02*
Y984614D01*
Y974617D02*
X1179581Y979615D01*
X1172083Y974617D02*
X1179581Y969619D01*
X1187078Y979615D02*
X1189578D01*
Y977116D01*
X1187078D01*
Y979615D01*
Y972118D02*
X1189578D01*
Y969619D01*
X1187078D01*
Y972118D01*
X1224566Y969619D02*
X1214570D01*
X1224566Y979615D01*
Y982115D01*
X1222067Y984614D01*
X1217069D01*
X1214570Y982115D01*
X1229565D02*
X1232064Y984614D01*
X1237062D01*
X1239561Y982115D01*
Y972118D01*
X1237062Y969619D01*
X1232064D01*
X1229565Y972118D01*
Y982115D01*
X1244560D02*
X1247059Y984614D01*
X1252057D01*
X1254557Y982115D01*
Y972118D01*
X1252057Y969619D01*
X1247059D01*
X1244560Y972118D01*
Y982115D01*
X1259555Y979615D02*
Y972118D01*
X1262054Y969619D01*
X1269552D01*
Y979615D01*
X1274550Y969619D02*
Y979615D01*
X1277049D01*
X1279549Y977116D01*
Y969619D01*
Y977116D01*
X1282048Y979615D01*
X1284547Y977116D01*
Y969619D01*
X997140Y942025D02*
Y957020D01*
X1002138Y952021D01*
X1007137Y957020D01*
Y942025D01*
X1012135D02*
X1017133D01*
X1014634D01*
Y952021D01*
X1012135D01*
X1024631Y942025D02*
Y952021D01*
X1032129D01*
X1034628Y949522D01*
Y942025D01*
X1039626D02*
X1044625D01*
X1042125D01*
Y952021D01*
X1039626D01*
X1052122Y942025D02*
Y952021D01*
X1054621D01*
X1057121Y949522D01*
Y942025D01*
Y949522D01*
X1059620Y952021D01*
X1062119Y949522D01*
Y942025D01*
X1067117Y952021D02*
Y944524D01*
X1069616Y942025D01*
X1077114D01*
Y952021D01*
X1082113Y942025D02*
Y952021D01*
X1084612D01*
X1087111Y949522D01*
Y942025D01*
Y949522D01*
X1089610Y952021D01*
X1092109Y949522D01*
Y942025D01*
X1122100Y954521D02*
X1119600Y957020D01*
X1114602D01*
X1112103Y954521D01*
Y944524D01*
X1114602Y942025D01*
X1119600D01*
X1122100Y944524D01*
Y949522D01*
X1117101D01*
X1129597Y952021D02*
X1134595D01*
X1137095Y949522D01*
Y942025D01*
X1129597D01*
X1127098Y944524D01*
X1129597Y947023D01*
X1137095D01*
X1142093Y937026D02*
Y952021D01*
X1149591D01*
X1152090Y949522D01*
Y944524D01*
X1149591Y942025D01*
X1142093D01*
X1157088Y952021D02*
X1159587D01*
Y949522D01*
X1157088D01*
Y952021D01*
Y944524D02*
X1159587D01*
Y942025D01*
X1157088D01*
Y944524D01*
X1194576Y942025D02*
X1184579D01*
X1194576Y952021D01*
Y954521D01*
X1192077Y957020D01*
X1187078D01*
X1184579Y954521D01*
X1199575D02*
X1202074Y957020D01*
X1207072D01*
X1209571Y954521D01*
Y944524D01*
X1207072Y942025D01*
X1202074D01*
X1199575Y944524D01*
Y954521D01*
X1214570D02*
X1217069Y957020D01*
X1222067D01*
X1224566Y954521D01*
Y944524D01*
X1222067Y942025D01*
X1217069D01*
X1214570Y944524D01*
Y954521D01*
X1229565Y952021D02*
Y944524D01*
X1232064Y942025D01*
X1239561D01*
Y952021D01*
X1244560Y942025D02*
Y952021D01*
X1247059D01*
X1249558Y949522D01*
Y942025D01*
Y949522D01*
X1252057Y952021D01*
X1254557Y949522D01*
Y942025D01*
X997140Y909432D02*
Y924427D01*
X1002138Y919429D01*
X1007137Y924427D01*
Y909432D01*
X1012135D02*
X1017133D01*
X1014634D01*
Y919429D01*
X1012135D01*
X1024631Y909432D02*
Y919429D01*
X1032129D01*
X1034628Y916930D01*
Y909432D01*
X1039626D02*
X1044625D01*
X1042125D01*
Y919429D01*
X1039626D01*
X1052122Y909432D02*
Y919429D01*
X1054621D01*
X1057121Y916930D01*
Y909432D01*
Y916930D01*
X1059620Y919429D01*
X1062119Y916930D01*
Y909432D01*
X1067117Y919429D02*
Y911931D01*
X1069616Y909432D01*
X1077114D01*
Y919429D01*
X1082113Y909432D02*
Y919429D01*
X1084612D01*
X1087111Y916930D01*
Y909432D01*
Y916930D01*
X1089610Y919429D01*
X1092109Y916930D01*
Y909432D01*
X1112103Y924427D02*
X1122100D01*
X1117101D01*
Y909432D01*
X1127098Y924427D02*
Y909432D01*
Y916930D01*
X1129597Y919429D01*
X1134595D01*
X1137095Y916930D01*
Y909432D01*
X1142093Y919429D02*
Y909432D01*
Y914430D01*
X1144592Y916930D01*
X1147092Y919429D01*
X1149591D01*
X1159587Y909432D02*
X1164586D01*
X1167085Y911931D01*
Y916930D01*
X1164586Y919429D01*
X1159587D01*
X1157088Y916930D01*
Y911931D01*
X1159587Y909432D01*
X1172083Y919429D02*
Y911931D01*
X1174583Y909432D01*
X1182080D01*
Y919429D01*
X1192077Y904434D02*
X1194576D01*
X1197075Y906933D01*
Y919429D01*
X1189578D01*
X1187078Y916930D01*
Y911931D01*
X1189578Y909432D01*
X1197075D01*
X1202074Y924427D02*
Y909432D01*
Y916930D01*
X1204573Y919429D01*
X1209571D01*
X1212070Y916930D01*
Y909432D01*
X1232064Y924427D02*
Y909432D01*
Y916930D01*
X1242061D01*
Y924427D01*
Y909432D01*
X1249558D02*
X1254557D01*
X1257056Y911931D01*
Y916930D01*
X1254557Y919429D01*
X1249558D01*
X1247059Y916930D01*
Y911931D01*
X1249558Y909432D01*
X1262054D02*
X1267053D01*
X1264553D01*
Y924427D01*
X1262054D01*
X1282048Y909432D02*
X1277049D01*
X1274550Y911931D01*
Y916930D01*
X1277049Y919429D01*
X1282048D01*
X1284547Y916930D01*
Y914430D01*
X1274550D01*
X1304541Y924427D02*
Y914430D01*
X1309539Y909432D01*
X1314537Y914430D01*
Y924427D01*
X1319536D02*
X1324534D01*
X1322035D01*
Y909432D01*
X1319536D01*
X1324534D01*
X1332032D02*
Y919429D01*
X1337030Y924427D01*
X1342028Y919429D01*
Y909432D01*
Y916930D01*
X1332032D01*
X1347027Y919429D02*
X1349526D01*
Y916930D01*
X1347027D01*
Y919429D01*
Y911931D02*
X1349526D01*
Y909432D01*
X1347027D01*
Y911931D01*
X1374518Y921928D02*
X1377017Y924427D01*
X1382015D01*
X1384515Y921928D01*
Y911931D01*
X1382015Y909432D01*
X1377017D01*
X1374518Y911931D01*
Y921928D01*
X1389513Y909432D02*
Y911931D01*
X1392012D01*
Y909432D01*
X1389513D01*
X1412006Y924427D02*
X1407007Y921928D01*
X1402009Y916930D01*
Y911931D01*
X1404508Y909432D01*
X1409507D01*
X1412006Y911931D01*
Y914430D01*
X1409507Y916930D01*
X1402009D01*
X1417004Y909432D02*
Y919429D01*
X1419503D01*
X1422003Y916930D01*
Y909432D01*
Y916930D01*
X1424502Y919429D01*
X1427001Y916930D01*
Y909432D01*
X1431999D02*
Y919429D01*
X1434498D01*
X1436998Y916930D01*
Y909432D01*
Y916930D01*
X1439497Y919429D01*
X1441996Y916930D01*
Y909432D01*
X1451993D02*
X1446994Y914430D01*
Y919429D01*
X1451993Y924427D01*
X1459490Y904434D02*
Y919429D01*
X1466988D01*
X1469487Y916930D01*
Y911931D01*
X1466988Y909432D01*
X1459490D01*
X1476985Y919429D02*
X1481983D01*
X1484482Y916930D01*
Y909432D01*
X1476985D01*
X1474485Y911931D01*
X1476985Y914430D01*
X1484482D01*
X1499477Y924427D02*
Y909432D01*
X1491980D01*
X1489481Y911931D01*
Y916930D01*
X1491980Y919429D01*
X1499477D01*
X1504476Y909432D02*
X1509474Y914430D01*
Y919429D01*
X1504476Y924427D01*
X1516972Y909432D02*
X1526969Y919429D01*
X1546962Y921928D02*
X1549461Y924427D01*
X1554460D01*
X1556959Y921928D01*
Y911931D01*
X1554460Y909432D01*
X1549461D01*
X1546962Y911931D01*
Y921928D01*
X1561957Y909432D02*
Y911931D01*
X1564456D01*
Y909432D01*
X1561957D01*
X1574453Y921928D02*
X1576952Y924427D01*
X1581951D01*
X1584450Y921928D01*
Y919429D01*
X1581951Y916930D01*
X1579451D01*
X1581951D01*
X1584450Y914430D01*
Y911931D01*
X1581951Y909432D01*
X1576952D01*
X1574453Y911931D01*
X1589448Y909432D02*
Y919429D01*
X1591947D01*
X1594447Y916930D01*
Y909432D01*
Y916930D01*
X1596946Y919429D01*
X1599445Y916930D01*
Y909432D01*
X1604443D02*
Y919429D01*
X1606943D01*
X1609442Y916930D01*
Y909432D01*
Y916930D01*
X1611941Y919429D01*
X1614440Y916930D01*
Y909432D01*
X1624437D02*
X1619438Y914430D01*
Y919429D01*
X1624437Y924427D01*
X1641931D02*
Y909432D01*
X1634434D01*
X1631935Y911931D01*
Y916930D01*
X1634434Y919429D01*
X1641931D01*
X1646930D02*
Y909432D01*
Y914430D01*
X1649429Y916930D01*
X1651928Y919429D01*
X1654427D01*
X1661925Y909432D02*
X1666923D01*
X1664424D01*
Y919429D01*
X1661925D01*
X1674421Y909432D02*
X1679419D01*
X1676920D01*
Y924427D01*
X1674421D01*
X1686917Y909432D02*
X1691915D01*
X1689416D01*
Y924427D01*
X1686917D01*
X1699413Y909432D02*
X1704411Y914430D01*
Y919429D01*
X1699413Y924427D01*
X1711909Y909432D02*
Y911931D01*
X1714408D01*
Y909432D01*
X1711909D01*
X1739400Y924427D02*
Y909432D01*
X1746897D01*
X1749397Y911931D01*
Y921928D01*
X1746897Y924427D01*
X1739400D01*
X1754395Y919429D02*
Y909432D01*
Y914430D01*
X1756894Y916930D01*
X1759393Y919429D01*
X1761893D01*
X1769390Y909432D02*
X1774388D01*
X1771889D01*
Y919429D01*
X1769390D01*
X1781886Y909432D02*
X1786884D01*
X1784385D01*
Y924427D01*
X1781886D01*
X1794382Y909432D02*
X1799380D01*
X1796881D01*
Y924427D01*
X1794382D01*
X1806878Y909432D02*
X1811876D01*
X1809377D01*
Y919429D01*
X1806878D01*
X1819374Y909432D02*
Y919429D01*
X1826871D01*
X1829371Y916930D01*
Y909432D01*
X1839367Y904434D02*
X1841867D01*
X1844366Y906933D01*
Y919429D01*
X1836868D01*
X1834369Y916930D01*
Y911931D01*
X1836868Y909432D01*
X1844366D01*
X1849364Y919429D02*
X1851863D01*
Y916930D01*
X1849364D01*
Y919429D01*
Y911931D02*
X1851863D01*
Y909432D01*
X1849364D01*
Y911931D01*
X1876855Y924427D02*
Y909432D01*
X1886852D01*
X1891850D02*
X1896849D01*
X1894350D01*
Y924427D01*
X1891850Y921928D01*
X1904346Y916930D02*
X1914343D01*
X1919341Y924427D02*
Y909432D01*
X1929338D01*
X1944333D02*
X1934337D01*
X1944333Y919429D01*
Y921928D01*
X1941834Y924427D01*
X1936836D01*
X1934337Y921928D01*
X997140Y876840D02*
X1002138D01*
X999639D01*
Y891835D01*
X997140Y889335D01*
X1009636Y876840D02*
Y879339D01*
X1012135D01*
Y876840D01*
X1009636D01*
X1047124Y891835D02*
X1037127D01*
Y884337D01*
X1042125D01*
X1037127D01*
Y876840D01*
X1052122D02*
X1057121D01*
X1054621D01*
Y886836D01*
X1052122D01*
X1064618Y876840D02*
Y886836D01*
X1072116D01*
X1074615Y884337D01*
Y876840D01*
X1079613D02*
X1084612D01*
X1082113D01*
Y886836D01*
X1079613D01*
X1092109Y876840D02*
X1099607D01*
X1102106Y879339D01*
X1099607Y881838D01*
X1094609D01*
X1092109Y884337D01*
X1094609Y886836D01*
X1102106D01*
X1107104Y891835D02*
Y876840D01*
Y884337D01*
X1109604Y886836D01*
X1114602D01*
X1117101Y884337D01*
Y876840D01*
X1129597D02*
X1124599D01*
X1122100Y879339D01*
Y884337D01*
X1124599Y886836D01*
X1129597D01*
X1132096Y884337D01*
Y881838D01*
X1122100D01*
X1147092Y891835D02*
Y876840D01*
X1139594D01*
X1137095Y879339D01*
Y884337D01*
X1139594Y886836D01*
X1147092D01*
X1167085Y876840D02*
Y891835D01*
X1174583D01*
X1177082Y889335D01*
Y884337D01*
X1174583Y881838D01*
X1167085D01*
X1184579Y886836D02*
X1189578D01*
X1192077Y884337D01*
Y876840D01*
X1184579D01*
X1182080Y879339D01*
X1184579Y881838D01*
X1192077D01*
X1197075Y876840D02*
Y886836D01*
X1204573D01*
X1207072Y884337D01*
Y876840D01*
X1219568D02*
X1214570D01*
X1212070Y879339D01*
Y884337D01*
X1214570Y886836D01*
X1219568D01*
X1222067Y884337D01*
Y881838D01*
X1212070D01*
X1227066Y876840D02*
X1232064D01*
X1229565D01*
Y891835D01*
X1227066D01*
X1254557D02*
X1264553D01*
X1259555D01*
Y876840D01*
X1269552Y891835D02*
Y876840D01*
Y884337D01*
X1272051Y886836D01*
X1277049D01*
X1279549Y884337D01*
Y876840D01*
X1284547D02*
X1289545D01*
X1287046D01*
Y886836D01*
X1284547D01*
X1307040D02*
X1299542D01*
X1297043Y884337D01*
Y879339D01*
X1299542Y876840D01*
X1307040D01*
X1312038D02*
Y891835D01*
Y881838D02*
X1319536Y886836D01*
X1312038Y881838D02*
X1319536Y876840D01*
X1327033D02*
Y886836D01*
X1334531D01*
X1337030Y884337D01*
Y876840D01*
X1349526D02*
X1344527D01*
X1342028Y879339D01*
Y884337D01*
X1344527Y886836D01*
X1349526D01*
X1352025Y884337D01*
Y881838D01*
X1342028D01*
X1357023Y876840D02*
X1364521D01*
X1367020Y879339D01*
X1364521Y881838D01*
X1359523D01*
X1357023Y884337D01*
X1359523Y886836D01*
X1367020D01*
X1372019Y876840D02*
X1379516D01*
X1382015Y879339D01*
X1379516Y881838D01*
X1374518D01*
X1372019Y884337D01*
X1374518Y886836D01*
X1382015D01*
X1402009Y876840D02*
X1407007D01*
X1404508D01*
Y886836D01*
X1402009D01*
X1414505Y876840D02*
X1422003D01*
X1424502Y879339D01*
X1422003Y881838D01*
X1417004D01*
X1414505Y884337D01*
X1417004Y886836D01*
X1424502D01*
X1444495Y876840D02*
Y886836D01*
X1451993D01*
X1454492Y884337D01*
Y876840D01*
X1461989D02*
X1466988D01*
X1469487Y879339D01*
Y884337D01*
X1466988Y886836D01*
X1461989D01*
X1459490Y884337D01*
Y879339D01*
X1461989Y876840D01*
X1476985Y889335D02*
Y886836D01*
X1474485D01*
X1479484D01*
X1476985D01*
Y879339D01*
X1479484Y876840D01*
X1511973Y889335D02*
X1509474Y891835D01*
X1504476D01*
X1501977Y889335D01*
Y879339D01*
X1504476Y876840D01*
X1509474D01*
X1511973Y879339D01*
X1516972Y886836D02*
Y876840D01*
Y881838D01*
X1519471Y884337D01*
X1521970Y886836D01*
X1524469D01*
X1531967Y876840D02*
X1536965D01*
X1534466D01*
Y886836D01*
X1531967D01*
X1546962Y889335D02*
Y886836D01*
X1544463D01*
X1549461D01*
X1546962D01*
Y879339D01*
X1549461Y876840D01*
X1556959D02*
X1561957D01*
X1559458D01*
Y886836D01*
X1556959D01*
X1579451D02*
X1571954D01*
X1569455Y884337D01*
Y879339D01*
X1571954Y876840D01*
X1579451D01*
X1586949Y886836D02*
X1591947D01*
X1594447Y884337D01*
Y876840D01*
X1586949D01*
X1584450Y879339D01*
X1586949Y881838D01*
X1594447D01*
X1599445Y876840D02*
X1604443D01*
X1601944D01*
Y891835D01*
X1599445D01*
X1611941Y886836D02*
X1614440D01*
Y884337D01*
X1611941D01*
Y886836D01*
Y879339D02*
X1614440D01*
Y876840D01*
X1611941D01*
Y879339D01*
X1639432Y891835D02*
X1649429D01*
X1644431D01*
Y876840D01*
X1661925Y891835D02*
X1656926D01*
X1654427Y889335D01*
Y879339D01*
X1656926Y876840D01*
X1661925D01*
X1664424Y879339D01*
Y889335D01*
X1661925Y891835D01*
X1684418D02*
Y876840D01*
X1691915D01*
X1694414Y879339D01*
Y881838D01*
Y884337D01*
X1691915Y886836D01*
X1684418D01*
X1706910Y876840D02*
X1701912D01*
X1699413Y879339D01*
Y884337D01*
X1701912Y886836D01*
X1706910D01*
X1709409Y884337D01*
Y881838D01*
X1699413D01*
X1731902Y886836D02*
X1736900D01*
X1739400Y884337D01*
Y876840D01*
X1731902D01*
X1729403Y879339D01*
X1731902Y881838D01*
X1739400D01*
X1744398Y871841D02*
Y886836D01*
X1751896D01*
X1754395Y884337D01*
Y879339D01*
X1751896Y876840D01*
X1744398D01*
X1759393Y871841D02*
Y886836D01*
X1766891D01*
X1769390Y884337D01*
Y879339D01*
X1766891Y876840D01*
X1759393D01*
X1774388Y886836D02*
Y876840D01*
Y881838D01*
X1776888Y884337D01*
X1779387Y886836D01*
X1781886D01*
X1791883Y876840D02*
X1796881D01*
X1799380Y879339D01*
Y884337D01*
X1796881Y886836D01*
X1791883D01*
X1789384Y884337D01*
Y879339D01*
X1791883Y876840D01*
X1804379Y886836D02*
X1814375Y876840D01*
X1809377Y881838D01*
X1814375Y886836D01*
X1804379Y876840D01*
X1819374D02*
X1824372D01*
X1821873D01*
Y886836D01*
X1819374D01*
X1831870Y876840D02*
Y886836D01*
X1834369D01*
X1836868Y884337D01*
Y876840D01*
Y884337D01*
X1839367Y886836D01*
X1841866Y884337D01*
Y876840D01*
X1849364Y886836D02*
X1854362D01*
X1856862Y884337D01*
Y876840D01*
X1849364D01*
X1846865Y879339D01*
X1849364Y881838D01*
X1856862D01*
X1864359Y889335D02*
Y886836D01*
X1861860D01*
X1866859D01*
X1864359D01*
Y879339D01*
X1866859Y876840D01*
X1881854D02*
X1876855D01*
X1874356Y879339D01*
Y884337D01*
X1876855Y886836D01*
X1881854D01*
X1884353Y884337D01*
Y881838D01*
X1874356D01*
X1889351Y876840D02*
X1894350D01*
X1891850D01*
Y891835D01*
X1889351D01*
X1901847Y886836D02*
Y879339D01*
X1904346Y876840D01*
X1911844D01*
Y874340D01*
X1909345Y871841D01*
X1906846D01*
X1911844Y876840D02*
Y886836D01*
X1931837Y876840D02*
X1936836D01*
X1934337D01*
Y891835D01*
X1931837Y889335D01*
X1944333Y876840D02*
Y879339D01*
X1946833D01*
Y876840D01*
X1944333D01*
X1966826Y891835D02*
X1961828Y889335D01*
X1956829Y884337D01*
Y879339D01*
X1959328Y876840D01*
X1964327D01*
X1966826Y879339D01*
Y881838D01*
X1964327Y884337D01*
X1956829D01*
X1971824Y876840D02*
Y886836D01*
X1974324D01*
X1976823Y884337D01*
Y876840D01*
Y884337D01*
X1979322Y886836D01*
X1981821Y884337D01*
Y876840D01*
X1986820D02*
Y886836D01*
X1989319D01*
X1991818Y884337D01*
Y876840D01*
Y884337D01*
X1994317Y886836D01*
X1996816Y884337D01*
Y876840D01*
X1007137Y844247D02*
X997140D01*
X1007137Y854244D01*
Y856743D01*
X1004638Y859242D01*
X999639D01*
X997140Y856743D01*
X1012135Y844247D02*
Y846746D01*
X1014634D01*
Y844247D01*
X1012135D01*
X1039626Y859242D02*
Y844247D01*
X1047124D01*
X1049623Y846746D01*
Y849245D01*
X1047124Y851745D01*
X1039626D01*
X1047124D01*
X1049623Y854244D01*
Y856743D01*
X1047124Y859242D01*
X1039626D01*
X1057121Y844247D02*
X1062119D01*
X1064618Y846746D01*
Y851745D01*
X1062119Y854244D01*
X1057121D01*
X1054621Y851745D01*
Y846746D01*
X1057121Y844247D01*
X1072116Y854244D02*
X1077114D01*
X1079613Y851745D01*
Y844247D01*
X1072116D01*
X1069616Y846746D01*
X1072116Y849245D01*
X1079613D01*
X1084612Y854244D02*
Y844247D01*
Y849245D01*
X1087111Y851745D01*
X1089610Y854244D01*
X1092109D01*
X1109604Y859242D02*
Y844247D01*
X1102106D01*
X1099607Y846746D01*
Y851745D01*
X1102106Y854244D01*
X1109604D01*
X1139594Y859242D02*
X1129597D01*
Y851745D01*
X1134595D01*
X1129597D01*
Y844247D01*
X1144592D02*
X1149591D01*
X1147091D01*
Y854244D01*
X1144592D01*
X1157088Y844247D02*
Y854244D01*
X1164586D01*
X1167085Y851745D01*
Y844247D01*
X1172083D02*
X1177082D01*
X1174583D01*
Y854244D01*
X1172083D01*
X1184579Y844247D02*
X1192077D01*
X1194576Y846746D01*
X1192077Y849245D01*
X1187078D01*
X1184579Y851745D01*
X1187078Y854244D01*
X1194576D01*
X1199575Y859242D02*
Y844247D01*
Y851745D01*
X1202074Y854244D01*
X1207072D01*
X1209571Y851745D01*
Y844247D01*
X1229565Y854244D02*
X1232064D01*
Y851745D01*
X1229565D01*
Y854244D01*
Y846746D02*
X1232064D01*
Y844247D01*
X1229565D01*
Y846746D01*
X1257056Y859242D02*
X1262054D01*
X1259555D01*
Y844247D01*
X1257056D01*
X1262054D01*
X1269552D02*
Y854244D01*
X1272051D01*
X1274550Y851745D01*
Y844247D01*
Y851745D01*
X1277049Y854244D01*
X1279549Y851745D01*
Y844247D01*
X1284547D02*
Y854244D01*
X1287046D01*
X1289545Y851745D01*
Y844247D01*
Y851745D01*
X1292045Y854244D01*
X1294544Y851745D01*
Y844247D01*
X1307040D02*
X1302041D01*
X1299542Y846746D01*
Y851745D01*
X1302041Y854244D01*
X1307040D01*
X1309539Y851745D01*
Y849245D01*
X1299542D01*
X1314537Y854244D02*
Y844247D01*
Y849245D01*
X1317036Y851745D01*
X1319536Y854244D01*
X1322035D01*
X1329532Y844247D02*
X1337030D01*
X1339529Y846746D01*
X1337030Y849245D01*
X1332032D01*
X1329532Y851745D01*
X1332032Y854244D01*
X1339529D01*
X1344527Y844247D02*
X1349526D01*
X1347027D01*
Y854244D01*
X1344527D01*
X1359523Y844247D02*
X1364521D01*
X1367020Y846746D01*
Y851745D01*
X1364521Y854244D01*
X1359523D01*
X1357023Y851745D01*
Y846746D01*
X1359523Y844247D01*
X1372019D02*
Y854244D01*
X1379516D01*
X1382015Y851745D01*
Y844247D01*
X1402009D02*
Y854244D01*
X1407007Y859242D01*
X1412006Y854244D01*
Y844247D01*
Y851745D01*
X1402009D01*
X1417004Y854244D02*
Y846746D01*
X1419503Y844247D01*
X1427001D01*
Y854244D01*
X1431999Y844247D02*
X1441996Y854244D01*
X1456991Y859242D02*
X1446994D01*
Y844247D01*
X1456991D01*
X1446994Y851745D02*
X1451993D01*
X1461989Y844247D02*
X1466988D01*
X1464489D01*
Y859242D01*
X1461989D01*
X1481983Y844247D02*
X1476985D01*
X1474485Y846746D01*
Y851745D01*
X1476985Y854244D01*
X1481983D01*
X1484482Y851745D01*
Y849245D01*
X1474485D01*
X1499477Y854244D02*
X1491980D01*
X1489481Y851745D01*
Y846746D01*
X1491980Y844247D01*
X1499477D01*
X1506975Y856743D02*
Y854244D01*
X1504476D01*
X1509474D01*
X1506975D01*
Y846746D01*
X1509474Y844247D01*
X1516972Y854244D02*
Y844247D01*
Y849245D01*
X1519471Y851745D01*
X1521970Y854244D01*
X1524469D01*
X1534466Y844247D02*
X1539464D01*
X1541964Y846746D01*
Y851745D01*
X1539464Y854244D01*
X1534466D01*
X1531967Y851745D01*
Y846746D01*
X1534466Y844247D01*
X1546962D02*
Y854244D01*
X1554460D01*
X1556959Y851745D01*
Y844247D01*
X1561957D02*
X1566956D01*
X1564456D01*
Y854244D01*
X1561957D01*
X1584450D02*
X1576952D01*
X1574453Y851745D01*
Y846746D01*
X1576952Y844247D01*
X1584450D01*
X1589448D02*
X1596946D01*
X1599445Y846746D01*
X1596946Y849245D01*
X1591947D01*
X1589448Y851745D01*
X1591947Y854244D01*
X1599445D01*
X1619438Y844247D02*
Y859242D01*
X1629435Y844247D01*
Y859242D01*
X1634434Y844247D02*
X1639432D01*
X1636933D01*
Y854244D01*
X1634434D01*
X1646930Y851745D02*
Y854244D01*
X1649429D01*
Y851745D01*
X1646930D01*
Y846746D02*
X1649429D01*
Y844247D01*
X1646930Y841748D01*
X1649429Y844247D02*
X1646930D01*
Y846746D01*
X1674421Y856743D02*
X1676920Y859242D01*
X1681918D01*
X1684418Y856743D01*
Y846746D01*
X1681918Y844247D01*
X1676920D01*
X1674421Y846746D01*
Y856743D01*
X1689416Y844247D02*
Y846746D01*
X1691915D01*
Y844247D01*
X1689416D01*
X1701912Y856743D02*
X1704411Y859242D01*
X1709409D01*
X1711909Y856743D01*
Y846746D01*
X1709409Y844247D01*
X1704411D01*
X1701912Y846746D01*
Y856743D01*
X1726904Y859242D02*
X1716907D01*
Y851745D01*
X1721905Y854244D01*
X1724405D01*
X1726904Y851745D01*
Y846746D01*
X1724405Y844247D01*
X1719406D01*
X1716907Y846746D01*
X1731902Y851745D02*
X1741899D01*
X1746897Y856743D02*
X1749397Y859242D01*
X1754395D01*
X1756894Y856743D01*
Y846746D01*
X1754395Y844247D01*
X1749397D01*
X1746897Y846746D01*
Y856743D01*
X1761892Y844247D02*
Y846746D01*
X1764392D01*
Y844247D01*
X1761892D01*
X1774388D02*
X1779387D01*
X1776888D01*
Y859242D01*
X1774388Y856743D01*
X1796881Y844247D02*
X1786884D01*
X1796881Y854244D01*
Y856743D01*
X1794382Y859242D01*
X1789384D01*
X1786884Y856743D01*
X1801879Y854244D02*
Y846746D01*
X1804379Y844247D01*
X1811876D01*
Y854244D01*
X1816875Y844247D02*
Y854244D01*
X1819374D01*
X1821873Y851745D01*
Y844247D01*
Y851745D01*
X1824372Y854244D01*
X1826871Y851745D01*
Y844247D01*
X1856862Y856743D02*
X1854362Y859242D01*
X1849364D01*
X1846865Y856743D01*
Y846746D01*
X1849364Y844247D01*
X1854362D01*
X1856862Y846746D01*
Y851745D01*
X1851863D01*
X1864359Y844247D02*
X1869358D01*
X1871857Y846746D01*
Y851745D01*
X1869358Y854244D01*
X1864359D01*
X1861860Y851745D01*
Y846746D01*
X1864359Y844247D01*
X1876855D02*
X1881854D01*
X1879354D01*
Y859242D01*
X1876855D01*
X1899348D02*
Y844247D01*
X1891850D01*
X1889351Y846746D01*
Y851745D01*
X1891850Y854244D01*
X1899348D01*
X1904346Y851745D02*
Y854244D01*
X1906846D01*
Y851745D01*
X1904346D01*
Y846746D02*
X1906846D01*
Y844247D01*
X1904346Y841748D01*
X1906846Y844247D02*
X1904346D01*
Y846746D01*
X1931837Y856743D02*
X1934337Y859242D01*
X1939335D01*
X1941834Y856743D01*
Y854244D01*
X1939335Y851745D01*
X1936836D01*
X1939335D01*
X1941834Y849245D01*
Y846746D01*
X1939335Y844247D01*
X1934337D01*
X1931837Y846746D01*
X1946833Y851745D02*
X1956829D01*
X1971824Y859242D02*
X1966826Y856743D01*
X1961828Y851745D01*
Y846746D01*
X1964327Y844247D01*
X1969325D01*
X1971824Y846746D01*
Y849245D01*
X1969325Y851745D01*
X1961828D01*
X1976823Y854244D02*
Y846746D01*
X1979322Y844247D01*
X1986820D01*
Y854244D01*
X1991818Y844247D02*
Y854244D01*
X1994317D01*
X1996816Y851745D01*
Y844247D01*
Y851745D01*
X1999316Y854244D01*
X2001815Y851745D01*
Y844247D01*
X2021808D02*
Y859242D01*
X2031805Y844247D01*
Y859242D01*
X2036803Y844247D02*
X2041802D01*
X2039303D01*
Y854244D01*
X2036803D01*
X2059296D02*
X2051799D01*
X2049299Y851745D01*
Y846746D01*
X2051799Y844247D01*
X2059296D01*
X2064295D02*
Y859242D01*
Y849245D02*
X2071792Y854244D01*
X2064295Y849245D02*
X2071792Y844247D01*
X2086787D02*
X2081789D01*
X2079290Y846746D01*
Y851745D01*
X2081789Y854244D01*
X2086787D01*
X2089286Y851745D01*
Y849245D01*
X2079290D01*
X2094285Y844247D02*
X2099283D01*
X2096784D01*
Y859242D01*
X2094285D01*
X997140Y826650D02*
X999639Y829149D01*
X1004638D01*
X1007137Y826650D01*
Y824150D01*
X1004638Y821651D01*
X1002138D01*
X1004638D01*
X1007137Y819152D01*
Y816653D01*
X1004638Y814154D01*
X999639D01*
X997140Y816653D01*
X1012135Y814154D02*
Y816653D01*
X1014634D01*
Y814154D01*
X1012135D01*
X1049623Y826650D02*
X1047124Y829149D01*
X1042125D01*
X1039626Y826650D01*
Y824150D01*
X1042125Y821651D01*
X1047124D01*
X1049623Y819152D01*
Y816653D01*
X1047124Y814154D01*
X1042125D01*
X1039626Y816653D01*
X1057121Y814154D02*
X1062119D01*
X1064618Y816653D01*
Y821651D01*
X1062119Y824150D01*
X1057121D01*
X1054621Y821651D01*
Y816653D01*
X1057121Y814154D01*
X1069616D02*
X1074615D01*
X1072116D01*
Y829149D01*
X1069616D01*
X1092109D02*
Y814154D01*
X1084612D01*
X1082113Y816653D01*
Y821651D01*
X1084612Y824150D01*
X1092109D01*
X1104605Y814154D02*
X1099607D01*
X1097108Y816653D01*
Y821651D01*
X1099607Y824150D01*
X1104605D01*
X1107104Y821651D01*
Y819152D01*
X1097108D01*
X1112103Y824150D02*
Y814154D01*
Y819152D01*
X1114602Y821651D01*
X1117101Y824150D01*
X1119600D01*
X1142093Y814154D02*
Y829149D01*
X1149591D01*
X1152090Y826650D01*
Y821651D01*
X1149591Y819152D01*
X1142093D01*
X1147092D02*
X1152090Y814154D01*
X1164586D02*
X1159587D01*
X1157088Y816653D01*
Y821651D01*
X1159587Y824150D01*
X1164586D01*
X1167085Y821651D01*
Y819152D01*
X1157088D01*
X1172083Y814154D02*
X1179581D01*
X1182080Y816653D01*
X1179581Y819152D01*
X1174583D01*
X1172083Y821651D01*
X1174583Y824150D01*
X1182080D01*
X1187078Y814154D02*
X1192077D01*
X1189578D01*
Y824150D01*
X1187078D01*
X1199575Y814154D02*
X1207072D01*
X1209571Y816653D01*
X1207072Y819152D01*
X1202074D01*
X1199575Y821651D01*
X1202074Y824150D01*
X1209571D01*
X1217069Y826650D02*
Y824150D01*
X1214570D01*
X1219568D01*
X1217069D01*
Y816653D01*
X1219568Y814154D01*
X1227066Y824150D02*
X1229565D01*
Y821651D01*
X1227066D01*
Y824150D01*
Y816653D02*
X1229565D01*
Y814154D01*
X1227066D01*
Y816653D01*
X1254557Y814154D02*
Y824150D01*
X1259555Y829149D01*
X1264553Y824150D01*
Y814154D01*
Y821651D01*
X1254557D01*
X1269552Y809155D02*
Y824150D01*
X1277049D01*
X1279549Y821651D01*
Y816653D01*
X1277049Y814154D01*
X1269552D01*
X1284547Y809155D02*
Y824150D01*
X1292045D01*
X1294544Y821651D01*
Y816653D01*
X1292045Y814154D01*
X1284547D01*
X1299542D02*
X1304541D01*
X1302041D01*
Y829149D01*
X1299542D01*
X1312038Y824150D02*
Y816653D01*
X1314537Y814154D01*
X1322035D01*
Y811655D01*
X1319536Y809155D01*
X1317036D01*
X1322035Y814154D02*
Y824150D01*
X1344527Y826650D02*
Y824150D01*
X1342028D01*
X1347027D01*
X1344527D01*
Y816653D01*
X1347027Y814154D01*
X1357023D02*
X1362022D01*
X1364521Y816653D01*
Y821651D01*
X1362022Y824150D01*
X1357023D01*
X1354524Y821651D01*
Y816653D01*
X1357023Y814154D01*
X1384515Y829149D02*
Y814154D01*
X1392012D01*
X1394511Y816653D01*
Y819152D01*
Y821651D01*
X1392012Y824150D01*
X1384515D01*
X1402009Y814154D02*
X1407007D01*
X1409507Y816653D01*
Y821651D01*
X1407007Y824150D01*
X1402009D01*
X1399510Y821651D01*
Y816653D01*
X1402009Y814154D01*
X1417004Y826650D02*
Y824150D01*
X1414505D01*
X1419503D01*
X1417004D01*
Y816653D01*
X1419503Y814154D01*
X1427001Y829149D02*
Y814154D01*
Y821651D01*
X1429500Y824150D01*
X1434498D01*
X1436998Y821651D01*
Y814154D01*
X1456991D02*
X1464489D01*
X1466988Y816653D01*
X1464489Y819152D01*
X1459490D01*
X1456991Y821651D01*
X1459490Y824150D01*
X1466988D01*
X1471986Y814154D02*
X1476985D01*
X1474485D01*
Y824150D01*
X1471986D01*
X1494479Y829149D02*
Y814154D01*
X1486981D01*
X1484482Y816653D01*
Y821651D01*
X1486981Y824150D01*
X1494479D01*
X1506975Y814154D02*
X1501977D01*
X1499477Y816653D01*
Y821651D01*
X1501977Y824150D01*
X1506975D01*
X1509474Y821651D01*
Y819152D01*
X1499477D01*
X1514473Y814154D02*
X1521970D01*
X1524469Y816653D01*
X1521970Y819152D01*
X1516972D01*
X1514473Y821651D01*
X1516972Y824150D01*
X1524469D01*
X1554460D02*
X1546962D01*
X1544463Y821651D01*
Y816653D01*
X1546962Y814154D01*
X1554460D01*
X1561957D02*
X1566956D01*
X1569455Y816653D01*
Y821651D01*
X1566956Y824150D01*
X1561957D01*
X1559458Y821651D01*
Y816653D01*
X1561957Y814154D01*
X1574453D02*
X1579451D01*
X1576952D01*
Y829149D01*
X1574453D01*
X1589448Y814154D02*
X1594447D01*
X1596946Y816653D01*
Y821651D01*
X1594447Y824150D01*
X1589448D01*
X1586949Y821651D01*
Y816653D01*
X1589448Y814154D01*
X1601944Y824150D02*
Y816653D01*
X1604443Y814154D01*
X1611941D01*
Y824150D01*
X1616939D02*
Y814154D01*
Y819152D01*
X1619438Y821651D01*
X1621938Y824150D01*
X1624437D01*
X1646930Y821651D02*
X1656926D01*
X1676920Y829149D02*
Y814154D01*
X1684418D01*
X1686917Y816653D01*
Y819152D01*
X1684418Y821651D01*
X1676920D01*
X1684418D01*
X1686917Y824150D01*
Y826650D01*
X1684418Y829149D01*
X1676920D01*
X1691915Y814154D02*
X1696913D01*
X1694414D01*
Y829149D01*
X1691915D01*
X1704411Y824150D02*
Y816653D01*
X1706910Y814154D01*
X1714408D01*
Y824150D01*
X1726904Y814154D02*
X1721905D01*
X1719406Y816653D01*
Y821651D01*
X1721905Y824150D01*
X1726904D01*
X1729403Y821651D01*
Y819152D01*
X1719406D01*
X1004638Y781561D02*
Y796556D01*
X997140Y789059D01*
X1007137D01*
X1012135Y781561D02*
Y784060D01*
X1014634D01*
Y781561D01*
X1012135D01*
X1034628Y794057D02*
X1032129Y796556D01*
X1027130D01*
X1024631Y794057D01*
Y784060D01*
X1027130Y781561D01*
X1032129D01*
X1034628Y784060D01*
X1042125Y781561D02*
X1047124D01*
X1049623Y784060D01*
Y789059D01*
X1047124Y791558D01*
X1042125D01*
X1039626Y789059D01*
Y784060D01*
X1042125Y781561D01*
X1054621D02*
Y791558D01*
X1057121D01*
X1059620Y789059D01*
Y781561D01*
Y789059D01*
X1062119Y791558D01*
X1064618Y789059D01*
Y781561D01*
X1069616Y776563D02*
Y791558D01*
X1077114D01*
X1079613Y789059D01*
Y784060D01*
X1077114Y781561D01*
X1069616D01*
X1087111D02*
X1092109D01*
X1094608Y784060D01*
Y789059D01*
X1092109Y791558D01*
X1087111D01*
X1084612Y789059D01*
Y784060D01*
X1087111Y781561D01*
X1099607D02*
Y791558D01*
X1107104D01*
X1109604Y789059D01*
Y781561D01*
X1122100D02*
X1117101D01*
X1114602Y784060D01*
Y789059D01*
X1117101Y791558D01*
X1122100D01*
X1124599Y789059D01*
Y786560D01*
X1114602D01*
X1129597Y781561D02*
Y791558D01*
X1137095D01*
X1139594Y789059D01*
Y781561D01*
X1147091Y794057D02*
Y791558D01*
X1144592D01*
X1149591D01*
X1147091D01*
Y784060D01*
X1149591Y781561D01*
X1172083Y796556D02*
X1177082D01*
X1174583D01*
Y781561D01*
X1172083D01*
X1177082D01*
X1194576Y796556D02*
Y781561D01*
X1187078D01*
X1184579Y784060D01*
Y789059D01*
X1187078Y791558D01*
X1194576D01*
X1207072Y781561D02*
X1202074D01*
X1199575Y784060D01*
Y789059D01*
X1202074Y791558D01*
X1207072D01*
X1209571Y789059D01*
Y786560D01*
X1199575D01*
X1214570Y781561D02*
Y791558D01*
X1222067D01*
X1224566Y789059D01*
Y781561D01*
X1232064Y794057D02*
Y791558D01*
X1229565D01*
X1234563D01*
X1232064D01*
Y784060D01*
X1234563Y781561D01*
X1242061Y791558D02*
X1244560D01*
Y789059D01*
X1242061D01*
Y791558D01*
Y784060D02*
X1244560D01*
Y781561D01*
X1242061D01*
Y784060D01*
X1279549Y794057D02*
X1277049Y796556D01*
X1272051D01*
X1269552Y794057D01*
Y784060D01*
X1272051Y781561D01*
X1277049D01*
X1279549Y784060D01*
X1287046Y781561D02*
X1292045D01*
X1294544Y784060D01*
Y789059D01*
X1292045Y791558D01*
X1287046D01*
X1284547Y789059D01*
Y784060D01*
X1287046Y781561D01*
X1299542D02*
X1304541D01*
X1302041D01*
Y796556D01*
X1299542D01*
X1314537Y781561D02*
X1319536D01*
X1322035Y784060D01*
Y789059D01*
X1319536Y791558D01*
X1314537D01*
X1312038Y789059D01*
Y784060D01*
X1314537Y781561D01*
X1327033Y791558D02*
Y784060D01*
X1329532Y781561D01*
X1337030D01*
Y791558D01*
X1342028D02*
Y781561D01*
Y786560D01*
X1344527Y789059D01*
X1347027Y791558D01*
X1349526D01*
X1374518Y794057D02*
Y791558D01*
X1372019D01*
X1377017D01*
X1374518D01*
Y784060D01*
X1377017Y781561D01*
X1387014D02*
X1392012D01*
X1394511Y784060D01*
Y789059D01*
X1392012Y791558D01*
X1387014D01*
X1384515Y789059D01*
Y784060D01*
X1387014Y781561D01*
X1414505Y796556D02*
Y781561D01*
X1422003D01*
X1424502Y784060D01*
Y786560D01*
Y789059D01*
X1422003Y791558D01*
X1414505D01*
X1436998Y781561D02*
X1431999D01*
X1429500Y784060D01*
Y789059D01*
X1431999Y791558D01*
X1436998D01*
X1439497Y789059D01*
Y786560D01*
X1429500D01*
X1459490Y791558D02*
Y784060D01*
X1461989Y781561D01*
X1464489Y784060D01*
X1466988Y781561D01*
X1469487Y784060D01*
Y791558D01*
X1474485Y796556D02*
Y781561D01*
Y789059D01*
X1476985Y791558D01*
X1481983D01*
X1484482Y789059D01*
Y781561D01*
X1489481D02*
X1494479D01*
X1491980D01*
Y791558D01*
X1489481D01*
X1504476Y794057D02*
Y791558D01*
X1501977D01*
X1506975D01*
X1504476D01*
Y784060D01*
X1506975Y781561D01*
X1521970D02*
X1516972D01*
X1514473Y784060D01*
Y789059D01*
X1516972Y791558D01*
X1521970D01*
X1524469Y789059D01*
Y786560D01*
X1514473D01*
X1007137Y763964D02*
X997140D01*
Y756466D01*
X1002138Y758965D01*
X1004638D01*
X1007137Y756466D01*
Y751468D01*
X1004638Y748969D01*
X999639D01*
X997140Y751468D01*
X1012135Y748969D02*
Y751468D01*
X1014634D01*
Y748969D01*
X1012135D01*
X1039626D02*
Y763964D01*
X1047124D01*
X1049623Y761464D01*
Y756466D01*
X1047124Y753967D01*
X1039626D01*
X1057121Y758965D02*
X1062119D01*
X1064618Y756466D01*
Y748969D01*
X1057121D01*
X1054621Y751468D01*
X1057121Y753967D01*
X1064618D01*
X1069616Y748969D02*
Y758965D01*
X1077114D01*
X1079613Y756466D01*
Y748969D01*
X1092109D02*
X1087111D01*
X1084612Y751468D01*
Y756466D01*
X1087111Y758965D01*
X1092109D01*
X1094608Y756466D01*
Y753967D01*
X1084612D01*
X1099607Y748969D02*
X1104605D01*
X1102106D01*
Y763964D01*
X1099607D01*
X1112103Y748969D02*
X1117101D01*
X1114602D01*
Y758965D01*
X1112103D01*
X1124599D02*
X1134595D01*
X1124599Y748969D01*
X1134595D01*
X1147092D02*
X1142093D01*
X1139594Y751468D01*
Y756466D01*
X1142093Y758965D01*
X1147092D01*
X1149591Y756466D01*
Y753967D01*
X1139594D01*
X1172083Y761464D02*
Y758965D01*
X1169584D01*
X1174583D01*
X1172083D01*
Y751468D01*
X1174583Y748969D01*
X1182080Y763964D02*
Y748969D01*
Y756466D01*
X1184579Y758965D01*
X1189578D01*
X1192077Y756466D01*
Y748969D01*
X1204573D02*
X1199575D01*
X1197075Y751468D01*
Y756466D01*
X1199575Y758965D01*
X1204573D01*
X1207072Y756466D01*
Y753967D01*
X1197075D01*
X1227066Y763964D02*
Y748969D01*
X1234563D01*
X1237062Y751468D01*
Y753967D01*
Y756466D01*
X1234563Y758965D01*
X1227066D01*
X1244560Y748969D02*
X1249558D01*
X1252057Y751468D01*
Y756466D01*
X1249558Y758965D01*
X1244560D01*
X1242061Y756466D01*
Y751468D01*
X1244560Y748969D01*
X1259555Y758965D02*
X1264553D01*
X1267053Y756466D01*
Y748969D01*
X1259555D01*
X1257056Y751468D01*
X1259555Y753967D01*
X1267053D01*
X1272051Y758965D02*
Y748969D01*
Y753967D01*
X1274550Y756466D01*
X1277049Y758965D01*
X1279549D01*
X1297043Y763964D02*
Y748969D01*
X1289545D01*
X1287046Y751468D01*
Y756466D01*
X1289545Y758965D01*
X1297043D01*
X1322035Y748969D02*
X1317036Y753967D01*
Y758965D01*
X1322035Y763964D01*
X1337030Y748969D02*
Y763964D01*
X1329532Y756466D01*
X1339529D01*
X1359523Y743970D02*
Y758965D01*
X1367020D01*
X1369519Y756466D01*
Y751468D01*
X1367020Y748969D01*
X1359523D01*
X1384515Y758965D02*
X1377017D01*
X1374518Y756466D01*
Y751468D01*
X1377017Y748969D01*
X1384515D01*
X1389513D02*
X1397010D01*
X1399510Y751468D01*
X1397010Y753967D01*
X1392012D01*
X1389513Y756466D01*
X1392012Y758965D01*
X1399510D01*
X1419503Y743970D02*
Y758965D01*
X1427001D01*
X1429500Y756466D01*
Y751468D01*
X1427001Y748969D01*
X1419503D01*
X1441996D02*
X1436998D01*
X1434498Y751468D01*
Y756466D01*
X1436998Y758965D01*
X1441996D01*
X1444495Y756466D01*
Y753967D01*
X1434498D01*
X1449494Y758965D02*
Y748969D01*
Y753967D01*
X1451993Y756466D01*
X1454492Y758965D01*
X1456991D01*
X1479484Y743970D02*
Y758965D01*
X1486981D01*
X1489481Y756466D01*
Y751468D01*
X1486981Y748969D01*
X1479484D01*
X1496978Y758965D02*
X1501976D01*
X1504476Y756466D01*
Y748969D01*
X1496978D01*
X1494479Y751468D01*
X1496978Y753967D01*
X1504476D01*
X1509474Y748969D02*
Y758965D01*
X1516972D01*
X1519471Y756466D01*
Y748969D01*
X1531967D02*
X1526968D01*
X1524469Y751468D01*
Y756466D01*
X1526968Y758965D01*
X1531967D01*
X1534466Y756466D01*
Y753967D01*
X1524469D01*
X1539464Y748969D02*
X1544463D01*
X1541964D01*
Y763964D01*
X1539464D01*
X1551960Y748969D02*
X1556959Y753967D01*
Y758965D01*
X1551960Y763964D01*
X1564456Y748969D02*
Y751468D01*
X1566956D01*
Y748969D01*
X1564456D01*
X1591947D02*
Y763964D01*
X1599445D01*
X1601944Y761464D01*
Y756466D01*
X1599445Y753967D01*
X1591947D01*
X1606943Y748969D02*
X1611941D01*
X1609442D01*
Y763964D01*
X1606943D01*
X1621938Y758965D02*
X1626936D01*
X1629435Y756466D01*
Y748969D01*
X1621938D01*
X1619438Y751468D01*
X1621938Y753967D01*
X1629435D01*
X1644430Y758965D02*
X1636933D01*
X1634434Y756466D01*
Y751468D01*
X1636933Y748969D01*
X1644430D01*
X1656926D02*
X1651928D01*
X1649429Y751468D01*
Y756466D01*
X1651928Y758965D01*
X1656926D01*
X1659426Y756466D01*
Y753967D01*
X1649429D01*
X1689416Y763964D02*
X1679419D01*
Y756466D01*
X1684418D01*
X1679419D01*
Y748969D01*
X1694414D02*
X1699413D01*
X1696913D01*
Y758965D01*
X1694414D01*
X1716907Y763964D02*
Y748969D01*
X1709409D01*
X1706910Y751468D01*
Y756466D01*
X1709409Y758965D01*
X1716907D01*
X1721905D02*
Y751468D01*
X1724405Y748969D01*
X1731902D01*
Y758965D01*
X1746897D02*
X1739400D01*
X1736900Y756466D01*
Y751468D01*
X1739400Y748969D01*
X1746897D01*
X1751896D02*
X1756894D01*
X1754395D01*
Y758965D01*
X1751896D01*
X1766891D02*
X1771889D01*
X1774388Y756466D01*
Y748969D01*
X1766891D01*
X1764392Y751468D01*
X1766891Y753967D01*
X1774388D01*
X1779387Y748969D02*
X1784385D01*
X1781886D01*
Y763964D01*
X1779387D01*
X1791883Y748969D02*
X1799380D01*
X1801879Y751468D01*
X1799380Y753967D01*
X1794382D01*
X1791883Y756466D01*
X1794382Y758965D01*
X1801879D01*
X1824372Y748969D02*
X1829371D01*
X1831870Y751468D01*
Y756466D01*
X1829371Y758965D01*
X1824372D01*
X1821873Y756466D01*
Y751468D01*
X1824372Y748969D01*
X1836868D02*
Y758965D01*
X1844366D01*
X1846865Y756466D01*
Y748969D01*
X1869358Y761464D02*
Y758965D01*
X1866858D01*
X1871857D01*
X1869358D01*
Y751468D01*
X1871857Y748969D01*
X1879354Y763964D02*
Y748969D01*
Y756466D01*
X1881854Y758965D01*
X1886852D01*
X1889351Y756466D01*
Y748969D01*
X1901847D02*
X1896849D01*
X1894350Y751468D01*
Y756466D01*
X1896849Y758965D01*
X1901847D01*
X1904346Y756466D01*
Y753967D01*
X1894350D01*
X1924340Y743970D02*
Y758965D01*
X1931837D01*
X1934337Y756466D01*
Y751468D01*
X1931837Y748969D01*
X1924340D01*
X1941834Y758965D02*
X1946833D01*
X1949332Y756466D01*
Y748969D01*
X1941834D01*
X1939335Y751468D01*
X1941834Y753967D01*
X1949332D01*
X1954330Y748969D02*
Y758965D01*
X1961828D01*
X1964327Y756466D01*
Y748969D01*
X1976823D02*
X1971824D01*
X1969325Y751468D01*
Y756466D01*
X1971824Y758965D01*
X1976823D01*
X1979322Y756466D01*
Y753967D01*
X1969325D01*
X1984320Y748969D02*
X1989319D01*
X1986820D01*
Y763964D01*
X1984320D01*
X2011812Y748969D02*
X2019309D01*
X2021808Y751468D01*
X2019309Y753967D01*
X2014311D01*
X2011812Y756466D01*
X2014311Y758965D01*
X2021808D01*
X2029306Y761464D02*
Y758965D01*
X2026807D01*
X2031805D01*
X2029306D01*
Y751468D01*
X2031805Y748969D01*
X2039303Y758965D02*
Y748969D01*
Y753967D01*
X2041802Y756466D01*
X2044301Y758965D01*
X2046800D01*
X2054298Y748969D02*
X2059296D01*
X2056797D01*
Y758965D01*
X2054298D01*
X2066794Y743970D02*
Y758965D01*
X2074291D01*
X2076790Y756466D01*
Y751468D01*
X2074291Y748969D01*
X2066794D01*
X2081789D02*
X2089286D01*
X2091786Y751468D01*
X2089286Y753967D01*
X2084288D01*
X2081789Y756466D01*
X2084288Y758965D01*
X2091786D01*
X2114278D02*
X2119277D01*
X2121776Y756466D01*
Y748969D01*
X2114278D01*
X2111779Y751468D01*
X2114278Y753967D01*
X2121776D01*
X2126774Y748969D02*
X2134272D01*
X2136771Y751468D01*
X2134272Y753967D01*
X2129274D01*
X2126774Y756466D01*
X2129274Y758965D01*
X2136771D01*
X2159264Y748969D02*
Y761464D01*
Y756466D01*
X2156765D01*
X2161763D01*
X2159264D01*
Y761464D01*
X2161763Y763964D01*
X2171760Y748969D02*
X2176758D01*
X2179257Y751468D01*
Y756466D01*
X2176758Y758965D01*
X2171760D01*
X2169261Y756466D01*
Y751468D01*
X2171760Y748969D01*
X2184256D02*
X2189254D01*
X2186755D01*
Y763964D01*
X2184256D01*
X2196752Y748969D02*
X2201750D01*
X2199251D01*
Y763964D01*
X2196752D01*
X2211747Y748969D02*
X2216745D01*
X2219244Y751468D01*
Y756466D01*
X2216745Y758965D01*
X2211747D01*
X2209248Y756466D01*
Y751468D01*
X2211747Y748969D01*
X2224243Y758965D02*
Y751468D01*
X2226742Y748969D01*
X2229241Y751468D01*
X2231740Y748969D01*
X2234240Y751468D01*
Y758965D01*
X2239238Y748969D02*
X2246736D01*
X2249235Y751468D01*
X2246736Y753967D01*
X2241737D01*
X2239238Y756466D01*
X2241737Y758965D01*
X2249235D01*
X2254233D02*
X2256732D01*
Y756466D01*
X2254233D01*
Y758965D01*
Y751468D02*
X2256732D01*
Y748969D01*
X2254233D01*
Y751468D01*
X997140Y723874D02*
X1007137D01*
X1037127Y731371D02*
X1027130D01*
Y723874D01*
X1032129D01*
X1027130D01*
Y716376D01*
X1042125D02*
X1047124D01*
X1044625D01*
Y726373D01*
X1042125D01*
X1064618Y731371D02*
Y716376D01*
X1057121D01*
X1054621Y718875D01*
Y723874D01*
X1057121Y726373D01*
X1064618D01*
X1069616D02*
Y718875D01*
X1072116Y716376D01*
X1079613D01*
Y726373D01*
X1094608D02*
X1087111D01*
X1084612Y723874D01*
Y718875D01*
X1087111Y716376D01*
X1094608D01*
X1099607D02*
X1104605D01*
X1102106D01*
Y726373D01*
X1099607D01*
X1114602D02*
X1119600D01*
X1122100Y723874D01*
Y716376D01*
X1114602D01*
X1112103Y718875D01*
X1114602Y721374D01*
X1122100D01*
X1127098Y716376D02*
X1132096D01*
X1129597D01*
Y731371D01*
X1127098D01*
X1154589D02*
Y716376D01*
X1162087D01*
X1164586Y718875D01*
Y728872D01*
X1162087Y731371D01*
X1154589D01*
X1169584Y716376D02*
X1174583D01*
X1172083D01*
Y726373D01*
X1169584D01*
X1184579D02*
X1189578D01*
X1192077Y723874D01*
Y716376D01*
X1184579D01*
X1182080Y718875D01*
X1184579Y721374D01*
X1192077D01*
X1197075Y716376D02*
Y726373D01*
X1199575D01*
X1202074Y723874D01*
Y716376D01*
Y723874D01*
X1204573Y726373D01*
X1207072Y723874D01*
Y716376D01*
X1219568D02*
X1214570D01*
X1212070Y718875D01*
Y723874D01*
X1214570Y726373D01*
X1219568D01*
X1222067Y723874D01*
Y721374D01*
X1212070D01*
X1229565Y728872D02*
Y726373D01*
X1227066D01*
X1232064D01*
X1229565D01*
Y718875D01*
X1232064Y716376D01*
X1247059D02*
X1242061D01*
X1239561Y718875D01*
Y723874D01*
X1242061Y726373D01*
X1247059D01*
X1249558Y723874D01*
Y721374D01*
X1239561D01*
X1254557Y726373D02*
Y716376D01*
Y721374D01*
X1257056Y723874D01*
X1259555Y726373D01*
X1262054D01*
X1284547Y716376D02*
X1289545D01*
X1287046D01*
Y731371D01*
X1284547Y728872D01*
X1297043Y723874D02*
X1307040D01*
X1312038Y716376D02*
X1317036D01*
X1314537D01*
Y731371D01*
X1312038Y728872D01*
X1324534Y716376D02*
Y718875D01*
X1327033D01*
Y716376D01*
X1324534D01*
X1347027Y731371D02*
X1337030D01*
Y723874D01*
X1342028Y726373D01*
X1344528D01*
X1347027Y723874D01*
Y718875D01*
X1344528Y716376D01*
X1339529D01*
X1337030Y718875D01*
X1352025Y716376D02*
Y726373D01*
X1354524D01*
X1357023Y723874D01*
Y716376D01*
Y723874D01*
X1359523Y726373D01*
X1362022Y723874D01*
Y716376D01*
X1367020D02*
Y726373D01*
X1369520D01*
X1372019Y723874D01*
Y716376D01*
Y723874D01*
X1374518Y726373D01*
X1377017Y723874D01*
Y716376D01*
X1384515Y713877D02*
X1387014Y716376D01*
Y718875D01*
X1384515D01*
Y716376D01*
X1387014D01*
X1384515Y713877D01*
X1382015Y711378D01*
X1422003Y728872D02*
X1419503Y731371D01*
X1414505D01*
X1412006Y728872D01*
Y726373D01*
X1414505Y723874D01*
X1419503D01*
X1422003Y721374D01*
Y718875D01*
X1419503Y716376D01*
X1414505D01*
X1412006Y718875D01*
X1429500Y716376D02*
X1434498D01*
X1436998Y718875D01*
Y723874D01*
X1434498Y726373D01*
X1429500D01*
X1427001Y723874D01*
Y718875D01*
X1429500Y716376D01*
X1441996D02*
X1446994D01*
X1444495D01*
Y731371D01*
X1441996D01*
X1464489D02*
Y716376D01*
X1456991D01*
X1454492Y718875D01*
Y723874D01*
X1456991Y726373D01*
X1464489D01*
X1476985Y716376D02*
X1471986D01*
X1469487Y718875D01*
Y723874D01*
X1471986Y726373D01*
X1476985D01*
X1479484Y723874D01*
Y721374D01*
X1469487D01*
X1484482Y726373D02*
Y716376D01*
Y721374D01*
X1486981Y723874D01*
X1489481Y726373D01*
X1491980D01*
X1514473Y716376D02*
Y726373D01*
X1516972D01*
X1519471Y723874D01*
Y716376D01*
Y723874D01*
X1521970Y726373D01*
X1524469Y723874D01*
Y716376D01*
X1531967Y726373D02*
X1536965D01*
X1539464Y723874D01*
Y716376D01*
X1531967D01*
X1529468Y718875D01*
X1531967Y721374D01*
X1539464D01*
X1544463Y716376D02*
X1551960D01*
X1554460Y718875D01*
X1551960Y721374D01*
X1546962D01*
X1544463Y723874D01*
X1546962Y726373D01*
X1554460D01*
X1559458Y716376D02*
Y731371D01*
Y721374D02*
X1566956Y726373D01*
X1559458Y721374D02*
X1566956Y716376D01*
X1591947D02*
X1596946D01*
X1599445Y718875D01*
Y723874D01*
X1596946Y726373D01*
X1591947D01*
X1589448Y723874D01*
Y718875D01*
X1591947Y716376D01*
X1604443Y711378D02*
Y726373D01*
X1611941D01*
X1614440Y723874D01*
Y718875D01*
X1611941Y716376D01*
X1604443D01*
X1626936D02*
X1621938D01*
X1619438Y718875D01*
Y723874D01*
X1621938Y726373D01*
X1626936D01*
X1629435Y723874D01*
Y721374D01*
X1619438D01*
X1634434Y716376D02*
Y726373D01*
X1641931D01*
X1644430Y723874D01*
Y716376D01*
X1649429D02*
X1654427D01*
X1651928D01*
Y726373D01*
X1649429D01*
X1661925Y716376D02*
Y726373D01*
X1669422D01*
X1671922Y723874D01*
Y716376D01*
X1681918Y711378D02*
X1684418D01*
X1686917Y713877D01*
Y726373D01*
X1679419D01*
X1676920Y723874D01*
Y718875D01*
X1679419Y716376D01*
X1686917D01*
X1709409Y726373D02*
X1714408D01*
X1716907Y723874D01*
Y716376D01*
X1709409D01*
X1706910Y718875D01*
X1709409Y721374D01*
X1716907D01*
X1724405Y728872D02*
Y726373D01*
X1721905D01*
X1726904D01*
X1724405D01*
Y718875D01*
X1726904Y716376D01*
X1749397D02*
X1754395D01*
X1751896D01*
Y731371D01*
X1749397D01*
X1769390Y716376D02*
X1764392D01*
X1761892Y718875D01*
Y723874D01*
X1764392Y726373D01*
X1769390D01*
X1771889Y723874D01*
Y721374D01*
X1761892D01*
X1779387Y726373D02*
X1784385D01*
X1786884Y723874D01*
Y716376D01*
X1779387D01*
X1776888Y718875D01*
X1779387Y721374D01*
X1786884D01*
X1791883Y716376D02*
X1799380D01*
X1801879Y718875D01*
X1799380Y721374D01*
X1794382D01*
X1791883Y723874D01*
X1794382Y726373D01*
X1801879D01*
X1809377Y728872D02*
Y726373D01*
X1806878D01*
X1811876D01*
X1809377D01*
Y718875D01*
X1811876Y716376D01*
X1834369D02*
X1839367D01*
X1836868D01*
Y731371D01*
X1834369Y728872D01*
X1846865Y716376D02*
Y726373D01*
X1849364D01*
X1851863Y723874D01*
Y716376D01*
Y723874D01*
X1854362Y726373D01*
X1856862Y723874D01*
Y716376D01*
X1861860D02*
Y726373D01*
X1864359D01*
X1866859Y723874D01*
Y716376D01*
Y723874D01*
X1869358Y726373D01*
X1871857Y723874D01*
Y716376D01*
X1896849Y711378D02*
X1899348D01*
X1901847Y713877D01*
Y726373D01*
X1894350D01*
X1891850Y723874D01*
Y718875D01*
X1894350Y716376D01*
X1901847D01*
X1906846Y726373D02*
Y716376D01*
Y721374D01*
X1909345Y723874D01*
X1911844Y726373D01*
X1914343D01*
X1929338Y716376D02*
X1924340D01*
X1921841Y718875D01*
Y723874D01*
X1924340Y726373D01*
X1929338D01*
X1931837Y723874D01*
Y721374D01*
X1921841D01*
X1939335Y726373D02*
X1944333D01*
X1946833Y723874D01*
Y716376D01*
X1939335D01*
X1936836Y718875D01*
X1939335Y721374D01*
X1946833D01*
X1954330Y728872D02*
Y726373D01*
X1951831D01*
X1956829D01*
X1954330D01*
Y718875D01*
X1956829Y716376D01*
X1971824D02*
X1966826D01*
X1964327Y718875D01*
Y723874D01*
X1966826Y726373D01*
X1971824D01*
X1974324Y723874D01*
Y721374D01*
X1964327D01*
X1979322Y726373D02*
Y716376D01*
Y721374D01*
X1981821Y723874D01*
X1984320Y726373D01*
X1986820D01*
X2011812Y728872D02*
Y726373D01*
X2009312D01*
X2014311D01*
X2011812D01*
Y718875D01*
X2014311Y716376D01*
X2021808Y731371D02*
Y716376D01*
Y723874D01*
X2024308Y726373D01*
X2029306D01*
X2031805Y723874D01*
Y716376D01*
X2039303Y726373D02*
X2044301D01*
X2046800Y723874D01*
Y716376D01*
X2039303D01*
X2036803Y718875D01*
X2039303Y721374D01*
X2046800D01*
X2051799Y716376D02*
Y726373D01*
X2059296D01*
X2061795Y723874D01*
Y716376D01*
X2084288D02*
Y728872D01*
Y723874D01*
X2081789D01*
X2086787D01*
X2084288D01*
Y728872D01*
X2086787Y731371D01*
X2094285Y716376D02*
X2099283D01*
X2096784D01*
Y726373D01*
X2094285D01*
X2116778Y731371D02*
Y716376D01*
X2109280D01*
X2106781Y718875D01*
Y723874D01*
X2109280Y726373D01*
X2116778D01*
X2121776D02*
Y718875D01*
X2124275Y716376D01*
X2131773D01*
Y726373D01*
X2146768D02*
X2139270D01*
X2136771Y723874D01*
Y718875D01*
X2139270Y716376D01*
X2146768D01*
X2151766D02*
X2156765D01*
X2154265D01*
Y726373D01*
X2151766D01*
X2166761D02*
X2171760D01*
X2174259Y723874D01*
Y716376D01*
X2166761D01*
X2164262Y718875D01*
X2166761Y721374D01*
X2174259D01*
X2179257Y716376D02*
X2184256D01*
X2181756D01*
Y731371D01*
X2179257D01*
X2191753Y716376D02*
Y718875D01*
X2194252D01*
Y716376D01*
X2191753D01*
X997140Y691281D02*
X1007137D01*
X1027130Y683783D02*
Y698779D01*
X1032129Y693780D01*
X1037127Y698779D01*
Y683783D01*
X1042125D02*
X1047124D01*
X1044625D01*
Y693780D01*
X1042125D01*
X1054621Y683783D02*
Y693780D01*
X1062119D01*
X1064618Y691281D01*
Y683783D01*
X1069616D02*
X1074615D01*
X1072116D01*
Y693780D01*
X1069616D01*
X1082113Y683783D02*
Y693780D01*
X1084612D01*
X1087111Y691281D01*
Y683783D01*
Y691281D01*
X1089610Y693780D01*
X1092109Y691281D01*
Y683783D01*
X1097108D02*
X1102106D01*
X1099607D01*
Y693780D01*
X1097108D01*
X1109604D02*
Y686283D01*
X1112103Y683783D01*
X1119600D01*
Y693780D01*
X1124599Y683783D02*
Y693780D01*
X1127098D01*
X1129597Y691281D01*
Y683783D01*
Y691281D01*
X1132096Y693780D01*
X1134595Y691281D01*
Y683783D01*
X1162087D02*
Y698779D01*
X1154589Y691281D01*
X1164586D01*
X1169584Y683783D02*
Y693780D01*
X1172083D01*
X1174583Y691281D01*
Y683783D01*
Y691281D01*
X1177082Y693780D01*
X1179581Y691281D01*
Y683783D01*
X1184579D02*
Y693780D01*
X1187078D01*
X1189578Y691281D01*
Y683783D01*
Y691281D01*
X1192077Y693780D01*
X1194576Y691281D01*
Y683783D01*
X1214570Y698779D02*
Y683783D01*
X1222067D01*
X1224566Y686283D01*
Y696279D01*
X1222067Y698779D01*
X1214570D01*
X1229565Y683783D02*
X1234563D01*
X1232064D01*
Y693780D01*
X1229565D01*
X1242061Y683783D02*
X1249558D01*
X1252057Y686283D01*
X1249558Y688782D01*
X1244560D01*
X1242061Y691281D01*
X1244560Y693780D01*
X1252057D01*
X1259555Y696279D02*
Y693780D01*
X1257056D01*
X1262054D01*
X1259555D01*
Y686283D01*
X1262054Y683783D01*
X1272051Y693780D02*
X1277049D01*
X1279549Y691281D01*
Y683783D01*
X1272051D01*
X1269552Y686283D01*
X1272051Y688782D01*
X1279549D01*
X1284547Y683783D02*
Y693780D01*
X1292045D01*
X1294544Y691281D01*
Y683783D01*
X1309539Y693780D02*
X1302041D01*
X1299542Y691281D01*
Y686283D01*
X1302041Y683783D01*
X1309539D01*
X1322035D02*
X1317036D01*
X1314537Y686283D01*
Y691281D01*
X1317036Y693780D01*
X1322035D01*
X1324534Y691281D01*
Y688782D01*
X1314537D01*
X1347027Y683783D02*
Y696279D01*
Y691281D01*
X1344527D01*
X1349526D01*
X1347027D01*
Y696279D01*
X1349526Y698779D01*
X1357023Y693780D02*
Y683783D01*
Y688782D01*
X1359523Y691281D01*
X1362022Y693780D01*
X1364521D01*
X1374518Y683783D02*
X1379516D01*
X1382015Y686283D01*
Y691281D01*
X1379516Y693780D01*
X1374518D01*
X1372019Y691281D01*
Y686283D01*
X1374518Y683783D01*
X1387014D02*
Y693780D01*
X1389513D01*
X1392012Y691281D01*
Y683783D01*
Y691281D01*
X1394511Y693780D01*
X1397010Y691281D01*
Y683783D01*
X1419503Y696279D02*
Y693780D01*
X1417004D01*
X1422003D01*
X1419503D01*
Y686283D01*
X1422003Y683783D01*
X1429500Y698779D02*
Y683783D01*
Y691281D01*
X1431999Y693780D01*
X1436998D01*
X1439497Y691281D01*
Y683783D01*
X1451993D02*
X1446994D01*
X1444495Y686283D01*
Y691281D01*
X1446994Y693780D01*
X1451993D01*
X1454492Y691281D01*
Y688782D01*
X1444495D01*
X1474485Y678785D02*
Y693780D01*
X1481983D01*
X1484482Y691281D01*
Y686283D01*
X1481983Y683783D01*
X1474485D01*
X1491980Y693780D02*
X1496978D01*
X1499477Y691281D01*
Y683783D01*
X1491980D01*
X1489481Y686283D01*
X1491980Y688782D01*
X1499477D01*
X1504476Y683783D02*
Y693780D01*
X1511973D01*
X1514473Y691281D01*
Y683783D01*
X1526969D02*
X1521970D01*
X1519471Y686283D01*
Y691281D01*
X1521970Y693780D01*
X1526969D01*
X1529468Y691281D01*
Y688782D01*
X1519471D01*
X1534466Y683783D02*
X1539464D01*
X1536965D01*
Y698779D01*
X1534466D01*
X1569455Y683783D02*
X1564456D01*
X1561957Y686283D01*
Y691281D01*
X1564456Y693780D01*
X1569455D01*
X1571954Y691281D01*
Y688782D01*
X1561957D01*
X1586949Y698779D02*
Y683783D01*
X1579451D01*
X1576952Y686283D01*
Y691281D01*
X1579451Y693780D01*
X1586949D01*
X1596946Y678785D02*
X1599445D01*
X1601944Y681284D01*
Y693780D01*
X1594447D01*
X1591947Y691281D01*
Y686283D01*
X1594447Y683783D01*
X1601944D01*
X1614440D02*
X1609442D01*
X1606943Y686283D01*
Y691281D01*
X1609442Y693780D01*
X1614440D01*
X1616939Y691281D01*
Y688782D01*
X1606943D01*
X1621938Y683783D02*
Y686283D01*
X1624437D01*
Y683783D01*
X1621938D01*
X997140Y658689D02*
X1007137D01*
X1027130Y663687D02*
X1029630Y666186D01*
X1034628D01*
X1037127Y663687D01*
Y661188D01*
X1034628Y658689D01*
X1032129D01*
X1034628D01*
X1037127Y656189D01*
Y653690D01*
X1034628Y651191D01*
X1029630D01*
X1027130Y653690D01*
X1067117Y666186D02*
X1057121D01*
Y658689D01*
X1062119D01*
X1057121D01*
Y651191D01*
X1072116D02*
X1077114D01*
X1074615D01*
Y661188D01*
X1072116D01*
X1094608Y666186D02*
Y651191D01*
X1087111D01*
X1084612Y653690D01*
Y658689D01*
X1087111Y661188D01*
X1094608D01*
X1099607D02*
Y653690D01*
X1102106Y651191D01*
X1109604D01*
Y661188D01*
X1124599D02*
X1117101D01*
X1114602Y658689D01*
Y653690D01*
X1117101Y651191D01*
X1124599D01*
X1129597D02*
X1134595D01*
X1132096D01*
Y661188D01*
X1129597D01*
X1144592D02*
X1149591D01*
X1152090Y658689D01*
Y651191D01*
X1144592D01*
X1142093Y653690D01*
X1144592Y656189D01*
X1152090D01*
X1157088Y651191D02*
X1162087D01*
X1159587D01*
Y666186D01*
X1157088D01*
X1169584Y651191D02*
X1177082D01*
X1179581Y653690D01*
X1177082Y656189D01*
X1172083D01*
X1169584Y658689D01*
X1172083Y661188D01*
X1179581D01*
X1199575Y651191D02*
X1207072D01*
X1209571Y653690D01*
X1207072Y656189D01*
X1202074D01*
X1199575Y658689D01*
X1202074Y661188D01*
X1209571D01*
X1214570Y666186D02*
Y651191D01*
Y658689D01*
X1217069Y661188D01*
X1222067D01*
X1224566Y658689D01*
Y651191D01*
X1232064D02*
X1237062D01*
X1239561Y653690D01*
Y658689D01*
X1237062Y661188D01*
X1232064D01*
X1229565Y658689D01*
Y653690D01*
X1232064Y651191D01*
X1244560Y661188D02*
Y653690D01*
X1247059Y651191D01*
X1254557D01*
Y661188D01*
X1259555Y651191D02*
X1264553D01*
X1262054D01*
Y666186D01*
X1259555D01*
X1282048D02*
Y651191D01*
X1274550D01*
X1272051Y653690D01*
Y658689D01*
X1274550Y661188D01*
X1282048D01*
X1302041Y651191D02*
X1307040D01*
X1304541D01*
Y666186D01*
X1302041D01*
X1314537Y651191D02*
X1319536D01*
X1317036D01*
Y661188D01*
X1314537D01*
X1334531Y651191D02*
X1329532D01*
X1327033Y653690D01*
Y658689D01*
X1329532Y661188D01*
X1334531D01*
X1337030Y658689D01*
Y656189D01*
X1327033D01*
X1359523Y651191D02*
X1364521D01*
X1367020Y653690D01*
Y658689D01*
X1364521Y661188D01*
X1359523D01*
X1357023Y658689D01*
Y653690D01*
X1359523Y651191D01*
X1372019D02*
Y661188D01*
X1379516D01*
X1382015Y658689D01*
Y651191D01*
X1404508Y663687D02*
Y661188D01*
X1402009D01*
X1407007D01*
X1404508D01*
Y653690D01*
X1407007Y651191D01*
X1414505Y666186D02*
Y651191D01*
Y658689D01*
X1417004Y661188D01*
X1422003D01*
X1424502Y658689D01*
Y651191D01*
X1436998D02*
X1431999D01*
X1429500Y653690D01*
Y658689D01*
X1431999Y661188D01*
X1436998D01*
X1439497Y658689D01*
Y656189D01*
X1429500D01*
X1459490Y651191D02*
X1464489D01*
X1461989D01*
Y666186D01*
X1459490D01*
X1471986Y651191D02*
X1476985D01*
X1474485D01*
Y661188D01*
X1471986D01*
X1484482Y651191D02*
Y661188D01*
X1491980D01*
X1494479Y658689D01*
Y651191D01*
X1506975D02*
X1501977D01*
X1499477Y653690D01*
Y658689D01*
X1501977Y661188D01*
X1506975D01*
X1509474Y658689D01*
Y656189D01*
X1499477D01*
X1514473Y651191D02*
X1521970D01*
X1524469Y653690D01*
X1521970Y656189D01*
X1516972D01*
X1514473Y658689D01*
X1516972Y661188D01*
X1524469D01*
X1546962Y663687D02*
Y661188D01*
X1544463D01*
X1549461D01*
X1546962D01*
Y653690D01*
X1549461Y651191D01*
X1556959Y666186D02*
Y651191D01*
Y658689D01*
X1559458Y661188D01*
X1564456D01*
X1566956Y658689D01*
Y651191D01*
X1574453Y661188D02*
X1579451D01*
X1581951Y658689D01*
Y651191D01*
X1574453D01*
X1571954Y653690D01*
X1574453Y656189D01*
X1581951D01*
X1589448Y663687D02*
Y661188D01*
X1586949D01*
X1591947D01*
X1589448D01*
Y653690D01*
X1591947Y651191D01*
X1614440D02*
X1619439D01*
X1616939D01*
Y661188D01*
X1614440D01*
X1626936Y651191D02*
Y661188D01*
X1634434D01*
X1636933Y658689D01*
Y651191D01*
X1644431Y663687D02*
Y661188D01*
X1641931D01*
X1646930D01*
X1644431D01*
Y653690D01*
X1646930Y651191D01*
X1661925D02*
X1656926D01*
X1654427Y653690D01*
Y658689D01*
X1656926Y661188D01*
X1661925D01*
X1664424Y658689D01*
Y656189D01*
X1654427D01*
X1669422Y661188D02*
Y651191D01*
Y656189D01*
X1671922Y658689D01*
X1674421Y661188D01*
X1676920D01*
X1684418Y651191D02*
X1691915D01*
X1694414Y653690D01*
X1691915Y656189D01*
X1686917D01*
X1684418Y658689D01*
X1686917Y661188D01*
X1694414D01*
X1706910Y651191D02*
X1701912D01*
X1699413Y653690D01*
Y658689D01*
X1701912Y661188D01*
X1706910D01*
X1709409Y658689D01*
Y656189D01*
X1699413D01*
X1724405Y661188D02*
X1716907D01*
X1714408Y658689D01*
Y653690D01*
X1716907Y651191D01*
X1724405D01*
X1731902Y663687D02*
Y661188D01*
X1729403D01*
X1734401D01*
X1731902D01*
Y653690D01*
X1734401Y651191D01*
X1759393Y661188D02*
X1764392D01*
X1766891Y658689D01*
Y651191D01*
X1759393D01*
X1756894Y653690D01*
X1759393Y656189D01*
X1766891D01*
X1774388Y663687D02*
Y661188D01*
X1771889D01*
X1776888D01*
X1774388D01*
Y653690D01*
X1776888Y651191D01*
X1801879Y661188D02*
X1806878D01*
X1809377Y658689D01*
Y651191D01*
X1801879D01*
X1799380Y653690D01*
X1801879Y656189D01*
X1809377D01*
X1829371Y661188D02*
Y651191D01*
Y656189D01*
X1831870Y658689D01*
X1834369Y661188D01*
X1836868D01*
X1844366Y651191D02*
X1849364D01*
X1846865D01*
Y661188D01*
X1844366D01*
X1861860Y646192D02*
X1864359D01*
X1866859Y648692D01*
Y661188D01*
X1859361D01*
X1856862Y658689D01*
Y653690D01*
X1859361Y651191D01*
X1866859D01*
X1871857Y666186D02*
Y651191D01*
Y658689D01*
X1874356Y661188D01*
X1879354D01*
X1881854Y658689D01*
Y651191D01*
X1889351Y663687D02*
Y661188D01*
X1886852D01*
X1891850D01*
X1889351D01*
Y653690D01*
X1891850Y651191D01*
X1916842Y661188D02*
X1921841D01*
X1924340Y658689D01*
Y651191D01*
X1916842D01*
X1914343Y653690D01*
X1916842Y656189D01*
X1924340D01*
X1929338Y651191D02*
Y661188D01*
X1936836D01*
X1939335Y658689D01*
Y651191D01*
X1949332Y646192D02*
X1951831D01*
X1954330Y648692D01*
Y661188D01*
X1946833D01*
X1944333Y658689D01*
Y653690D01*
X1946833Y651191D01*
X1954330D01*
X1959328D02*
X1964327D01*
X1961828D01*
Y666186D01*
X1959328D01*
X1979322Y651191D02*
X1974324D01*
X1971824Y653690D01*
Y658689D01*
X1974324Y661188D01*
X1979322D01*
X1981821Y658689D01*
Y656189D01*
X1971824D01*
X997140Y626096D02*
X1007137D01*
X1027130Y618598D02*
Y633593D01*
X1034628D01*
X1037127Y631094D01*
Y626096D01*
X1034628Y623597D01*
X1027130D01*
X1042125Y618598D02*
X1047124D01*
X1044625D01*
Y633593D01*
X1042125D01*
X1057121Y628595D02*
X1062119D01*
X1064618Y626096D01*
Y618598D01*
X1057121D01*
X1054621Y621098D01*
X1057121Y623597D01*
X1064618D01*
X1079613Y628595D02*
X1072116D01*
X1069616Y626096D01*
Y621098D01*
X1072116Y618598D01*
X1079613D01*
X1092109D02*
X1087111D01*
X1084612Y621098D01*
Y626096D01*
X1087111Y628595D01*
X1092109D01*
X1094608Y626096D01*
Y623597D01*
X1084612D01*
X1117101Y618598D02*
X1122100D01*
X1124599Y621098D01*
Y626096D01*
X1122100Y628595D01*
X1117101D01*
X1114602Y626096D01*
Y621098D01*
X1117101Y618598D01*
X1129597D02*
Y628595D01*
X1137095D01*
X1139594Y626096D01*
Y618598D01*
X1152090D02*
X1147091D01*
X1144592Y621098D01*
Y626096D01*
X1147091Y628595D01*
X1152090D01*
X1154589Y626096D01*
Y623597D01*
X1144592D01*
X1177082Y618598D02*
Y631094D01*
Y626096D01*
X1174583D01*
X1179581D01*
X1177082D01*
Y631094D01*
X1179581Y633593D01*
X1187078Y618598D02*
X1192077D01*
X1189578D01*
Y628595D01*
X1187078D01*
X1209571Y633593D02*
Y618598D01*
X1202074D01*
X1199575Y621098D01*
Y626096D01*
X1202074Y628595D01*
X1209571D01*
X1214570D02*
Y621098D01*
X1217069Y618598D01*
X1224566D01*
Y628595D01*
X1239561D02*
X1232064D01*
X1229565Y626096D01*
Y621098D01*
X1232064Y618598D01*
X1239561D01*
X1244560D02*
X1249558D01*
X1247059D01*
Y628595D01*
X1244560D01*
X1259555D02*
X1264553D01*
X1267053Y626096D01*
Y618598D01*
X1259555D01*
X1257056Y621098D01*
X1259555Y623597D01*
X1267053D01*
X1272051Y618598D02*
X1277049D01*
X1274550D01*
Y633593D01*
X1272051D01*
X1299542Y618598D02*
X1304541D01*
X1302041D01*
Y628595D01*
X1299542D01*
X1312038Y618598D02*
Y628595D01*
X1319536D01*
X1322035Y626096D01*
Y618598D01*
X1329532Y631094D02*
Y628595D01*
X1327033D01*
X1332032D01*
X1329532D01*
Y621098D01*
X1332032Y618598D01*
X1342028D02*
X1347027D01*
X1349526Y621098D01*
Y626096D01*
X1347027Y628595D01*
X1342028D01*
X1339529Y626096D01*
Y621098D01*
X1342028Y618598D01*
X1377017D02*
X1372019D01*
X1369520Y621098D01*
Y626096D01*
X1372019Y628595D01*
X1377017D01*
X1379516Y626096D01*
Y623597D01*
X1369520D01*
X1387014Y628595D02*
X1392012D01*
X1394511Y626096D01*
Y618598D01*
X1387014D01*
X1384515Y621098D01*
X1387014Y623597D01*
X1394511D01*
X1409507Y628595D02*
X1402009D01*
X1399510Y626096D01*
Y621098D01*
X1402009Y618598D01*
X1409507D01*
X1414505Y633593D02*
Y618598D01*
Y626096D01*
X1417004Y628595D01*
X1422003D01*
X1424502Y626096D01*
Y618598D01*
X1444495Y613600D02*
Y628595D01*
X1451993D01*
X1454492Y626096D01*
Y621098D01*
X1451993Y618598D01*
X1444495D01*
X1461989Y628595D02*
X1466988D01*
X1469487Y626096D01*
Y618598D01*
X1461989D01*
X1459490Y621098D01*
X1461989Y623597D01*
X1469487D01*
X1474485Y618598D02*
Y628595D01*
X1481983D01*
X1484482Y626096D01*
Y618598D01*
X1496978D02*
X1491980D01*
X1489481Y621098D01*
Y626096D01*
X1491980Y628595D01*
X1496978D01*
X1499477Y626096D01*
Y623597D01*
X1489481D01*
X1504476Y618598D02*
X1509474D01*
X1506975D01*
Y633593D01*
X1504476D01*
X1541964Y628595D02*
X1534466D01*
X1531967Y626096D01*
Y621098D01*
X1534466Y618598D01*
X1541964D01*
X1549461D02*
X1554460D01*
X1556959Y621098D01*
Y626096D01*
X1554460Y628595D01*
X1549461D01*
X1546962Y626096D01*
Y621098D01*
X1549461Y618598D01*
X1561957Y628595D02*
Y618598D01*
Y623597D01*
X1564456Y626096D01*
X1566956Y628595D01*
X1569455D01*
X1576952Y618598D02*
Y628595D01*
X1584450D01*
X1586949Y626096D01*
Y618598D01*
X1599445D02*
X1594447D01*
X1591947Y621098D01*
Y626096D01*
X1594447Y628595D01*
X1599445D01*
X1601944Y626096D01*
Y623597D01*
X1591947D01*
X1606943Y628595D02*
Y618598D01*
Y623597D01*
X1609442Y626096D01*
X1611941Y628595D01*
X1614440D01*
X1641931Y618598D02*
X1636933Y623597D01*
Y628595D01*
X1641931Y633593D01*
X1659426D02*
X1649429D01*
Y626096D01*
X1654427D01*
X1649429D01*
Y618598D01*
X1666923D02*
X1671922D01*
X1674421Y621098D01*
Y626096D01*
X1671922Y628595D01*
X1666923D01*
X1664424Y626096D01*
Y621098D01*
X1666923Y618598D01*
X1679419Y628595D02*
Y621098D01*
X1681918Y618598D01*
X1689416D01*
Y628595D01*
X1694414D02*
Y618598D01*
Y623597D01*
X1696913Y626096D01*
X1699413Y628595D01*
X1701912D01*
X1726904Y618598D02*
X1731902D01*
X1734401Y621098D01*
Y626096D01*
X1731902Y628595D01*
X1726904D01*
X1724405Y626096D01*
Y621098D01*
X1726904Y618598D01*
X1739400D02*
Y628595D01*
X1746897D01*
X1749397Y626096D01*
Y618598D01*
X1771889Y631094D02*
Y628595D01*
X1769390D01*
X1774388D01*
X1771889D01*
Y621098D01*
X1774388Y618598D01*
X1781886Y633593D02*
Y618598D01*
Y626096D01*
X1784385Y628595D01*
X1789384D01*
X1791883Y626096D01*
Y618598D01*
X1804379D02*
X1799380D01*
X1796881Y621098D01*
Y626096D01*
X1799380Y628595D01*
X1804379D01*
X1806878Y626096D01*
Y623597D01*
X1796881D01*
X1829371Y631094D02*
Y628595D01*
X1826871D01*
X1831870D01*
X1829371D01*
Y621098D01*
X1831870Y618598D01*
X1841866D02*
X1846865D01*
X1849364Y621098D01*
Y626096D01*
X1846865Y628595D01*
X1841866D01*
X1839367Y626096D01*
Y621098D01*
X1841866Y618598D01*
X1854362Y613600D02*
Y628595D01*
X1861860D01*
X1864359Y626096D01*
Y621098D01*
X1861860Y618598D01*
X1854362D01*
X1884353D02*
X1889351D01*
X1886852D01*
Y633593D01*
X1884353D01*
X1899348Y628595D02*
X1904346D01*
X1906846Y626096D01*
Y618598D01*
X1899348D01*
X1896849Y621098D01*
X1899348Y623597D01*
X1906846D01*
X1911844Y628595D02*
Y621098D01*
X1914343Y618598D01*
X1921841D01*
Y616099D01*
X1919341Y613600D01*
X1916842D01*
X1921841Y618598D02*
Y628595D01*
X1934337Y618598D02*
X1929338D01*
X1926839Y621098D01*
Y626096D01*
X1929338Y628595D01*
X1934337D01*
X1936836Y626096D01*
Y623597D01*
X1926839D01*
X1941834Y628595D02*
Y618598D01*
Y623597D01*
X1944333Y626096D01*
X1946833Y628595D01*
X1949332D01*
X1956829Y618598D02*
X1961828Y623597D01*
Y628595D01*
X1956829Y633593D01*
M02*
