G04*
G04 #@! TF.GenerationSoftware,Altium Limited,Altium Designer,22.5.1 (42)*
G04*
G04 Layer_Color=16711833*
%FSLAX44Y44*%
%MOMM*%
G71*
G04*
G04 #@! TF.SameCoordinates,41AE30FE-043A-47DD-A292-25B9FDFD75C8*
G04*
G04*
G04 #@! TF.FilePolarity,Positive*
G04*
G01*
G75*
%ADD11C,0.2540*%
%ADD12C,0.4000*%
%ADD69C,0.3000*%
%ADD86C,1.0160*%
%ADD87C,0.2540*%
%ADD88C,0.1524*%
D11*
X-177800Y81000D02*
X607460D01*
X-177800Y0D02*
X-7620D01*
X-175260D02*
Y81000D01*
X-180340Y65760D02*
X-175260Y81000D01*
X-170180Y65760D01*
X-175260Y0D02*
X-170180Y15240D01*
X-180340D02*
X-175260Y0D01*
X-281940Y355600D02*
X607460D01*
X-281940Y0D02*
X-7620D01*
X-279400Y226044D02*
Y355600D01*
Y0D02*
Y121428D01*
X-284480Y340360D02*
X-279400Y355600D01*
X-274320Y340360D01*
X-279400Y0D02*
X-274320Y15240D01*
X-284480D02*
X-279400Y0D01*
X-441960Y469000D02*
X648460D01*
X-441960Y0D02*
X-7620D01*
X-439420Y282744D02*
Y469000D01*
Y0D02*
Y178128D01*
X-444500Y453760D02*
X-439420Y469000D01*
X-434340Y453760D01*
X-439420Y0D02*
X-434340Y15240D01*
X-444500D02*
X-439420Y0D01*
X-500380Y506000D02*
X111460D01*
X-500380Y0D02*
X-7620D01*
X-497840Y299975D02*
Y506000D01*
Y0D02*
Y197897D01*
X-502920Y490760D02*
X-497840Y506000D01*
X-492760Y490760D01*
X-497840Y0D02*
X-492760Y15240D01*
X-502920D02*
X-497840Y0D01*
X-398780Y460300D02*
X13360D01*
X-398780Y0D02*
X-7620D01*
X-396240Y274586D02*
Y460300D01*
Y0D02*
Y177586D01*
X-401320Y445060D02*
X-396240Y460300D01*
X-391160Y445060D01*
X-396240Y0D02*
X-391160Y15240D01*
X-401320D02*
X-396240Y0D01*
X-363220Y387300D02*
X13360D01*
X-363220Y0D02*
X-7620D01*
X-360680Y241894D02*
Y387300D01*
Y0D02*
Y137278D01*
X-365760Y372060D02*
X-360680Y387300D01*
X-355600Y372060D01*
X-360680Y0D02*
X-355600Y15240D01*
X-365760D02*
X-360680Y0D01*
X-325120Y360000D02*
X38760D01*
X-325120Y0D02*
X-7620D01*
X-322580Y226975D02*
Y360000D01*
Y0D02*
Y124897D01*
X-327660Y344760D02*
X-322580Y360000D01*
X-317500Y344760D01*
X-322580Y0D02*
X-317500Y15240D01*
X-327660D02*
X-322580Y0D01*
X-248920Y234000D02*
X8455D01*
X-248920Y0D02*
X-7620D01*
X-246380Y157627D02*
Y234000D01*
Y0D02*
Y68245D01*
X-251460Y218760D02*
X-246380Y234000D01*
X-241300Y218760D01*
X-246380Y0D02*
X-241300Y15240D01*
X-251460D02*
X-246380Y0D01*
X-213360Y168000D02*
X8455D01*
X-213360Y0D02*
X-7620D01*
X-210820Y124627D02*
Y168000D01*
Y0D02*
Y35245D01*
X-215900Y152760D02*
X-210820Y168000D01*
X-205740Y152760D01*
X-210820Y0D02*
X-205740Y15240D01*
X-215900D02*
X-210820Y0D01*
X-134620Y26000D02*
X150000D01*
X-134620Y0D02*
X-7620D01*
X-132080Y-25400D02*
Y0D01*
Y26000D02*
Y51400D01*
X-137160Y-15240D02*
X-132080Y0D01*
X-127000Y-15240D01*
X-132080Y26000D02*
X-127000Y41240D01*
X-137160D02*
X-132080Y26000D01*
X0Y-388620D02*
Y525780D01*
X648000Y-388620D02*
Y315060D01*
X0Y-386080D02*
X268897D01*
X370975D02*
X648000D01*
X0D02*
X15240Y-391160D01*
X0Y-386080D02*
X15240Y-381000D01*
X632760D02*
X648000Y-386080D01*
X632760Y-391160D02*
X648000Y-386080D01*
X132080Y-111760D02*
Y482600D01*
X0Y-111760D02*
Y525780D01*
X107936Y-109220D02*
X132080D01*
X0D02*
X16015D01*
X116840Y-104140D02*
X132080Y-109220D01*
X116840Y-114300D02*
X132080Y-109220D01*
X0D02*
X15240Y-114300D01*
X0Y-109220D02*
X15240Y-104140D01*
X635000Y-347980D02*
Y508000D01*
X0Y-347980D02*
Y525780D01*
X367014Y-345440D02*
X635000D01*
X0D02*
X259858D01*
X619760Y-340360D02*
X635000Y-345440D01*
X619760Y-350520D02*
X635000Y-345440D01*
X0D02*
X15240Y-350520D01*
X0Y-345440D02*
X15240Y-340360D01*
X416560Y-264160D02*
Y-10160D01*
X0Y-264160D02*
Y525780D01*
X256524Y-261620D02*
X416560D01*
X0D02*
X151908D01*
X401320Y-256540D02*
X416560Y-261620D01*
X401320Y-266700D02*
X416560Y-261620D01*
X0D02*
X15240Y-266700D01*
X0Y-261620D02*
X15240Y-256540D01*
X508000Y-307340D02*
Y-10160D01*
X0Y-307340D02*
Y-7620D01*
X303514Y-304800D02*
X508000D01*
X0D02*
X196358D01*
X492760Y-299720D02*
X508000Y-304800D01*
X492760Y-309880D02*
X508000Y-304800D01*
X0D02*
X15240Y-309880D01*
X0Y-304800D02*
X15240Y-299720D01*
X279400Y-226060D02*
Y-7620D01*
X0Y-226060D02*
Y-7620D01*
X186675Y-223520D02*
X279400D01*
X0D02*
X84597D01*
X264160Y-218440D02*
X279400Y-223520D01*
X264160Y-228600D02*
X279400Y-223520D01*
X0D02*
X15240Y-228600D01*
X0Y-223520D02*
X15240Y-218440D01*
X170180Y-187960D02*
Y-10160D01*
X0Y-187960D02*
Y-7620D01*
X126986Y-185420D02*
X170180D01*
X0D02*
X35066D01*
X154940Y-180340D02*
X170180Y-185420D01*
X154940Y-190500D02*
X170180Y-185420D01*
X0D02*
X15240Y-190500D01*
X0Y-185420D02*
X15240Y-180340D01*
X149860Y-149860D02*
Y-12700D01*
X0Y-149860D02*
Y-7620D01*
X116826Y-147320D02*
X149860D01*
X0D02*
X24906D01*
X134620Y-142240D02*
X149860Y-147320D01*
X134620Y-152400D02*
X149860Y-147320D01*
X0D02*
X15240Y-152400D01*
X0Y-147320D02*
X15240Y-142240D01*
X25400Y-76200D02*
Y-7620D01*
X0Y-76200D02*
Y-7620D01*
X-25400Y-73660D02*
X0D01*
X25400D02*
X50800D01*
X-15240Y-68580D02*
X0Y-73660D01*
X-15240Y-78740D02*
X0Y-73660D01*
X25400D02*
X40640Y-78740D01*
X25400Y-73660D02*
X40640Y-68580D01*
X20320Y-27940D02*
Y-7620D01*
X0Y-27940D02*
Y-7620D01*
X-25400Y-25400D02*
X0D01*
X20320D02*
X45720D01*
X-15240Y-20320D02*
X0Y-25400D01*
X-15240Y-30480D02*
X0Y-25400D01*
X20320D02*
X35560Y-30480D01*
X20320Y-25400D02*
X35560Y-20320D01*
X685800Y-436880D02*
Y-7620D01*
X0Y-436880D02*
Y-7620D01*
X392414Y-434340D02*
X685800D01*
X0D02*
X285258D01*
X670560Y-429260D02*
X685800Y-434340D01*
X670560Y-439420D02*
X685800Y-434340D01*
X0D02*
X15240Y-439420D01*
X0Y-434340D02*
X15240Y-429260D01*
X-556260Y533400D02*
X-7620D01*
X-556260Y0D02*
X-7620D01*
X-553720Y314944D02*
Y533400D01*
Y0D02*
Y210328D01*
X-558800Y518160D02*
X-553720Y533400D01*
X-548640Y518160D01*
X-553720Y0D02*
X-548640Y15240D01*
X-558800D02*
X-553720Y0D01*
D12*
X196189Y674133D02*
Y689128D01*
X201188Y684129D01*
X206186Y689128D01*
Y674133D01*
X218682D02*
X213684D01*
X211185Y676632D01*
Y681630D01*
X213684Y684129D01*
X218682D01*
X221181Y681630D01*
Y679131D01*
X211185D01*
X236176Y684129D02*
X228679D01*
X226180Y681630D01*
Y676632D01*
X228679Y674133D01*
X236176D01*
X241175Y689128D02*
Y674133D01*
Y681630D01*
X243674Y684129D01*
X248673D01*
X251172Y681630D01*
Y674133D01*
X258669Y684129D02*
X263668D01*
X266167Y681630D01*
Y674133D01*
X258669D01*
X256170Y676632D01*
X258669Y679131D01*
X266167D01*
X271165Y674133D02*
Y684129D01*
X278663D01*
X281162Y681630D01*
Y674133D01*
X286160D02*
X291159D01*
X288659D01*
Y684129D01*
X286160D01*
X308653D02*
X301155D01*
X298656Y681630D01*
Y676632D01*
X301155Y674133D01*
X308653D01*
X316151Y684129D02*
X321149D01*
X323648Y681630D01*
Y674133D01*
X316151D01*
X313651Y676632D01*
X316151Y679131D01*
X323648D01*
X328647Y674133D02*
X333645D01*
X331146D01*
Y689128D01*
X328647D01*
X356138D02*
Y674133D01*
X363635D01*
X366134Y676632D01*
Y686628D01*
X363635Y689128D01*
X356138D01*
X371133Y684129D02*
Y674133D01*
Y679131D01*
X373632Y681630D01*
X376131Y684129D01*
X378630D01*
X388627D02*
X393625D01*
X396125Y681630D01*
Y674133D01*
X388627D01*
X386128Y676632D01*
X388627Y679131D01*
X396125D01*
X401123Y684129D02*
Y676632D01*
X403622Y674133D01*
X406121Y676632D01*
X408621Y674133D01*
X411120Y676632D01*
Y684129D01*
X416118Y674133D02*
X421117D01*
X418617D01*
Y684129D01*
X416118D01*
X428614Y674133D02*
Y684129D01*
X436112D01*
X438611Y681630D01*
Y674133D01*
X448608Y669134D02*
X451107D01*
X453606Y671633D01*
Y684129D01*
X446109D01*
X443609Y681630D01*
Y676632D01*
X446109Y674133D01*
X453606D01*
X476099D02*
X481097D01*
X483596Y676632D01*
Y681630D01*
X481097Y684129D01*
X476099D01*
X473600Y681630D01*
Y676632D01*
X476099Y674133D01*
X491094D02*
Y686628D01*
Y681630D01*
X488595D01*
X493593D01*
X491094D01*
Y686628D01*
X493593Y689128D01*
X196189Y641540D02*
Y651537D01*
X201188Y656535D01*
X206186Y651537D01*
Y641540D01*
Y649038D01*
X196189D01*
X211185Y651537D02*
Y641540D01*
Y646538D01*
X213684Y649038D01*
X216183Y651537D01*
X218682D01*
X236176Y656535D02*
Y641540D01*
X228679D01*
X226180Y644039D01*
Y649038D01*
X228679Y651537D01*
X236176D01*
X241175D02*
Y644039D01*
X243674Y641540D01*
X251172D01*
Y651537D01*
X256170Y641540D02*
X261168D01*
X258669D01*
Y651537D01*
X256170D01*
X268666Y641540D02*
Y651537D01*
X276164D01*
X278663Y649038D01*
Y641540D01*
X286160D02*
X291159D01*
X293658Y644039D01*
Y649038D01*
X291159Y651537D01*
X286160D01*
X283661Y649038D01*
Y644039D01*
X286160Y641540D01*
X313651Y656535D02*
Y644039D01*
X316151Y641540D01*
X321149D01*
X323648Y644039D01*
Y656535D01*
X328647Y641540D02*
Y656535D01*
X338643Y641540D01*
Y656535D01*
X351139D02*
X346141D01*
X343642Y654036D01*
Y644039D01*
X346141Y641540D01*
X351139D01*
X353638Y644039D01*
Y654036D01*
X351139Y656535D01*
X373632Y641540D02*
Y656535D01*
X381130D01*
X383629Y654036D01*
Y649038D01*
X381130Y646538D01*
X373632D01*
X378630D02*
X383629Y641540D01*
X388627Y654036D02*
X391126Y656535D01*
X396125D01*
X398624Y654036D01*
Y651537D01*
X396125Y649038D01*
X393625D01*
X396125D01*
X398624Y646538D01*
Y644039D01*
X396125Y641540D01*
X391126D01*
X388627Y644039D01*
X-527023Y-171464D02*
X-529522Y-168965D01*
X-534521D01*
X-537020Y-171464D01*
Y-173963D01*
X-534521Y-176462D01*
X-529522D01*
X-527023Y-178962D01*
Y-181461D01*
X-529522Y-183960D01*
X-534521D01*
X-537020Y-181461D01*
X-512028Y-173963D02*
X-519526D01*
X-522025Y-176462D01*
Y-181461D01*
X-519526Y-183960D01*
X-512028D01*
X-504530Y-173963D02*
X-499532D01*
X-497033Y-176462D01*
Y-183960D01*
X-504530D01*
X-507030Y-181461D01*
X-504530Y-178962D01*
X-497033D01*
X-492035Y-183960D02*
X-487036D01*
X-489535D01*
Y-168965D01*
X-492035D01*
X-472041Y-183960D02*
X-477039D01*
X-479539Y-181461D01*
Y-176462D01*
X-477039Y-173963D01*
X-472041D01*
X-469542Y-176462D01*
Y-178962D01*
X-479539D01*
X-464543Y-173963D02*
X-462044D01*
Y-176462D01*
X-464543D01*
Y-173963D01*
Y-181461D02*
X-462044D01*
Y-183960D01*
X-464543D01*
Y-181461D01*
X-437052Y-183960D02*
X-432054D01*
X-434553D01*
Y-168965D01*
X-437052Y-171464D01*
X-424556Y-173963D02*
X-422057D01*
Y-176462D01*
X-424556D01*
Y-173963D01*
Y-181461D02*
X-422057D01*
Y-183960D01*
X-424556D01*
Y-181461D01*
X-412060Y-183960D02*
X-407062D01*
X-409561D01*
Y-168965D01*
X-412060Y-171464D01*
X-534480Y-128325D02*
Y-140821D01*
X-531981Y-143320D01*
X-526982D01*
X-524483Y-140821D01*
Y-128325D01*
X-519485Y-143320D02*
Y-133323D01*
X-511987D01*
X-509488Y-135822D01*
Y-143320D01*
X-504490D02*
X-499491D01*
X-501991D01*
Y-133323D01*
X-504490D01*
X-489495Y-130824D02*
Y-133323D01*
X-491994D01*
X-486995D01*
X-489495D01*
Y-140821D01*
X-486995Y-143320D01*
X-479498D02*
X-472000D01*
X-469501Y-140821D01*
X-472000Y-138322D01*
X-476999D01*
X-479498Y-135822D01*
X-476999Y-133323D01*
X-469501D01*
X-464503D02*
X-462004D01*
Y-135822D01*
X-464503D01*
Y-133323D01*
Y-140821D02*
X-462004D01*
Y-143320D01*
X-464503D01*
Y-140821D01*
X-437011Y-143320D02*
Y-133323D01*
X-434512D01*
X-432013Y-135822D01*
Y-143320D01*
Y-135822D01*
X-429514Y-133323D01*
X-427015Y-135822D01*
Y-143320D01*
X-422016D02*
X-417018D01*
X-419517D01*
Y-133323D01*
X-422016D01*
X-409520Y-143320D02*
X-404522D01*
X-407021D01*
Y-128325D01*
X-409520D01*
X-397024Y-143320D02*
X-389527D01*
X-387028Y-140821D01*
X-389527Y-138322D01*
X-394525D01*
X-397024Y-135822D01*
X-394525Y-133323D01*
X-387028D01*
X423100Y656535D02*
Y646538D01*
X428098Y641540D01*
X433097Y646538D01*
Y656535D01*
X438095Y641540D02*
X443093D01*
X440594D01*
Y656535D01*
X438095Y654036D01*
X450591Y656535D02*
Y641540D01*
X458089D02*
X463087D01*
X460588D01*
Y656535D01*
X458089Y654036D01*
D69*
X2616200Y-2313940D02*
Y-1780540D01*
Y-2313940D02*
X3302000D01*
Y-1780540D01*
X2616200D02*
X3302000D01*
D86*
X663700Y355600D02*
G03*
X663700Y355600I-16000J0D01*
G01*
Y81280D02*
G03*
X663700Y81280I-16000J0D01*
G01*
X164787Y26275D02*
G03*
X164787Y26275I-16000J0D01*
G01*
X147007Y506335D02*
G03*
X147007Y506335I-16000J0D01*
G01*
X0Y0D02*
Y533400D01*
Y0D02*
X685800D01*
Y533400D01*
X0D02*
X685800D01*
D87*
X-175260Y81000D02*
D03*
D88*
X-178814Y83540D02*
X-181353Y86079D01*
Y91158D01*
X-178814Y93697D01*
X-176275D01*
X-173736Y91158D01*
Y88618D01*
Y91158D01*
X-171197Y93697D01*
X-168658D01*
X-166119Y91158D01*
Y86079D01*
X-168658Y83540D01*
X-166119Y98775D02*
Y103853D01*
Y101314D01*
X-181353D01*
X-178814Y98775D01*
Y111471D02*
X-181353Y114010D01*
Y119088D01*
X-178814Y121628D01*
X-176275D01*
X-173736Y119088D01*
X-171197Y121628D01*
X-168658D01*
X-166119Y119088D01*
Y114010D01*
X-168658Y111471D01*
X-171197D01*
X-173736Y114010D01*
X-176275Y111471D01*
X-178814D01*
X-173736Y114010D02*
Y119088D01*
X-166119Y126706D02*
X-168658D01*
Y129245D01*
X-166119D01*
Y126706D01*
X-168658Y139402D02*
X-166119Y141941D01*
Y147019D01*
X-168658Y149559D01*
X-178814D01*
X-181353Y147019D01*
Y141941D01*
X-178814Y139402D01*
X-176275D01*
X-173736Y141941D01*
Y149559D01*
X-178814Y154637D02*
X-181353Y157176D01*
Y162255D01*
X-178814Y164794D01*
X-168658D01*
X-166119Y162255D01*
Y157176D01*
X-168658Y154637D01*
X-178814D01*
X-270259Y125492D02*
Y130570D01*
Y128031D01*
X-285494D01*
X-282954Y125492D01*
X-270259Y145805D02*
X-285494D01*
X-277876Y138188D01*
Y148344D01*
X-282954Y153423D02*
X-285494Y155962D01*
Y161040D01*
X-282954Y163579D01*
X-272798D01*
X-270259Y161040D01*
Y155962D01*
X-272798Y153423D01*
X-282954D01*
Y168658D02*
X-285494Y171197D01*
Y176275D01*
X-282954Y178814D01*
X-272798D01*
X-270259Y176275D01*
Y171197D01*
X-272798Y168658D01*
X-282954D01*
X-270259Y183893D02*
X-272798D01*
Y186432D01*
X-270259D01*
Y183893D01*
X-282954Y196589D02*
X-285494Y199128D01*
Y204206D01*
X-282954Y206745D01*
X-272798D01*
X-270259Y204206D01*
Y199128D01*
X-272798Y196589D01*
X-282954D01*
Y211824D02*
X-285494Y214363D01*
Y219441D01*
X-282954Y221980D01*
X-272798D01*
X-270259Y219441D01*
Y214363D01*
X-272798Y211824D01*
X-282954D01*
X-430279Y182192D02*
Y187270D01*
Y184731D01*
X-445513D01*
X-442974Y182192D01*
Y194888D02*
X-445513Y197427D01*
Y202505D01*
X-442974Y205044D01*
X-440435D01*
X-437896Y202505D01*
X-435357Y205044D01*
X-432818D01*
X-430279Y202505D01*
Y197427D01*
X-432818Y194888D01*
X-435357D01*
X-437896Y197427D01*
X-440435Y194888D01*
X-442974D01*
X-437896Y197427D02*
Y202505D01*
X-430279Y217740D02*
X-445513D01*
X-437896Y210123D01*
Y220279D01*
X-445513Y235514D02*
X-442974Y230436D01*
X-437896Y225358D01*
X-432818D01*
X-430279Y227897D01*
Y232975D01*
X-432818Y235514D01*
X-435357D01*
X-437896Y232975D01*
Y225358D01*
X-430279Y240593D02*
X-432818D01*
Y243132D01*
X-430279D01*
Y240593D01*
Y260906D02*
X-445513D01*
X-437896Y253289D01*
Y263445D01*
X-445513Y278680D02*
X-442974Y273602D01*
X-437896Y268524D01*
X-432818D01*
X-430279Y271063D01*
Y276141D01*
X-432818Y278680D01*
X-435357D01*
X-437896Y276141D01*
Y268524D01*
X-488699Y201961D02*
Y207040D01*
Y204500D01*
X-503933D01*
X-501394Y201961D01*
X-491238Y214657D02*
X-488699Y217196D01*
Y222275D01*
X-491238Y224814D01*
X-501394D01*
X-503933Y222275D01*
Y217196D01*
X-501394Y214657D01*
X-498855D01*
X-496316Y217196D01*
Y224814D01*
X-491238Y229892D02*
X-488699Y232431D01*
Y237510D01*
X-491238Y240049D01*
X-501394D01*
X-503933Y237510D01*
Y232431D01*
X-501394Y229892D01*
X-498855D01*
X-496316Y232431D01*
Y240049D01*
X-488699Y255284D02*
Y245127D01*
X-498855Y255284D01*
X-501394D01*
X-503933Y252745D01*
Y247666D01*
X-501394Y245127D01*
X-488699Y260362D02*
X-491238D01*
Y262901D01*
X-488699D01*
Y260362D01*
Y273058D02*
Y278137D01*
Y275597D01*
X-503933D01*
X-501394Y273058D01*
Y285754D02*
X-503933Y288293D01*
Y293372D01*
X-501394Y295911D01*
X-498855D01*
X-496316Y293372D01*
Y290832D01*
Y293372D01*
X-493777Y295911D01*
X-491238D01*
X-488699Y293372D01*
Y288293D01*
X-491238Y285754D01*
X-387099Y181650D02*
Y186729D01*
Y184190D01*
X-402333D01*
X-399794Y181650D01*
Y194346D02*
X-402333Y196886D01*
Y201964D01*
X-399794Y204503D01*
X-397255D01*
X-394716Y201964D01*
X-392177Y204503D01*
X-389638D01*
X-387099Y201964D01*
Y196886D01*
X-389638Y194346D01*
X-392177D01*
X-394716Y196886D01*
X-397255Y194346D01*
X-399794D01*
X-394716Y196886D02*
Y201964D01*
X-387099Y209581D02*
Y214660D01*
Y212120D01*
X-402333D01*
X-399794Y209581D01*
X-387099Y232434D02*
Y222277D01*
X-397255Y232434D01*
X-399794D01*
X-402333Y229895D01*
Y224816D01*
X-399794Y222277D01*
X-387099Y237512D02*
X-389638D01*
Y240051D01*
X-387099D01*
Y237512D01*
Y260365D02*
Y250208D01*
X-397255Y260365D01*
X-399794D01*
X-402333Y257826D01*
Y252747D01*
X-399794Y250208D01*
X-387099Y265443D02*
Y270522D01*
Y267982D01*
X-402333D01*
X-399794Y265443D01*
X-351539Y141342D02*
Y146420D01*
Y143881D01*
X-366773D01*
X-364234Y141342D01*
X-366773Y164194D02*
Y154038D01*
X-359156D01*
X-361695Y159116D01*
Y161655D01*
X-359156Y164194D01*
X-354078D01*
X-351539Y161655D01*
Y156577D01*
X-354078Y154038D01*
X-351539Y179429D02*
Y169273D01*
X-361695Y179429D01*
X-364234D01*
X-366773Y176890D01*
Y171812D01*
X-364234Y169273D01*
X-351539Y192125D02*
X-366773D01*
X-359156Y184508D01*
Y194664D01*
X-351539Y199743D02*
X-354078D01*
Y202282D01*
X-351539D01*
Y199743D01*
X-364234Y212439D02*
X-366773Y214978D01*
Y220056D01*
X-364234Y222595D01*
X-361695D01*
X-359156Y220056D01*
X-356617Y222595D01*
X-354078D01*
X-351539Y220056D01*
Y214978D01*
X-354078Y212439D01*
X-356617D01*
X-359156Y214978D01*
X-361695Y212439D01*
X-364234D01*
X-359156Y214978D02*
Y220056D01*
X-364234Y227674D02*
X-366773Y230213D01*
Y235291D01*
X-364234Y237830D01*
X-354078D01*
X-351539Y235291D01*
Y230213D01*
X-354078Y227674D01*
X-364234D01*
X-313438Y128961D02*
Y134039D01*
Y131500D01*
X-328674D01*
X-326134Y128961D01*
X-313438Y149275D02*
X-328674D01*
X-321056Y141657D01*
Y151814D01*
X-313438Y156892D02*
Y161971D01*
Y159431D01*
X-328674D01*
X-326134Y156892D01*
X-328674Y169588D02*
Y179745D01*
X-326134D01*
X-315978Y169588D01*
X-313438D01*
Y184823D02*
X-315978D01*
Y187362D01*
X-313438D01*
Y184823D01*
X-326134Y197519D02*
X-328674Y200058D01*
Y205137D01*
X-326134Y207676D01*
X-323595D01*
X-321056Y205137D01*
Y202597D01*
Y205137D01*
X-318517Y207676D01*
X-315978D01*
X-313438Y205137D01*
Y200058D01*
X-315978Y197519D01*
X-313438Y222911D02*
Y212754D01*
X-323595Y222911D01*
X-326134D01*
X-328674Y220372D01*
Y215293D01*
X-326134Y212754D01*
X-239778Y72309D02*
X-237239Y74848D01*
Y79927D01*
X-239778Y82466D01*
X-249934D01*
X-252474Y79927D01*
Y74848D01*
X-249934Y72309D01*
X-247395D01*
X-244856Y74848D01*
Y82466D01*
X-237239Y97701D02*
Y87544D01*
X-247395Y97701D01*
X-249934D01*
X-252474Y95162D01*
Y90083D01*
X-249934Y87544D01*
X-237239Y102779D02*
Y107858D01*
Y105318D01*
X-252474D01*
X-249934Y102779D01*
X-237239Y115475D02*
X-239778D01*
Y118014D01*
X-237239D01*
Y115475D01*
Y138328D02*
Y128171D01*
X-247395Y138328D01*
X-249934D01*
X-252474Y135789D01*
Y130710D01*
X-249934Y128171D01*
X-252474Y153563D02*
X-249934Y148484D01*
X-244856Y143406D01*
X-239778D01*
X-237239Y145945D01*
Y151024D01*
X-239778Y153563D01*
X-242317D01*
X-244856Y151024D01*
Y143406D01*
X-216914Y49466D02*
X-214374Y44387D01*
X-209296Y39309D01*
X-204218D01*
X-201679Y41848D01*
Y46927D01*
X-204218Y49466D01*
X-206757D01*
X-209296Y46927D01*
Y39309D01*
X-216914Y64701D02*
X-214374Y59623D01*
X-209296Y54544D01*
X-204218D01*
X-201679Y57083D01*
Y62162D01*
X-204218Y64701D01*
X-206757D01*
X-209296Y62162D01*
Y54544D01*
X-201679Y69779D02*
Y74858D01*
Y72319D01*
X-216914D01*
X-214374Y69779D01*
X-201679Y82475D02*
X-204218D01*
Y85014D01*
X-201679D01*
Y82475D01*
Y102789D02*
X-216914D01*
X-209296Y95171D01*
Y105328D01*
X-201679Y120563D02*
Y110406D01*
X-211835Y120563D01*
X-214374D01*
X-216914Y118024D01*
Y112945D01*
X-214374Y110406D01*
X-122938Y53940D02*
Y59018D01*
Y56479D01*
X-138174D01*
X-135634Y53940D01*
Y66636D02*
X-138174Y69175D01*
Y74253D01*
X-135634Y76793D01*
X-125478D01*
X-122938Y74253D01*
Y69175D01*
X-125478Y66636D01*
X-135634D01*
X-122938Y92028D02*
Y81871D01*
X-133095Y92028D01*
X-135634D01*
X-138174Y89488D01*
Y84410D01*
X-135634Y81871D01*
X-122938Y97106D02*
X-125478D01*
Y99645D01*
X-122938D01*
Y97106D01*
X-135634Y109802D02*
X-138174Y112341D01*
Y117420D01*
X-135634Y119959D01*
X-133095D01*
X-130556Y117420D01*
Y114880D01*
Y117420D01*
X-128017Y119959D01*
X-125478D01*
X-122938Y117420D01*
Y112341D01*
X-125478Y109802D01*
X-138174Y135194D02*
X-135634Y130115D01*
X-130556Y125037D01*
X-125478D01*
X-122938Y127576D01*
Y132654D01*
X-125478Y135194D01*
X-128017D01*
X-130556Y132654D01*
Y125037D01*
X283118Y-395221D02*
X272961D01*
X283118Y-385065D01*
Y-382526D01*
X280579Y-379986D01*
X275500D01*
X272961Y-382526D01*
X298353Y-379986D02*
X288196D01*
Y-387604D01*
X293275Y-385065D01*
X295814D01*
X298353Y-387604D01*
Y-392682D01*
X295814Y-395221D01*
X290735D01*
X288196Y-392682D01*
X313588Y-379986D02*
X303431D01*
Y-387604D01*
X308510Y-385065D01*
X311049D01*
X313588Y-387604D01*
Y-392682D01*
X311049Y-395221D01*
X305970D01*
X303431Y-392682D01*
X318666Y-395221D02*
X323745D01*
X321206D01*
Y-379986D01*
X318666Y-382526D01*
X331362Y-395221D02*
Y-392682D01*
X333901D01*
Y-395221D01*
X331362D01*
X344058D02*
X349137D01*
X346597D01*
Y-379986D01*
X344058Y-382526D01*
X356754D02*
X359293Y-379986D01*
X364372D01*
X366911Y-382526D01*
Y-385065D01*
X364372Y-387604D01*
X366911Y-390143D01*
Y-392682D01*
X364372Y-395221D01*
X359293D01*
X356754Y-392682D01*
Y-390143D01*
X359293Y-387604D01*
X356754Y-385065D01*
Y-382526D01*
X359293Y-387604D02*
X364372D01*
X30236Y-103126D02*
X20080D01*
Y-110744D01*
X25158Y-108205D01*
X27697D01*
X30236Y-110744D01*
Y-115822D01*
X27697Y-118362D01*
X22619D01*
X20080Y-115822D01*
X45471Y-118362D02*
X35315D01*
X45471Y-108205D01*
Y-105666D01*
X42932Y-103126D01*
X37854D01*
X35315Y-105666D01*
X50550D02*
X53089Y-103126D01*
X58167D01*
X60706Y-105666D01*
Y-115822D01*
X58167Y-118362D01*
X53089D01*
X50550Y-115822D01*
Y-105666D01*
X65785Y-118362D02*
Y-115822D01*
X68324D01*
Y-118362D01*
X65785D01*
X78481Y-105666D02*
X81020Y-103126D01*
X86098D01*
X88637Y-105666D01*
Y-115822D01*
X86098Y-118362D01*
X81020D01*
X78481Y-115822D01*
Y-105666D01*
X93716D02*
X96255Y-103126D01*
X101333D01*
X103872Y-105666D01*
Y-115822D01*
X101333Y-118362D01*
X96255D01*
X93716Y-115822D01*
Y-105666D01*
X274079Y-354581D02*
X263922D01*
X274079Y-344425D01*
Y-341886D01*
X271539Y-339347D01*
X266461D01*
X263922Y-341886D01*
X289314Y-339347D02*
X279157D01*
Y-346964D01*
X284235Y-344425D01*
X286775D01*
X289314Y-346964D01*
Y-352042D01*
X286775Y-354581D01*
X281696D01*
X279157Y-352042D01*
X294392Y-341886D02*
X296931Y-339347D01*
X302010D01*
X304549Y-341886D01*
Y-352042D01*
X302010Y-354581D01*
X296931D01*
X294392Y-352042D01*
Y-341886D01*
X309627D02*
X312166Y-339347D01*
X317245D01*
X319784Y-341886D01*
Y-352042D01*
X317245Y-354581D01*
X312166D01*
X309627Y-352042D01*
Y-341886D01*
X324862Y-354581D02*
Y-352042D01*
X327402D01*
Y-354581D01*
X324862D01*
X337558Y-341886D02*
X340097Y-339347D01*
X345176D01*
X347715Y-341886D01*
Y-352042D01*
X345176Y-354581D01*
X340097D01*
X337558Y-352042D01*
Y-341886D01*
X352793D02*
X355332Y-339347D01*
X360411D01*
X362950Y-341886D01*
Y-352042D01*
X360411Y-354581D01*
X355332D01*
X352793Y-352042D01*
Y-341886D01*
X155972Y-270762D02*
X161050D01*
X158511D01*
Y-255527D01*
X155972Y-258066D01*
X178824Y-255527D02*
X173746Y-258066D01*
X168668Y-263144D01*
Y-268222D01*
X171207Y-270762D01*
X176285D01*
X178824Y-268222D01*
Y-265683D01*
X176285Y-263144D01*
X168668D01*
X191520Y-270762D02*
Y-255527D01*
X183903Y-263144D01*
X194059D01*
X199138Y-258066D02*
X201677Y-255527D01*
X206755D01*
X209294Y-258066D01*
Y-268222D01*
X206755Y-270762D01*
X201677D01*
X199138Y-268222D01*
Y-258066D01*
X214373Y-270762D02*
Y-268222D01*
X216912D01*
Y-270762D01*
X214373D01*
X227069Y-258066D02*
X229608Y-255527D01*
X234686D01*
X237225Y-258066D01*
Y-268222D01*
X234686Y-270762D01*
X229608D01*
X227069Y-268222D01*
Y-258066D01*
X242304D02*
X244843Y-255527D01*
X249921D01*
X252460Y-258066D01*
Y-268222D01*
X249921Y-270762D01*
X244843D01*
X242304Y-268222D01*
Y-258066D01*
X210579Y-313941D02*
X200422D01*
X210579Y-303785D01*
Y-301246D01*
X208039Y-298706D01*
X202961D01*
X200422Y-301246D01*
X215657D02*
X218196Y-298706D01*
X223275D01*
X225814Y-301246D01*
Y-311402D01*
X223275Y-313941D01*
X218196D01*
X215657Y-311402D01*
Y-301246D01*
X230892D02*
X233431Y-298706D01*
X238510D01*
X241049Y-301246D01*
Y-311402D01*
X238510Y-313941D01*
X233431D01*
X230892Y-311402D01*
Y-301246D01*
X246127D02*
X248666Y-298706D01*
X253745D01*
X256284Y-301246D01*
Y-311402D01*
X253745Y-313941D01*
X248666D01*
X246127Y-311402D01*
Y-301246D01*
X261362Y-313941D02*
Y-311402D01*
X263902D01*
Y-313941D01*
X261362D01*
X274058Y-301246D02*
X276597Y-298706D01*
X281676D01*
X284215Y-301246D01*
Y-311402D01*
X281676Y-313941D01*
X276597D01*
X274058Y-311402D01*
Y-301246D01*
X289293D02*
X291832Y-298706D01*
X296911D01*
X299450Y-301246D01*
Y-311402D01*
X296911Y-313941D01*
X291832D01*
X289293Y-311402D01*
Y-301246D01*
X88661Y-232661D02*
X93740D01*
X91200D01*
Y-217426D01*
X88661Y-219966D01*
X101357Y-232661D02*
X106435D01*
X103896D01*
Y-217426D01*
X101357Y-219966D01*
X114053D02*
X116592Y-217426D01*
X121671D01*
X124210Y-219966D01*
Y-230122D01*
X121671Y-232661D01*
X116592D01*
X114053Y-230122D01*
Y-219966D01*
X129288D02*
X131827Y-217426D01*
X136906D01*
X139445Y-219966D01*
Y-230122D01*
X136906Y-232661D01*
X131827D01*
X129288Y-230122D01*
Y-219966D01*
X144523Y-232661D02*
Y-230122D01*
X147062D01*
Y-232661D01*
X144523D01*
X157219Y-219966D02*
X159758Y-217426D01*
X164837D01*
X167376Y-219966D01*
Y-230122D01*
X164837Y-232661D01*
X159758D01*
X157219Y-230122D01*
Y-219966D01*
X172454D02*
X174993Y-217426D01*
X180072D01*
X182611Y-219966D01*
Y-230122D01*
X180072Y-232661D01*
X174993D01*
X172454Y-230122D01*
Y-219966D01*
X49286Y-179326D02*
X44208Y-181866D01*
X39130Y-186944D01*
Y-192022D01*
X41669Y-194562D01*
X46747D01*
X49286Y-192022D01*
Y-189483D01*
X46747Y-186944D01*
X39130D01*
X54365Y-179326D02*
X64521D01*
Y-181866D01*
X54365Y-192022D01*
Y-194562D01*
X69600Y-181866D02*
X72139Y-179326D01*
X77217D01*
X79756Y-181866D01*
Y-192022D01*
X77217Y-194562D01*
X72139D01*
X69600Y-192022D01*
Y-181866D01*
X84835Y-194562D02*
Y-192022D01*
X87374D01*
Y-194562D01*
X84835D01*
X97531Y-181866D02*
X100070Y-179326D01*
X105148D01*
X107687Y-181866D01*
Y-192022D01*
X105148Y-194562D01*
X100070D01*
X97531Y-192022D01*
Y-181866D01*
X112766D02*
X115305Y-179326D01*
X120383D01*
X122922Y-181866D01*
Y-192022D01*
X120383Y-194562D01*
X115305D01*
X112766Y-192022D01*
Y-181866D01*
X39126Y-141227D02*
X28970D01*
Y-148844D01*
X34048Y-146305D01*
X36587D01*
X39126Y-148844D01*
Y-153922D01*
X36587Y-156461D01*
X31509D01*
X28970Y-153922D01*
X44205D02*
X46744Y-156461D01*
X51822D01*
X54361Y-153922D01*
Y-143766D01*
X51822Y-141227D01*
X46744D01*
X44205Y-143766D01*
Y-146305D01*
X46744Y-148844D01*
X54361D01*
X59440Y-143766D02*
X61979Y-141227D01*
X67057D01*
X69596Y-143766D01*
Y-153922D01*
X67057Y-156461D01*
X61979D01*
X59440Y-153922D01*
Y-143766D01*
X74675Y-156461D02*
Y-153922D01*
X77214D01*
Y-156461D01*
X74675D01*
X87371Y-143766D02*
X89910Y-141227D01*
X94988D01*
X97527Y-143766D01*
Y-153922D01*
X94988Y-156461D01*
X89910D01*
X87371Y-153922D01*
Y-143766D01*
X102606D02*
X105145Y-141227D01*
X110223D01*
X112762Y-143766D01*
Y-153922D01*
X110223Y-156461D01*
X105145D01*
X102606Y-153922D01*
Y-143766D01*
X-112242Y-82802D02*
X-107163D01*
X-109703D01*
Y-67566D01*
X-112242Y-70106D01*
X-99546D02*
X-97007Y-67566D01*
X-91928D01*
X-89389Y-70106D01*
Y-80262D01*
X-91928Y-82802D01*
X-97007D01*
X-99546Y-80262D01*
Y-70106D01*
X-84311D02*
X-81772Y-67566D01*
X-76693D01*
X-74154Y-70106D01*
Y-80262D01*
X-76693Y-82802D01*
X-81772D01*
X-84311Y-80262D01*
Y-70106D01*
X-69076Y-82802D02*
Y-80262D01*
X-66536D01*
Y-82802D01*
X-69076D01*
X-56380Y-70106D02*
X-53841Y-67566D01*
X-48762D01*
X-46223Y-70106D01*
Y-80262D01*
X-48762Y-82802D01*
X-53841D01*
X-56380Y-80262D01*
Y-70106D01*
X-41145D02*
X-38605Y-67566D01*
X-33527D01*
X-30988Y-70106D01*
Y-80262D01*
X-33527Y-82802D01*
X-38605D01*
X-41145Y-80262D01*
Y-70106D01*
X-99546Y-21846D02*
X-97007Y-19306D01*
X-91928D01*
X-89389Y-21846D01*
Y-24385D01*
X-91928Y-26924D01*
X-89389Y-29463D01*
Y-32002D01*
X-91928Y-34541D01*
X-97007D01*
X-99546Y-32002D01*
Y-29463D01*
X-97007Y-26924D01*
X-99546Y-24385D01*
Y-21846D01*
X-97007Y-26924D02*
X-91928D01*
X-84311Y-21846D02*
X-81772Y-19306D01*
X-76693D01*
X-74154Y-21846D01*
Y-32002D01*
X-76693Y-34541D01*
X-81772D01*
X-84311Y-32002D01*
Y-21846D01*
X-69076Y-34541D02*
Y-32002D01*
X-66536D01*
Y-34541D01*
X-69076D01*
X-56380Y-21846D02*
X-53841Y-19306D01*
X-48762D01*
X-46223Y-21846D01*
Y-32002D01*
X-48762Y-34541D01*
X-53841D01*
X-56380Y-32002D01*
Y-21846D01*
X-41145D02*
X-38605Y-19306D01*
X-33527D01*
X-30988Y-21846D01*
Y-32002D01*
X-33527Y-34541D01*
X-38605D01*
X-41145Y-32002D01*
Y-21846D01*
X299479Y-443481D02*
X289322D01*
X299479Y-433325D01*
Y-430786D01*
X296940Y-428246D01*
X291861D01*
X289322Y-430786D01*
X304557Y-428246D02*
X314714D01*
Y-430786D01*
X304557Y-440942D01*
Y-443481D01*
X319792Y-430786D02*
X322331Y-428246D01*
X327410D01*
X329949Y-430786D01*
Y-440942D01*
X327410Y-443481D01*
X322331D01*
X319792Y-440942D01*
Y-430786D01*
X335027D02*
X337566Y-428246D01*
X342645D01*
X345184Y-430786D01*
Y-440942D01*
X342645Y-443481D01*
X337566D01*
X335027Y-440942D01*
Y-430786D01*
X350262Y-443481D02*
Y-440942D01*
X352802D01*
Y-443481D01*
X350262D01*
X362958Y-430786D02*
X365497Y-428246D01*
X370576D01*
X373115Y-430786D01*
Y-440942D01*
X370576Y-443481D01*
X365497D01*
X362958Y-440942D01*
Y-430786D01*
X378193D02*
X380732Y-428246D01*
X385811D01*
X388350Y-430786D01*
Y-440942D01*
X385811Y-443481D01*
X380732D01*
X378193Y-440942D01*
Y-430786D01*
X-544579Y224548D02*
Y214392D01*
X-554735Y224548D01*
X-557274D01*
X-559813Y222009D01*
Y216931D01*
X-557274Y214392D01*
X-544579Y229627D02*
Y234705D01*
Y232166D01*
X-559813D01*
X-557274Y229627D01*
Y242323D02*
X-559813Y244862D01*
Y249940D01*
X-557274Y252479D01*
X-547118D01*
X-544579Y249940D01*
Y244862D01*
X-547118Y242323D01*
X-557274D01*
Y257558D02*
X-559813Y260097D01*
Y265175D01*
X-557274Y267714D01*
X-547118D01*
X-544579Y265175D01*
Y260097D01*
X-547118Y257558D01*
X-557274D01*
X-544579Y272793D02*
X-547118D01*
Y275332D01*
X-544579D01*
Y272793D01*
X-557274Y285489D02*
X-559813Y288028D01*
Y293106D01*
X-557274Y295645D01*
X-547118D01*
X-544579Y293106D01*
Y288028D01*
X-547118Y285489D01*
X-557274D01*
Y300724D02*
X-559813Y303263D01*
Y308341D01*
X-557274Y310880D01*
X-547118D01*
X-544579Y308341D01*
Y303263D01*
X-547118Y300724D01*
X-557274D01*
M02*
